<?xml version="1.0" standalone="no"?>
<!DOCTYPE svg PUBLIC "-//W3C//DTD SVG 1.1//EN" "http://www.w3.org/Graphics/SVG/1.1/DTD/svg11.dtd" >
<svg xmlns="http://www.w3.org/2000/svg" xmlns:xlink="http://www.w3.org/1999/xlink" version="1.1">
<metadata>
Created by FontForge 20160407 at Wed Aug  3 16:55:33 2016
 By Jimmy Wärting
Copyright (c) 2012 by Brittney Murphy. All rights reserved.
</metadata>
<defs>
<font id="whateverittakes" horiz-adv-x="413" >
  <font-face 
    font-family="whatever it takes"
    font-weight="400"
    font-stretch="normal"
    units-per-em="1000"
    panose-1="0 0 0 0 0 0 0 0 0 0"
    ascent="800"
    descent="-200"
    x-height="353"
    cap-height="626"
    bbox="-120 -261 847 927"
    underline-thickness="50"
    underline-position="-100"
    unicode-range="U+0020-FB02"
  />
<missing-glyph horiz-adv-x="218" 
 />
    <glyph glyph-name=".notdef" horiz-adv-x="218" 
 />
    <glyph glyph-name="b" unicode="b" horiz-adv-x="396" 
d="M96 24q3 -2 16.5 -2.5t18.5 -0.5q2 0 17.5 1t34 2.5t34 2.5t18.5 2q6 1 14 5t14.5 8.5t11.5 8.5t6 6q1 1 3 7.5t4.5 14.5t4.5 14.5t3 8.5q2 3 8.5 9t8.5 8l7 15q1 3 2.5 10t2.5 14.5t2 14t1 8.5v7.5t0.5 15.5t0.5 18v15v14t-0.5 17t-0.5 14.5v7.5q0 2 -3 10.5t-5 12.5
t-6 13t-9 19t-9.5 18.5t-6.5 11.5q0 2 -3 5t-5 4q-2 2 -8 4.5t-7 2.5h-62q-2 -1 -5 -3.5t-3 -3.5l-31 -47q-3 -5 -7.5 -13t-10 -17t-9.5 -16t-5 -9l-8 -31q0 -1 -3 -7.5t-4 -8.5l-8 -39q0 -2 0.5 -11.5t-0.5 -11.5l-4 -4q-2 -2 -4 -3q-1 -2 0.5 -8.5t-0.5 -8.5
q0 -1 -2.5 -5.5t-5.5 -9.5t-5 -9.5t-2 -5.5q-1 -2 -0.5 -8.5t0.5 -8.5q-1 -1 -5 -7t-4 -8q0 -5 -0.5 -16t-0.5 -23t-0.5 -23t-0.5 -15h-43q-1 0 -2 4.5t-2.5 10.5t-3 12.5t-1.5 10.5q0 7 -0.5 28t-1 44.5t-1 45t-0.5 30.5v24q0 16 -0.5 53t-1 77.5t-1.5 76.5t-2 49
q0 6 -1 19t-2 28t-2 28.5t-2 18.5q2 2 7.5 8t7.5 7q1 0 5 0.5t6 0.5t7 -0.5t6 -0.5t4 -2.5t4 -4.5l-8 -8l8 -8l-8 -7l8 -8q0 -6 -0.5 -20.5t-0.5 -30.5t0.5 -30.5t0.5 -19.5q0 -2 3.5 -12t3.5 -12t-3.5 -11.5t-3.5 -11.5t3 -12t4 -12v-8q-1 -2 -4 -11.5t-3 -11.5t1 -7.5
t2.5 -12t2.5 -12t1 -7.5v-28t-1 -42t-1.5 -42t-0.5 -27h12q0 1 -0.5 3t-0.5 4q1 2 4 11.5t3 11.5v15l9 24q0 1 1 6t2.5 10t3 9.5t1.5 5.5q1 5 3.5 14t3.5 10t4.5 4t7.5 7l7.5 7.5t3.5 4.5q2 4 5 16t3 15q3 4 12 13l19 19l19 19t13 12q2 2 7.5 4.5t7.5 2.5t12 0.5t16 0.5
q5 0 15.5 -0.5t11.5 -0.5t7 -2.5t8 -4.5q4 -3 13 -9t11 -7q4 -3 12.5 -12t10.5 -12q4 -5 9.5 -13.5t10.5 -17t8.5 -15.5t3.5 -8v-147q-2 -1 -5 -4t-4 -5l-8 -38q-1 -5 -3 -13.5t-4 -10.5l-16 -23l-4 -8t-3 -7q-2 -3 -6.5 -10.5t-10 -15t-10 -13.5t-6.5 -6q-6 -2 -18 -5
t-24 -6.5t-21.5 -6t-11.5 -2.5q-1 0 -13.5 0.5t-28 2t-29 3t-15.5 3.5q-3 1 -5 2q-5 2 -6 4q-2 0 -3 1t-3 2t-3 3q-1 0 -2 4.5t-1 6.5zM48 157q-6 0 -6 -7.5t6 -7.5t6 7.5t-6 7.5zM266 32q-6 0 -6 -8t6 -8t6 8t-6 8z" />
    <glyph glyph-name="c" unicode="c" horiz-adv-x="328" 
d="M3 136q0 3 1.5 10t2.5 14.5t2.5 14t1.5 8.5l-8 8q2 0 5 2.5t3 4.5t-4 8.5t-4 8.5q-1 4 -1 8v11v11q0 4 1 8q0 2 3 8t5 8q2 1 8.5 7t7.5 8q0 2 -0.5 11.5t0.5 11.5q1 4 5.5 13.5t9.5 19.5l9.5 19t6.5 12q1 2 6.5 7.5l11.5 11.5t12 11.5t9 7.5q1 1 13 7.5t18 8.5q2 1 11 4
t13 4q1 -3 3.5 -12t3.5 -12v-4q0 -2 0.5 -3t0.5 -2t-0.5 -2t-0.5 -2v-3q-1 -1 -5.5 -3t-9.5 -4.5t-10 -4.5t-6 -3q-2 -2 -8 -12t-8 -12q-1 -1 -5.5 -6.5t-10 -12.5t-9.5 -12.5t-5 -6.5q-3 -4 -9.5 -16t-7.5 -16q-1 -3 -3 -14t-4.5 -24t-5 -24.5t-2.5 -14.5l-4 -8t-3 -8
q-1 -4 -1 -8q-1 -3 -1 -6.5v-5.5v-5t1 -6q0 -4 1 -7q0 -2 3 -8.5t4 -8.5v-3q0 -2 0.5 -2.5t0.5 -1.5q0 -2 -0.5 -2.5t-0.5 -2.5v-3q-1 -1 -3.5 -4t-3.5 -4l7 -7q1 -2 4.5 -8t7 -12.5t7 -12.5t4.5 -7t10 -6.5t14 -8.5q2 -2 8 -4.5t7 -2.5q5 -3 17.5 -6t14.5 -3h42h76
q1 2 3.5 5t3.5 4q5 2 16.5 7.5t15.5 7.5h2q1 0 1 0.5t1 0.5l2 -1h1q2 -2 4.5 -7.5t3.5 -7.5v-5v-4q-1 -5 -3.5 -13.5t-4.5 -9.5q-2 -2 -10.5 -5t-11.5 -3q-1 0 -5 4q-2 2 -3 4q-2 0 -8 -3t-8 -5v8l-8 -15h-95l-7 7l-4.5 -4.5t-3.5 -2.5h-4h-4q-4 1 -13 3t-11 4q-1 1 -3.5 4
t-3.5 4q-2 0 -6.5 1.5t-10 2.5t-10 2.5t-5.5 1.5q-2 1 -7.5 3.5t-7.5 3.5l-8 8t-7 9q-2 0 -1 3t1 4q-2 0 -5 3.5t-3 4.5q-2 2 -5 8t-3 7v15q0 1 -3.5 4.5l-4.5 4.5v8q-2 1 -4 3l-4 4l-4 8l-4 8v4v3zM136 20q-2 3 -7 -1.5t-1 -6.5t7 1t1 7zM286 362q-4 0 -13 3t-11 6
q-1 0 -4.5 3.5t-7 7.5t-7 7.5t-4.5 3.5q-2 1 -11.5 2.5t-20.5 2.5t-21 1.5t-12 0.5v38q2 0 10.5 -0.5t18.5 -1.5t18 -2t10 -1q1 -1 3.5 -8.5t4.5 -8.5q2 0 11.5 0.5t11.5 -0.5q2 0 8 -6.5t8 -8.5q1 -1 7 -3.5t8 -4.5q1 -1 4 -3.5t4 -3.5q0 -4 0.5 -15.5t0.5 -16.5
q0 -2 -6.5 -1.5t-9.5 9.5zM89 347q-5 0 -5 -8t5 -8q6 0 6 8t-6 8zM105 362q-6 0 -6 -7.5t6 -7.5q5 0 5 7.5t-5 7.5zM128 425q6 0 6 -8t-6 -8t-6 8t6 8z" />
    <glyph glyph-name="d" unicode="d" horiz-adv-x="377" 
d="M22 55q0 2 2.5 4.5t4.5 2.5q-1 1 -3.5 4t-3.5 4q0 1 0.5 7.5t-0.5 7.5q0 1 -3 4.5t-4 3.5q-2 2 -4.5 8t-2.5 8q-1 5 -1 10v16q0 5 0.5 15.5t0.5 11.5t2.5 7t4.5 9q1 1 4 3.5t3 3.5q1 3 3.5 12t4.5 19.5t4 19.5t3 11q0 2 3 4.5t4 2.5q1 2 3.5 12t3.5 12t3.5 8t3.5 7t5.5 6
l9 10l9 10t5.5 6q0 1 2.5 7.5t4.5 7.5q1 1 7 4t7 4q2 1 4 3.5t2 3.5q2 2 5 8.5t3 8.5q3 4 11.5 12t10.5 9q1 1 5.5 2t9 2.5t8.5 2.5l4 1l4.5 4.5t4.5 3.5q2 1 13.5 0.5t13.5 -0.5q2 2 5.5 8t2.5 8q1 -3 6.5 -9t8.5 -7q1 0 6.5 2.5t6.5 4.5v-15q1 2 6.5 8t7.5 7t7.5 0.5
t6.5 -0.5q3 1 8.5 4t7.5 5q0 9 0.5 32t1.5 49t2 49t2 33q0 4 1.5 10.5t2.5 12.5t2.5 10.5l1.5 4.5l13 13l3 -0.5t7.5 -1.5t8 -2t3.5 -2t2 -6.5t5 -12.5t5 -12.5t2 -6.5v-7t0.5 -13.5t0.5 -15.5v-13v-13t-0.5 -16.5t-0.5 -14.5v-7q0 -2 -0.5 -9.5t-1.5 -16t-2.5 -17
t-2.5 -12.5q-1 -3 -3 -13t-4.5 -21.5t-4.5 -21.5t-2 -12q0 -3 -0.5 -11t-0.5 -17t0.5 -16.5t0.5 -10.5q-2 0 -4.5 -3t-2.5 -6v-18v-20q0 -2 3.5 -11.5t3.5 -11.5v-11v-19.5v-19.5v-12q0 -1 3 -9.5t5 -13.5q0 -2 3 -8t3 -8t1.5 -10.5t2.5 -19.5l2 -22t1 -17v-8v-7
q0 -2 -3 -4.5t-4 -2.5l7 -8q0 -2 -3 -5l-4 -4h-4h-2q-2 1 -5 4t-3 5q-1 1 -3 7t-4 13.5t-4.5 14.5t-3.5 11q-1 5 -4 16.5t-3 13.5v32q0 1 -1 5t-2 9.5t-2 10t-1 5.5q0 3 -0.5 11t-0.5 16.5t0.5 16.5t0.5 11q-4 -1 -12 -7t-10 -8q-1 -2 -3.5 -12t-4.5 -12q-1 -3 -7 -13
t-13.5 -22t-13.5 -22t-7 -13l-4.5 -9t-7 -14.5t-7 -14.5t-4.5 -8q0 -1 -4 -5.5t-9 -9.5t-9 -9.5t-5 -5.5q-2 -2 -7.5 -12t-7.5 -12t-10.5 -4t-10.5 -4q-2 -1 -11 -11.5t-11 -11.5q0 -1 -4 -1.5t-6 -0.5t-6.5 0.5t-5.5 1.5q-2 1 -4.5 7t-1.5 8q1 -2 -2 -8t-5 -7
q-2 -2 -7.5 -3.5t-8.5 -1.5q0 2 -2.5 10t-4.5 10q0 1 -9 4t-11 4l-4 4q-2 2 -3 4h-8q-2 3 -4.5 11.5t-2.5 12.5zM37 117q1 -1 3.5 -4t3.5 -4q1 -2 3.5 -12t3.5 -12t3.5 -7.5t3.5 -7.5q2 -2 8 -11.5t6 -11.5q1 -2 1 -8t-1 -8q2 2 7.5 4.5t7.5 2.5h13q1 1 6.5 4t7.5 5q2 0 5 3
t3 5q2 1 11 7.5t11 7.5l8.5 8.5t13 14t12.5 14.5t8 10q0 1 3.5 7t4.5 7t3 4t4 3q2 3 7 12t7 12q1 1 3.5 8t2.5 8q1 1 4.5 3.5t4.5 3.5q1 2 3 8t4 8v8q1 2 3 7l4 10t4 9t3 5q1 2 10 11t10 12q1 1 0.5 7t-0.5 8q0 1 4 3.5t4 4.5q1 3 3.5 10t5 14.5t4 13.5t1.5 8q0 3 -0.5 9.5
t-1 14t-2 14t-2.5 9.5q-3 1 -11.5 4t-10.5 4h-8q-3 0 -6 0.5t-5 0.5t-5 -0.5t-5 -0.5h-6q-2 0 -7.5 -2.5t-11.5 -5.5t-11 -5t-6 -2q-2 -1 -7.5 -0.5t-6.5 0.5q-2 -1 -5 -8t-4 -9t-6 -8t-7 -7t-11.5 -3.5t-10.5 -4.5q-2 -2 -8 -8.5t-13 -14t-13 -14t-8 -9.5q-2 -2 -4.5 -11.5
t-2.5 -11.5q-1 -1 -4 -4.5t-3 -4.5q-2 0 -4.5 -6t-3.5 -8q0 -2 -3.5 -11.5t-4.5 -11.5q0 -2 -2 -5t-4 -3q0 -3 0.5 -11t0.5 -16.5t-0.5 -16t-0.5 -10.5q0 -4 -3 -13t-4 -11t-6.5 -7.5t-7.5 -6.5zM80 317q-6 0 -6 -8t6 -8q5 0 5 8t-5 8zM158 363q-6 0 -6 -7.5t6 -7.5
q5 0 5 7.5t-5 7.5zM313 462l11 17v86h-11v-103zM314 603q-1 1 -1.5 -2t-0.5 -6.5t0.5 -6t1.5 -0.5q4 2 4 7.5t-4 7.5z" />
    <glyph glyph-name="e" unicode="e" horiz-adv-x="374" 
d="M81 19q-3 0 -9 -2t-8 -2q-1 2 -3 4l-3 3q-1 1 -1 2q-2 0 -8 1t-8 1v17q-2 0 -4 -3t-3 -1q-2 1 -7.5 10t-9.5 13q-2 3 -4.5 9t-2.5 7q0 2 2.5 5t4.5 3l-7 8l7 7q-1 0 -3.5 5.5t-5 12t-4.5 12.5t-2 7q0 2 -0.5 8.5t-0.5 10.5q0 3 0.5 -5t0.5 -7q0 2 4 11.5t4 11.5t-4 8
t-4 8t1 9t2.5 14.5t3 14.5t1.5 9v8q1 4 2 12.5t2 17.5t2 15.5t1 8.5q2 2 5 0.5t4 0.5v16q0 2 3 8t5 8q1 2 7.5 11.5t7.5 11.5t4 12t4 12q1 1 7.5 7t7.5 8q1 1 4 7.5t5 7.5q0 1 3 0.5t4 -0.5q0 1 3.5 4.5t4.5 3.5q2 1 10 5.5t17 10t17 10t10 6.5q2 1 4.5 3.5l3.5 3.5h2
q1 0 1 0.5t1 0.5l2 -1h2q2 -1 4.5 -7t2.5 -8q1 1 4 3.5t4 4.5q4 2 13 4.5t11 2.5q1 0 9.5 -6t13.5 -9l4 -4q2 -2 3 -4q3 -2 12 -4t12 -4h8q1 0 4 -3t4 -5v-8q1 -1 4 -7.5t3 -7.5q0 -2 4.5 -6.5t4.5 -5.5q2 -2 7.5 -13.5t7.5 -13.5v-11v-12l-4 -4q-2 -2 -3 -4t-0.5 -8t0.5 -8
q-2 -5 -5.5 -13t-5.5 -12q0 -1 -5.5 -3t-5.5 -3q-1 -2 -3 -4.5t-2 -4.5l-15 -13l-22 -27q0 2 -3 2t-4 -2q-1 -1 -4 -7l-4 -8t-7.5 -4t-8.5 -4q-5 -3 -17.5 -12t-14.5 -12h-7q-3 -1 -8.5 -4t-12 -6.5t-12 -7t-7.5 -4.5l-7 15q-1 -2 -7 -8t-9 -7q-1 -1 -2 -1h-2l-3 1l-4 4
q-2 2 -4 3q-1 0 -5.5 0.5t-6.5 0.5t-6 -4t-5 -4q-3 -1 -9 -4t-6 -4v-59q0 -1 3.5 -5t8.5 -9t10.5 -9.5t9.5 -7.5q1 -2 7 -4.5t8 -3.5t4 -7t4 -8q1 2 7 4.5t8 2.5l4 -4l3 -3q2 0 8.5 3.5t8.5 3.5q2 1 11.5 0.5t11.5 -0.5q2 1 10.5 4t13.5 4q1 0 5 2.5t9.5 5t10 5t5.5 2.5
q1 1 11.5 4.5t12.5 3.5q2 2 8 4.5t7 3.5l6 6l10 10l9.5 9.5l5.5 5.5t4.5 0t4.5 0l15 15q1 3 3.5 7t4.5 6h1q1 0 1.5 0.5t1.5 0.5l3 -1q4 -2 9.5 -2t5.5 -2q2 -1 2.5 -7.5t0.5 -8.5q0 -4 -0.5 -9.5t-2.5 -6.5q0 -1 -4.5 -4.5t-10 -7t-10 -7t-5.5 -4.5q-2 -2 -4.5 -8t-3.5 -8
q-1 0 -7 -2.5t-9 -4.5q-2 -1 -10 -4.5t-17.5 -7.5t-17.5 -7t-10 -4q0 -1 -3 -4.5t-4 -3.5q-2 -1 -9 -3t-14.5 -5t-14.5 -5t-9 -3q-2 0 -7.5 -3t-7.5 -5l-8 -8q-2 -1 -7.5 -3.5t-7.5 -3.5h-5h-3q-2 0 -9 2.5t-14.5 5t-14.5 5t-9 2.5h-4q-2 0 -3 1v18zM26 184q-7 0 -7 -8t7 -8
q6 0 6 8t-6 8zM41 184q3 2 12 5t11 3l4 -4l4 -4q1 0 6.5 3.5t8.5 3.5q2 0 8 0.5t7 0.5q2 0 9 2t15 5t14.5 5.5t8.5 2.5q1 0 4 -0.5t4 0.5q2 2 12 7t12 8t7.5 10t7.5 9q0 1 3.5 3.5t4.5 4.5q1 1 6 1.5t6 1.5q2 2 11.5 12t11.5 12q1 1 2 2.5t2 2.5q2 2 7 9t7 9l2 57l8 8
q-2 -1 -7.5 -1t-7.5 1q-2 2 -8.5 12t-8.5 12q-1 1 -3.5 4t-3.5 4q-2 2 -11.5 4t-11.5 3q-1 0 -8.5 0.5t-12.5 0.5q-3 0 -10 -0.5t-8 -0.5t-4 -3l-4 -4q-1 0 -5.5 -2.5t-10 -5.5t-10.5 -5.5t-6 -2.5q0 -1 -3 -4t-4 -3q-2 -1 -12 -4t-11 -5q-1 -1 -4.5 -6.5t-7 -13t-7.5 -15
t-5 -11.5t-7 -14t-8 -18v-9q-1 0 -4.5 -3.5t-3.5 -4.5q-1 -2 0 -11.5t0 -11.5t-3.5 -4.5t-4.5 -2.5v-55zM223 252q-5 0 -7.5 -1.5t3.5 -1.5t8 1.5t-4 1.5zM251 280q-6 0 -6 -8t6 -8q5 0 5 8t-5 8zM41 293q-5 0 -5 -8t5 -8q6 0 6 8t-6 8zM17 302q7 0 7 -7.5t-7 -7.5
q-5 0 -5 7.5t5 7.5z" />
    <glyph glyph-name="f" unicode="f" horiz-adv-x="372" 
d="M98 360q-1 -1 -3.5 -4t-4.5 -4q-1 0 -5 -1t-9 -2.5t-10 -2.5t-7 -2q-1 0 -7.5 1t-7.5 -1q-4 -2 -13 -7.5t-11 -7.5q0 1 -3 4t-5 4h-5q-2 0 -3.5 0.5t-2.5 0.5q0 3 1 11t2 11q1 2 4 4.5t4 2.5q2 1 12 0.5t12 -0.5q2 1 8 3.5t13.5 5t15 4.5t10.5 4q5 2 17 7.5t13 7.5
q2 1 5 13t3 17v32q0 2 4 11.5t4 11.5v9q1 4 2 10.5t3 12.5q2 7 3 15h20q0 2 -3 12t-1 12q1 2 7.5 7.5t7.5 7.5q1 1 0.5 7.5t-0.5 7.5q1 2 3.5 8t3.5 9q3 2 9 8t8 7h4q2 0 3.5 0.5t3.5 0.5t6.5 -0.5t5.5 -0.5q1 -1 3.5 -4t3.5 -4q0 3 3 8.5t5 7.5q1 0 5.5 1t10 2.5t10 2.5
t6.5 1q1 1 7.5 4.5t7.5 3.5h2q1 0 1 0.5t1 0.5l2 -1h1q2 -1 8.5 -7.5t8.5 -7.5q0 -2 9 -4.5t14 -3.5q3 -2 15 -5t16 -3v-4v-3q-2 -2 -8 -5l-8 -4h-7h-8q-2 0 -9 1.5t-15 3t-15 3t-8 1.5h-9h-6q-2 -1 -8.5 -8.5t-7.5 -8.5q-2 -1 -12 -3t-12 -4l-47 -47v-8q-1 -9 -3.5 -22
t-5 -25t-4.5 -21l-2 -9l-15 -8l4 -4t4 -5q1 -3 3.5 -15t3.5 -15h8h7q1 0 6 1t10.5 2.5t10 2.5t5.5 2q3 0 12 1t18.5 2.5t18.5 2.5t13 1h6h10h10h6q3 1 12 3t18.5 4.5t18.5 4.5t13 3v-10v-12q-1 -4 -4 -10t-4 -6q-2 -1 -14 -3.5t-17 -3.5h-16q-3 0 -14 -1.5t-24.5 -3t-25 -3
t-14.5 -1.5h-8q-1 0 -5.5 -2.5t-10 -5t-9.5 -5t-5 -2.5t-7 2.5t-10 4.5q-1 1 -3.5 4t-3.5 4l-8 -15v-149q1 -2 4 -10.5t4 -11.5q0 -2 -0.5 -8.5t0.5 -7.5q1 -2 3.5 -4.5t3.5 -2.5l-7 -9q2 0 4.5 -3t2.5 -5q1 -2 2.5 -8t2.5 -13.5t2 -14.5t1 -11v-5q0 -2 0.5 -4t0.5 -3
q0 -2 -0.5 -3t-0.5 -3v-4q0 -2 -3 -4.5t-5 -3.5q2 -1 5 -4t3 -4q2 -2 5 -8l4 -8v-8q0 -2 3 -11.5t4 -11.5v-10q-2 0 -11 1t-13 2l-7 7l-4 8l-4 8q-1 3 -3.5 15t-3.5 16v8q-1 3 -3.5 14.5t-5 24.5t-5 24t-2.5 14v8q-1 2 -4 12t-4 12v23q0 2 -1 9t-2.5 14.5t-3 14.5t-1.5 9v47
q0 3 -1 10t-2 14.5t-2.5 13.5t-2.5 8q-1 3 -7 9t-8 7zM168 149q-6 0 -6 -7.5t6 -7.5q5 0 5 7.5t-5 7.5zM145 305q-6 0 -6 -7.5t6 -7.5t6 7.5t-6 7.5zM292 399q-6 0 -6 -7.5t6 -7.5q7 0 7 7.5t-7 7.5zM168 547q-6 0 -6 -8t6 -8q5 0 5 8t-5 8zM183 555q7 0 7 -8.5t-7 -8.5
q-6 0 -6 8.5t6 8.5zM160 562q-5 0 -5 -7.5t5 -7.5q6 0 6 7.5t-6 7.5zM207 578q6 0 6 -8t-6 -8t-6 8t6 8z" />
    <glyph glyph-name="g" unicode="g" horiz-adv-x="392" 
d="M194 -125q0 2 1.5 9.5t2.5 9.5q1 -2 7 -8t9 -7q1 0 5 -0.5t6 -0.5h7q3 0 5 1q4 1 16 7t15 8q3 3 7.5 8.5t9 12t8.5 12.5t6 8q1 1 3.5 6l5.5 11l5.5 11t3.5 8q0 1 3.5 8t3.5 11t-0.5 12t-0.5 9q0 2 -1.5 11.5t-3 20t-2.5 19.5t-1 11v4v4q0 2 1 9t2.5 14.5t3 14.5t1.5 9v5
v2l-4.5 4.5t-3.5 4.5q-1 1 -0.5 7t0.5 8q-2 2 -8 5t-8 3q-1 -5 -7 -16.5t-9 -15.5l-30 -30q-2 -2 -8 -5t-8 -3h-16q-2 -1 -8 -7.5t-7 -8.5q-1 0 -5.5 -2.5t-10 -5t-10.5 -5t-6 -3.5l-7 -7q-3 -1 -8.5 -4t-6.5 -4q-2 0 -8.5 0.5t-8.5 -0.5q-1 -2 -3 -4t-3 -2l-1 -1
q-3 -1 -5 -1q-3 -1 -6 -1t-7 1t-5 1t-4 3l-4 4q-2 0 -8 -4.5t-8 -2.5q-2 0 -8 7t-8 8q-1 1 -7.5 0t-7.5 0q-2 1 -10.5 9.5l-13.5 13.5q0 2 -3 8l-4 8l-8 8v7q-1 2 -4 11.5t-4 11.5v6v3q1 2 7 7.5t9 7.5q-2 1 -4.5 4t-3.5 4t-1 3v4v5q0 2 1 3l4.5 9l7.5 15t7.5 14.5t4.5 8.5
v15q0 2 3 8t5 9l7 7q1 1 4.5 8t7 15t7 15l4.5 9l8 8q2 1 9 -1t9 -2q0 2 -1.5 9t-0.5 9q0 1 3 3.5t5 4.5q1 1 7.5 4t7.5 3q1 1 5.5 6t9.5 10.5t10 10t7 5.5t11 3.5t11 3.5t8.5 4.5t7.5 3.5t3.5 0.5t4.5 0.5q1 0 2 -0.5t3 -0.5h3q1 0 4 -3t4 -5q1 3 7 9t8 7q3 2 15 5t17 3
q2 0 4.5 -3t2.5 -5q1 2 4 4.5t4 3.5h4h3l8 -8q2 0 8 4t8 4l4 -4l4 -4h15q3 -2 9 -7t12 -11l11.5 -11.5t7.5 -8.5q1 -3 2.5 -10t3 -15t2.5 -15t1 -10q-1 0 -8.5 1t-8.5 2q-2 1 -11.5 7t-12.5 8l-8 8q-1 2 0 8t0 8q-1 0 -7 3t-8 5h-8q-1 0 -4 3.5t-4 3.5h-5.5h-10h-10h-5.5
q-2 1 -4.5 4t-2.5 4q-2 -3 -8.5 -8.5t-8.5 -6.5q-2 -2 -11.5 -1t-11.5 1q-2 -1 -8.5 -4.5t-14 -7t-14.5 -7t-10 -5.5q-1 -1 -5.5 -4.5t-10 -7.5t-9.5 -7t-5 -4t-4.5 0t-4.5 0q-2 -2 -7.5 -8t-7.5 -8q-1 -2 -5.5 -9t-10 -14.5t-10 -14.5t-5.5 -8q-1 -2 -4 -5t-4 -3
q-3 -5 -9 -17t-7 -15q-1 -2 -0.5 -11.5t0.5 -11.5q-1 -3 -3.5 -11.5t-3.5 -12.5q-1 -1 -4 -3.5t-4 -3.5q-2 -3 -4.5 -8.5t-2.5 -6.5q0 -2 -1 -8.5t-1 -9.5v-4.5t1 -4.5q0 -3 1 -5q0 -1 4 -5t8.5 -9t9.5 -9.5t8 -7.5q2 -2 8 -5t8 -3q1 0 7.5 3.5t8.5 4.5h15q2 0 12 3.5
t12 4.5q2 0 11.5 -0.5t11.5 0.5q2 0 8 7t7 8h4h4l8 8h2q1 0 1 0.5t1 0.5l2 -1h2l8 -8q1 2 3.5 8t3.5 8l4 4t4 3q1 2 4.5 8.5t3.5 8.5q2 2 10 9.5t17.5 16.5t17 17t9.5 11q1 1 3 5t5 9.5t5 10t3 6.5l4 4q2 2 4 3q0 2 -1 12t1 12q1 2 9.5 7.5t13.5 7.5q2 1 9 2.5t9 1.5v-29
t-0.5 -44.5t-0.5 -52.5t-0.5 -52.5t-1 -44.5t-0.5 -29q0 -3 -1 -10.5t-2 -16.5t-2 -17t-2 -11q0 -2 -2 -8l-4.5 -13.5t-5 -14.5t-4.5 -10q-1 -4 -3.5 -10t-3.5 -7q-3 -2 -9.5 -8.5l-14 -14l-14 -14l-9.5 -9.5q-1 -2 -10 -8t-13 -8q-3 -2 -9 -5t-7 -3q-3 0 -9.5 1t-12.5 2.5
t-11 2.5t-6 2t-2.5 8t-1.5 12zM261 174q-6 0 -6 -7.5t6 -7.5q5 0 5 7.5t-5 7.5zM315 182q-6 0 -6 -7.5t6 -7.5t6 7.5t-6 7.5zM307 198q-6 0 -6 -8t6 -8t6 8t-6 8zM135 370q7 0 7 -8.5t-7 -8.5q-5 0 -5 8.5t5 8.5zM307 198q-6 0 -6 -8t6 -8t6 8t-6 8z" />
    <glyph glyph-name="h" unicode="h" horiz-adv-x="444" 
d="M368 88q0 2 -1.5 8t-1.5 8q-1 3 -2 10t-2 14.5t-2 13.5t-1 8v23q0 2 -4 8.5t-5 8.5v15q0 2 -3 14.5t-5 17.5q0 2 -3 11t-4 11q-1 1 -2 6t-2.5 10.5t-2.5 10t-1 5.5q-1 2 -4 7.5t-4 7.5l-5 7.5t-7 9.5t-7.5 9t-4.5 5q-3 4 -9 10.5t-12 12.5l-11 11t-6 5q-2 1 -12 1.5
t-15 0.5q-3 0 -14 -0.5t-13 -1.5q-3 -1 -9 -7l-8 -8q0 -1 -2.5 -6l-5 -10t-4.5 -10t-3 -6q-1 -2 -11.5 -11.5t-11.5 -11.5q-1 -1 -3 -5.5t-5 -10t-5 -10t-3 -5.5l-8 -8q0 -2 -6.5 -16.5t-8.5 -22.5q-1 -2 -4 -11.5t-4 -11.5q-2 -5 -4.5 -17t-2.5 -15v-30l-4.5 -9l-7.5 -15
l-7.5 -15t-4.5 -8v-15v-17q1 -2 3.5 -7.5t3.5 -7.5q-1 -2 -4 -6t-7 -9t-7.5 -9.5t-4.5 -5.5q-1 -2 -3.5 -8.5t-3.5 -8.5h-5h-3q-2 2 -4.5 8t-2.5 9q-1 2 -1 10v17t0.5 17t0.5 10q-1 6 -1.5 24.5t-1.5 43.5t-2 52.5t-1.5 52.5t-1.5 43.5t-1 24.5v62q0 3 -1 12t-2.5 19.5
t-3 19.5t-1.5 11v12v21v21v12q0 4 -6 13t-9 11q1 0 3.5 2.5l4.5 4.5v4q0 2 0.5 3.5t0.5 3.5q0 1 -0.5 3t-0.5 4v5q-1 1 -2 5.5t-2.5 10t-2.5 10t-1 6.5v3v4q1 4 3.5 10t4.5 6h5q2 0 4.5 0.5t4.5 0.5q3 0 9.5 -0.5t7.5 -0.5q2 0 4.5 -3t3.5 -5q0 -3 -0.5 -12t-0.5 -18.5
t0.5 -18.5t0.5 -13q0 -2 3.5 -11.5t3.5 -11.5t-3.5 -12t-3.5 -12v-52v-53q0 -9 0.5 -28t1.5 -42.5t1.5 -50t1.5 -50t1.5 -42.5t0.5 -28h10q0 2 -1.5 4.5t-0.5 3.5q1 2 4.5 8t3.5 7q0 3 0.5 11t0.5 17t-0.5 16.5t-0.5 10.5q1 2 3.5 4.5t3.5 4.5q1 0 5.5 -1.5t5.5 -1.5
q0 2 -1.5 9t-0.5 9q0 2 3 8t6.5 13.5t7.5 15t6 10.5q1 0 3.5 3t4.5 4q1 1 4 7.5t3 8.5q2 2 5.5 6.5t7 9.5t7 9t4.5 6l6.5 6.5t9 9.5t9 9t6.5 6q1 1 7 3.5t9 3.5q4 3 13 6t10 3h26h21q2 -1 8 -5l13.5 -9l15 -10t10.5 -8q2 -1 8 -10.5t7 -11.5t8 -8.5t7 -8.5q2 -2 -1 -11
t-3 -12h12l2 -4.5t4.5 -10.5t5 -13t4.5 -11q2 -5 5.5 -15.5t7 -22t6.5 -20.5l4 -12q2 -3 5 -18t3 -21v-15q0 -3 1.5 -13.5t2.5 -22t2 -21.5t1 -13q0 -5 1 -16.5t1.5 -24t1 -24t0.5 -15.5h-10t-9 2q-2 1 -8 3.5t-7 3.5q-2 2 -3.5 8t-1.5 9v69zM388 104q-6 0 -6 -8t6 -8t6 8
t-6 8zM93 228q-6 0 -6 -7.5t6 -7.5q5 0 5 7.5t-5 7.5z" />
    <glyph glyph-name="i" unicode="i" horiz-adv-x="131" 
d="M37 73q0 1 1 5.5t2.5 10t3 10t1.5 6.5q0 1 0.5 7t0.5 9q0 1 -0.5 3.5t-0.5 4.5v6q0 1 -4 4.5t-4 4.5v11v12q0 1 4 3.5t4 3.5v3q0 2 0.5 3t0.5 2t-0.5 2t-0.5 3v3q0 2 -3.5 12t-4.5 12v3v4q1 2 4.5 11.5t3.5 11.5q0 1 0.5 4t0.5 5q0 1 -0.5 2t-0.5 3v3q0 1 -3 3.5t-5 3.5
v62l-8 8q2 1 5 3.5t3 4.5q1 4 2 17t1 17q4 0 14.5 -1t14.5 -2q1 0 3.5 -2.5t3.5 -4.5q0 -2 0.5 -6t0.5 -6q0 -3 -0.5 -7t-0.5 -5q-1 -2 -3.5 -4.5l-3.5 -3.5l7 -8l-7 -7q1 -1 3.5 -4t3.5 -4v-8q0 -1 1.5 -5.5t3 -10t2.5 -10t1 -5.5t-4 -4t-4 -4q-1 -2 -1 -3v-4v-5q0 -2 1 -3
q0 -1 4 -4.5t4 -4.5v-7q0 -3 0.5 -6t0.5 -5t-0.5 -5.5t-0.5 -6.5v-8l-4 -4l-4 -4q-1 -1 -1 -3v-5v-5q0 -2 1 -3l8 -8q0 -2 -1.5 -8.5t-2.5 -14t-2.5 -14t-1.5 -9.5v-9v-7q0 -1 4 -3.5t4 -3.5t0.5 -8.5t0.5 -11.5t-0.5 -11.5t-0.5 -8.5q0 -2 -3 -4.5t-5 -2.5l8 -8v-7
q0 -1 4 -5q2 -2 4 -3q1 -3 2 -13.5t1 -13.5q-4 0 -17.5 1t-16.5 2q-1 0 -3.5 3t-4.5 5t-5 8t-3 8v5v9.5v10v5.5l-4 4zM44 509q0 2 0.5 8.5t0.5 7.5q1 1 7 4t9 4q2 0 8.5 0.5t8.5 0.5q0 -2 -0.5 -8.5t-1.5 -8.5l-4 -4q-2 -2 -2 -3l-1 -1q-1 -2 -1 -11.5t1 -11.5q-4 -2 -13 1
t-11 7q0 1 -0.5 6.5t-0.5 8.5z" />
    <glyph glyph-name="j" unicode="j" horiz-adv-x="172" 
d="M-120 -229q3 0 8.5 1.5t11.5 2.5t11.5 2.5t7.5 1.5q3 1 14.5 7t16.5 9q2 1 12 7t12 8q1 1 7.5 4t7.5 4q3 2 8.5 7.5l11.5 11.5t11.5 12t7.5 8q1 3 3 6q2 2 3 4.5t2 4.5t4 11.5t4 11.5q0 2 2.5 8t5 12.5t5 12t2.5 7.5q2 5 4.5 19.5t2.5 19.5q0 1 1 14t1 21q0 4 -1 17
t-1 18q-2 0 -4.5 2.5t-2.5 4.5q0 3 2.5 9t4.5 8v303q0 4 3.5 13t5.5 11q3 0 6 1q2 0 4.5 0.5t4.5 0.5q3 0 9 -1t7 -1q1 -2 3.5 -10.5t3.5 -13.5v-4v-4q0 -2 -1 -10t-2.5 -17t-2.5 -17.5t-1 -10.5t1 -7.5t2.5 -12t2.5 -12t1 -7.5q0 -1 0.5 -11.5t0.5 -15.5q0 -6 -0.5 -16
t-0.5 -11q0 -3 -2.5 -8.5t-4.5 -7.5v-148q-3 0 -8.5 -6t-7.5 -9v-7.5v-12v-12.5v-7q-1 -7 -2 -19t-2 -24.5t-2 -22.5t-1 -12q0 -1 -2.5 -5.5t-5.5 -10t-5.5 -10t-3.5 -5.5q0 -2 -3 -11.5t-4 -11.5q0 -2 -3 -7.5t-5 -7.5q-2 -5 -8 -13.5t-7 -10.5l-12 -12t-12 -11
q-1 -1 -7 -4l-8 -4l-8 -16h-8q-2 0 -7.5 -3t-7.5 -5q-2 -1 -4.5 -3.5l-4.5 -4.5h-77v8zM89 561q0 3 0.5 10.5t0.5 9.5q4 -2 16 -7.5t15 -7.5q1 -1 2.5 -2t3.5 -3l3 -3q0 -4 -3.5 -16t-5.5 -16q0 -1 -6 -3.5t-9 -3.5q-2 -2 -6 -2q0 2 -0.5 8.5t-1.5 8.5l-4 4l-4 4q0 1 -0.5 8
t-0.5 11z" />
    <glyph glyph-name="divide" unicode="&#xf7;" horiz-adv-x="428" 
d="M172 134q1 1 6.5 3.5t7.5 3.5q4 2 13 4t11 1h5q2 0 3.5 0.5t2.5 0.5q0 -4 -0.5 -19.5t-1.5 -19.5q0 -2 -3 -5t-5 -3q-2 1 -11 4.5t-13 5.5q-2 1 -7.5 7.5t-7.5 8.5q-1 1 -1 2v3zM173 322q2 1 8 3.5t8 2.5q1 -1 4 -5t4 -4t7.5 3.5t8.5 3.5q1 0 5.5 -0.5t10 -1t9.5 -0.5h5
q2 0 12 2t12 3t11.5 0.5t11.5 -0.5l1 -48q-1 2 -7 5.5t-8 3.5q-3 0 -8.5 -2.5t-6.5 -4.5v16q0 -2 -3 -8t-5 -8q-1 -1 -4.5 0t-4.5 1t-6.5 -1t-12 -2t-12 -1.5t-6.5 -0.5q-2 1 -8.5 5t-8.5 5q-1 0 -7 -4t-8 -3q-1 0 -6.5 0.5t-12 1t-12.5 1t-8 -0.5q-1 0 -7 -3t-8 -3h-9.5
t-13.5 1q-5 0 -14 1t-10 1q-1 2 -3 4l-5 5q-2 0 -8 -2.5t-7 -4.5l-1 16l-6 -16l-42 4q0 3 2 7q0 3 6 8t9 6q1 1 5.5 3t10 4.5t10 4t5.5 2.5t4 3t3 4zM206 302q-6 1 -6 -6.5t6 -8.5q6 0 6 7.5t-6 7.5zM306 319q2 -2 3 -7t1 -10t-0.5 -9t-2.5 -5q-2 -2 -3 3.5t-1 12t0.5 12
t2.5 3.5zM356 339q1 0 1.5 -0.5t1.5 -0.5h2q1 -1 3 -7.5t4 -7.5t11.5 1.5t11.5 3.5q2 0 5.5 0.5t4.5 -0.5q0 -4 -2 -8q0 -1 -3 -3.5t-5 -3.5q-2 -2 -10.5 -7t-10.5 -7q-1 0 -5 -4q-2 -2 -3 -4h-9h-15h-15h-9q0 4 2.5 18t5.5 17q1 2 10.5 3t11.5 2t5 4t3 4h2h2zM147 432
q0 2 3 7.5t5 7.5q2 1 7.5 3.5t7.5 2.5q-1 2 -4.5 8t-4.5 8v4v3q4 0 12.5 -3t10.5 -5t9 -8t9 -10q0 -1 1 -2.5t1 -2.5h-5.5t-4.5 -1q-2 -2 -8 -7.5t-8 -7.5l16 -1l1 -32h-4.5t-4.5 2q-5 2 -16.5 8.5t-13.5 8.5t-5 8t-4 9z" />
    <glyph glyph-name="p" unicode="p" horiz-adv-x="359" 
d="M25 -117q0 2 3 5t5 3q-2 4 -5 19t-3 20v26v50v49.5v25.5q0 4 -3 16t-5 15l16 8q-1 2 -4.5 7.5t-3.5 7.5v39q0 2 -1 7.5t-2.5 12.5t-2.5 12.5t-2 7.5v3v4q1 2 2 9t2.5 15t2.5 14.5t1 8.5q0 3 -1 12t-2 18.5t-2.5 18.5t-2.5 13q-2 0 -4.5 3t-2.5 5t3.5 8t3.5 7q0 2 -3.5 12
t-3.5 12q0 1 -0.5 7t-1 12.5t-0.5 12v7.5q3 0 16 -3t17 -5q1 -5 3 -9t3 -8t2 -6v-8q0 -2 4 -8t4 -7t-2.5 -5.5t-5.5 -10t-5.5 -10.5t-2.5 -6t-0.5 -5t-0.5 -6v-7q0 -3 1 -5q0 -2 3 -8t5 -8q0 -1 3 -4t5 -4q1 4 3.5 13t3.5 11l7.5 7.5l8.5 8.5q1 1 3 5.5t4.5 10t5 9.5t3.5 5
q3 4 9.5 11t14 14.5t14 13.5t8.5 8q1 0 5 1.5t9 2.5t9.5 2.5t7.5 1.5h8h8q4 -1 11.5 -3.5t15 -4.5t13 -4.5t6.5 -3.5q3 -2 10.5 -8.5t16.5 -15.5t17 -17.5t11 -12.5q1 -1 3.5 -5t5 -9t4.5 -10t2 -7h9q0 -4 3 -16t5 -15q0 -1 3 -4l4 -4v-2q0 -1 1 -2l-1 -3q-1 -2 -3.5 -5
t-3.5 -3q1 -5 1 -17.5v-26v-25.5t-1 -17q-1 -3 -5 -11l-9 -18t-10 -19.5t-8 -13.5q-1 -3 -11 -12.5t-12 -11.5t-8 -11.5t-8 -11.5q0 -1 -3.5 -4t-4.5 -4t-7.5 -4t-7.5 -3q-2 -2 -11.5 -8.5t-11.5 -8.5q-3 -2 -9 -4.5t-7 -2.5h-26h-21q-1 0 -5 2l-9 4.5t-9.5 5t-7.5 4.5
q-2 0 -4.5 3t-2.5 5q-2 2 -5 8t-3 7q0 2 3 8t5 7q2 -2 11 -11.5t11 -11.5t8 -4.5t8 -2.5q1 0 5.5 -1t6.5 -1t6.5 1t5.5 1t6.5 1.5t11.5 4l12 5t9 4.5q0 1 3 3.5t5 3.5q1 1 7.5 4.5t7.5 3.5q5 3 14 9t9 7q2 1 4.5 7.5t3.5 8.5q1 1 6 8t10 15t9.5 15t5.5 9q1 1 2 6t2.5 11
t2.5 12t1 9q0 2 0.5 11t0.5 14q0 2 -0.5 5.5t-0.5 7.5v9q0 2 -3.5 8t-4.5 8q0 1 -2.5 8t-5 14.5t-4.5 14.5t-3 9q-2 2 -6 8.5t-9 14t-9.5 14.5t-7.5 10q-2 3 -6.5 7.5l-9.5 9.5l-9 9l-5 5q-2 1 -13.5 4t-18.5 4h-3h-5q-4 -1 -12.5 -4t-10.5 -4t-8 -7l-8 -8
q-2 -5 -11.5 -16.5t-11.5 -15.5q-1 -1 -4 -7t-3 -8q-2 -2 -5 -12t-3 -12q-1 0 -5 -3.5t-4 -4.5q0 -2 -1 -10t-2 -17t-2 -17t-2 -10q0 -1 -3.5 -4t-4.5 -4q-2 -3 -5 -12t-3 -11t-0.5 -15t-0.5 -21q0 -6 0.5 -19t0.5 -15t3.5 -11.5t4.5 -11.5q0 -2 -0.5 -10t-1 -17.5t-1 -19.5
t-0.5 -15v-8q0 -2 1.5 -19.5t2.5 -37.5t2 -37t1 -18q0 -2 -3.5 -12t-3.5 -12t3.5 -11.5t3.5 -11.5q0 -1 0.5 -5.5t0.5 -6.5q0 -3 -0.5 -7t-0.5 -5q0 -5 -3 -14t-4 -9h-36q-1 0 -4 6t-4 9v20v19z" />
    <glyph glyph-name="q" unicode="q" horiz-adv-x="389" 
d="M300 -44q0 2 4 8.5t4 7.5q0 2 -3.5 12t-4.5 12v12v11q1 2 3.5 4.5t4.5 2.5v36v35q0 1 -1 5.5t-2.5 9.5t-3 9.5t-1.5 6.5q0 3 1 11.5t1 12.5h-10q0 -2 -2 -7t-4.5 -10t-5 -9.5t-3.5 -5.5l-15 -15q-1 -2 -4 -8.5t-4 -7.5t-5 -4.5t-9.5 -7t-10 -7t-7.5 -5.5q-1 -1 -7.5 -3.5
t-7.5 -3.5q-2 -2 -8 -11.5t-8 -11.5q0 -1 -1 -1h-3h-2q-1 0 -2 1q-1 0 -3.5 3t-4.5 5q-1 -2 -3.5 -5t-3.5 -3q-1 -1 -7 -4.5t-8 -4.5q-4 -1 -13 -3.5t-11 -3.5h-5h-3q-2 2 -11.5 11t-11.5 13l-16 -17v24q0 -2 -3 -4.5t-5 -2.5q0 -2 -3 -2.5t-5 -0.5v22q-2 0 -7.5 -2.5
t-7.5 -1.5q-3 1 -7.5 5.5l-9.5 9.5t-9 9.5t-5 6.5q-2 2 -4.5 9.5t-5 16t-4.5 17t-2 12.5q0 1 -0.5 6.5t-0.5 13v15v11.5v18t1 13l16 8q-2 0 -5 3t-3 5t3 8t5 8q2 1 8.5 3.5t7.5 4.5v15q0 2 3 7.5t5 7.5t11 12t11 12q2 1 4.5 7.5t3.5 7.5t5.5 3t10 5t10 5t6.5 3q1 1 3.5 4
t3.5 3t5.5 0.5t6.5 0.5t3.5 -0.5t3.5 -0.5h4q2 0 5 -2.5t4 -4.5q-1 3 2 12t6 12q1 1 10.5 3.5t11.5 3.5t5 4t3 4q2 1 11.5 3.5t12.5 3.5h4q2 0 3 0.5t2 0.5t2 -0.5t2 -0.5h2q2 -1 5 -7t3 -8l4.5 4.5l7 7l7 7t5.5 4.5h1q1 0 1 0.5t1 0.5q0 -1 1 -1h2h2q1 0 7.5 -4t7.5 -4
t7 -0.5t8 -0.5t8 0.5t8 0.5l-8 8q0 2 -0.5 11t-0.5 13q-4 6 -2 10t6.5 7t11.5 4.5t13 0.5q1 -1 5 -1.5t8.5 -1.5t8.5 -2t4 -2v-2q0 -1 1 -2l-1 -3q0 -2 -2.5 -5t-4.5 -3v-125l-8 -16v-109q2 -1 5 -7t3 -8q0 -1 0.5 -10.5t0.5 -15.5q0 -5 -0.5 -16t-0.5 -12q0 -3 -1.5 -12
t-3 -19.5t-2.5 -19.5t-1 -11v-12v-19.5v-20v-11.5t-4 -8t-4 -8q0 -1 1 -5.5t2.5 -9.5t3 -9.5t1.5 -5.5v-5v-3q-1 -2 -4 -12t-4 -12v-3v-5q1 -1 4 -7.5t4 -7.5v-4v-4q-1 -6 -4 -18t-4 -13t-5 -1.5t-7 -0.5q-1 0 -5 0.5t-6 1.5q-1 2 -2 8.5t-2.5 14t-2.5 14.5t-1 10v36v33z
M308 -90q-6 0 -6 -8t6 -8t6 8t-6 8zM36 174q1 -1 4 -3.5t4 -3.5v-23q0 -3 2.5 -12t4.5 -12q2 -2 7.5 -11.5t7.5 -11.5q2 -3 7.5 -8.5t12 -11.5t12 -11.5t8.5 -7.5q3 1 15 3.5t15 3.5h5h4q1 -1 4 -3.5t4 -3.5q2 3 11 12l11 11h5h3l16 16h8q1 2 4.5 6.5t7 9.5t7 9t4.5 6
q2 2 8 4.5t7 2.5q2 1 5 4t4 5t4 7.5t4 7.5v8q0 1 3 3.5t4 3.5q0 1 1.5 6t2.5 10.5t2.5 10t1.5 5.5t2.5 6.5t5 12.5t5 12.5t2.5 6.5v9q0 1 1.5 6.5t3 12.5t2.5 12.5t1 6.5q0 4 0.5 12.5t1 18t1 18t0.5 12.5q-2 0 -9.5 0.5t-9.5 0.5q-2 1 -11 5t-11 4h-17h-15q-1 0 -7.5 -4
t-7.5 -5q-1 0 -4.5 0.5t-3.5 -0.5q-2 -1 -8 -7.5t-8 -7.5q-1 -1 -7.5 -0.5t-8.5 0.5q-2 -1 -10.5 -4t-11.5 -4t-9 -3.5t-8 -3.5q-1 -2 -7 -8.5t-8 -7.5q-1 -1 -5.5 -4.5t-10 -7.5t-10 -7.5t-5.5 -4.5q-3 -2 -8 -7t-10 -9.5t-9 -8.5t-4 -5q-1 -2 0 -12t0 -12q-2 -2 -11 -5.5
t-12 -2.5l8 -7zM269 112q6 0 6 -7.5t-6 -7.5q-5 0 -5 7.5t5 7.5zM245 152q5 -2 5 -4.5t-5 -3.5q-3 -2 -3 3.5t3 4.5zM59 299q-6 0 -6 -8t6 -8q5 0 5 8t-5 8zM175 370q-5 0 -5 -8.5t5 -8.5q6 0 6 8.5t-6 8.5zM191 385q-6 0 -6 -7.5t6 -7.5t6 7.5t-6 7.5z" />
    <glyph glyph-name="r" unicode="r" horiz-adv-x="272" 
d="M9 408q3 0 13.5 -3.5t12.5 -5.5t8 -14t8 -18v-15v-15q-1 -2 -3 -5t-4 -3q1 -1 3.5 -4t3.5 -5t4 -7.5t4 -7.5q1 -3 3.5 -18l3.5 -21v-15q1 -2 2 -6.5t2.5 -10t2.5 -9.5t1 -5q1 -5 3 -16t4.5 -23t4.5 -23.5t3 -15.5l4 12t5 12q0 1 3.5 7t4.5 8v15q0 2 2.5 11t4.5 13
q1 2 4 9.5t7 16t7 17t5 12.5q1 2 4 7.5t4 7.5q3 4 8 12.5t10 17.5t8.5 15.5t4.5 8.5l8 8q1 1 3 5.5t4.5 10t4.5 10t3 6.5q3 2 12 10.5t12 12.5q1 0 6.5 2t12 4.5t11.5 4.5t6 2q1 -2 2 -8t1 -8q0 -3 -1 -9t-2 -6q0 -1 -5.5 -3t-12.5 -4t-12.5 -4t-5.5 -3q-1 -1 -3 -5.5
t-4.5 -9.5l-5 -10t-2.5 -6q-2 -2 -8 -11t-8 -13q-2 -1 -4 -3l-4 -4q-2 -5 -8 -16.5t-7 -14.5q-2 -5 -6.5 -18t-9.5 -28t-9.5 -28t-6.5 -19q0 -3 -2.5 -12t-5 -19.5t-4.5 -19.5t-3 -12l-4 -4q-2 -2 -4 -3q-1 -3 -2 -9.5t-2 -14t-2 -14t-1 -9.5t-0.5 -11t-1 -17t-0.5 -17.5
v-11.5q-3 0 -4 1q-1 0 -2 1q-2 2 -8 4.5t-8 3.5l-8 8q-1 2 -4 14t-4 17q0 2 -1 9.5t-2.5 16t-2.5 17t-1 12.5q-1 3 -2 13t-2.5 21t-2.5 21t-1 15v7q-1 1 -3.5 6l-5 10l-5 10t-2.5 6q0 2 -1.5 10t-2.5 17t-2.5 17t-1.5 10q0 1 -1 7t-2 12.5t-2.5 12t-1.5 6.5v9q-1 1 -4.5 7
t-3.5 8q0 3 -0.5 12t-1 19.5t-1 20t-0.5 12.5z" />
    <glyph glyph-name="s" unicode="s" horiz-adv-x="329" 
d="M32 43q0 4 0.5 13.5t0.5 11.5t2.5 7.5t4.5 7.5l4 1q1 0 2 -0.5t2 -0.5q0 -3 1.5 -8.5t2.5 -11.5t2.5 -11.5t1.5 -7.5q1 -3 3.5 -9t3.5 -7q2 -1 14 -3.5t18 -3.5h7h8q1 0 7.5 3t7.5 4q2 1 12 4t12 4q1 0 4.5 2.5t7.5 5t7 5t4 2.5q1 1 6 3t10 5t10 5.5t6 3.5l7 7
q1 1 5.5 4.5t9.5 7t9.5 7t6.5 4.5q2 2 12 7.5t12 7.5q1 2 3.5 8t4.5 9q1 3 -1 16.5t-2 16.5q-3 0 -14 -1.5t-15 -1.5l-4 4l-4 4q-1 0 -7.5 -3.5t-7.5 -4.5h-4h-4q-2 0 -8.5 1.5t-14.5 3t-15 2.5t-8 1h-8q-1 0 -5.5 1.5t-10 3t-10.5 3t-6 1.5q-2 0 -8.5 -0.5t-14.5 -0.5h-15
t-9 1q-2 0 -7.5 7t-7.5 8q-1 0 -5.5 1t-10 2t-9.5 2t-5 2q-2 2 -0.5 7t4 10l5 10t2.5 7q-3 0 -14.5 -1.5t-13.5 -0.5q-1 0 -3.5 3t-3.5 5l31 15q0 -2 3 -8t5 -7q2 -2 7 -4t7 -2q0 -1 1 -2q1 -2 4 -5l4 -4h16q2 0 11.5 -3t11.5 -4q1 0 7.5 0.5t7.5 -0.5q1 0 4.5 -3.5
t3.5 -4.5q3 -2 9 -5t7 -3h117l3.5 -3.5t4.5 -3.5q1 -1 7.5 -4.5t7.5 -3.5q3 -2 9 -8t7 -8v-11v-12q0 -1 -3 -9.5t-6 -13.5q-1 -4 -3.5 -10.5t-5 -12.5t-4.5 -11l-2 -5q0 -1 -3.5 -3t-7.5 -4.5t-7.5 -5t-4.5 -2.5q-1 -2 -4 -5t-3 -4q-3 0 -12.5 -3.5t-11.5 -4.5q-1 0 -4 -3
l-4 -4q-2 -1 -7.5 -4t-7.5 -4h-8l-8 -4l-8 -4l-11.5 -11.5t-11.5 -12.5h-4h-4q-2 1 -4.5 4t-2.5 5q-4 -2 -15.5 -8t-16.5 -8h-15h-17q-4 1 -16 3.5t-14 3.5l-9 9t-6 8q-1 4 -1 8v14zM27 335q2 0 6.5 1.5t6.5 3.5q1 0 3.5 6.5t4.5 8.5q1 1 4 0t4 0t7.5 8t7.5 8h2q1 0 1 0.5
t1 0.5l2 -1h1q2 -1 5 -4l4 -4q0 2 3 8t5 7q1 1 6 3t11 4.5l12 5t9 4.5q2 0 12.5 1t12.5 1q0 -5 -3 -18t-6 -16q-1 -1 -5.5 -3.5t-9.5 -5t-10 -4.5t-6 -2q-1 -1 -4 -4.5t-4 -3.5q-1 -1 -7.5 -0.5t-7.5 0.5l-4.5 -4.5l-7.5 -7.5l-7.5 -7.5l-4.5 -4.5t-7.5 -3.5t-7.5 -4.5
q-2 -2 -8 -10.5t-8 -11.5q-1 -3 -3.5 -12.5t-3.5 -11.5q-4 -3 -15.5 -9t-16.5 -7q0 3 -0.5 12t-0.5 11q0 5 0.5 14t0.5 10q3 5 6 9q2 4 4.5 8t4.5 6l8 8q1 2 2 5.5t1 5.5zM48 340q-6 0 -6 -8t6 -8t6 8t-6 8zM234 386q-1 0 -6.5 -1t-12.5 -2.5t-12.5 -3t-6.5 -1.5h-9
q-2 0 -11 -2.5t-11 -4.5v37q1 0 3.5 0.5t3.5 1.5q2 1 5 3.5t3 3.5q4 0 16 1t15 1q6 0 18 -1t13 -1q3 0 10 -2t14.5 -4.5t14 -5t8.5 -3.5v-4v-3q-1 -7 -2 -16t-3 -18q-2 -11 -3 -21h-7q1 5 -2.5 19.5t-5.5 18.5q-1 1 -10 4t-14 4h-3h-5z" />
    <glyph glyph-name="t" unicode="t" horiz-adv-x="218" 
d="M116 75q0 2 0.5 6.5t0.5 5.5q0 2 3.5 8t3.5 7q-4 15 -5.5 13t-2 -7t0 -6t0.5 14q0 2 -4 11t-4 11v7.5v12.5v12.5v7.5q0 1 -0.5 0t-1.5 3.5t-1.5 17.5t-0.5 41q-2 1 -5 3.5t-4 3.5v5v3q1 2 5 12t4 12t-6 14t-11 17q0 2 -3 4.5t-4 3.5h-8h-8q-2 -1 -8 -4.5t-7 -3.5
q-7 0 -18.5 3t-12.5 5q-4 5 -8 19.5t-4 18.5h83q0 3 -0.5 8.5t-0.5 12t-0.5 12t-0.5 7.5q0 1 1.5 7t3 12.5t2.5 12t1 7.5q0 5 0.5 19t1 29t1 29t0.5 19q2 0 6.5 -1t6.5 -2t4 -3t2.5 -3t1.5 -2q4 -7 10 -19t5 -12l-7 -7v-94q1 -1 3.5 -4t3.5 -4v-2q0 -1 1 -2q0 -1 -0.5 -1
t-0.5 -1v-1q-1 -2 -3.5 -5t-3.5 -4h4h3q3 1 12 3t19.5 5t19.5 5t11 3h11q0 -3 -1 -15.5t-2 -15.5q0 -1 -3 -4t-5 -4q-1 0 -6.5 -1t-12.5 -2.5t-12.5 -2.5t-6.5 -1t-4 -3l-5 -5q-1 -2 -3.5 -8t-3.5 -8q0 -1 -1 -5.5t-2.5 -10t-2.5 -10t-2 -5.5q-1 -2 -3.5 -5t-3.5 -3l15 -7
q0 -8 -0.5 -10t-0.5 -10q0 -1 3.5 -7t3.5 -8q-3 -1 -3.5 -8t-0.5 -15t-1 -14.5t-4 -6.5q0 -2 1 -8.5t2.5 -14.5t2.5 -15t1 -9v-22q5 -17 6.5 -19t2 -1.5t0 -2.5t0.5 -21q0 -4 1 -13t2 -18.5t2 -18.5t2 -12q0 -2 -2.5 -5t-4.5 -3t-8 3t-8 5q-3 2 -9 8l-7 7t-0.5 7.5t0.5 7.5
q-1 2 -3.5 12t-3.5 12t-1 5v6zM132 178q-6 0 -6 -8.5t6 -8.5t6 8.5t-6 8.5zM143 341q-6 0 -6 -7.5t6 -7.5q5 0 5 7.5t-5 7.5zM105 403q-7 0 -7 -7.5t7 -7.5q5 0 5 7.5t-5 7.5z" />
    <glyph glyph-name="u" unicode="u" horiz-adv-x="380" 
d="M290 189q-1 -2 -4 -4.5t-4 -3.5q-1 -2 -0.5 -8t0.5 -7q-1 -3 -3.5 -9t-3.5 -8q-1 -1 -8.5 -7t-7.5 -8q-1 -1 -0.5 -7.5t0.5 -7.5q-2 -2 -10.5 -11.5t-13.5 -12.5h-3h-4q-1 -2 -4 -12t-4 -11q-3 -4 -9.5 -11t-14 -14.5l-14 -14t-9.5 -7.5q-1 -1 -7.5 -3t-14.5 -4.5
t-15.5 -5t-9.5 -2.5q0 -1 -3 -4.5t-4 -3.5h-3h-5q-3 0 -7.5 1.5t-9.5 2.5t-9 2.5t-5 1.5q-2 0 -7.5 6t-8.5 9q-1 1 -3.5 7.5t-3.5 7.5t-4 1t-4 -1q-1 2 -3 7.5t-4.5 12t-4.5 12t-3 8.5q-2 4 -5.5 12.5t-3.5 9.5q0 2 0.5 8.5t-0.5 8.5q0 1 -3 3.5t-5 3.5v63l8 7l-15 8v54
q2 0 4.5 3t2.5 5t-3.5 12t-3.5 12q0 3 -0.5 12t-1 19.5t-1 19.5t-0.5 12h6t4 -1q1 -1 2 -1.5t3 -2.5t3 -4q2 -1 7 -1.5t7 -0.5q0 -2 0.5 -6.5t1.5 -6.5q0 -1 4 -4t4 -5q1 -4 4 -18.5t4 -19.5q-1 -1 -4 -3.5t-4 -3.5t-1 -3v-6v-5q0 -2 1 -3q2 -1 4 -3l4 -4q0 -1 0.5 -8
t0.5 -11t-0.5 -11.5t-0.5 -9.5t-4 -11t-4 -11t3 -5t5 -3q0 -3 -0.5 -11t-0.5 -16.5t0.5 -16.5t0.5 -11q0 -1 2.5 -5.5t5 -10t5 -10t2.5 -5.5t1 -5.5t2.5 -9.5t2.5 -10t2 -6q1 -2 7.5 -8t8.5 -8q-1 -2 -1 -3q-1 -2 -1 -4q2 -1 4 -1h6l7.5 2.5t9.5 2.5t9 2l4 1q2 1 8 7.5
t8 8.5q2 0 8.5 3t7.5 5q1 1 3.5 7.5t3.5 7.5q3 2 15 7.5t17 7.5q2 2 8 0t8 -2q0 3 -1 13t0 13q1 2 4 11.5t4 11.5v8q2 2 8.5 12t6.5 12q2 4 6 14.5t7.5 21.5t6.5 21t4 13v7v12.5v12v7.5q0 1 4 7.5t4 7.5q1 2 1.5 12.5t0.5 13.5q2 0 10 -1t11 -1l8 -4t8 -5l-8 -7l8 -8
q-2 0 -5 -2.5t-3 -4.5t1 -6.5t2.5 -10t3 -10t1.5 -5.5q0 -2 -0.5 -11.5t0.5 -11.5q0 -2 2 -8.5t5 -14.5t5.5 -15t2.5 -9q0 -3 0.5 -12t0.5 -18.5t-0.5 -18.5t-0.5 -13l15 -8l-7 -7q2 -1 4.5 -4t2.5 -4v-4v-5q0 -2 -2.5 -7.5t-4.5 -7.5h13q0 -2 1 -7.5t1 -7.5q0 -1 4 -4.5
t5 -3.5v-4v-3q-1 -1 -5 -4.5t-4 -4.5v-8v-7q0 -1 4 -4t5 -4q2 -2 4.5 -8t2.5 -7q0 -5 1.5 -17.5t1.5 -15.5h-9.5t-9.5 1q-1 1 -7 4l-8 4q-1 1 -2 1.5t-3 2.5q-2 1 -3 3q-1 3 -3.5 18t-3.5 22v7q-1 2 -2 7.5t-2.5 12.5t-2.5 12.5t-1 7.5v15q-1 2 -4.5 8t-3.5 8
q-2 2 -4.5 11.5t-3.5 11.5v8q0 3 -1 9.5t-2.5 14t-2.5 14t-2 9.5zM361 48q5 0 5 -7.5t-5 -7.5q-7 0 -7 7.5t7 7.5zM243 166q-6 0 -6 -8.5t6 -8.5q7 0 7 8.5t-7 8.5zM259 173q-5 0 -5 -8t5 -8q6 0 6 8t-6 8z" />
    <glyph glyph-name="v" unicode="v" horiz-adv-x="334" 
d="M70 94q-2 5 -5 18.5t-7 28t-7 28t-4 18.5v8q-1 2 -3.5 10t-5 17.5t-4.5 17.5t-2 10q-1 2 -0.5 11t0.5 11q0 1 -3 6t-6 10.5t-5.5 10t-2.5 5.5q-2 7 -6 22t-6 26q-1 3 -1.5 15t-0.5 17h34v-62q1 -2 3.5 -4.5l4.5 -4.5q0 -1 0.5 1.5t1.5 5.5t1.5 5.5t0.5 1.5t1 -5.5
t2.5 -10t2.5 -10t2 -5.5q1 -2 3.5 -4.5l3.5 -3.5q-1 0 -3.5 -3t-3.5 -5q-1 -1 -1 -3q-1 -2 -1 -5q0 -1 1 -3.5t1 -3.5l15 7v-30q0 -1 1.5 -5.5t2.5 -10t2 -10.5t1 -6q1 -3 0 -16t-1 -16q1 0 5 1t5 0q1 0 4 -3t4 -5v-8q0 -1 3.5 -3.5t3.5 -3.5q1 -1 0.5 -7.5t-0.5 -7.5
q0 -4 1.5 -11.5t2.5 -15t2.5 -13.5t1.5 -7q0 -2 2.5 -6.5t5.5 -10t5 -10t2 -5.5q1 -2 -0.5 -4.5t-1.5 -4.5q2 0 9 -4t10 -2q1 1 3 5l4.5 9t4.5 9.5t3 7.5q1 2 0 8t0 8q1 3 7 15t8 15l8 -7q0 3 1 9.5t2.5 14t2.5 14t1 8.5l4 8t5 8t12 11.5t11 12.5q1 1 0 7.5t0 7.5q1 4 7 19
l8 20q1 1 4.5 4t3.5 4q1 2 2 7.5t1 7.5h8q0 1 -2 -3.5t-4.5 -9.5l-4.5 -9t-2 -3q0 2 6.5 11.5t8.5 11.5q1 2 4 11.5t4 11.5t3.5 8t3.5 8q1 0 4.5 3.5t3.5 4.5q1 1 0.5 7.5t-0.5 7.5q1 2 8 7.5t8 7.5v17q0 2 3 7.5t5 7.5q1 -1 3.5 -4t3.5 -4q2 -2 5 -8t3 -7t0.5 -6t0.5 -7
t-0.5 -6t-0.5 -5q-1 -2 -5.5 -11.5t-10 -20t-10.5 -19.5t-6 -11q-1 -3 -1.5 -2.5t-2.5 -3.5q-2 -6 -13.5 -30t-24.5 -51.5t-24.5 -51.5t-14.5 -30t-10 -21.5t-14.5 -33t-14 -33t-8.5 -21.5l-8 -8q-4 -1 -16 -3.5t-15 -3.5q2 2 2 11t-2 12q-1 2 -8 4.5t-8 2.5q-2 1 -4.5 4
t-2.5 5q-2 2 -5 7.5t-3 7.5t-1 9t-2.5 14.5t-3 14.5t-2.5 9q0 1 -2.5 4t-4.5 4zM163 101q-5 0 -5 -7.5t5 -7.5q6 0 6 7.5t-6 7.5z" />
    <glyph glyph-name="w" unicode="w" horiz-adv-x="487" 
d="M25 105q0 1 0.5 1.5t0.5 1.5v1q1 1 4 3t5 4q-1 2 -2.5 8t-3 13.5t-3 14t-1.5 8.5q0 1 -0.5 6t-1 11t-0.5 12v8q0 1 0.5 4.5t0.5 4.5q-1 6 -2 20t-2 16q0 2 -3 8t-3 8q0 1 0.5 5.5t1.5 9.5t1.5 9t-0.5 6q2 2 -0.5 11.5t-3.5 12.5q-1 5 -2.5 16t-0.5 12q0 4 0.5 13t1.5 19
t2 18.5t1 11.5q1 0 4.5 -1.5t4.5 -2.5q5 -5 14.5 -17t11.5 -15q0 -2 -1 -7.5t-1 -7.5q0 -1 0.5 -5.5t1 -10.5l1 -12t0.5 -9q0 -1 0.5 -5.5t1.5 -9.5t1.5 -10t0.5 -6t-1 -5.5t-1.5 -9.5t-1 -9l-0.5 -4q-1 -2 1.5 -12.5t3.5 -11.5q0 -1 -0.5 -7.5t-2.5 -6.5q1 -3 2.5 -13
t2.5 -21.5t2 -21t1 -12.5q1 -7 1.5 -19t1.5 -24t1.5 -21.5t0.5 -10.5q0 -2 -1 -11t-1 -11t2.5 -5t4.5 -3q2 1 7 5.5t10.5 9.5t10 10t5.5 7q1 1 1.5 11t0.5 11q1 2 5.5 10.5t9.5 18t9.5 18t5.5 10.5t4.5 10t4.5 10q2 2 5.5 7.5t4.5 7.5q1 0 4.5 2.5t3.5 3.5t1 10.5t1 10.5
l1 1q1 1 1.5 1t1.5 1q2 1 4 3v5q0 2 1 3t4 5t6 8.5t5.5 8.5t3.5 5l5.5 11t4.5 10q1 2 4.5 8t5.5 7h9t9 -1q3 0 9.5 -1.5t8.5 -1.5q1 -1 5 -10t8 -14q1 -4 4.5 -15t8 -23.5t8.5 -23.5t6 -15q0 -2 2 -12t2 -12l4 -12t7 -19t7 -19t4 -13q1 0 4.5 -3t3.5 -4t-1.5 -7.5t0.5 -7.5
q-2 -2 3 -8t9 -8q1 -2 6 -5t7 -4q-1 2 0 10.5t2 11.5q2 3 5 6q2 2 3.5 4t1.5 3q0 2 2 8.5t4.5 14t4 13.5t1.5 8q1 1 5.5 6.5t4.5 6.5t0.5 5.5t1 9.5t1 9.5t0.5 5.5q0 2 4.5 10.5t6.5 9.5q0 2 1 11.5t1 10.5q1 4 2.5 12t4 16t4 14.5t2.5 8.5l9 6q0 1 1 7t2 8v14q0 1 -3 5
t-4 5v2v3q0 1 1 2q1 0 4 2.5t4 3.5q2 2 5.5 7t4.5 6q0 1 0.5 5.5t1 9.5t1 9.5t0.5 6.5q1 3 2.5 10t4 15t4 15t2.5 10q1 2 4.5 7t5.5 6l13 -16l-12 -103q-2 0 -5.5 -1.5t-3.5 -3.5q-1 -2 -2 -9t-1.5 -14.5t-1 -14t-0.5 -7.5q-2 -7 -6.5 -23t-6.5 -21q0 -1 -5 -3l-4 -2
q0 -2 -1 -11.5t-2 -11.5q0 -2 -4.5 -10.5t-4.5 -10.5q0 -1 -0.5 -5.5t-1 -9.5t-1 -9.5t-1.5 -5.5q0 -1 -4 -10t-5 -11q0 -1 -0.5 -1.5t-0.5 -1.5v-2q-1 -4 -3 -11l-4 -14t-4 -12.5t-2 -6.5q-1 -2 -4.5 -7.5t-4.5 -6.5v-4t-1 -4q-1 -2 -5 -9.5t-5 -10.5q-2 -4 -5 -9t-5 -5
q-2 -2 -12 -7t-15 -6l2 23q-2 -2 -8.5 -3.5t-8.5 -1.5t-3 -0.5t-3 -0.5q0 2 -0.5 8.5t-1.5 8.5q1 0 -1.5 3t-3.5 4l-6.5 13t-5.5 12v3q0 2 0.5 2.5t0.5 1.5q-1 1 -6 10.5t-5 11.5v8q1 0 -4 5q-2 2 -3 4q0 1 -0.5 6.5t-1 12t-1 12t-0.5 7.5q-1 2 -9.5 12t-9.5 12q0 2 2 10.5
t1 10.5q0 2 -3 5l-4 4q-1 2 -2.5 12t-1.5 12q-2 1 -4 3q-3 3 -3 4q0 2 -1.5 11.5t-3.5 11.5q0 2 -3 2q-1 1 -2.5 0.5t-1.5 -1.5q-2 -3 -6 -9.5t-8.5 -14.5t-8.5 -14.5t-5 -9.5q-1 -2 -2.5 -8t-3.5 -13.5t-4 -14t-2 -8.5q-3 -2 -5 -3q-1 -1 -1.5 -1t-1.5 -1l-1 -1
q-1 -2 -4.5 -6.5t-4.5 -6.5q-2 -2 -5.5 -11t-4.5 -11t-5.5 -9.5t-9 -15.5t-9 -15t-5.5 -9t-2 -8t-2.5 -13t-3 -13t-1.5 -9l-12 1q0 -2 0.5 -7.5t-0.5 -7.5t-4 -6.5t-5 -6.5t-8 -7.5t-8 -5.5q-4 -2 -12.5 -4t-9.5 -1q-2 2 -7 7.5t-7 9.5q0 2 -2 11.5t-3 11.5l-3 3q-2 1 -3 3
q-1 3 0.5 9t1.5 8q-2 1 -4 3q-4 3 -3 4v7q0 3 1 7q-1 2 -2 12t-2 12v4zM78 43q-5 1 -6 -7t4 -9q6 0 6.5 7t-4.5 9zM101 56q-5 0 -6 -7.5t4 -8.5q6 -1 7 7t-5 9zM339 48q-6 1 -7 -6t5 -8q5 -1 6 6t-4 8z" />
    <glyph glyph-name="x" unicode="x" horiz-adv-x="302" 
d="M98 171q-1 5 -3.5 17t-4.5 15q-2 2 -8 11l-8 12l-4.5 4.5t-7 7.5t-7 7.5l-4.5 4.5q-2 2 -7.5 10.5t-7.5 11.5q-1 2 -4 9t-5 7q-2 2 -11 3.5t-12 1.5v31q3 0 12 -2t11 -3q3 -1 12 -7l12 -8t8.5 -8t6.5 -8q2 0 1 -3.5t-1 -4.5q2 -2 8 -11l8 -12t8.5 -9.5l14 -14t14.5 -14
t10 -9.5q2 1 8 7t8 9q0 1 2.5 5.5t5 10t4.5 10t3 5.5q2 3 7.5 12t7.5 11t9 8t7 8q1 2 5.5 11.5t10 20t9.5 20t6 11.5q3 3 9.5 10t14 14.5t14 13.5t9.5 8q2 0 5 -3t3 -5q1 -5 2 -18.5t1 -18.5q-1 0 -5.5 -0.5t-5.5 -0.5q-2 -1 -4 -4t-3 -4q-1 -2 -4.5 -8t-3.5 -8
q-1 0 -4.5 -3.5l-4.5 -4.5q0 -1 -2.5 -5.5t-5 -10t-4.5 -10t-3 -5.5t-4.5 -5.5t-7 -10t-7 -10t-4.5 -5.5l-8 -12t-8 -11q0 -2 -3.5 -8t-4.5 -8l-7.5 -7.5t-7.5 -8.5q-2 -3 -5 -15t-3 -16q0 -5 3 -16.5t5 -14.5q0 -1 3.5 -4.5t7.5 -7t7.5 -7.5t4.5 -5q1 0 0.5 -3t-0.5 -4
q1 0 4 -3.5t4 -4.5q0 -1 3 -7.5t5 -7.5q1 -2 7.5 -4.5t7.5 -3.5v-4v-4l8 -8v-1q0 -1 0.5 -1.5t0.5 -1.5t-0.5 -1.5t-0.5 -1.5v-1q-1 -1 -7 -3.5t-8 -3.5q-1 0 -4 -1t-5 -1t-4 1q-2 0 -3 1q-2 1 -8 6.5t-8 8.5q-1 1 -4.5 5.5t-7 10t-7 10t-4.5 5.5q-2 2 -6 6.5t-9 9.5
l-9.5 9.5l-6.5 6.5q-3 0 -8.5 -3t-7.5 -6q-1 -1 -3.5 -7t-3.5 -8q-2 -1 -9 -7.5t-7 -7.5q-1 -2 -4.5 -8t-7 -13.5t-7 -14.5l-5.5 -11q-1 -2 -3.5 -12t-3.5 -11t-6 -4.5t-11 -7t-12.5 -7.5t-9.5 -5q0 -1 -6 -1h-7q0 2 2 12t3 13q1 1 8 3.5t7 4.5q1 1 2 5.5t2.5 9.5t3 9.5
t1.5 5.5t2 5t4.5 9.5t5 10t3.5 7.5q1 2 7 10.5t8 12.5q2 2 5.5 6.5t7 9.5t7 9t4.5 6q0 1 4 4t4 4v6v9z" />
    <glyph glyph-name="y" unicode="y" horiz-adv-x="322" 
d="M118 25q-1 -1 -4 -3.5t-4 -4.5q-2 -1 -7 -1.5t-7 -0.5q0 2 -0.5 9t-0.5 9l-4 8t-5 7q-1 2 -7.5 4.5t-7.5 4.5q-2 2 -7.5 13.5t-7.5 16.5q-1 2 0 8t0 7q-1 2 -8 4.5t-8 4.5q-2 1 -4.5 7t-3.5 8q0 2 0.5 11.5t-0.5 11.5q0 2 -4 8.5t-4 8.5t0.5 11.5t-0.5 11.5q0 1 -4 3.5
t-4 3.5q-1 1 -1 3v5v4q0 1 1 3q1 3 4.5 12.5t3.5 11.5t0.5 9t0.5 11q0 2 -0.5 9.5t-0.5 10.5q-2 0 -7.5 2.5t-7.5 4.5v4v4q0 6 1 21.5t2.5 33t2.5 33t1 21.5q1 1 4 3.5t4 4.5h3q2 0 2.5 0.5t2.5 0.5q1 0 2 -0.5t3 -0.5h3q1 -2 4 -4.5t4 -3.5v-4v-4q0 -1 -1.5 -5.5t-3 -10
t-2.5 -10t-1 -5.5q0 -2 4 -11.5t4 -11.5v-27v-28q0 -1 -1.5 -4.5t-3 -7.5t-2.5 -7.5t-1 -4.5v-3v-4q0 -1 3.5 -7.5t4.5 -8.5q0 -2 2.5 -11.5t5 -20t5 -19.5t2.5 -11l8 -16v-15q1 -2 4 -11.5t3 -11.5v-8q2 -1 5 -4t3 -5q5 -4 10.5 -12.5t5.5 -9.5q0 -3 -2.5 -9t-4.5 -7h7
q2 -1 8 -3.5t8 -3.5q1 -1 3.5 -4.5t3.5 -4.5q2 0 9 -3t7 -5v-4q0 -2 0.5 -3.5t0.5 -3.5t-0.5 -6t-0.5 -6t-3 -4.5t-5 -2.5l-3 -1h-3q-1 0 -2 1q-1 2 -3.5 7.5t-3.5 7.5zM245 3q0 2 1.5 9t3 14.5t2.5 14.5t1 9q0 1 0.5 13t0.5 18q0 3 -0.5 15t-0.5 16q0 2 -3 5t-5 3t-8 -3
t-7 -5t-4.5 -8.5t-7.5 -15t-7.5 -15.5t-4.5 -8q-1 -2 -6 -7t-11.5 -11t-12.5 -12l-9 -9q-2 -2 -11 -8t-12 -7q0 2 -0.5 9.5t-0.5 10.5t0.5 10.5t0.5 8.5q1 2 3.5 7.5t4.5 7.5t11.5 8t11.5 8t4.5 8t3.5 7q2 3 11 15t12 17q1 1 4.5 3.5t3.5 3.5l6 12t8 15.5t7 13t3 6.5v17.5
v29.5v29.5v17.5q0 1 1 6.5t2 12.5t2.5 12.5t1.5 6.5q1 5 1 20t-1 19q2 2 8 5t8 3h3q1 0 2 0.5t2 0.5t2 -0.5t3 -0.5h3q3 0 9 -3t7 -5v-11v-12l-4 -4q-2 -2 -4 -3q0 -2 1 -6.5t2.5 -10t3 -10t1.5 -5.5q0 -2 -3 -5t-5 -3v-93l-8 -16v-93l8 -16q0 -7 -0.5 -24.5t-0.5 -37
t0.5 -37.5t0.5 -25q0 -3 1 -9.5t2.5 -14t2.5 -14t2 -9.5q-2 -1 -5 -3.5t-3 -3.5q-1 -2 -3 -6.5t-5 -10t-5 -10t-3 -5.5q-2 -2 -6.5 -4.5t-6.5 -2.5v18.5t-0.5 28.5t-1 28t-0.5 18q0 1 -1 8t-2.5 15t-3 14.5t-1.5 8.5v9v7zM221 128q-3 1 -3 -4.5t3 -3.5q5 1 5 3.5t-5 4.5z
M238 143q-6 0 -6 -7.5t6 -7.5q5 0 5 7.5t-5 7.5zM245 159q-5 0 -5 -8t5 -8q6 0 6 8t-6 8z" />
    <glyph glyph-name="z" unicode="z" horiz-adv-x="372" 
d="M43 -3q-3 2 -9 8l-8 8q-2 1 -7.5 4t-7.5 4l15 7q-2 1 -8 7t-7 9q-1 1 -1 2v2l1 3l12 12t11 12q1 1 3.5 5.5t5 9.5t4.5 9.5t3 6.5t7.5 8t7.5 8q1 1 4 7l4 8q3 3 10.5 11t16.5 17t17 16.5t11 10.5q2 1 8 3.5t7 3.5q2 2 4.5 8.5t4.5 7.5q1 2 7 4t8 3q1 2 3.5 8.5t3.5 8.5
q1 1 4 3t4 4q2 2 11.5 8t12.5 8q1 1 7 3.5t8 3.5q1 2 4 8.5t4 8.5q2 2 11.5 10.5t11.5 11.5q2 2 12 8.5t12 7.5q1 1 4 4.5t7 7.5l7.5 7.5l4.5 4.5q2 1 8 3.5t8 3.5q-1 2 -3 7t-4.5 10t-5 9t-3.5 5q-1 2 -7 4.5t-9 4.5q-1 0 -10.5 1t-21.5 2t-25 2t-20 2h-5h-4q-1 -1 -7 -4
t-8 -3q-3 -2 -12 -5t-11 -4q-2 0 -8.5 -1.5t-14 -2.5t-14.5 -2.5t-10 -1.5q-2 0 -8 0.5t-7 -0.5q-2 0 -5 -2.5t-4 -4.5h-81q0 2 1.5 11.5t2.5 12.5q1 2 7 8t8 7h9h15h14.5h8.5l1 1q1 0 3 2l4 4q1 1 7 1t12.5 -0.5t12 -0.5h7.5q2 2 8 4.5t7 3.5v-8q2 2 8 5t9 3h13q5 0 10 0.5
t9 0.5q7 0 21 -0.5t16 -0.5q5 0 15.5 -1t22 -2.5t20.5 -2.5t12 -2t15 -7t17 -8q1 -1 3.5 -7.5t3.5 -8.5q1 0 4 -3.5t4 -4.5v-3v-4q-1 -5 -3.5 -12.5l-5 -15t-4.5 -13t-2 -6.5l-5 -5l-9 -9t-10 -9.5t-8 -7.5q-1 -1 -6.5 -5.5t-12.5 -10t-13 -10t-7 -5.5l-8 -8
q-1 -2 -7.5 -11.5t-7.5 -11.5q-2 -3 -8 -9l-7 -7q-2 -1 -12 -4t-12 -4l-3 -3l-5 -5q-1 -2 -5.5 -7.5t-10 -12t-9.5 -12t-5 -7.5l-17.5 -17.5l-20.5 -20.5t-17.5 -17t-8.5 -7h-7l-6 -12q-2 -5 -5 -10t-5 -8q-1 -3 -3.5 -12t-3.5 -12v-4v-4q1 -1 3.5 -4t3.5 -4q4 -2 19 -7.5
t21 -7.5h7q13 0 45 -1t68 -2.5t68 -3t45 -2.5v-18q-13 0 -46 0.5t-70.5 1t-70.5 1t-46 0.5q-4 0 -13 1t-19 2.5t-18.5 2.5t-11.5 2zM73 113q-6 0 -6 -7.5t6 -7.5t6 7.5t-6 7.5zM58 130q5 0 5 -8.5t-5 -8.5q-6 0 -6 8.5t6 8.5zM43 402q-7 0 -7 -8t7 -8q5 0 5 8t-5 8z" />
    <glyph glyph-name="A" unicode="A" 
d="M23 64q2 0 5 3t3 5q1 1 0.5 7.5t-0.5 7.5q1 2 3.5 5t3.5 3v71q2 0 5 2.5t4 4.5q2 4 5 12.5t3 10.5t-4 8t-4 7v5v4l4 4l4 4q0 1 1 7t2 13.5l2 15t2 11.5v15q1 2 4 11.5t4 11.5q1 4 3.5 16t3.5 15q1 4 4.5 21.5t7.5 37t7.5 36.5t4.5 22q0 2 3.5 11.5t4.5 11.5q0 1 1 7t2 13
t2.5 12.5t2.5 6.5q0 1 2.5 6l5 10l5 10t2.5 6q1 4 1 15v23v23t-1 16q2 2 7.5 8t7.5 7q1 0 2 1q1 0 1.5 0.5t1.5 0.5l2 -1q1 -1 2 -1l7 -7h4h4q2 0 10 1.5t17.5 2.5t17.5 2t10 1h12h11q2 0 8 -2.5t8 -4.5q1 -1 3 -7.5t4 -7.5q2 -2 8.5 -4.5t7.5 -3.5t3.5 -7t3.5 -8t3.5 -8
t5 -12.5t5 -12.5t2.5 -7l4 -4q2 -2 4 -3q0 -2 -4 -12t-4 -12l8 -8q0 -1 3 -13t5 -17q1 -4 2 -10t2.5 -12.5t2.5 -11.5t1 -6v-5.5v-10v-10v-5.5q0 -2 2.5 -10t5 -17.5t5 -17.5t2.5 -10q1 -3 2 -15.5t2 -26.5t2 -27t2 -16q0 -2 3.5 -12t3.5 -12v-12.5v-22v-22v-12.5t4.5 -11.5
t4.5 -11.5v-40q0 -2 1 -11.5t2 -20t2.5 -19.5t1.5 -11q0 -3 0.5 -10t0.5 -15t0.5 -15t0.5 -10q-3 0 -12.5 1t-12.5 2q-2 0 -4.5 3t-3.5 5q-1 1 -3 6.5t-4.5 12t-4.5 12t-3 8.5v4v4q0 1 1 8t2.5 15t2.5 15t1 9v9v6q-1 1 -4 7.5t-3 7.5v7.5v12.5v12.5v7.5q0 1 -4 7.5t-4 7.5
q0 2 4 8t4 8v10q0 5 0.5 9.5t0.5 7.5q0 5 -0.5 15.5t-0.5 12.5t-4 11.5t-4 11.5q-1 3 -4 18t-4 21t-3.5 19t-5 28t-4.5 27.5t-3 17.5v9q0 5 -3 19.5t-5 18.5q-1 5 -3.5 14.5t-5 19.5l-4.5 18t-2 10q-1 2 -4.5 8.5t-3.5 8.5v7q-1 3 -3.5 12t-3.5 11q-2 3 -5 9l-4 8
q-2 3 -10.5 12t-12.5 11h-1q-1 0 -1.5 0.5t-1.5 0.5l-3 -1q-3 -2 -9 -4.5t-7 -3.5q-2 -2 -7 -6.5t-10 -9.5t-9 -9.5t-5 -6.5q-1 0 -4 -9t-4 -14q0 -1 -1.5 -5.5t-3 -10t-2.5 -10t-1 -5.5q-1 -1 -4 -7.5t-3 -7.5v-8q-1 -2 -4.5 -12t-4.5 -12v-8q0 -2 -3.5 -11.5t-3.5 -11.5
v-5.5v-10v-10v-5.5l-4 -4l-4 -4q-1 -2 -0.5 -11.5t0.5 -11.5q-1 -2 -4 -12t-4 -12v-15q-1 -2 -3.5 -11.5t-3.5 -11.5v-16q0 -3 -1.5 -10t-2.5 -14.5t-2.5 -14t-1.5 -8.5q-1 -2 -4 -11.5t-4 -11.5l12 4t11 4q2 2 11.5 8t11.5 7t12 4.5t12 4.5q1 0 7.5 3t7.5 4h8q2 0 9 2.5
t15 5t14.5 5t8.5 3.5h15l8 4t8 3q5 1 20.5 2t20.5 1q0 -1 -0.5 -5t-1.5 -5q0 -2 -3 -4.5t-5 -3.5q-3 -2 -15 -8t-16 -7q-2 -1 -9 -3.5t-14.5 -5t-14.5 -5t-8 -3.5q-3 -1 -8.5 -3t-12 -4.5t-12 -4.5t-7.5 -3q-4 -2 -16 -7.5t-14 -7.5q-3 -2 -12.5 -8t-11.5 -9l-8 9
q-3 -2 -12 -11t-11 -13q-1 -1 -3.5 -13t-4.5 -17q-1 -6 -3.5 -19.5t-4.5 -28.5t-4.5 -28t-3.5 -18v-15q-1 -3 -3.5 -12.5t-3.5 -11.5v-23q0 -1 -1.5 -6t-2.5 -10t-2.5 -10t-1.5 -6q-1 -4 -2 -11t-2 -14.5t-2 -13.5t-1 -8q-1 -3 -1.5 -11t-1 -17t-0.5 -17v-11q-1 0 -2.5 1
t-2.5 1q-6 4 -15 13t-9 11v163zM55 2q-6 0 -6 -8t6 -8q5 0 5 8t-5 8zM55 173q-6 0 -6 -8t6 -8q5 0 5 8t-5 8zM303 555q-6 0 -6 -8.5t6 -8.5t6 8.5t-6 8.5z" />
    <glyph glyph-name="B" unicode="B" horiz-adv-x="444" 
d="M48 2q-2 0 -8 -3.5t-7 -5.5h-5h-4q-1 2 -4 4.5t-4 4.5q0 15 0.5 52.5t0.5 79.5t-0.5 79.5t-0.5 52.5q0 8 -1 28t-2 42.5t-2 42.5t-2 28q2 0 4.5 2.5t2.5 4.5q0 4 -2.5 13t-4.5 11v155q0 2 2.5 8t4.5 8l5 5l3 3q1 0 4 0.5t5 0.5q1 0 1.5 -0.5t2.5 -0.5h3q1 -2 4 -11t4 -13
v-6t0.5 -12t0.5 -13.5v-9.5q0 -6 -0.5 -16.5t-0.5 -12.5l-8 -7q1 -2 4 -4.5t4 -3.5q1 -2 4 -11.5t4 -12.5q1 2 3.5 8t3.5 8q1 3 1.5 12t0.5 11h17q0 2 -2 12t-2 12q1 1 3 5t5 9t5.5 10l3.5 7t7.5 8t7.5 7t4.5 7t7 13t7 12.5t4.5 6.5t7 4t9 4q8 4 22.5 10t15.5 6h21h19
q2 -1 8 -7.5t7 -8.5q2 0 8.5 -3t7.5 -5t4 -14l4 -16v-6t0.5 -11.5t0.5 -12.5v-10q0 -7 -0.5 -22t-0.5 -17q0 -3 -3 -18t-5 -21q-1 -2 -3.5 -7.5t-3.5 -7.5q-1 -1 -4.5 -4t-4.5 -4q-1 -2 -7 -11.5t-8 -11.5q-1 -1 -4.5 -4t-3.5 -5q-1 -2 -1 -3v-4q0 -1 0.5 -4t0.5 -4
q4 -1 13 -5t18.5 -9t18.5 -9.5t12 -6.5q4 -3 15.5 -12t16.5 -12l7.5 -7.5t11.5 -12t11.5 -12t7.5 -8.5q2 -2 8 -11t8 -11q0 -2 3.5 -4.5t4.5 -3.5v-8q0 -2 2.5 -7.5t5 -12t5 -12.5t2.5 -7t0.5 -15.5t0.5 -22.5t-0.5 -22.5t-0.5 -16.5q0 -3 -2 -11.5t-4.5 -19t-5 -20
t-3.5 -13.5q-2 -4 -7.5 -16t-7.5 -14q-1 -2 -8 -4.5t-9 -3.5q-1 -2 -3.5 -8t-3.5 -8q-2 -2 -8 -7.5t-8 -7.5q-2 -1 -7.5 -4.5t-12 -7t-12 -7t-7.5 -4.5q-1 -1 -3.5 -4.5t-3.5 -3.5q-2 -1 -11.5 -4t-11.5 -5q-1 0 -4.5 -3.5t-4.5 -3.5q-2 0 -9 -2t-15.5 -4.5t-17.5 -5
t-13 -3.5h-7q-2 -1 -9 -2t-14.5 -2.5t-14.5 -2.5t-9 -1h-3h-5q-5 1 -19.5 3.5t-18.5 4.5q-5 1 -14 3.5t-10 3.5q-2 2 -7.5 12t-7.5 12zM55 219v-26t0.5 -34.5t0.5 -31v-16.5q0 -10 1 -25.5t2.5 -30.5t2.5 -26t1 -12l24 -24q6 -1 12 -1h19h11.5t15 0.5t13 0.5h7.5q1 0 7.5 4
t7.5 5h7q6 2 18 6.5t24.5 9.5t23 9t13.5 6q2 2 11.5 7.5t11.5 7.5q4 3 10 9.5t12.5 12.5t11 11t5.5 6q3 4 7.5 13l9.5 19t9 18.5t6 11.5v24v31q0 2 -3.5 16.5t-5.5 22.5q-1 5 -4 17t-4 15q0 1 -2.5 7t-4.5 8q-3 4 -8.5 13t-7.5 10l-9.5 9.5l-14 14l-14 14t-8.5 9.5
q-2 1 -7.5 3.5t-8.5 3.5q-2 2 -11 4.5t-13 3.5q-4 2 -16 5t-14 4h-5h-3q-1 -1 -4 -4.5t-5 -4.5q-5 -3 -16.5 -9t-13.5 -6q-3 -1 -12.5 2t-11.5 5q-1 1 -1 3v5q0 2 0.5 5t0.5 4q1 1 5.5 4t10 7t10 7.5t6.5 4.5t6.5 5.5l9.5 9.5t9 9.5t6 6.5q0 1 3.5 7t4.5 8q1 1 4.5 6t7.5 10
t7.5 9.5t3.5 5.5q1 2 3.5 10.5t3.5 13.5q2 6 5 21t3 18v6q0 2 0.5 4.5t0.5 4.5q0 3 -0.5 9t-0.5 7q0 3 -3 15t-5 16q0 2 -2.5 8t-4.5 8q-1 1 -4 3.5t-4 3.5q-2 1 -4.5 2t-4.5 3q-3 2 -6 3q-4 0 -13 -3t-11 -5l-5 -5t-9 -8.5t-10 -9.5l-7 -7q-2 -3 -8 -12.5t-8 -11.5
q0 -1 -3.5 -4t-4.5 -4q-1 -2 -4 -12.5t-7 -22.5t-7.5 -22t-4.5 -13l-7 -7q-2 -3 -5 -9t-3 -8q-2 -4 -4.5 -18.5t-4.5 -19.5q0 -2 0.5 -9t0.5 -14.5v-14.5t-1 -9q0 -2 -2.5 -4.5t-4.5 -2.5v-64l-8 -7l8 -8l-15 -15v-9.5t-0.5 -19.5t-0.5 -23v-19zM40 438q-5 0 -5 -8t5 -8
q6 0 6 8t-6 8zM63 461q-5 0 -5 -7.5t5 -7.5q6 0 6 7.5t-6 7.5zM56 469q-6 0 -6 -8t6 -8q5 0 5 8t-5 8zM48 476q-6 0 -6 -7.5t6 -7.5t6 7.5t-6 7.5z" />
    <glyph glyph-name="C" unicode="C" horiz-adv-x="402" 
d="M0 266q0 4 0.5 12t0.5 9t1.5 8t2.5 15t2.5 15t1.5 9v22q0 2 1.5 9t2.5 15t2 14.5t1 8.5v8q1 2 4.5 12t3.5 12q0 1 1.5 5.5t3 9.5t2.5 9.5t2 5.5q0 2 7 4.5t8 3.5q1 2 3 9t2 11q6 0 10 4q1 1 4 7l4 8t4 12t3 12q3 6 9.5 18t7.5 13q2 2 9.5 -2.5t9.5 -4.5q0 3 -2.5 11.5
t-1.5 10.5t7 8l8 8h8q3 1 9 3.5t7 4.5v8q0 2 3 4.5t5 2.5q1 0 5.5 0.5t6.5 0.5q1 0 2.5 -0.5t3.5 -0.5h5q2 -1 4.5 -3.5t2.5 -3.5q2 2 4.5 7.5t4.5 7.5q1 2 4 5t4 3h5q2 0 3.5 0.5t3.5 0.5q1 0 3 -0.5t4 -0.5h4q2 0 4 -7.5t3 -8.5q2 -1 4 -1h7q3 0 7.5 0.5t5.5 0.5l8 4l8 4
v-3q0 -2 0.5 -3t0.5 -2t-0.5 -2t-0.5 -2v-3q-2 -2 -4.5 -8t-3.5 -8q2 1 11.5 1t11.5 -1q1 -1 3.5 -7t3.5 -9v-8q2 -1 8.5 -3t8.5 -4q1 -1 3 -7.5t4 -7.5q2 -2 8.5 -4.5t7.5 -3.5q1 -2 0 -8t0 -8t3 -4l4 -4v-7q0 -3 0.5 -5t0.5 -4t-0.5 -4.5t-0.5 -4.5v-6q0 -1 -6 -3.5
t-9 -3.5q-1 -1 -2 -1h-2h-2q-1 0 -2 1q-2 1 -4.5 7t-2.5 8q-1 1 -4.5 4t-3.5 4q-1 1 -3 5.5t-5 10t-5 10t-3 5.5l-7.5 7.5t-7.5 8.5q-2 1 -0.5 7.5t0.5 7.5q0 2 -3 4t-5 3q-6 4 -18 10l-14 7h-5.5h-9.5h-9.5h-5.5q-2 0 -5 2.5t-3 4.5q-2 -3 -7.5 -8.5l-11.5 -11.5t-12 -11.5
t-8 -7.5q-2 -1 -12 -3.5t-12 -3.5q-1 -2 -3.5 -8.5t-4.5 -7.5q-1 -2 -7.5 -4t-7.5 -4t-2.5 -5.5t-1.5 -5.5q-2 0 -2 -1.5t-2 -3.5t-4.5 -11.5t-2.5 -11.5q-2 -2 -5 -8t-3 -8q-2 -1 -8 -7l-8 -8q-1 -1 -3 -5l-4.5 -9t-4.5 -10t-3 -7v-8q-1 -2 -4 -11.5t-4 -11.5q0 -2 -1.5 -9
t-3 -15t-2.5 -15t-1 -8t-1.5 -6.5t-2.5 -12.5t-2 -13t-1 -7q0 -2 -0.5 -12t-0.5 -16q0 -5 0.5 -15t0.5 -12q0 -1 1 -6t2 -11l2 -12t2 -9q0 -2 3.5 -12t4.5 -12q0 -1 1.5 -5.5t2.5 -9.5t2.5 -10t1.5 -6q1 -4 3.5 -13t3.5 -11q1 0 4.5 -3t3.5 -4v-8q1 -2 3.5 -8t3.5 -7
q3 -2 12.5 -12t11.5 -12t4.5 -7.5t3.5 -7.5q4 -2 13 -7t18.5 -10t18.5 -9.5t12 -5.5q4 -2 15.5 -5t16.5 -3h38h32q1 1 8.5 4.5t17.5 8.5t20 10.5t16 8.5q2 1 11 7t13 8q0 1 3 4.5t4 3.5q1 1 5 1.5t5 0.5q0 -4 -0.5 -16.5t-1.5 -16.5l-4 -8l-4 -8q-2 -1 -8 -3.5t-8 -4.5
l-4 -4q-2 -2 -3 -2l-1 -1q-1 -1 -7.5 0t-7.5 0q-3 -1 -15 -7t-17 -8v7l-15 -15h-116q-5 3 -8 8q-2 0 -7.5 2.5t-12 5t-12.5 4.5t-7 3l-7.5 7.5t-8.5 7.5q-1 1 -6 3t-10 5t-9.5 5t-5.5 3q-1 2 -3.5 11.5t-4.5 11.5q0 1 -3.5 6t-7.5 10.5t-7.5 10t-4.5 5.5q-2 2 -8 14l-8 16v8
q0 1 -1 5.5t-2.5 10t-3 10t-1.5 6.5v15q0 2 -2.5 10t-5 17t-5 17t-2.5 10t-0.5 8.5t-0.5 10.5zM266 14q-6 0 -6 -7.5t6 -7.5t6 7.5t-6 7.5z" />
    <glyph glyph-name="D" unicode="D" horiz-adv-x="471" 
d="M22 626l1 -4.5t2.5 -10.5t3 -12.5t2.5 -10.5v-32q0 -1 1 -5.5t2 -10t2.5 -10t1.5 -5.5v-5.5v-10v-10v-5.5q0 -2 4 -11.5t4 -11.5q1 -5 1 -16.5t-1 -15.5q2 1 8 7t7 9q0 1 1.5 5t2.5 9t2.5 9.5t1.5 7.5q0 2 1 10t2.5 17.5t2.5 17.5t1 10q0 1 4 3.5t5 3.5q0 2 3.5 11.5
t4.5 11.5q2 7 8 19t7 13q4 5 12.5 13.5l17 17l15.5 15.5t9 8l6.5 1t15.5 2.5t18 2.5t15 2h4h4q6 -2 17 -5.5l22 -7t19.5 -6.5t10.5 -4q3 -1 9 -7.5t8 -8.5q1 0 7.5 -3.5t7.5 -4.5q3 -2 9.5 -8.5l14 -14t14 -14.5t9.5 -10q1 -1 3.5 -7t3.5 -8q0 -1 -0.5 -7.5t0.5 -7.5
q1 -2 8 -8.5t8 -7.5l4 -8t3 -8q2 -2 8.5 -11.5t8.5 -11.5q1 -2 1.5 -4.5t2.5 -4.5q1 -3 3 -6q0 -2 -2.5 -5.5t-4.5 -3.5q1 0 3.5 -2.5t3.5 -4.5v-8q1 -1 4.5 -4t3.5 -4v-8.5v-14.5v-15v-9t3 -4.5t5 -2.5l-16 -8q1 -1 4 -3.5t4 -3.5v-8q1 -1 3.5 -4.5t4.5 -4.5v-7
q0 -3 1.5 -13t3 -22t2 -22.5t0.5 -12.5t-2 -10t-5 -17.5t-5.5 -17.5t-2.5 -10q-1 -2 0 -11.5t0 -11.5q0 -2 -3 -8t-5 -8q-1 0 -4 -3.5t-3 -4.5q-2 -1 -4.5 -7t-3.5 -8t-4 -12t-5 -12q-1 -2 -7 -10l-13.5 -18t-14.5 -19.5t-10 -14.5q-3 -2 -9 -8t-8 -7q-1 -1 -7 -4l-8 -4h-8
l-7 -7q-4 -3 -13 -9t-11 -8q-3 -1 -7.5 -3.5t-9.5 -5l-9 -4.5t-5 -2t-5.5 -0.5t-6.5 -0.5t-6.5 0.5t-5.5 0.5q-1 2 -3 4l-4 4q-2 1 -11.5 0.5t-11.5 -0.5q-4 1 -16 3.5t-16 3.5q-2 1 -7.5 4t-7.5 5l7 8q3 -1 11 -1.5t16.5 -0.5t16.5 0.5t11 1.5q1 0 6.5 1.5t13 4l15 5
t12.5 4.5q1 1 7.5 3.5t7.5 3.5h8l4 4q2 2 3 4q3 1 12.5 4t11.5 4t7 5.5t10 9.5t9 9.5t5 6.5q1 1 5 7.5t9 15.5t9.5 18t7.5 14q2 2 4.5 7l5 10l4.5 9t2 5q1 4 4 12t5.5 16.5t4.5 16t2 10.5v17v21q0 2 -1.5 10t-3 17t-3 17.5t-1.5 10.5v7v12.5v12v7.5q0 1 -3.5 7.5t-3.5 7.5
v5.5v10v10v6.5q0 1 -3.5 7.5t-4.5 7.5v15q-1 2 -4 8.5t-4 8.5t-3.5 14t-3.5 16v8q-1 1 -4.5 4t-3.5 4q-3 3 0 8q-3 3 -10.5 11t-16 17t-16.5 16.5t-11 10.5q-2 1 -7.5 5.5t-12 9.5t-12 9t-8.5 6q-1 1 -7 4l-8 4q-4 1 -10.5 4t-12.5 5.5t-11 4.5l-5 2h-12h-11
q-4 -3 -13 -11.5t-19 -18.5l-19 -19t-12 -13q-2 -4 -7.5 -14.5t-11.5 -23t-11.5 -24t-7.5 -17.5q0 -1 -0.5 -6t-0.5 -8v-10q0 -4 1 -6q0 -1 3 -4.5t4 -4.5v-1q0 -1 1 -2q0 -1 -0.5 -1t-0.5 -1v-2q-1 0 -4 -3.5t-3 -4.5q-1 -1 -4.5 -7.5t-3.5 -7.5q-1 -2 -4 -5t-5 -3l17 -24
q-2 0 -5 -3t-3 -5q-1 -2 -1 -3v-3q0 -2 0.5 -5t0.5 -4q0 -2 3.5 -12t4.5 -12v-3v-4q-1 -2 -4.5 -11.5t-3.5 -11.5v-6.5t-0.5 -12t-0.5 -13.5v-11v-11t0.5 -14t0.5 -12v-6q0 -2 3.5 -11.5t4.5 -11.5v-5v-3q-1 -2 -4.5 -12t-3.5 -12v-8v-7q0 -2 3.5 -11.5t4.5 -11.5v-13v-11
l-8 -8q0 -5 1.5 -16t2.5 -23t2.5 -23t1.5 -15v-21v-18l-4 -16l-4 -16h-4h-5q-2 1 -7.5 4t-7.5 4l-8 8q-2 2 -4.5 8t-2.5 8v12.5v22v22v12.5q0 13 -1.5 39t-2.5 53.5t-2.5 50.5t-1.5 29q0 1 -1 7t-2.5 12.5t-2.5 12t-1 7.5v23q-1 3 -3.5 14.5t-5.5 25t-5.5 24.5t-2.5 14v26
v44.5v44v25.5q0 1 -1 7t-2 13t-2.5 12.5t-1.5 6.5v24q-1 1 -2 6.5t-2.5 12.5t-2.5 12.5t-1 6.5q0 2 -0.5 4.5t-0.5 3.5h24zM46 432q-6 0 -6 -8t6 -8q5 0 5 8t-5 8z" />
    <glyph glyph-name="E" unicode="E" horiz-adv-x="384" 
d="M31 86q0 1 2.5 4t4.5 4l-7 7l7 8q-2 1 -4.5 4t-2.5 4q-1 1 -2.5 13.5t-2.5 27.5t-2 27t-2 14q0 2 -7 4.5t-8 3.5q-2 3 -4.5 14t-2.5 14q2 0 8 1t6 3q4 2 9.5 11t7.5 12q0 2 -1 11.5t1 12.5q0 1 2.5 3.5t4.5 3.5q-2 0 -4.5 3t-2.5 5q0 1 -1 8t-1 11q0 5 1 12t1 8
q0 2 2.5 5t4.5 3l-7 7l3 8v47l4 7l-7 8l7 8l-7 7v55l7 9l-11 11t-13 11q-1 2 -7.5 4.5t-7.5 3.5t-1 3v5v4q0 1 1 3q0 1 4 4.5t4 4.5q1 2 -0.5 11.5t0.5 11.5q0 1 2.5 4t4.5 4t8.5 3.5t8.5 3.5q1 2 1 8t-1 9q2 0 7.5 -3.5t7.5 -5.5q1 -1 3.5 -5t5 -9t4.5 -10t2 -7h101l8 4
l8 4q2 0 8 -0.5t8 0.5l4 4l4 4h5.5h9.5h9.5h5.5q5 1 19.5 3.5t19.5 3.5q1 1 8 4.5t8 3.5h7q5 2 17 4.5t15 4.5q1 0 7.5 3.5t7.5 3.5q2 -1 8.5 -7t8.5 -9q1 -2 2.5 -9.5t1.5 -10.5q-3 0 -9 -0.5t-13 -1t-13 -1t-9 -0.5q-1 0 -4 -3.5t-3 -4.5q-3 -2 -9 -4.5t-8 -2.5h-5h-9.5
h-10h-5.5q-2 -1 -8.5 -3t-14 -4.5t-14.5 -5.5t-10 -4q-1 0 -4 -3l-4 -4h-4h-3l-4 4q-2 2 -4 3q-2 0 -8 -3l-8 -4l-12 -4t-11 -4h-8q-2 -1 -8 -4.5t-8 -3.5t-9 1t-14.5 2.5t-14.5 3t-8 1.5h-5h-4q-2 -1 -4.5 -3.5t-2.5 -4.5t0.5 -11t-0.5 -11q0 -2 -4 -5t-4 -4q-1 -1 -1 -3
v-5v-4q0 -2 1 -3q0 -1 4 -4t4 -4v-8.5v-15v-15.5v-8q0 -2 2.5 -5t4.5 -3l-15 -7q2 0 5 -3t3 -5q0 -1 0.5 -8t0.5 -11q0 -5 -0.5 -12t-0.5 -8q0 -2 -3 -5t-5 -3q2 -1 5 -3.5t3 -3.5q1 -2 3.5 -14t3.5 -18v-3v-5q0 -2 -2.5 -7.5t-4.5 -7.5q0 -2 -3 -4.5t-5 -2.5q2 -2 5 -4.5
t3 -4.5v-8q4 -3 13 -9t11 -6q1 0 6.5 2.5t12.5 5t12.5 5t6.5 2.5q2 1 8.5 1.5t8.5 0.5q0 -2 -0.5 -8.5t-0.5 -8.5q-1 -2 -3.5 -8t-3.5 -7q-2 -2 -8.5 -5t-8.5 -3q-2 -1 -11.5 -0.5t-11.5 0.5q-1 0 -4 -4t-3 -5q-5 -1 -17 -3.5t-15 -3.5l8 -8v-98l-8 -8q2 -1 5 -3.5t3 -3.5
q1 -2 0.5 -12t-0.5 -12q2 -8 4.5 -22.5t2.5 -15.5q1 -2 10 -5t14 -3q1 0 5.5 -0.5t6.5 -0.5h7q2 0 4 1l4 4l4 4q2 0 10 1t17 2t17 2t10 2q2 0 8.5 3.5t8.5 4.5h15q1 1 7.5 3.5t7.5 4.5q2 0 8.5 -1t8.5 1l11 5.5t19.5 9.5t19.5 10t12 6h7q3 0 12 3t11 5q2 1 8 3.5t9 3.5v-12
v-11q-2 -2 -4.5 -8t-4.5 -8h-8q-2 -1 -8.5 -4t-14 -6.5t-14.5 -7t-10 -5.5q-2 -2 -11.5 -8t-11.5 -7h-7q-3 -1 -15.5 -4t-29 -7t-32.5 -7.5t-25 -5.5q-1 0 -5.5 -1.5t-10 -2.5t-10 -2.5t-5.5 -1.5h-3h-5q0 1 -3 4.5t-4 3.5q-3 0 -9 -3t-7 -5h8q-1 2 -7 4.5t-8 3.5h-7.5
h-12.5h-12.5h-7.5q-2 2 -8 11t-7 13v5v9.5v10v6.5t-3.5 11.5t-3.5 11.5v4v4zM38 215q-5 0 -5 -8t5 -8q6 0 6 8t-6 8zM14 231q-5 0 -5 -8t5 -8q6 0 6 8t-6 8zM250 295q0 -2 -0.5 -5t-0.5 -4q-2 -5 -8.5 -17t-8.5 -15q-1 -2 -3.5 -5t-3.5 -3h-6.5h-10h-9.5h-5q-2 0 -8 -3.5
t-8 -3.5q-3 -1 -12.5 -1.5t-12.5 -0.5q0 1 1 4t1 5q1 2 3.5 8t3.5 8t4 4t4 3q4 4 13 9.5t11 7.5h15q1 0 7.5 3.5t8.5 3.5q3 0 12 1t13 1z" />
    <glyph glyph-name="F" unicode="F" horiz-adv-x="374" 
d="M41 102l8 9l-8 8v146q2 1 5 3.5t3 3.5q0 2 0.5 4.5t0.5 4.5q-1 0 -1 1v3v3q0 2 -7 4t-8 4q-1 1 -1 2v2v2q0 1 1 2q1 3 7 15l8 16q1 2 4 4.5t4 2.5l-4 4t-4 5q0 1 -1 6.5t-2 13t-2.5 15t-2.5 11.5v5v3q2 2 8 5t8 3l-8 8v160q0 1 -3 4t-5 4h-3q-2 0 -2.5 0.5t-1.5 0.5
t-4 -0.5t-4 -0.5q-2 -1 -8 -4.5t-7 -3.5t-5.5 -0.5t-6.5 -0.5t-6.5 0.5t-5.5 0.5l-8 8q0 1 -0.5 5t-0.5 7q0 2 0.5 6t0.5 6q1 1 4 3.5t4 3.5q8 0 28 -0.5t42.5 -0.5t42.5 0.5t28 0.5q2 0 11 1t19.5 2.5t19.5 3t12 1.5h15q2 0 11.5 1t20 2.5t19.5 2.5t11 1q3 1 11 1.5t17 0.5
h16.5h10.5q0 -2 -3 -12t-5 -12q-1 -3 -11 -5.5t-12 -3.5q-2 0 -8 -4t-8 -4q-1 0 -7.5 4t-8.5 4t-8 -3t-7 -5h-148l-15 -7q2 0 4.5 -3t2.5 -5q0 -1 0.5 -8t0.5 -12q0 -4 -0.5 -11t-0.5 -8q0 -2 -2.5 -5t-4.5 -3l7 -8l-7 -7q2 0 4.5 -3t2.5 -5v-9.5t0.5 -20.5t0.5 -21v-12
q0 -4 -0.5 -11.5t-0.5 -8.5t-3.5 -3.5t-3.5 -3.5q-1 -1 -1 -3v-5v-5q0 -2 1 -3q0 -1 3.5 -4t3.5 -4v-7q0 -3 0.5 -6.5t0.5 -5.5t-0.5 -5t-0.5 -6v-8l-4 -4q-2 -2 -3 -4q-1 -1 -1 -3v-6v-4q0 -2 1 -3q1 -2 3.5 -5t3.5 -3t10 -0.5t14 -0.5t13.5 0.5t9.5 0.5t6.5 2.5t12.5 5
t12.5 5t7.5 2.5h8q0 1 3.5 4.5l4.5 4.5q1 0 5.5 1.5t10 2.5t9.5 2.5t5 1.5q2 0 8.5 3t8.5 4q3 2 11.5 5t10.5 3t12 -0.5t12 0.5q1 0 7.5 3t8.5 4q2 2 8.5 2.5t8.5 0.5q0 -3 -0.5 -9.5t-1.5 -8.5t-4 -7.5t-4 -7.5t-3.5 -5t-3.5 -4q-6 -2 -20.5 -6.5t-30.5 -9.5t-30.5 -9
t-20.5 -5h-7.5h-12h-12.5h-7q-2 0 -7.5 -3t-7.5 -5v8q-1 -2 -4.5 -5.5t-7 -7.5t-7 -7t-4.5 -4q-2 0 -8 -3.5t-8 -4.5q-5 -2 -12.5 -8t-7.5 -7v-84l-3 -8q0 -2 -0.5 -13.5t-0.5 -15.5v-10.5t0.5 -13t0.5 -12v-6.5q0 -2 3 -11t4 -11v-5v-3q0 -3 -1 -8.5t-2.5 -11.5t-2.5 -11.5
t-1 -7.5q1 -1 3.5 -4t3.5 -4v-4v-4q-1 -4 -3.5 -13t-3.5 -11h-5h-3l-13 13l-11 11q0 2 0.5 11.5t-0.5 11.5q0 2 -3 5t-5 3v54zM57 366q-6 0 -6 -7.5t6 -7.5t6 7.5t-6 7.5z" />
    <glyph glyph-name="G" unicode="G" horiz-adv-x="471" 
d="M131 24q-2 -2 -8.5 -5t-8.5 -4h-3h-4q-2 1 -11.5 4.5t-11.5 4.5q-2 0 -9 0.5t-10 0.5q0 2 -1.5 7t-3.5 7q-1 2 -11 8t-12 8q-2 1 -4 6.5t-4 8.5q0 1 -1.5 5.5t-2.5 10t-2 10t-1 5.5q-2 4 -7.5 19t-9.5 21q0 1 -3.5 7.5t-3.5 7.5q-1 2 -0.5 11.5t0.5 11.5q0 1 -1.5 8
t-3 15t-2.5 15t-1 8t1 5.5t2.5 10t3 9.5t1.5 5v16v27v27v16t1 10.5t2 16t2 16.5t2 12q2 2 5 11.5t3 11.5q0 1 3 11t6.5 21t6.5 21t4 11q3 8 9.5 22.5t14 29.5l13.5 27t8 15t8.5 10t14 14.5t14.5 13.5t10 8q2 -1 8 -1t9 1q1 0 10 3l19.5 6.5t19.5 7t11 4.5l87 -13q4 0 16 -6
t15 -10q2 -1 7.5 -13t8.5 -18q1 -2 1.5 -5t0.5 -5q-2 0 -9 1t-9 2q-2 0 -7.5 2.5t-7.5 4.5q-1 0 -4.5 2.5t-7.5 5t-7.5 5t-4.5 2.5q-3 2 -7.5 4.5t-9.5 5l-9 4.5l-4 2q-3 0 -12.5 -3.5t-11.5 -4.5q-2 0 -11.5 0.5t-11.5 -0.5l-4 -4l-4 -4q-2 -1 -8 0.5t-8 -0.5
q-2 -1 -7.5 -7.5t-7.5 -7.5t-12 0t-11 0q-2 -1 -4 -5.5t-4.5 -9.5l-5 -10t-3.5 -6q-2 -4 -7.5 -12.5t-7.5 -10.5q-1 -2 -5.5 -6.5t-10 -9.5t-10.5 -10l-6 -6t-3.5 -13t-5.5 -26t-5.5 -26t-3.5 -14q0 -2 -7 -8t-8 -8t0 -11.5t0 -11.5l-4 -4q-2 -2 -4 -3v-8v-12.5v-12v-6.5
q0 -2 -1.5 -7.5t-3 -12.5t-2.5 -12.5t-1 -7.5q-1 -6 -2 -16l-2 -20t-2 -17.5t-1 -8.5q0 -2 2 -13.5t4.5 -24.5t5 -24.5t3.5 -13.5v-8q1 -2 4 -7.5t4 -7.5q1 -1 3.5 -4.5t3.5 -4.5t3.5 -6.5t4.5 -12.5t4.5 -12.5t3.5 -6.5q1 -2 6 -6t11 -9t12.5 -9.5t9.5 -6.5q2 -2 12 -4.5
t12 -3.5q1 -1 3.5 -4t3.5 -4q5 -1 18 -1.5t17 -0.5q7 0 20.5 0.5t14.5 1.5q2 0 6.5 3.5t10 8t10 8t5.5 3.5q2 2 11.5 4.5t11.5 3.5q1 1 6 5.5t10 10t9.5 10l5.5 5.5t7.5 4t8.5 4q1 1 3 4.5t4.5 7.5t5 7.5t2.5 4.5q2 1 8.5 7t6.5 8q2 2 5 11.5t4 11.5q0 1 1 7t2.5 12.5
t2.5 12t1 6.5q2 1 8.5 7.5t7.5 8.5q1 1 3.5 7.5t3.5 7.5l4 4q2 2 4 3q1 3 5 10t7.5 14.5t7 14t4.5 8.5v8q0 1 2.5 4.5t5.5 7.5t5 7.5t2 4.5q-1 5 -9.5 16.5t-13.5 13.5q-5 0 -9 1q-4 0 -8 0.5t-7 0.5q-5 0 -16.5 -1t-13.5 -1t-8 -1t-12.5 -2t-12 -2.5t-6.5 -1.5
q-5 0 -22 -2.5t-37 -5t-37 -5t-21 -2.5q-2 -2 -12 -5t-12 -3h-4h-4q-2 2 -8 11.5t-7 11.5q2 1 7.5 3.5t7.5 3.5q2 2 12 9t12 8h5.5h9.5h10h6t4 3t3 4q2 1 11 3.5t13 4.5h8q3 0 12 1.5t19.5 3t19.5 2.5t11 1q4 0 15.5 0.5t24 1t23.5 0.5h15v-10l16 -4t15 -4q2 -1 6 -2l8 -2
q4 -2 9 -3q1 -1 4 -7l5 -10v-3v-4q-1 -4 -2 -11.5t-2.5 -15t-3 -13.5t-1.5 -7t-3 -7t-5 -8q0 -1 -3 -4l-4 -4l-6 -18t-10 -32t-9.5 -32t-5.5 -18q-1 0 -4 -3.5t-4 -4.5t-4.5 -7t-7 -12.5t-7 -12t-4.5 -6.5q-1 -2 -8.5 -4.5t-7.5 -4.5q-2 -1 -6.5 -7.5t-9.5 -14.5t-9.5 -15
t-5.5 -9t-4 -4.5t-4 -3.5q-1 0 -7.5 -3.5t-7.5 -4.5q-2 -1 -6.5 -5t-9.5 -9l-9.5 -9.5l-6.5 -6.5l-7 7l-12 -12t-11 -12q-2 -2 -8.5 -4.5t-8.5 -2.5t-4.5 2.5t-2.5 4.5q-1 -1 -4 -3.5t-4 -3.5h-15q-1 0 -5.5 -1.5t-10 -3t-10.5 -2.5t-6 -1t-7.5 4t-7.5 4q-2 1 -7.5 1.5
t-7.5 0.5v14zM177 24q-6 0 -6 -8t6 -8t6 8t-6 8zM426 302q-5 0 -5 -7.5t5 -7.5q6 0 6 7.5t-6 7.5zM118 569q-6 0 -6 -8t6 -8q5 0 5 8t-5 8z" />
    <glyph glyph-name="J" unicode="J" horiz-adv-x="196" 
d="M132 160v13.5t0.5 20t0.5 20v13.5v17t-0.5 21.5t-0.5 18.5v9q0 2 -1 9.5t-2.5 16t-2.5 17t-2 12.5q-1 2 -3.5 11.5t-3.5 11.5v7q0 1 -1.5 6l-3 10t-2.5 10t-1 6v7q0 2 -1.5 9t-3 15t-2.5 14.5t-1 8.5q0 1 1 6t2.5 10t3 9.5t1.5 5.5t-4 4t-4 5v7q-1 1 -3.5 4t-4.5 4v54
q2 1 4.5 4t3.5 4q0 2 1.5 14t1.5 14q2 0 6.5 -1.5t6.5 -3.5t8 -11t7 -12q0 -1 0.5 -7.5t0.5 -9.5q0 -5 -0.5 -13t-0.5 -9t-4 -7.5t-4 -8.5q0 -1 3.5 -3.5t4.5 -3.5v-2q0 -1 0.5 -1.5t0.5 -1.5l-1 -3q-1 -2 -4 -4.5t-4 -2.5l8 -9l-8 -8q1 0 4 -2.5t4 -4.5q1 -1 4.5 -7t3.5 -9
q1 -2 4 -11t3 -13l2.5 -7.5t3 -9.5t2.5 -9l1 -4v-39q0 -2 1 -9t2 -14.5t2.5 -14.5t1.5 -9q1 -4 2 -12t2.5 -16.5t2.5 -16t1 -10.5v-4v-3q-1 -1 -4.5 -4t-3.5 -4v-5.5v-10v-10.5v-6q0 -4 -1 -14t-2.5 -21t-2.5 -21t-1 -13q-2 -1 -5 -4l-4 -4q0 -2 -1 -7.5t-2 -12t-2 -12.5
t-2 -7q-1 -2 -6 -9.5t-11 -16t-12.5 -17t-9.5 -12.5l-6.5 -6.5l-9.5 -9.5t-9.5 -9t-5.5 -5l-8 -4t-13.5 -7t-14.5 -7.5l-11 -5.5q-1 0 -9.5 -0.5t-9.5 -0.5q0 3 4 16t7 16q1 1 6.5 4t12.5 5.5t13 4.5t8 2q3 2 11.5 7.5t10.5 7.5q1 1 5.5 6.5t10 11.5t10 12t6.5 9q1 2 4 7.5
t4 7.5q1 3 3 10t4.5 14.5t4.5 14t3 8.5z" />
    <glyph glyph-name="H" unicode="H" horiz-adv-x="420" 
d="M338 166v22.5v35.5t0.5 35.5t0.5 22.5h-11l-6 -6h-8q-3 0 -12 -1t-19.5 -2.5t-19.5 -3t-11 -1.5h-8q-1 0 -7 1.5t-13.5 2.5t-13.5 2.5l-6 1.5q-2 -2 -8 -7.5t-9 -7.5q-1 -1 -3 -1q-2 -1 -6 -1q-3 0 -7.5 1t-5.5 1q-2 0 -10 1.5t-17.5 2.5t-17.5 2t-10 1q-3 0 -10 0.5
t-15 0.5q-9 -7 -15 -1h-2q0 -3 -1 -8.5t-1 -6.5q1 -2 2 -9t2.5 -15t2.5 -15t1 -8v-24q0 -2 1.5 -8.5t3 -14.5t2.5 -15t1 -9v-23l8 -69v-8q-1 -2 -4 -5.5t-4 -3.5q-4 1 -7 3q-6 3 -9 6l-7 8l-8 30v16q0 1 -1.5 5.5t-2.5 10t-2 10t-1 5.5v14.5v24.5v24.5v14.5q0 1 -4 7.5
t-4 8.5v15l-9 24q-1 2 -3 7.5t-4 7.5q0 1 -3.5 4t-4.5 4q-1 0 -2.5 0.5t-3.5 0.5h-6q0 4 1.5 15t2.5 15q1 2 8.5 8t7.5 8q2 3 4.5 8.5t5 12t4.5 11.5t2 7t-1.5 16t-3 30.5t-3 31t-1.5 17.5v139q0 2 3.5 8.5t5.5 8.5q2 1 9.5 3t9.5 2v-29q-1 -7 -1.5 -23.5t-1.5 -35.5
t-1 -35.5v-22.5q0 -2 1 -15t2.5 -28.5t3 -28.5t1.5 -15q0 -4 0.5 -14t0.5 -21t-0.5 -21t-0.5 -14q1 -2 7 -8l8 -8q10 4 16 2h5q4 0 13 -0.5t10 -0.5l31 -8l8 11h87q0 1 3 2.5t5 1.5h6.5h12.5h12.5h7.5l4 4l4 4h9q4 0 7.5 0.5t6.5 0.5q2 0 5.5 -0.5t8.5 -0.5q1 7 2 21.5
t0 23.5q0 2 -1.5 16.5t-3 31t-2.5 31t-1 16.5q0 8 -0.5 29t-0.5 44.5t0.5 45t0.5 29.5q-2 0 -4.5 2.5t-2.5 4.5q0 4 2.5 13t4.5 11q1 2 7 5t9 3l8 -16t7 -16v-7l7 -8l-3 -7v-47l-12 -16q2 -1 5 -3.5t3 -4.5q2 -3 4.5 -12t2.5 -11q1 -2 1 -9v-15t-0.5 -15t-0.5 -8
q0 -2 3.5 -5t5.5 -3q-1 -4 -2 -18t-2.5 -30t-2.5 -30t-2 -17v-15q1 -2 2.5 -9t3 -14.5t2.5 -14.5t1 -9v-71q0 -1 -1 -5t-2.5 -9.5t-3 -10t-2.5 -5.5q0 -1 0.5 -5.5t0.5 -10v-10.5t-1 -6q0 -1 -3.5 -7.5t-3.5 -7.5q0 -2 1 -10t2 -18l2 -20t2 -14q1 -2 5 -12t4 -12
q0 -3 1 -16.5t1 -17.5q-3 0 -13.5 1t-12.5 2l-7 8zM314 315q6 0 6 -7.5t-6 -7.5t-6 7.5t6 7.5zM353 548q-5 0 -5 -7.5t5 -7.5q6 0 6 7.5t-6 7.5zM361 305q-6 0 -6 -7.5t6 -7.5q5 0 5 7.5t-5 7.5zM322 300q-6 0 -6 -8t6 -8h1v16h-1z" />
    <glyph glyph-name="I" unicode="I" horiz-adv-x="184" 
d="M65 282v317q-2 2 -5 8l-4 8t-1 6v5q2 0 8 -1.5t8 -1.5q2 -1 4.5 -3.5t2.5 -4.5q1 -3 2.5 -12t3 -19t2.5 -19t1 -12q0 -10 0.5 -35.5t1.5 -59.5t2 -72t2 -71.5t1.5 -59.5t0.5 -35q1 -1 3.5 -4t3.5 -5q2 -2 4.5 -13.5t3.5 -16.5v-4v-4q-1 -4 -7 -16t-8 -15h15q1 0 4 -12
t4 -19v-4v-5q-1 -3 -4 -11.5t-4 -10.5q-3 -5 -8 -8q3 -2 9 -7.5t7 -7.5v-2v-2q0 -1 1 -1q0 -1 -0.5 -2t-0.5 -2q-2 -2 -6 -5.5t-9 -7t-9.5 -6.5t-6.5 -4t-8.5 -2.5t-8.5 -1.5v222z" />
    <glyph glyph-name="numbersign" unicode="#" horiz-adv-x="436" 
d="M319 40q0 4 0.5 13t0.5 19t-0.5 18.5t-0.5 11.5q0 1 -2.5 6t-5.5 10.5t-5.5 10t-2.5 5.5q0 4 -0.5 14t-0.5 21t0.5 21t0.5 14q-2 -1 -7.5 -4t-7.5 -4h-8q-2 0 -8.5 -2t-14 -4.5t-14.5 -5t-10 -3.5q-1 -1 -7.5 -4.5t-7.5 -3.5q-4 -2 -19 -8l-20 -8v-71q-1 0 -4 0.5t-4 0.5
l-8 4t-7 4q-3 2 -9 8t-7 8q-2 2 1.5 10t3.5 10q-3 0 -14.5 2t-13.5 1q-2 0 -6.5 -2.5t-10 -5t-10 -5t-5.5 -2.5q0 -1 -4 -1.5t-5 -0.5q0 2 0.5 4.5t0.5 4.5q1 4 4 10t5.5 12.5t4.5 11.5t3 6t11 3t12 4q3 3 9 8.5t6 7.5v62q0 2 -6 7.5t-9 7.5q-1 1 -8 0.5t-8 -0.5q-5 1 -13 2
t-15.5 2.5t-12.5 3l-5 1.5v8q-2 0 -8 -0.5t-8 -0.5q-4 0 -16 3t-15 5v3v5q1 2 3.5 7.5t3.5 7.5q1 1 2 1.5t3 2.5q2 1 3 3q4 2 19 5l20 4v-4v-5q-1 -2 -3.5 -7.5t-3.5 -7.5q2 -2 11 -4.5t11 -2.5q5 0 17 2.5t15 4.5q0 4 0.5 15.5t0.5 16.5t-0.5 17t-0.5 13q0 2 -1.5 7.5
t-3 12.5t-2.5 12.5t-1 7.5q0 1 -0.5 3.5t-0.5 3.5h30q0 -4 1 -19t1 -20q0 -2 4 -11.5t4 -11.5q0 -1 1 -5.5t2.5 -10t2.5 -10.5t2 -6q0 -1 3 -3.5t5 -3.5h7h8q1 1 7.5 4t7.5 3q2 1 7.5 4t12 5.5t12 4.5t8.5 3q2 1 6 1.5t8 2.5q4 1 9 3q1 0 4 -3.5t4 -3.5t6.5 2.5t8.5 4.5l8 8
q2 1 7.5 4t7.5 4l8 47l-8 7l8 62q-2 2 -7.5 8t-7.5 9q-1 2 -1 4v7q0 2 0.5 6t0.5 6q0 1 3.5 7.5t3.5 7.5q1 2 2 12.5t1 12.5q1 0 2.5 -0.5t2.5 -0.5q3 -2 12.5 -8t11.5 -9q0 -7 -0.5 -25.5t-0.5 -39.5t0.5 -40t0.5 -26q0 -1 1 -5.5t2 -9.5t2.5 -10t2.5 -7t3.5 -7.5t3.5 -7.5
h4h4q2 1 12 4t12 3q3 1 16 2t17 1q0 -2 -1 -5t-2 -5q-2 -3 -7.5 -8.5l-7.5 -7.5q-2 -1 -8.5 -3t-14.5 -4.5t-15 -4.5t-9 -3q-1 -1 -3.5 -7t-3.5 -9q-1 -6 -1 -11v-16q0 -3 0.5 -13.5t0.5 -14.5l7 -7q1 0 5.5 -0.5t6.5 -0.5q3 0 7 0.5t5 0.5q2 1 4 3l4 4l3 1l2 -1h2
q2 0 4.5 -3.5t3.5 -3.5q3 -1 12 -2.5t11 -1.5v-12q-4 -2 -19 -7.5t-19 -7.5q-5 -2 -13.5 -8t-10.5 -8t-5 -7.5t-3 -7.5q0 -3 -0.5 -11t-0.5 -16.5t0.5 -16.5t0.5 -11l-7 -8l7 -7q2 -2 5 -8t3 -9q2 -4 5 -18.5t3 -19.5q1 -4 1.5 -17t0.5 -16q-3 0 -12.5 0.5t-12.5 1.5
q-2 1 -8 3.5t-8 3.5zM301 315q-2 0 -6.5 -0.5t-6.5 -1.5q-2 0 -11.5 -3.5t-11.5 -4.5h-8q-1 0 -5.5 -2.5t-10 -5t-10 -5t-5.5 -2.5q-1 -1 -8 -0.5t-8 0.5q-4 -1 -13 -4t-11 -4q-3 -2 -9 -8t-6 -8v-64q3 0 12 1t11 1t9 2.5t15 5.5t14.5 5.5t8.5 2.5t12 -0.5t12 0.5q2 0 8 6.5
t7 8.5t7.5 4.5t7.5 3.5q2 1 5 4t3 4q2 3 5.5 8.5t3.5 6.5q0 2 -4.5 8t-4.5 8q0 4 -1 16.5t-1 16.5zM163 298q-5 0 -5 -8t5 -8q6 0 6 8t-6 8z" />
    <glyph glyph-name="dollar" unicode="$" horiz-adv-x="342" 
d="M179 -48v8v15v15v9t-3 5t-5 3q-5 -1 -18.5 -0.5t-28.5 2t-28 3t-19 2.5q-3 0 -8.5 3t-11.5 7t-11.5 7.5t-6.5 5.5q-2 3 -4.5 9.5t-5 14t-4.5 14t-2 9.5h8q2 -3 7.5 -8.5l11.5 -11.5l11.5 -11.5t8.5 -6.5q2 -2 10.5 -5.5t13.5 -3.5q4 0 15.5 0.5t24 1t24 1t16.5 0.5
q0 4 -0.5 12.5t-1.5 17.5t-1 17.5v12.5q0 1 3.5 7.5t4.5 8.5v6v9q0 1 -1.5 6t-2.5 11t-2.5 12.5t-1.5 9.5q-1 7 -3.5 19t-4.5 12q-1 1 -6.5 3.5t-8.5 4.5h-3h-5q-2 0 -10.5 -1.5t-17.5 -2.5t-17 -2.5t-10 -1.5h-3h-5q-2 1 -11 4t-11 4q-2 0 -8.5 -0.5t-7.5 0.5q-2 0 -4.5 3
t-3.5 5q0 1 1 3.5t1 4.5h-22q0 2 0.5 8.5t1 14t1.5 14t1 9.5q0 2 2 7t4.5 10t5 9t4.5 5l16 -15q-2 3 -2 15t2 16q1 4 7 12.5t8 10.5q1 1 7.5 0t7.5 0q2 1 6.5 5.5l10 10t10 10.5t5.5 6q2 1 11.5 7t11.5 8q1 1 4.5 7t3.5 8v5v3q0 1 -1 5.5t-2.5 10t-3 10t-1.5 6.5v15
q0 1 -2 7.5t-4.5 14t-5 14.5t-3.5 11q-1 2 -4 7.5t-4 7.5t-4 5t-4 3l16 31q2 -1 8 -7t7 -8t4.5 -8.5t7 -14t7 -14.5t5.5 -10v-8q1 -5 4 -15.5t7 -22t7 -20.5t5 -12q1 -2 3.5 -5t3.5 -3q3 0 10 -0.5t14.5 -1t14 -1t8.5 -0.5v-30q-1 0 -3.5 0.5t-3.5 1.5q-1 0 -4 3.5t-4 4.5
h-4h-4q-5 -2 -14 -5t-10 -3v-13v-18q0 -2 4 -11.5t4 -11.5v-24q0 -1 1 -6t2 -11t2.5 -12t3.5 -9q0 -5 2.5 -16.5t4.5 -15.5q3 0 9.5 -2t14 -4.5t14 -5t9.5 -3.5q3 -2 10 -5t14.5 -7t13.5 -7.5t8 -4.5t8 -7l8 -8l4 -12t4 -11q0 -2 0.5 -10t0.5 -12q0 -3 -0.5 -9.5t-0.5 -7.5
q-1 -3 -4 -10t-7 -14.5t-7.5 -14t-5.5 -8.5q0 -1 -6.5 -4t-8.5 -4q-1 -2 -7.5 -8t-8.5 -7t-8 -4.5t-7 -4.5l-8 -4t-12 -6.5t-11.5 -7t-7.5 -5.5q0 -3 -0.5 -15t-0.5 -16q0 -6 0.5 -18t0.5 -13q0 -3 1.5 -8.5t2.5 -11.5t2.5 -11.5t1.5 -7.5l-8 -8q-7 -1 -11 -1q-2 0 -4 -0.5
t-4 -0.5h-3q0 -1 -2.5 1.5t-4.5 5.5q-4 4 -7 8zM209 204q0 -5 0.5 -18t0.5 -16q0 -6 1 -21.5t2.5 -33t2.5 -33t2 -21.5h3h5q3 1 15 7l16 8l12 8t11 8q3 2 9 8t6 8q1 1 2.5 5t2.5 9t2 9.5t1 6.5t0.5 6.5t0.5 7.5q0 1 -0.5 2.5t-0.5 3.5v4l-3 3l-5 5q-1 1 -6 4t-11 6.5l-12 7
t-9 5.5t-9 5t-7 3q-3 1 -15.5 2t-16.5 1zM101 225q-5 0 -5 -8t5 -8q6 0 6 8t-6 8zM47 264q1 -2 7 -8.5t8 -8.5q2 -1 14.5 -3.5l17.5 -3.5h6.5h12.5h12.5h6.5q2 0 8 -4t8 -4t7.5 3t7.5 5q0 2 1 11t1 13t-1 13t-1 10t-3.5 7.5t-3.5 7.5v7v12.5v12v7.5t-3 5t-5 3t-8 -3t-8 -5
l-7.5 -7.5l-11.5 -11.5t-11.5 -12t-7.5 -8q-1 2 -4.5 2t-4.5 -2q-1 -1 -4 -7.5t-4 -7.5q-2 -3 -7.5 -9t-7.5 -7q-1 -1 -3.5 -0.5t-3.5 0.5q-2 -1 -5 -3.5t-3 -3.5zM39 247q-6 0 -6 -7.5t6 -7.5t6 7.5t-6 7.5zM249 411q4 -3 4 -15t-4 -16q-2 -2 -3 3.5t-1 12t1 12t3 3.5z
M265 419q3 2 12 -1.5t11 -6.5t5 -15t3 -16h-31v39z" />
    <glyph glyph-name="cent" unicode="&#xa2;" horiz-adv-x="349" 
d="M175 -88q2 1 5 7.5t3 7.5v7v8q0 6 -3 21t-5 18q0 2 -3.5 8.5t-3.5 7.5v7v12.5v12v7.5q-1 3 -4 15t-4 17l-7 -9q-2 0 -11 -1t-13 -1q-3 0 -8 0.5t-10 0.5t-9 0.5l-4 0.5q-1 0 -10 6t-14 10q-1 2 -3 4t-3 2.5t-2 1.5h-7q-2 1 -8 3.5t-7 3.5q-2 2 1 8t3 8h-17q0 2 -1.5 8
t-1.5 8q-1 1 -3.5 4t-4.5 4q2 1 8 3.5t8 3.5h3q2 0 3 0.5t3 0.5q0 -1 1 -1h2h3q2 -1 11.5 -7.5t11.5 -7.5h9q2 -2 4 -8t3 -8l63 -16q1 0 3.5 4t5 10.5t4.5 13.5t2 12q0 2 -0.5 6.5t-2 9.5t-3 9t-2.5 5v156l-3.5 -3.5t-3.5 -4.5q-2 -2 -8.5 -11t-7.5 -11q-2 -3 -4.5 -6
t-3.5 -3t-7.5 0.5t-8.5 -0.5q-1 0 -3.5 -3t-3.5 -5q-1 -1 -4 -7.5t-4 -7.5l-8 -4t-7 -4q-2 -2 -8.5 -7.5t-8.5 -7.5l-8 -16t-7 -16q-1 -1 0 -7.5t0 -7.5l-4 -4l-3 -3q-1 -3 0 -12.5t0 -11.5q-4 -4 -16 -10t-16 -6q-2 3 -5 12t-3 11t3 5t5 3l-8 9q-1 1 -0.5 6.5t1.5 12.5
t3 14.5t4 11.5q1 2 6.5 8t12.5 12.5t13 12t7 7.5q1 1 4.5 7t7.5 13t7 12.5t4 6.5t5.5 3.5t9.5 5t10 4.5t7 2v-15q-1 2 2 11t5 12q1 1 6 2l10 2l10 2t6 1q2 1 5 4t3 5v11v12q0 2 -1.5 10t-3 17t-2.5 17t-1 10q0 3 -0.5 13.5t-0.5 13.5q3 0 15.5 -1.5t15.5 -2.5q2 0 5 -2.5
t3 -4.5q1 -2 4 -14t5 -17v-4v-3q-1 -2 -5 -8.5t-4 -8.5t1.5 -9.5t1.5 -10.5q3 0 10.5 -0.5t15.5 -1.5t15.5 -1h10.5q2 0 12 3.5t12 4.5h3h4q1 -1 4 -4.5t4 -3.5q2 -1 9 -1.5t9 -0.5q0 -3 -1 -11t-2 -11q0 -1 -3 -3.5t-5 -3.5l-7 7q-1 -1 -4 -3.5t-4 -3.5h-12h-11
q-1 0 -4 3.5t-4 3.5h-4h-4q-1 0 -7 -2.5t-8 -4.5q-4 -2 -12.5 -8t-10.5 -8q-2 -1 -5.5 -3.5t-3.5 -3.5v-14v-18q0 -2 1.5 -10t3 -17t3 -17t1.5 -10v-109q1 -2 7 -5t8 -3q5 0 19.5 3t19.5 5l8 4t13.5 6.5t14.5 7.5t10 6q1 0 4.5 3t4.5 4q2 1 7.5 4t7.5 4h3h5q2 -1 4.5 -4
t2.5 -4t0.5 -5t0.5 -7q0 -2 -0.5 -6.5t-0.5 -5.5q-1 -2 -3.5 -7.5t-3.5 -7.5q-4 -2 -15.5 -8t-16.5 -7q-2 -1 -11.5 0t-11.5 0q-1 0 -3.5 -4t-3.5 -4q-2 -2 -8 -4.5t-8 -2.5l-8 15l-16 -15l-7 7l-8 -24q0 -6 1.5 -21.5t2.5 -32.5t2.5 -33t1.5 -22q0 -3 0.5 -12t0.5 -19
v-19.5v-12.5h-4.5t-4.5 1l-8 4t-7 4q-2 2 -8.5 8t-8.5 8v3v5zM199 75q-5 0 -5 -8t5 -8q6 0 6 8t-6 8zM254 90q-6 0 -6 -7.5t6 -7.5t6 7.5t-6 7.5z" />
    <glyph glyph-name="sterling" unicode="&#xa3;" horiz-adv-x="468" 
d="M15 11q0 1 3 5.5t8.5 9.5l11 10t9.5 7q2 1 11 3.5t19.5 5t19.5 4.5t12 2q4 1 13 3.5t10 3.5l8 8t7 8q1 4 3.5 15.5t5 23.5t4.5 23t3 16v3v5q-2 4 -4.5 16.5t-2.5 14.5q-1 1 -7 10t-9 13q-2 2 -4.5 5t-3.5 3t-8 0.5t-12 0.5q-3 0 -10.5 -0.5t-8.5 -0.5t-7 -3t-9 -5
q-1 -1 -3.5 -4t-3.5 -3q-3 -1 -14.5 -2.5t-14.5 -1.5q0 4 2 17.5t4 16.5q1 4 7 9.5t8 7.5h14h17q1 0 4 -4t4 -4q1 -1 3 -1h5q1 0 4 0.5t4 0.5q2 0 8 3t7 5q3 3 9 11.5t6 10.5t-2 9t-5 15t-5.5 14.5t-2.5 8.5t4 11.5t4 11.5t-3 5.5t-5 3.5q1 1 4 5t5 9t4 9.5t2 6.5t-3.5 8.5
t-3.5 7.5l11.5 11.5t11.5 12.5v15q0 2 3 8t5 7q1 2 10 8t13 9q3 2 9 4.5t7 2.5q2 1 11.5 0.5t11.5 -0.5t7.5 1.5t12 2.5t12 2.5t7.5 1.5h4h4q3 -1 8.5 -3t11.5 -4.5t11.5 -4.5t7.5 -3q-4 -6 0 -8q1 -2 7.5 -4.5t8.5 -4.5v-1q0 -1 1 -2q0 -1 -0.5 -1t-0.5 -1v-2q-1 -2 -4 -5
t-4 -3t-6 -0.5t-7 -0.5h-7q-2 0 -4 1q-2 2 -5.5 7.5t-2.5 7.5q-2 0 -9.5 0.5t-9.5 0.5q-4 0 -11.5 -0.5t-8.5 -0.5t-7 -2.5t-8 -4.5q-1 -2 -7.5 -8.5l-7.5 -7.5q-2 -1 -8.5 -3.5t-7.5 -3.5q-1 -2 -7 -10.5t-9 -13.5q0 -1 -3 -8t-5 -8q-2 -2 -11 -4.5t-12 -2.5q2 -1 5 -3.5
t3 -4.5v-5.5v-10v-10v-5.5l4 -4l4 -4q0 -2 -4 -11.5t-4 -11.5q0 -1 3.5 -4.5t4.5 -3.5v-4v-4l-4 -12t-4 -11q2 0 11.5 -0.5t11.5 -0.5q5 0 14 0.5t10 0.5q2 0 11.5 3.5t11.5 3.5h5.5h10h10h5.5l8 4l8 4q-1 -2 -4 -11.5t-4 -11.5t-2 -4.5t-3 -4.5q-2 -3 -3 -6q-2 -2 -10.5 -5
t-12.5 -4q-3 0 -12 -1t-19 -2.5t-19 -2.5t-13 -1l-7 -8q2 1 8 -2t7 -6v-6q0 -2 0.5 -4t0.5 -4q0 -3 -0.5 -9.5t-0.5 -7.5t-4 -7.5t-4 -8.5v-6.5v-12v-12.5v-8t-1 -8.5t-2.5 -14t-2.5 -14.5t-1 -9v-9v-7q1 0 9.5 -3t13.5 -5h8q4 0 11.5 -1t15 -2.5t13 -2.5t6.5 -1l16 -8
q4 -2 16 -4.5t15 -2.5h16q1 -1 7 -2t12.5 -2.5t12 -2.5t7.5 -1t16.5 -0.5t21.5 -0.5h14q4 0 10 1l8 15q2 -3 8 -15l8 -16v-3q0 -2 0.5 -3t0.5 -2t-0.5 -4t-0.5 -4q-4 -1 -16 -3.5t-16 -3.5q-2 -1 -7.5 -4t-7.5 -4l-8 15l-8 -15l-70 15q2 1 2 4t-2 4q-1 1 -10 3.5t-13 4.5h-8
q-2 1 -8.5 3.5t-14.5 5t-15 5t-9 2.5h-26h-28q-1 0 -10 -3.5t-13 -5.5q-2 -1 -11.5 -5t-20.5 -8.5t-22 -9.5t-17 -7q-1 -1 -7.5 -4.5t-7.5 -3.5t-12.5 -1t-16.5 -1q-4 0 -10.5 1t-7.5 1zM147 50q-5 0 -5 -7.5t5 -7.5q7 0 7 7.5t-7 7.5zM171 408q-6 0 -6 -8t6 -8t6 8t-6 8z
M186 471q-5 0 -5 -8t5 -8q6 0 6 8t-6 8z" />
    <glyph glyph-name="currency" unicode="&#xa4;" horiz-adv-x="493" 
d="M64 -4q-1 -4 -3.5 -4t-3.5 4q-2 3 3 3t4 -3zM87 81l-3.5 3.5t-3.5 4.5q0 1 0.5 7.5t-0.5 8.5q0 1 -3.5 3.5t-4.5 3.5v8l-8 8q0 2 -1 7.5t-2.5 11.5t-2.5 11.5t-1 8.5q0 1 -0.5 8.5t-0.5 11.5q0 5 0.5 11.5t0.5 7.5q0 2 2.5 5t4.5 3q-2 0 -4.5 2.5t-2.5 4.5q0 1 -0.5 8
t-0.5 12q0 2 0.5 9.5t0.5 10.5q2 0 8 2.5t7 4.5q1 1 0 7.5t0 7.5q2 2 7.5 5t7.5 3q0 2 -2.5 5t-4.5 3q-2 1 -8.5 0.5t-7.5 -0.5l-8 8t-7 8q-2 2 0.5 7.5t2.5 7.5h-11q-2 4 -8 15.5t-8 16.5q-1 1 -7.5 7t-7.5 8t-3 12.5t-2 12.5q3 0 14 -0.5t14 -1.5q2 0 8 -3t8 -5
q1 -1 4 -3.5t4 -3.5v-2v-2q0 -1 1 -1l-1 -3q-1 -2 -4 -4.5t-4 -2.5q2 -4 11.5 -13t11.5 -11t7.5 -4.5t7.5 -3.5q1 0 5.5 -0.5t6.5 -0.5t6.5 0.5t5.5 0.5t4 3t4 5t3.5 8t3.5 8l13 13t11 10t8 0t8 0q1 0 3.5 3t3.5 4t7.5 4.5t8.5 3.5q2 2 12 8t12 8t8 5t7 3h26h28
q2 0 7.5 -1.5t12 -2.5t12 -2.5t8.5 -1.5q4 -2 18.5 -8t19.5 -8q-2 -2 0 -8q2 -1 12 -3.5t12 -3.5q1 -1 3.5 -7t3.5 -8v-8q4 -2 15.5 -5t16.5 -4q2 0 10.5 1t10.5 1q0 3 -4 11.5t-2 10.5q1 2 10 11.5t13 11.5h2q1 0 1 0.5t1 0.5t1.5 -0.5t1.5 -0.5h1q2 -1 4.5 -7t3.5 -8v-8
v-7q0 -2 -3.5 -5t-4.5 -3q0 -1 -1 -6t-2.5 -10.5t-2.5 -10t-2 -5.5q-1 -2 -11.5 -7.5t-11.5 -7.5q-1 -1 -1 -3v-5q0 -1 0.5 -4t0.5 -4q1 -2 4 -11.5t4 -11.5v-5v-3q-1 -2 -7 -4.5t-8 -2.5q2 -2 8 -8.5t7 -8.5t2.5 -10.5t1.5 -12.5h-27l-8 -20t-8 -19l-8 -16t-8 -14
q-2 -4 -7.5 -13t-7.5 -11t-8.5 -8t-7.5 -8v-12v-11q1 -2 7.5 -8t8.5 -8q1 -1 4 -7l4 -8q0 -1 0.5 -6t0.5 -6q-4 0 -16 1t-17 3q-2 1 -11.5 7.5t-11.5 7.5t-12 3.5t-12 4.5q-2 4 -5.5 19t-1.5 20q0 2 3 5t4 3h6h10h10h6q1 1 3.5 7.5t3.5 7.5q2 3 5.5 9.5t7 12.5t7 11t4.5 6
l4 4l4 4q0 2 -0.5 8t0.5 8q0 2 3.5 9t8 14.5t8 14t3.5 8.5q1 1 1.5 10t0.5 14q0 2 -0.5 11.5t-1.5 11.5l-8 -8q-1 -1 -2 -1q0 5 -2 20.5t-3 20.5q-1 2 -7.5 8t-8.5 7q-1 1 -4.5 6l-7 10t-7.5 10t-5 6q-1 0 -12.5 2.5t-17.5 4.5h-9q0 1 -3 4.5t-4 3.5h-3q-2 0 -3.5 0.5
t-2.5 0.5t-1.5 -0.5t-2.5 -0.5h-3q-2 -1 -4.5 -7t-2.5 -8q-2 1 -8 3.5t-8 3.5q-1 0 -6 1.5t-11 2.5t-12.5 2.5t-9.5 1.5h-4h-3q-2 -1 -5 -4t-3 -4q-1 -2 -4 -8.5t-5 -6.5q-1 -1 -5 -3.5t-9.5 -5t-10 -4.5t-5.5 -3q-2 -2 -8 -8.5t-8 -7.5q-1 -1 -4 0t-4 0t-4 -7.5t-4 -7.5
l-4 -4l-4 -4q-1 -2 0.5 -8t-0.5 -8q-1 -1 -3.5 -4t-3.5 -4t-5.5 1t-6.5 2q0 -5 2.5 -17.5t1.5 -15.5q0 -1 -2.5 -5.5t-5 -10t-5 -10.5t-2.5 -6v-7q0 -2 -1.5 -6.5t-3 -10t-3 -10t-1.5 -5.5q0 -2 3.5 -13.5t5.5 -16.5q0 -2 3 -8.5t5 -8.5q1 -2 7.5 -11.5t7.5 -11.5
q1 -1 3.5 -7.5t3.5 -7.5l5 -5l3 -3q2 -1 8 -2t8 -1v-5h16v-16q2 2 7.5 5t7.5 3q2 1 12 0.5t12 -0.5q3 0 11 1.5t16.5 2.5t16 2.5t10.5 1.5q2 1 11 3.5t12 4.5q2 0 6 3t6 5v-37q-2 0 -6.5 -0.5t-5.5 -1.5t-3.5 -4t-3.5 -4q-3 -2 -8.5 -4.5t-7.5 -2.5h-16q-1 -2 -7.5 -5
t-7.5 -3q-4 -2 -14 -6q-4 -2 -9 -3q-3 1 -6.5 7t-2.5 10l-15 -8v10q-2 0 -7.5 -2t-7.5 0q-1 0 -4 3l-4 4q-2 0 -8 -2.5t-8 -4.5v15l-16 -15v30l-30 -30q-2 -2 -8 -12t-8 -12t-7.5 -4.5t-8.5 -3.5q-2 -1 -9 -1h-9q0 2 1 12t2 13q2 1 4 3t2.5 3t1.5 2q1 2 7.5 11t7.5 11
q2 2 7.5 8t7.5 8zM414 237q-5 0 -5 -8t5 -8q7 0 7 8t-7 8zM376 362q-6 0 -6 -8t6 -8t6 8t-6 8z" />
    <glyph glyph-name="yen" unicode="&#xa5;" horiz-adv-x="484" 
d="M218 8q0 3 0.5 10.5t0.5 16.5t-0.5 16.5t-0.5 10.5t-3 12.5t-5 11.5q-2 -1 -7.5 -2t-11.5 -2.5t-11.5 -2.5t-8.5 -1h-15q-1 0 -4.5 -3.5t-3.5 -4.5q-2 -2 -8 -5t-8 -3h-6.5h-12.5h-12.5h-6.5q-2 0 -8.5 -3.5t-8.5 -3.5t-8 2.5t-7 4.5q-1 1 -1 3v5q0 2 0.5 4.5t0.5 3.5
l8 8q2 1 7.5 4t7.5 4h4h5q0 -1 3 -4.5t4 -3.5h4h4q1 0 7.5 3.5t7.5 4.5q2 1 12 3.5t12 3.5q3 2 12 6.5l19 9.5l19 9.5t12 6.5q2 1 5 7t3 8q0 4 -3 12.5t-5 10.5h-3q-2 0 -2.5 0.5t-1.5 0.5t-4.5 -0.5t-4.5 -0.5t-7 -4t-8 -4q-1 0 -7.5 4t-8.5 4q-1 0 -4 -3t-3 -5
q-2 -1 -8 -3.5t-8 -3.5h-8q-2 -1 -11.5 -4t-11.5 -4q-2 0 -7.5 -1.5t-12 -2.5t-12.5 -2t-7 -1q-1 -1 -7.5 -4.5t-7.5 -3.5q-2 0 -4.5 -0.5t-3.5 -0.5h-5q-2 0 -3 1q-1 0 -4 4t-4 4q-2 0 -9 1t-9 1q0 2 0.5 6.5t1.5 6.5q0 1 3 3.5t5 3.5q2 2 8 5t8 3h9h14.5h14h8.5q1 0 4.5 4
t4.5 4q2 1 11.5 4t11.5 4q1 0 7.5 4t7.5 4h7h12.5h12h7.5q1 0 4 3.5t4 4.5q3 2 15 7.5t16 7.5q-1 3 -7 9t-9 6h-8.5h-14h-14.5h-9q-1 0 -4 4t-4 5q-2 1 -11.5 7t-11.5 8q-1 1 -4 4.5t-4 3.5q-2 1 -6.5 1.5t-6.5 0.5q0 3 -1 10.5t-1 10.5q0 1 -4 4t-5 4v4v4l4 4t5 4
q-3 1 -9 3.5t-8 3.5q-1 1 -3.5 4t-3.5 4q-2 3 -5 8.5t-5.5 10.5t-4 9t-0.5 4l7 7l-8 12t-7 11t-0.5 8t0.5 8q0 1 -1.5 5.5t-3 10t-2.5 10t-1 5.5v8q-2 7 -4.5 22t-3.5 17q-2 3 -7.5 15t-8.5 16q0 2 3.5 4.5t4.5 3.5h16h16q2 -1 4.5 -3.5t2.5 -4.5t-3.5 -8t-3.5 -8l7 -7
q1 -3 4 -7.5t5 -9.5t4 -9t2 -5t0.5 -5.5t0.5 -6.5t-0.5 -6.5t-0.5 -5.5t-2.5 -4t-4.5 -4q2 -1 4.5 -3.5t2.5 -3.5v-8l8 -8v-8q1 -4 4.5 -12.5t4.5 -10.5q0 -1 2.5 -4t4.5 -4l-7 -7q3 -5 6 -9q2 -4 4.5 -8.5t4.5 -6.5l8 -8l-8 -8q2 0 8 -2.5t7 -4.5q2 -2 2 -8t-2 -8
q3 -1 8.5 -3.5t11.5 -5t11.5 -4.5t7.5 -3q2 0 8.5 -3t7.5 -5h4h3q2 2 8.5 5t8.5 3q2 1 10.5 1t12.5 -1l54 55h8q2 4 7.5 16t7.5 15q1 1 8 4t8 4q1 2 4 11.5t4 11.5l4 8l4 8q1 0 3.5 3.5t3.5 4.5q4 5 9 16.5t7 13.5q1 2 0.5 8.5t-0.5 8.5q2 1 4 3l4 4q2 3 7.5 14.5t7.5 16.5
q1 1 3 6.5t4.5 11.5t4.5 12t4 9q2 4 4.5 13t2.5 11v23q0 1 4 3.5t4 3.5v6v10.5v10v5.5t1.5 6.5t3 12.5t3 12.5t1.5 6.5v6v10.5v10v5.5t2.5 3.5t4.5 3.5l4 2q1 0 2 -1t2 -1q1 -2 3.5 -7.5t5 -11.5t4.5 -11.5t2 -8.5q0 -1 -0.5 -6.5t-2 -12.5t-3 -12.5t-1.5 -6.5v-7.5v-12
v-12.5v-7t-2.5 -5.5t-5.5 -10t-5.5 -10.5t-2.5 -6t-1.5 -5t-2.5 -9.5t-2 -10t-1 -5.5q-1 -2 -4.5 -12t-4.5 -12q0 -2 -1 -7.5t-2 -12t-2.5 -12t-2.5 -6.5q-2 -5 -8 -18t-13.5 -28t-14.5 -28.5t-10 -19.5q-1 -1 -4.5 -5.5t-7 -10t-7 -10.5t-4.5 -6q0 -1 -2.5 -4t-5.5 -7
t-5.5 -7.5t-2.5 -4.5l-31 -31q-1 -2 -7.5 -11.5t-8.5 -11.5l-8 -4t-7 -4q-3 -2 -9 -8l-7 -7q-1 -3 2 -11.5t3 -10.5q2 0 5.5 -1t5.5 -1q1 0 5 1.5t9.5 3t10 2.5t6.5 1t4 0.5t3 0.5v-43q-2 0 -11 1t-12 2q-2 0 -4.5 3t-2.5 5q-2 -2 -8 -11.5t-8 -12.5t1.5 -14t3.5 -14
q3 0 13 -1.5t13 -0.5q2 0 11.5 3t11.5 4q2 0 6.5 0.5t5.5 0.5q0 -2 -1 -8t-2 -8l-8 -8t-9 -8q-1 -1 -7 -3.5t-12.5 -4.5t-12 -4.5t-6.5 -3.5q-2 -1 -5 -7t-3 -8v-11.5v-20v-19.5v-11t-3 -8t-5 -8q0 -1 -3.5 -4t-4.5 -4l-3 -1h-2q-1 0 -2 1zM203 124q-7 0 -7 -7.5t7 -7.5
q5 0 5 7.5t-5 7.5zM312 233q30 4 40.5 -1.5t7.5 -15t-16.5 -18.5t-31.5 -11q-2 -3 -4 4t-2 16t1 17.5t5 8.5z" />
    <glyph glyph-name="florin" unicode="&#x192;" horiz-adv-x="307" 
d="M52 -3q5 0 17.5 -3.5t15.5 -5.5q2 -2 5 -12t4 -12t3 -8t4 -7q1 -2 4 -5t4 -3t5.5 -0.5t6.5 -0.5h6q2 0 5 1q2 1 -2 -4t1 -2l7 7q4 5 10 14t6 10v11q0 5 0.5 9t0.5 7q0 7 -0.5 20t-0.5 15t-1 9t-2.5 14.5t-3 14.5t-1.5 9v8q0 1 0 -2t1 -6.5t1.5 -6t0.5 -0.5q0 5 -0.5 18
t-0.5 27.5t0.5 28t0.5 18.5q-2 4 -8 15.5t-7 16.5q0 1 -1 6.5t-2.5 13t-2.5 15t-2 12.5v3v4q1 14 2.5 37.5t2.5 46t2 39t1 17.5q0 2 1 9t2.5 14.5t3 14.5t1.5 9t-0.5 12t0.5 12q0 3 2 11.5t4.5 18l5 19t3.5 13.5q1 2 3.5 7.5t4.5 7.5t4 5t3 3q2 2 11.5 4t12.5 3h3h5
q4 -1 13 -3.5t10 -3.5q3 -2 12 -11l12 -12q1 -3 5.5 -11.5t9 -18.5t8 -18t3.5 -9l-8 -18q-2 3 -9 1.5t-8 1.5q-1 2 -4.5 4.5t-4.5 5.5q-1 2 -7.5 11.5t-8.5 11.5v7q-1 4 -4 9.5t-4 7.5h-3q-2 0 -3 0.5t-2 0.5t-2 -0.5t-2 -0.5h-3q-2 -2 -8 -12t-7 -12q-2 -1 -5 -4t-3 -4
v-8.5v-15v-15.5v-8t-1.5 -5.5t-3 -10t-3 -9.5t-1.5 -5q0 -3 -1 -14t-2 -24.5t-2 -27.5t-2 -21v-8v-7q1 -2 3.5 -4.5t3.5 -2.5h86q1 0 4 -3.5t4 -5.5v-1q0 -1 1 -2q0 -2 -0.5 -3t-0.5 -2q-3 0 -8.5 -1t-11.5 -2t-11.5 -2t-7.5 -2t-11.5 -4t-11.5 -4q-1 0 -6 -1l-10 -2
t-10 -2.5t-6 -2.5v-9v-15q1 -1 4 -3.5t5 -3.5v-55l-9 -7q2 -1 5 -4l4 -4v-8q0 -2 3 -11.5t5 -12.5v-12v-11q-2 -1 -4.5 -3.5l-3.5 -3.5q1 -1 3.5 -4t4.5 -4v-7q0 -2 -1 -0.5t-1.5 3.5l-1 4t-0.5 0v-9v-7q-1 -1 -3.5 -4t-3.5 -4q1 0 3.5 -2.5t3.5 -4.5q1 -4 4 -19t4 -21v-7
q0 -3 0.5 -5t0.5 -4t-0.5 -7.5t-0.5 -6.5t-3.5 -4.5t-4.5 -3.5q-1 -1 -3 -5.5t-4.5 -10t-4.5 -10t-3 -5.5q-2 -2 -6 -7t-9 -10t-10 -9t-7 -5q-4 -3 0.5 2t1.5 4h-23h-23q-3 1 -7.5 3t-10 4.5t-9.5 5t-5 3.5t-3.5 13t-3.5 17q-1 2 -1.5 7.5t-1 12.5t-0.5 13v8zM172 177
q-5 0 -5 -8.5t5 -8.5q7 0 7 8.5t-7 8.5zM33 239q2 2 11 8t12 7q1 0 7 1.5t13.5 2.5t14.5 2.5t11 1.5q2 0 9 0.5t9 0.5q0 -1 -0.5 -4.5t-1.5 -4.5q-1 -3 -3.5 -8.5t-4.5 -6.5q-2 -3 -11.5 -9t-11.5 -8q-3 -1 -15 -3.5t-16 -3.5q-3 0 -11 -0.5t-17 -0.5t-16.5 -0.5t-10.5 -0.5
q0 3 3 16.5t5 16.5t11 6t13 2v-15zM274 269q5 0 5 -7.5t-5 -7.5q-6 0 -6 7.5t6 7.5zM157 386q-6 0 -6 -7.5t6 -7.5t6 7.5t-6 7.5zM196 542q-3 2 -3 -3.5t3 -4.5q4 2 4 4.5t-4 3.5z" />
    <glyph glyph-name="k" unicode="k" horiz-adv-x="436" 
d="M27 61q0 1 4 4t4 4q0 2 -4 11.5t-4 11.5v9.5t-0.5 19t-0.5 20.5v16v11t0.5 14t0.5 12.5v6.5l8 8l-8 8v54l8 8q-1 5 -2 18.5t-2.5 28.5t-2.5 28.5t-1 18.5q0 14 -0.5 50t-1 76t-1 76t-0.5 50q4 0 18 -1.5t17 -2.5q1 0 3.5 -2.5t3.5 -4.5q0 -1 1 -3v-3q0 -1 1 -1
q0 -2 -0.5 -3t-0.5 -3q-1 -2 -1 -3q-1 -2 -4 -12t-3 -12q0 -1 3 -7.5t4 -7.5v-4v-3q-1 -1 -1.5 -2t-2.5 -3l-3 -3q0 -1 -0.5 -7t-0.5 -9t0.5 -9t0.5 -7t3.5 -3.5t3.5 -3.5t-3 -7.5t-4 -8.5v-4v-3q1 -1 4 -4.5t3 -4.5q0 -5 1 -9q0 -4 0.5 -8t0.5 -6t-0.5 -6t-0.5 -8
q-1 -4 -1 -9q0 -1 -3.5 -4t-3.5 -4q-1 -1 -1 -3v-4q0 -2 0.5 -5t0.5 -4q1 -2 4 -11.5t3 -11.5q1 -5 0.5 -16t-1.5 -23t-1.5 -23.5t-0.5 -15.5h11l15 32l9 -8l15 30q1 2 0 8.5t0 8.5t11.5 7.5t11.5 7.5q1 1 0.5 7.5t-0.5 7.5l4 4l4 4q2 2 8 11.5t8 12.5q0 1 3.5 7.5t4.5 7.5
l15 15q2 5 8 17t7 15q1 -2 4.5 -2t4.5 2t3.5 11.5t4.5 11.5q1 3 6.5 9t11.5 12t11.5 11t8.5 7q2 -2 5 -7.5t4 -7.5q0 -2 1 -11t1 -11q-2 0 -6 -0.5t-5 -1.5q-1 0 -4 -3t-4 -5l-5.5 -11t-9.5 -19.5t-9.5 -19.5t-5.5 -12q-1 -1 -4.5 -3.5t-3.5 -3.5q-1 -2 -4.5 -7.5
t-7.5 -12.5t-7.5 -12.5t-4.5 -7.5q-1 -1 -4.5 -5.5t-7 -10t-7 -9.5t-4.5 -5q-1 -2 -4 -8.5t-3 -8.5q-2 -3 -7 -9.5t-10 -14t-9.5 -14t-5.5 -8.5q-1 0 -4 -3.5t-4 -4.5q-2 -5 -8.5 -16.5t-6.5 -14.5q-1 -2 -0.5 -8t0.5 -8q-2 -1 -4 -3t-3.5 -3t-1.5 -2v-7q0 -2 -2.5 -11.5
t-4.5 -11.5h31q2 0 11.5 -4t11.5 -4q1 0 4 -0.5t5 -0.5h5q2 0 3 1q2 0 11 7t11 9q2 0 6 0.5t6 0.5q1 0 3 -0.5t4 -0.5h4q1 0 4.5 -4t4.5 -4t7 4t8 4q1 0 8 -4t8 -4t4 3t3 5h4h4q2 -1 11.5 -2t20 -2.5t20 -2.5t11.5 -1h62q4 0 15.5 -3t15.5 -5q2 -1 4.5 -3.5t2.5 -4.5v-2
q0 -1 1 -2q0 -1 -0.5 -1t-0.5 -1v-2q-1 -2 -7 -8t-8 -7h-3h-5q-2 1 -11 4t-11 3h-13.5h-22.5h-22h-13q-2 0 -11.5 4t-11.5 4h-8h-7q-2 0 -8.5 -3.5t-8.5 -4.5q-2 0 -8.5 -1t-14 -2.5t-14.5 -2.5t-10 -1h-23q-7 0 -20.5 -1.5t-27 -2.5t-24.5 -2.5t-14 -1.5q-3 -1 -9 -4t-6 -4
v-140q-1 -1 -3.5 -4t-4.5 -4q-1 -1 -3.5 -8t-3.5 -7q-2 -1 -11.5 2t-12.5 6q-1 1 -4 7l-4 8v19v20zM144 193q-6 0 -6 -7.5t6 -7.5q7 0 7 7.5t-7 7.5zM198 201q-5 0 -5 -8t5 -8q7 0 7 8t-7 8z" />
    <glyph glyph-name="l" unicode="l" horiz-adv-x="120" 
d="M50 195v156l-16 8q-1 3 -1 6v9q0 4 0.5 13t0.5 10t3.5 4t5.5 4v4v4q-2 0 -5.5 3.5t-3.5 4.5t-1 7.5t-2.5 15t-2.5 17.5t-2 14v5v3q1 1 4.5 7.5t3.5 7.5q0 2 -3 8t-5 8v104q5 0 16.5 -1t15.5 -2q1 0 3.5 -3t3.5 -5t4 -11l4 -12q0 -9 -0.5 -32.5t-0.5 -49t0.5 -49
t0.5 -32.5q0 -3 1 -8.5t2 -12t2.5 -12t2.5 -7.5l-16 -7q3 1 9 -2t7 -6v-4q0 -2 0.5 -3.5t0.5 -2.5q0 -2 -0.5 -7.5t-0.5 -6.5q0 -2 -3 -11t-5 -12v-195q2 -3 5 -15t3 -15q0 -5 0.5 -18.5t1 -29t1 -29t0.5 -18.5h-5.5t-5.5 1l-8 8q-1 2 -3.5 8t-3.5 8q-2 4 -5 13t-3 10v7
v12.5v12v7.5q0 4 -1.5 18.5t-2.5 32t-2 32t-1 18.5v8h7zM43 491q-7 0 -7 -8t7 -8q5 0 5 8t-5 8z" />
    <glyph glyph-name="m" unicode="m" horiz-adv-x="653" 
d="M204 384q-5 0 -14 -0.5t-10 -2.5q-1 -1 -10 -9.5t-13 -12.5q-4 -5 -11.5 -14.5t-15 -19.5t-13.5 -18.5t-7 -10.5q0 -1 -2 -6.5t-4.5 -13l-5 -15t-3.5 -11.5q0 -2 -1.5 -6.5t-3 -10t-2.5 -10t-1 -5.5q-2 -3 -4.5 -12t-2.5 -11q-1 -1 -3.5 -5.5t-5.5 -10t-5.5 -10.5
t-2.5 -6v-10v-17v-17v-10q0 -1 -3.5 -7.5t-3.5 -7.5q0 -4 -0.5 -13t-0.5 -19t0.5 -18.5t0.5 -11.5q-1 -2 -4 -5t-4 -3t-5.5 -0.5t-6.5 -0.5h-6q-3 0 -5 1q-4 0 -10 3t-6 5v342q0 3 2.5 12t4.5 11h3q2 0 3 0.5t2 0.5q2 0 5 -0.5t4 -0.5l3 -3q1 -2 4 -5q2 -2 5 -8t3 -7v-122
q2 0 7.5 -1.5t7.5 -0.5q2 0 5 2.5t3 4.5q1 1 2 6l2 10t2.5 9.5t2.5 5.5q1 3 4 10t6.5 14.5t6.5 14t5 8.5t6.5 7.5t9.5 12t9.5 12t6.5 7.5q1 1 5 4t9 6.5t9.5 7t7.5 5.5q2 2 8 5t7 3h19h20q3 -1 15 -3.5t17 -4.5q4 -3 13 -11.5t18.5 -18.5t18.5 -19t12 -13q1 0 3.5 -6
t3.5 -10q2 -2 4.5 -11t3.5 -12t4 -14.5t7 -25t7.5 -26.5t5.5 -20l4 -16t4 -15q0 -2 1 -7.5t2 -12t2 -12t2 -6.5q1 -2 4 -5t4 -3v62q1 0 3.5 3t4.5 5q1 1 2 8t2 15t2 15t1 9q0 1 2.5 5.5t5.5 9.5t5.5 9.5t3.5 5.5q1 3 4 10.5t7 16.5t7 17t4 11q2 1 8 3.5t8 3.5q2 2 8 8.5
t8 8.5q3 2 15 8t16 7q1 -1 3.5 -4t3.5 -4q2 -1 7.5 -2t12 -2t12 -2t7.5 -1q3 -2 12 -11t11 -13q2 -1 8 -13l9 -18q2 -5 5.5 -13.5l7 -17t6.5 -15.5t4 -8q0 -1 2 -9.5t4.5 -20l5 -23t3.5 -18.5q2 -7 5.5 -21.5t3.5 -16.5q0 -4 1 -14t2.5 -21.5t2.5 -21.5t1 -14v-24h-3h-3
q-1 0 -1 1q-3 1 -9 3.5t-8 4.5l-7 7q-1 1 -2 6t-2.5 11.5t-2.5 12.5t-1 9q0 4 -2.5 20t-5 34.5t-4.5 34.5t-3 20q0 2 -2.5 10t-5.5 17.5t-5.5 17.5t-3.5 10q0 1 -1 5.5t-2 10t-2 10t-2 5.5q0 2 -6 11t-10 12q-2 3 -7.5 9t-7.5 7q-2 2 -8 4.5t-8 2.5h-1q-1 0 -2 1
q-2 0 -2.5 -0.5t-1.5 -0.5h-1q-1 -1 -7 -7.5t-8 -7.5t-12 0.5t-11 -0.5q-1 -1 -7 -13l-9 -18q0 -2 -2.5 -7.5t-5 -12t-5 -12.5t-3.5 -7q-1 -2 -3.5 -8t-3.5 -7q-2 -4 -5 -13t-3 -11v-5.5v-10v-10v-5.5q0 -2 -3.5 -12t-3.5 -12q-1 -2 -2 -8.5t-2.5 -14t-3 -14.5t-1.5 -9
t-3.5 -11.5t-4.5 -11.5v-24q0 -2 -1 -7.5t-2.5 -12t-2.5 -12t-1 -6.5q-1 -3 -1.5 -10.5t-1 -16t-0.5 -16v-10.5q-2 0 -10 2t-10 4q-2 1 -4.5 7t-3.5 8q-2 4 -5 19l-4 20v23q0 1 -1 5.5t-2 10t-2.5 10t-1.5 6.5v15q-2 6 -5 22.5t-7 35.5t-7 35.5t-4 23.5q-1 2 -4 10.5
t-4 13.5q-1 1 -4 7.5t-3 7.5v15q0 1 -3.5 7t-5.5 9q-1 2 -4 7.5t-7 12t-7.5 12t-4.5 7.5q-3 4 -8.5 13t-6.5 11q-5 4 -13.5 12.5t-10.5 9.5q0 2 -9 2.5t-14 0.5zM48 218h8v8zM48 242q-6 0 -6 -8t6 -8t6 8t-6 8z" />
    <glyph glyph-name="o" unicode="o" horiz-adv-x="361" 
d="M129 48q0 -1 -3 -4t-5 -4h-3h-5q-1 1 -3.5 4.5t-3.5 3.5h-8q-5 2 -14 5t-10 4q-3 2 -9.5 8t-14 13.5l-14 14t-8.5 9.5q1 4 1 12.5t-1 11.5q-2 3 -8 6t-8 2l8 8l-8 7l8 8q-2 0 -8 3.5t-8 5.5q-1 0 -1 1v2v2q0 1 1 2q1 0 4.5 3.5t3.5 4.5q1 1 0.5 7.5t-0.5 7.5q2 6 5 18
t3 14q1 1 4.5 4t7.5 7t7.5 7t4.5 5t-3.5 8t-4.5 7t3.5 4.5l4.5 4.5q1 2 7 15t8 15q1 2 8 4.5t7 3.5q1 1 3.5 5.5t5 10t4.5 10t3 5.5q0 2 7.5 1t8.5 -1q1 2 7 4.5t8 3.5q1 1 4.5 4t3.5 4q2 2 8 4.5t8 2.5q2 1 11.5 2t11.5 1v-26l-78 -78q-4 2 -13 -1t-11 -7v-5t0.5 -9.5
t0.5 -10t-1 -5.5l-4 -4q-2 -2 -3 -4t-0.5 -8t0.5 -8q-1 -1 -4 -7.5t-4 -7.5q-1 -4 -3.5 -12.5t-3.5 -10.5q0 -1 -0.5 -4.5t-0.5 -4.5v-5q0 -2 1 -3q1 -2 11 -7.5t11 -7.5q2 -1 4.5 -11.5t3.5 -11.5q2 -2 12 -8t12 -8q1 0 4 -4t4 -4q2 -1 7.5 -1.5t7.5 -0.5v-13h78q0 1 3 3.5
t5 4.5q1 1 7.5 3.5t7.5 3.5q2 2 5 7.5t3 7.5q0 -2 3 -4.5t5 -2.5q3 0 8.5 2.5t7.5 4.5l47 94v3v5q-1 3 -2 9.5t-2.5 12.5t-3 11t-1.5 6t-3 7.5t-5 7.5q0 2 1 8.5t-1 8.5q0 1 -5.5 9.5t-9.5 13.5l-7 7h-8q-4 1 -10.5 2t-12.5 2.5t-11 2.5l-5 1q-2 2 -4 15.5t-4 15.5
q-3 3 -13.5 6t-12.5 3q0 5 1 12t1 10q1 3 4 9t5 7q2 0 11.5 -3.5t11.5 -3.5h15q2 -1 11 -4t13 -5l8 -4t7 -4q4 -2 12.5 -11t10.5 -12l-8 -7q2 -2 8.5 -8t8.5 -9q2 -1 12 -7t11 -8q1 -1 0.5 -7.5t-0.5 -7.5q1 -3 3.5 -12.5t3.5 -11.5q1 0 4.5 -3.5t3.5 -4.5v-4q0 -2 0.5 -4
t0.5 -3q0 -2 -0.5 -6t-0.5 -6t-3 -4.5t-5 -2.5q2 -1 5 -4t3 -4v-3v-6q0 -2 -1 -8.5t-2.5 -14t-3 -14.5t-1.5 -8v-9q-1 -2 -3.5 -11.5t-3.5 -11.5q-3 -5 -8.5 -17t-7.5 -15l-6 -6l-9 -9l-9.5 -9.5t-6.5 -5.5q-1 -1 -4 -0.5t-4 0.5q-3 -2 -15 -7.5t-16 -7.5q0 -1 -3.5 -4.5
l-4.5 -4.5q-2 -1 -11.5 -4t-11.5 -4h-9h-6q-2 1 -5 4l-4 4q0 -1 -3 -4t-5 -4t-8 -3.5t-7 -3.5q-1 0 -3.5 -0.5t-4.5 -0.5h-4q-2 0 -3 1q-2 2 -8 7.5t-8 7.5zM59 243q1 3 -4 3t-4 -3t4 -3t4 3zM51 275q-5 0 -5 -8.5t5 -8.5q6 0 6 8.5t-6 8.5zM59 290q-6 0 -6 -7.5t6 -7.5
q5 0 5 7.5t-5 7.5zM160 360q-5 0 -5 -8t5 -8q6 0 6 8t-6 8z" />
    <glyph glyph-name="K" unicode="K" horiz-adv-x="371" 
d="M8 89q0 1 1 3t8 4t7 4q1 2 -3.5 11.5t-4.5 11.5v21v18l4 4l4 4q0 2 -3.5 11.5t-4.5 11.5v16q0 2 -3 11.5t-4 11.5q0 2 0.5 11.5t-0.5 11.5q0 1 -3.5 4.5l-4.5 4.5q-1 0 -1 1v2v2q0 1 1 2q1 0 4 3.5t4 4.5q2 2 4.5 8t2.5 7v8v8q0 2 -3 12t-4 12v3v4l4 4t3 4v3q0 1 0.5 2
t0.5 2t-0.5 2t-0.5 3v3q0 2 -3.5 12t-3.5 12q0 1 -0.5 11.5t-0.5 15.5q0 3 0.5 13.5t0.5 14.5q2 0 4.5 2.5t2.5 4.5t-3.5 11.5t-3.5 11.5q0 1 -0.5 8.5t-0.5 12.5q0 3 0.5 10t0.5 8l1 1q0 1 2 3l4 4q0 1 0.5 8t0.5 12q0 4 -0.5 11t-0.5 8t-3.5 4t-3.5 4t-0.5 6.5t-0.5 8.5
q0 2 0.5 8.5t0.5 7.5q1 4 3.5 12.5t3.5 10.5h2q1 0 1.5 0.5t1.5 0.5l2 -1h1q3 -2 8.5 -7.5l7.5 -7.5v-15q0 -2 4 -8.5t4 -8.5v-11v-19.5v-19.5v-12q0 -1 1 -6.5t2.5 -12.5t3 -13t1.5 -7v-3v-5q-1 -2 -4.5 -11t-3.5 -11t3 -5t5 -3l-8 -8l8 -8v-101q3 2 11.5 11t10.5 12
q2 1 5 7.5t4 7.5q2 3 11 12l12 12q1 1 5.5 4.5t10 7.5t10 7t6.5 4q2 2 7.5 8t7.5 8q1 2 7.5 12t7.5 12q2 2 11.5 11t12.5 11q2 2 11.5 8.5t11.5 8.5t8 7.5t7 7.5q2 2 5.5 7.5t7 11.5l7 12t4.5 8q3 -3 8 0q1 0 3.5 3t4.5 5q1 1 3.5 7.5t3.5 7.5q2 2 7.5 5t7.5 3q3 0 6 -3
t3 -5q0 4 3 12.5t5 10.5q1 2 7 8l8 8h4h4q2 -1 4.5 -2t4.5 -2q3 -2 6 -3v-47q0 -2 -6 -5t-9 -3q-2 -1 -11.5 -0.5t-11.5 0.5l-4.5 -4.5l-7.5 -7.5l-7.5 -7.5l-4.5 -4.5t-7.5 -3.5t-7.5 -3.5q-2 -1 -0.5 -4t0.5 -4t-6 -5.5t-10 -10t-10 -10.5l-6 -6q-1 -2 -7 -11t-8 -11
t-11.5 -8.5t-11.5 -7.5q-2 -2 -5 -4t-3 -4l-4 -8t-5 -8q0 -1 -3 -3.5t-4 -3.5q0 -1 -3 -8.5t-5 -7.5q-2 -2 -11.5 -4.5t-11.5 -2.5q-1 -1 -3.5 -4t-3.5 -5q-3 -2 -9 -10.5t-8 -12.5q0 -1 -2.5 -7.5t-4.5 -7.5t-6.5 -4.5t-10 -7.5t-9.5 -7.5t-5 -4.5q-3 -2 -8.5 -6.5
t-10 -9.5t-8.5 -9.5t-4 -5.5q-1 -2 -1 -3v-4q0 -2 0.5 -5t0.5 -4q1 -1 7 -9.5t8 -13.5q1 -1 4 -3.5t3 -3.5q2 -2 8.5 -5t8.5 -3q2 -2 11.5 -12t11.5 -12q2 -1 11.5 -7.5t12.5 -7.5q0 -1 3 -4l4 -4q2 -1 11.5 -4.5t11.5 -3.5q5 -2 16.5 -8t15.5 -8l3 -3q2 -2 2.5 -3t1.5 -2h8
q2 0 7.5 -2.5t7.5 -4.5q1 -1 4.5 -4t3.5 -4q2 -1 8 -3.5t8 -3.5q0 -2 3.5 -5t4.5 -3q2 -2 7.5 -5.5t11.5 -7l12 -7t8 -4.5v-3v-5q-1 -2 -4 -4.5t-5 -2.5q-2 -1 -4 -1h-6q-2 0 -6.5 0.5t-5.5 0.5q-5 2 -16 7.5t-23.5 11.5t-23.5 11.5t-15 8.5q-1 0 -4 3l-5 5q-2 1 -7.5 3.5
t-7.5 3.5q-1 0 -3.5 -0.5t-3.5 0.5q-2 1 -8.5 8t-7.5 7q-2 2 -11.5 6.5t-20 10t-19.5 9.5t-11 6q-2 1 -8 7.5t-8 7.5q-2 2 -7.5 5t-7.5 3l-8 -31h10v-9.5t-0.5 -14t-1 -14t-0.5 -8.5q-1 -4 -4 -13t-4 -11h9v-16t-1 -15t-4 -15t-4 -17q-1 -1 -4.5 -7.5t-3.5 -7.5q0 -3 3 -15
t5 -16h-4h-4q-2 2 -8 11t-8 13q0 1 -3 12.5t-5 17.5q0 3 -1 9.5t-2.5 12.5t-2.5 11t-1 6t-0.5 4.5t-0.5 4.5v4zM48 84q-6 0 -6 -7.5t6 -7.5t6 7.5t-6 7.5z" />
    <glyph glyph-name="mu" unicode="&#xb5;" horiz-adv-x="513" 
d="M55 381q-2 2 -5 8t-3 8t3 5t5 3l-8 8l8 8l-1 7.5t-2.5 17t-2.5 20t-2 17.5q0 1 -1.5 5.5t-3 10t-3 10t-1.5 5.5v12v11q0 1 3.5 7t5.5 9q1 2 3.5 4.5t4.5 2.5q4 1 16.5 2.5t16.5 1.5q0 -4 0.5 -15.5t1.5 -24.5t2 -25t1 -16q0 -3 2 -10.5t4.5 -16t5 -16.5t4.5 -12
q1 -2 4 -8.5t6.5 -14t7 -14.5t5.5 -10q1 -1 4.5 -3.5t3.5 -3.5q1 -1 4 -7.5t3 -7.5l4.5 -4.5t4.5 -3.5v-9l3 -3l4 -4q0 -3 -1.5 -13.5t-1.5 -14.5q2 0 9.5 3t9.5 2l7.5 -7.5t7.5 -8.5q1 -1 0.5 -4t-0.5 -4l4 -8l4 -8l8 -8t8 -7q3 -1 10.5 -2t16.5 -2t16.5 -2t10.5 -1v21h4
t4 1q5 2 17 8t14 8q2 1 6.5 5.5l9.5 9.5t9 9.5t6 6.5q1 1 0.5 4t-0.5 4q1 3 4 8.5t4 6.5q4 4 8 0q1 3 3 10t4.5 14.5t5 14t3.5 8.5q0 1 3 4.5t4 3.5q0 1 1 4.5t2.5 7.5t3 7.5t1.5 4.5q1 1 4 3.5t4 3.5t3.5 8t3.5 8l4 4q2 2 4 3q2 4 5 9.5t3 7.5q0 1 -4 7.5t-4 7.5t4 3.5
t4 4.5q1 2 0.5 8t-0.5 7q1 4 3.5 16t4.5 15q0 1 3.5 8t4.5 8v7v9l-8 8q0 4 3 18.5t5 19.5q0 1 4 4t4 4q0 2 -4 8t-4 8q0 1 -0.5 3.5t-0.5 3.5v5q0 2 1 3q0 2 3 5t5 3q2 -3 7.5 -12t7.5 -11t5 -8t3 -8v-132q0 -2 1 -10.5t2.5 -17.5t2.5 -17t1 -10q0 -1 -3.5 -7.5t-3.5 -7.5
q0 -2 2.5 -5t4.5 -3l9 -62l-9 -9q2 0 5 -2.5t4 -4.5v-8q0 -2 3 -7.5t5 -7.5v-94q-4 1 -13 4t-11 4t-4.5 3.5l-3.5 3.5q-1 4 -4 13t-4 11v6v10v9.5v5.5t-1.5 7t-2.5 13t-2 12.5t-1 6.5v12v19.5v19.5v11t-4 8t-4 8q-1 2 -1 8t1 8l-8 -12l-8 -12q0 -1 0.5 -7.5t-0.5 -8.5
q0 -2 -7.5 -7.5t-8.5 -7.5t0 -8t0 -7q0 -1 -3 -4.5t-4 -4.5t-4 -7l-4 -8q-2 -1 -8.5 -7t-6.5 -8q-1 -2 -0.5 -8t0.5 -8q-1 -2 -7.5 -4t-8.5 -4q-2 -1 -4 -7.5t-4 -8.5q-1 -1 -4 -0.5t-4 0.5l-7 -7q-3 -2 -12 -7.5t-12 -7.5q-1 -1 -7.5 -4t-8.5 -4q-1 -2 -3.5 -8t-3.5 -8
t-4 -5t-4 -3q-2 -1 -8 -0.5t-7 0.5l-16 -8q-1 -1 -3 -1h-6h-4q-2 0 -3 1q-2 1 -4.5 7t-2.5 9q-2 -2 -8 -5t-8 -3q-1 0 -4 4t-4 4q-1 1 -8 3.5t-8 3.5q-1 2 0 9t0 8t-11 3t-12 4q-2 1 -4.5 7.5t-2.5 7.5q-2 2 -8 8.5t-8 7.5v4v4q1 2 3.5 4.5l3.5 3.5q-2 0 -7.5 3t-7.5 5
q-1 1 -4 3.5t-4 3.5t-3.5 8t-3.5 8l-4 4q-2 2 -4 3v9q-2 4 -5 13t-3 10h-2q-1 0 -2 1q-1 0 -1 -0.5t-1 -0.5h-2q-1 -1 -4 -7l-4 -8q0 -2 -1.5 -10t-2.5 -17.5t-2.5 -17.5t-1.5 -10t-1.5 -7.5t-2.5 -12t-2 -12.5t-1 -7q0 -10 -0.5 -34.5t-0.5 -51.5t0.5 -51.5t0.5 -33.5
l-8 -8q0 -4 -1 -14t-2.5 -21.5t-2.5 -21.5t-1 -14q-2 -4 -4.5 -13t-3.5 -10q-3 -2 -13.5 -4.5t-12.5 -2.5v9t0.5 14.5t1 14.5t0.5 9t4 11.5t4 11.5v15q1 2 4 12t3 12v12.5v22v22v12.5t1.5 9t3 15t3 14.5t1.5 8.5v40q0 1 1 6.5t2.5 12t3 12t1.5 7.5v47v46zM256 250
q-5 0 -5 -8.5t5 -8.5q7 0 7 8.5t-7 8.5zM288 265q-4 1 -4 -4.5t4 -3.5q3 1 3 4t-3 4zM319 280q-6 0 -6 -7.5t6 -7.5t6 7.5t-6 7.5zM335 288q-6 0 -6 -8t6 -8q5 0 5 8t-5 8zM444 460q-6 0 -6 -8t6 -8q5 0 5 8t-5 8z" />
    <glyph glyph-name="mu" unicode="&#x3bc;" horiz-adv-x="513" 
d="M55 381q-2 2 -5 8t-3 8t3 5t5 3l-8 8l8 8l-1 7.5t-2.5 17t-2.5 20t-2 17.5q0 1 -1.5 5.5t-3 10t-3 10t-1.5 5.5v12v11q0 1 3.5 7t5.5 9q1 2 3.5 4.5t4.5 2.5q4 1 16.5 2.5t16.5 1.5q0 -4 0.5 -15.5t1.5 -24.5t2 -25t1 -16q0 -3 2 -10.5t4.5 -16t5 -16.5t4.5 -12
q1 -2 4 -8.5t6.5 -14t7 -14.5t5.5 -10q1 -1 4.5 -3.5t3.5 -3.5q1 -1 4 -7.5t3 -7.5l4.5 -4.5t4.5 -3.5v-9l3 -3l4 -4q0 -3 -1.5 -13.5t-1.5 -14.5q2 0 9.5 3t9.5 2l7.5 -7.5t7.5 -8.5q1 -1 0.5 -4t-0.5 -4l4 -8l4 -8l8 -8t8 -7q3 -1 10.5 -2t16.5 -2t16.5 -2t10.5 -1v21h4
t4 1q5 2 17 8t14 8q2 1 6.5 5.5l9.5 9.5t9 9.5t6 6.5q1 1 0.5 4t-0.5 4q1 3 4 8.5t4 6.5q4 4 8 0q1 3 3 10t4.5 14.5t5 14t3.5 8.5q0 1 3 4.5t4 3.5q0 1 1 4.5t2.5 7.5t3 7.5t1.5 4.5q1 1 4 3.5t4 3.5t3.5 8t3.5 8l4 4q2 2 4 3q2 4 5 9.5t3 7.5q0 1 -4 7.5t-4 7.5t4 3.5
t4 4.5q1 2 0.5 8t-0.5 7q1 4 3.5 16t4.5 15q0 1 3.5 8t4.5 8v7v9l-8 8q0 4 3 18.5t5 19.5q0 1 4 4t4 4q0 2 -4 8t-4 8q0 1 -0.5 3.5t-0.5 3.5v5q0 2 1 3q0 2 3 5t5 3q2 -3 7.5 -12t7.5 -11t5 -8t3 -8v-132q0 -2 1 -10.5t2.5 -17.5t2.5 -17t1 -10q0 -1 -3.5 -7.5t-3.5 -7.5
q0 -2 2.5 -5t4.5 -3l9 -62l-9 -9q2 0 5 -2.5t4 -4.5v-8q0 -2 3 -7.5t5 -7.5v-94q-4 1 -13 4t-11 4t-4.5 3.5l-3.5 3.5q-1 4 -4 13t-4 11v6v10v9.5v5.5t-1.5 7t-2.5 13t-2 12.5t-1 6.5v12v19.5v19.5v11t-4 8t-4 8q-1 2 -1 8t1 8l-8 -12l-8 -12q0 -1 0.5 -7.5t-0.5 -8.5
q0 -2 -7.5 -7.5t-8.5 -7.5t0 -8t0 -7q0 -1 -3 -4.5t-4 -4.5t-4 -7l-4 -8q-2 -1 -8.5 -7t-6.5 -8q-1 -2 -0.5 -8t0.5 -8q-1 -2 -7.5 -4t-8.5 -4q-2 -1 -4 -7.5t-4 -8.5q-1 -1 -4 -0.5t-4 0.5l-7 -7q-3 -2 -12 -7.5t-12 -7.5q-1 -1 -7.5 -4t-8.5 -4q-1 -2 -3.5 -8t-3.5 -8
t-4 -5t-4 -3q-2 -1 -8 -0.5t-7 0.5l-16 -8q-1 -1 -3 -1h-6h-4q-2 0 -3 1q-2 1 -4.5 7t-2.5 9q-2 -2 -8 -5t-8 -3q-1 0 -4 4t-4 4q-1 1 -8 3.5t-8 3.5q-1 2 0 9t0 8t-11 3t-12 4q-2 1 -4.5 7.5t-2.5 7.5q-2 2 -8 8.5t-8 7.5v4v4q1 2 3.5 4.5l3.5 3.5q-2 0 -7.5 3t-7.5 5
q-1 1 -4 3.5t-4 3.5t-3.5 8t-3.5 8l-4 4q-2 2 -4 3v9q-2 4 -5 13t-3 10h-2q-1 0 -2 1q-1 0 -1 -0.5t-1 -0.5h-2q-1 -1 -4 -7l-4 -8q0 -2 -1.5 -10t-2.5 -17.5t-2.5 -17.5t-1.5 -10t-1.5 -7.5t-2.5 -12t-2 -12.5t-1 -7q0 -10 -0.5 -34.5t-0.5 -51.5t0.5 -51.5t0.5 -33.5
l-8 -8q0 -4 -1 -14t-2.5 -21.5t-2.5 -21.5t-1 -14q-2 -4 -4.5 -13t-3.5 -10q-3 -2 -13.5 -4.5t-12.5 -2.5v9t0.5 14.5t1 14.5t0.5 9t4 11.5t4 11.5v15q1 2 4 12t3 12v12.5v22v22v12.5t1.5 9t3 15t3 14.5t1.5 8.5v40q0 1 1 6.5t2.5 12t3 12t1.5 7.5v47v46zM256 250
q-5 0 -5 -8.5t5 -8.5q7 0 7 8.5t-7 8.5zM288 265q-4 1 -4 -4.5t4 -3.5q3 1 3 4t-3 4zM319 280q-6 0 -6 -7.5t6 -7.5t6 7.5t-6 7.5zM335 288q-6 0 -6 -8t6 -8q5 0 5 8t-5 8zM444 460q-6 0 -6 -8t6 -8q5 0 5 8t-5 8z" />
    <glyph glyph-name="M" unicode="M" horiz-adv-x="724" 
d="M9 433q1 2 2 7.5t2 11.5t2 11.5t1 8.5v4v4q-1 4 -3 14t-4.5 21t-4.5 21t-3 13q1 3 4 9l4 8l7 7h3q2 0 3 0.5t2 0.5q2 0 5 -0.5t4 -0.5q2 -1 8 -3.5t7 -3.5q1 -2 0 -8.5t0 -8.5q1 -1 4 -3.5t4 -3.5q2 0 11 -3.5t11 -4.5q3 -1 9 -3.5t8 -4.5l15 -15l8 -16q2 -1 8 -7t7 -8
q2 -2 8 -11.5t8 -11.5q0 -1 3.5 -4.5t4.5 -3.5q1 -2 4.5 -8.5t7 -14t7 -14.5t4.5 -10q1 -2 3 -7.5t5 -12t5 -12.5t3 -7q0 -1 4 -4t4 -4q0 -2 1 -7.5t2.5 -12t2.5 -12.5t1 -7q2 -2 4.5 -7.5t3.5 -7.5q1 -1 4 -4.5t4 -3.5q1 -2 3 -9t4.5 -14.5t5 -14.5t2.5 -9q1 -2 4.5 -8
t4.5 -7q0 -2 -0.5 -8t0.5 -8t7 -5t8 -3l-8 -8q2 0 8 -2.5t8 -4.5q3 -5 0 -8l39 -78h9q0 3 -1.5 11.5t-0.5 12.5q2 2 4.5 11.5t3.5 11.5q0 4 1.5 13t2.5 19t2.5 18.5t1.5 11.5q0 5 0.5 18.5t0.5 28t-0.5 28t-0.5 18.5q2 2 4.5 8t2.5 8q1 2 2.5 11t2.5 19.5t2 20t1 11.5l4 16
t5 15q0 2 3.5 8.5t3.5 7.5q0 2 -3.5 12t-3.5 12v3v4q0 1 3.5 4t3.5 4v5.5v10v10v6.5q2 1 4 3l4 4v9v14.5v14.5v9q1 2 3 4t3 2.5t2 1.5q1 2 3.5 11.5t3.5 11.5q2 4 7.5 16t7.5 15l4.5 4.5t4.5 3.5q3 1 9 2.5l12 3t11 2t6 -0.5q2 0 11 -5.5t13 -9.5q3 -2 9 -8t7 -8
q1 0 0.5 -3.5t-0.5 -4.5q1 0 3.5 -3t3.5 -4q3 -4 8.5 -13.5t11.5 -21t11.5 -21.5t7.5 -14q-2 -2 -2 -7.5t2 -7.5q2 -3 8.5 -9t7.5 -8q1 -1 4 -7.5t3 -7.5q1 -1 4.5 -4t3.5 -4q1 -3 4 -7.5t5.5 -9.5l4.5 -9t2 -5q0 -2 -0.5 -7t-1 -11t-1.5 -11t-1 -6q2 0 6 2.5t6 1.5
q1 -2 3.5 -10.5t4.5 -13.5v-7q1 -1 3.5 -4t3.5 -4v-8q1 -2 4 -4.5t4 -2.5l-8 -8q2 -1 5 -4t3 -5q1 -2 4 -6.5t5.5 -9.5l4.5 -9t2 -5v-24q0 -3 1 -9t2.5 -12t2.5 -11t2 -6q0 -1 3 -4l4 -4q1 -2 0.5 -12.5t-0.5 -11.5q2 -2 4.5 -11.5t3.5 -11.5q0 -2 1.5 -7.5t2.5 -11.5
t2.5 -11.5t1.5 -8.5v-8q1 -2 4 -10t7 -17t7.5 -17t5.5 -10q1 -2 3 -11.5t4 -12.5q2 -5 5 -17t3 -14q1 -3 1 -16v-16q-2 0 -8 0.5t-8 0.5q-2 1 -8 3.5t-9 3.5q-2 2 -4.5 5t-2.5 4q-1 1 -0.5 7t0.5 8q-1 1 -4 8t-4 8q0 2 0.5 8t-0.5 7q0 3 -3.5 13t-8 22t-8 22.5t-3.5 13.5
q-1 1 -0.5 7.5t0.5 7.5q-1 1 -4 7.5t-5 7.5q-1 5 -3.5 16.5t-3.5 15.5q0 2 0.5 11.5t-0.5 11.5q0 1 -2 5.5t-5 10t-5.5 10t-2.5 5.5v8q-1 1 -3 8t-4.5 16t-5 17t-3.5 13q-1 2 -4 11.5t-3 11.5v17q-3 1 -5 3l-4 4q0 2 0.5 11.5t-0.5 11.5q0 1 -3.5 4.5t-4.5 3.5v9
q-1 2 -7.5 11t-7.5 11q-2 4 -8 15.5t-12 24t-11.5 23.5l-7.5 15q1 2 1 8t-1 8l-8 8v7q-1 2 -3.5 8t-3.5 8l-4 4t-4 3q-1 2 -4.5 8.5t-3.5 8.5l-7.5 7.5l-11.5 11.5l-11.5 11.5t-8.5 7.5q-1 0 -3.5 -3t-4.5 -5t-4.5 -7.5t-2.5 -7.5l-5 -12.5t-5.5 -15t-4.5 -13t-2 -6.5
q0 -2 4.5 -11.5t4.5 -11.5q-1 -2 -8 -8t-8 -8t-3.5 -14t-4.5 -17v-15q0 -2 -1 -8.5t-2.5 -14t-2.5 -14.5t-1 -10q-1 -1 -2 -5.5t-2.5 -10t-2.5 -10t-1 -5.5q0 -3 -1.5 -14.5t-3 -24.5t-2.5 -24.5t-1 -14.5q0 -2 -1.5 -11.5t-2.5 -20t-2 -19.5t-1 -11v-21v-18q0 -2 1 -7.5
t2 -12t2.5 -12.5t1.5 -7v-4v-4q-1 -1 -3 -5.5t-5 -10t-5 -10.5t-3 -6q-2 -4 -5 -12.5t-3 -10.5q0 -1 4 -3.5t4 -3.5q0 -2 -3 -11t-5 -13q0 -2 -2.5 -5t-4.5 -3h-16h-15q-2 0 -4.5 3t-4.5 5q0 2 -3 12t-4 12q0 1 -3.5 3.5t-4.5 3.5q-1 2 -3.5 7.5t-3.5 8.5q-2 2 -4.5 12
t-3.5 12q-1 0 -4.5 3t-3.5 4q-2 1 -4 7l-3 9q-1 2 -4.5 11.5t-4.5 12.5q-2 1 -4 3l-4 4q0 2 -3 11.5t-4 11.5l-4 8t-4 7l-4.5 4.5t-3.5 4.5q-1 2 0.5 11.5t-0.5 11.5q0 1 -3.5 4t-3.5 4q-2 2 -5.5 8.5t-7 14t-7 14t-4.5 9.5q0 2 -3.5 11.5t-4.5 11.5q-1 1 -3.5 4.5t-3.5 4.5
q-2 2 -4.5 11.5t-3.5 11.5q-1 1 -4.5 4t-3.5 4q-2 3 -8.5 17t-14.5 29.5t-15 29.5t-9 17q-1 1 -7.5 8t-7.5 8q-2 2 -8 11.5t-8 12.5h-3h-5q-1 -2 -7 -10.5t-8 -13.5q-2 -3 -5 -9t-3 -7v-4v-3q0 -2 1 -9t2.5 -15t3 -15t1.5 -8v-24q0 -3 1.5 -14.5t2.5 -24.5t2.5 -24.5
t1.5 -14.5v-16v-15q0 -1 -1.5 -6.5t-3 -12.5t-2.5 -12.5t-1 -6.5q0 -2 4 -12t4 -12v-6.5v-9.5v-9.5v-5.5q0 -2 1.5 -7.5t2.5 -12t2 -12.5t1 -7v-13v-22v-22v-13q0 -2 4 -8t4 -8q0 -1 0.5 -15.5t0.5 -22.5v-8.5t-0.5 -12t-0.5 -12v-7.5q-2 2 -7.5 4.5t-7.5 3.5q-5 3 -14 12.5
t-9 11.5q-1 1 -1 5v9.5t0.5 10t0.5 6.5q-1 0 -2 1l-3 3q-2 2 -4 3v39q0 3 -1 13t-2.5 22t-3 22.5t-1.5 12.5v7.5v12v12v7.5t-2.5 8.5t-4.5 7.5v218z" />
    <glyph glyph-name="N" unicode="N" horiz-adv-x="524" 
d="M9 29q0 5 -0.5 17t-0.5 15q0 6 0.5 17.5t0.5 13.5t1 9t2.5 14.5t2.5 14t1 8.5v47q0 3 1.5 14.5t3 24.5t2.5 25t1 15v13v10q0 1 -3 3.5t-5 3.5l8 8v187l-4 12t-4 11v5v3q2 2 8 11.5t9 12.5q2 2 7.5 8t7.5 7q1 0 6.5 0.5t7.5 0.5t4 -0.5t5 -0.5h7q2 0 5 -2.5t4 -4.5
q0 -2 -0.5 -5t0.5 -3q1 -2 7 -4.5t8 -3.5t1 -4t-1 -4q2 -2 4.5 -8t3.5 -8l15 -15q2 -2 8.5 -12t8.5 -12l3 -3q4 -4 4 -5t-0.5 -7.5t0.5 -7.5q0 -1 3.5 -4.5l7.5 -7.5t7.5 -7t4.5 -4q1 -2 4.5 -8t3.5 -8q1 -1 6 -5.5t10 -9.5t9.5 -10t5.5 -6q2 -2 4.5 -12t3.5 -12
q1 -1 7.5 -3t7.5 -4q1 -1 0.5 -4t-0.5 -4q1 -2 4 -7.5t4 -7.5l4.5 -4.5t4.5 -3.5q1 -2 7 -12.5t8 -11.5q1 -1 4.5 -4t7.5 -7l7.5 -7.5t3.5 -4.5q1 -1 3 -5.5t5 -10t5 -10t3 -5.5q1 -3 5 -9.5t9 -14t10 -14t7 -9.5q1 -1 5 -6t9 -11.5t9.5 -12t7.5 -8.5q1 -2 4 -5l4 -4
q1 0 7.5 -3t7.5 -5q2 -2 4 -11.5t4 -10.5q3 -2 12.5 2.5t11.5 4.5v8q0 3 1 8.5t2 12t2 11.5t2 7q2 1 5 7.5t3 7.5q0 4 0.5 13t0.5 19t-0.5 18.5t-0.5 11.5q1 2 4 4.5t4 3.5q2 5 4.5 16.5t2.5 15.5q0 1 -1 5.5t-2.5 10t-2.5 10t-1 5.5q1 2 3 4l4 4v5.5v9.5v9.5v5.5t1 4.5
t2.5 7.5t3 7.5t1.5 4.5v7v12.5v12v7.5t1.5 11.5t3 20t3 19.5t1.5 12q0 7 0.5 28t0.5 44t0.5 44t0.5 29q2 0 9.5 -2t11.5 -4q1 -1 3.5 -7t3.5 -8v-8q0 -1 1.5 -4.5t3 -7.5t2.5 -7.5t1 -4.5q0 -2 0.5 -14t0.5 -17t-0.5 -13.5t-0.5 -9.5l-8 -8q0 -5 0.5 -19.5t0.5 -30.5
t-0.5 -30.5t-0.5 -20.5q0 -2 -3 -11.5t-4 -11.5v-8q0 -2 -1.5 -7.5t-3 -12t-2.5 -12t-1 -7.5v-10v-17v-17v-10t-1.5 -7.5t-3 -12.5t-2.5 -12.5t-1 -7.5v-30l-4 -4q-2 -2 -3 -4t-0.5 -12t0.5 -12q-1 -2 -4.5 -12.5t-7.5 -22t-7.5 -22t-4.5 -12.5t0 -8.5t0 -7.5q0 -1 -3.5 -4
t-4.5 -4q-1 -2 -7 -11.5t-8 -11.5q0 -1 -1 -1h-4h-2q-1 0 -1 1q-4 2 -16 7.5t-15 7.5q1 1 1 4.5t-1 3.5q-2 2 -8.5 4t-7.5 4q-2 2 -8 11.5t-8 11.5q-1 1 -7 7.5t-8 7.5q-1 2 -4 8.5t-4 8.5q-1 1 -4.5 5.5t-7 9.5t-7 9t-4.5 6l-16 16q0 1 -3 6t-7 11t-7.5 12.5t-5.5 9.5
q-1 2 -4.5 8t-3.5 7q-2 2 -6 7.5t-9 12t-9.5 12t-6.5 7.5l-4.5 4.5t-7 7.5t-7 7.5l-4.5 4.5t-4.5 5.5t-7.5 9.5t-7.5 10t-4.5 6l-4.5 4.5l-7.5 7.5l-7.5 7.5t-3.5 4.5q-2 2 -4.5 11.5t-3.5 11.5q-2 2 -8.5 11t-14.5 19.5t-15 19.5t-9 12l-4 8t-3 7q-1 2 -4 5l-4 4
q-2 1 -8 3.5t-8 3.5q-2 -1 -4 -1q-1 -1 -3 -1h-1v-131q-2 0 -4.5 -2.5t-2.5 -4.5v-9v-14.5v-14.5v-9t-1.5 -11.5t-3 -20t-2.5 -19.5t-1 -11v-18.5v-32v-32.5v-19q0 -3 -1.5 -14t-3 -24t-2.5 -24.5t-1 -14.5t-0.5 -11t-1 -17.5t-0.5 -17.5v-11q-4 0 -5 3q-4 2 -13 11zM33 92
q-7 0 -7 -8t7 -8q5 0 5 8t-5 8zM429 108q-5 0 -5 -8t5 -8q6 0 6 8t-6 8zM63 512q-5 0 -5 -7.5t5 -7.5q6 0 6 7.5t-6 7.5zM63 528q-5 0 -5 -8t5 -8q6 0 6 8t-6 8z" />
    <glyph glyph-name="O" unicode="O" horiz-adv-x="609" 
d="M20 375q2 1 4.5 4t2.5 5q1 1 0.5 7t-0.5 8q0 1 4 3.5t4 4.5q2 1 4.5 7t4.5 8q0 2 2.5 12t4.5 12q0 1 3.5 5.5t7.5 9.5t7.5 9.5t4.5 5.5q1 2 4.5 8.5t3.5 8.5q1 0 4 3t3 4q2 2 8.5 11.5t8.5 11.5q0 1 3 0.5t4 -0.5q1 1 4 4.5t4 3.5q1 1 4 1.5t5 2.5q3 1 6 3q2 0 5 -2.5
t3 -4.5q0 3 3 12.5t6 11.5q1 1 5 5.5t9.5 9.5t10 9.5l5.5 5.5q2 2 7.5 12t7.5 12q1 0 7 3l10 5q2 1 11.5 3.5t11.5 4.5q1 1 4 3.5t3 3.5q5 2 16.5 8t15.5 7q3 1 10 4t14.5 5.5t14 4.5t8.5 3h11h12q3 -1 9.5 -3t14 -4.5t14 -5.5t8.5 -4q-1 0 -3.5 -2.5t-3.5 -4.5t-1 -11.5
t1 -11.5q-2 2 -11.5 8t-12.5 7h-6q-2 0 -4.5 0.5t-3.5 0.5q-4 0 -10 -0.5t-7 -0.5q-2 -1 -4.5 -3t-2.5 -4l62 -23l15 7q-2 -5 0 -7q2 -3 7.5 -9t7.5 -8q3 -1 7.5 -2t7.5 -1l2 -4q1 -2 7 -8l8 -8t11.5 -8t11.5 -7l16 -16q1 0 6 -2.5l10 -5t9.5 -4.5t5.5 -3q2 -2 8 -11.5
t8 -11.5q0 -1 3.5 -4.5l4.5 -4.5l7.5 -15l11.5 -23t11.5 -23.5t7.5 -15.5t5.5 -12.5t3.5 -10.5q0 -5 0.5 -17.5t0.5 -26t0.5 -25.5t0.5 -17h-19q0 -4 -2.5 -16t-4.5 -16q-2 -5 -5.5 -13t-7 -17t-6.5 -16t-4 -9l-5.5 -5.5t-10 -9.5t-10.5 -9.5t-6 -5.5q-1 -2 -3.5 -8t-4.5 -7
q-1 -1 -3.5 -4.5t-3.5 -4.5t-4.5 -7t-3.5 -8l-14 -14l-21.5 -21.5t-21.5 -21t-14 -13.5q-2 2 -7 0q-1 -1 -5 -4t-9 -7t-9.5 -7.5t-7.5 -5.5q-1 0 -4 -3.5t-3 -4.5q-2 0 -8 -3t-9 -4q-2 -1 -11.5 -4t-11.5 -4q-3 -1 -9.5 -4.5t-14 -7t-14 -7t-9.5 -4.5q-1 2 -7 5t-8 3
q-1 0 -5.5 -1.5t-10 -3t-10 -2.5t-5.5 -1t-4 4t-4 4h-23l-18 3t-24.5 4.5l-22.5 4.5t-13 3q-1 0 -4.5 2.5t-7.5 5t-7 5t-4 2.5q-2 1 -8.5 4.5t-8.5 3.5q0 1 -3 4.5t-4 4.5l-9 10.5t-19.5 23.5t-19.5 24.5t-9 12.5l-3 9.5t-6 20t-5.5 20l-2.5 9.5v9.5v18.5t0.5 18.5l0.5 8.5
q-4 6 -5.5 15.5t-2 18.5t0 16l0.5 7zM35 228q1 -4 3 -13t4.5 -19t5 -18.5t3.5 -11.5q0 -1 3.5 -4.5l4.5 -4.5t3.5 -7t3.5 -8q2 -2 4.5 -11.5t3.5 -11.5t7 -11t8 -13q2 -1 5 -4l4 -4q1 0 5 -2.5t9.5 -5t10 -5t6.5 -2.5q2 -2 11.5 -8.5t12.5 -6.5q1 -2 8 -4t14.5 -4.5t14 -5
t8.5 -3.5q2 0 5 -2.5t4 -4.5q3 1 10.5 2t16.5 2t17 2t11 1h7q6 1 16 4t19.5 5.5t17.5 4.5t9 3q3 1 8.5 4t12 6.5t12 7t7.5 5.5q3 2 9.5 8.5l14 14t13.5 14t8 9.5h9q2 2 7.5 4.5t7.5 3.5q1 1 6 5.5t10 10t9.5 10t5.5 6.5h9l38 77q-1 2 -1 7.5t1 7.5t7.5 8.5l8.5 8.5q0 1 3 7
t5 8q0 2 3 11.5t4 11.5l4 4q2 2 4 3q0 2 0.5 9t0.5 11q0 3 -0.5 11t-0.5 9q-1 3 -3.5 18t-4.5 21q-2 3 -4 12t-3 11l-4 4q-2 2 -4 3q-2 3 -8 12.5t-8 11.5q-2 3 -7.5 8.5t-11.5 12t-11.5 12l-7.5 7.5q-3 1 -12.5 7t-11.5 8q-2 1 -7.5 6.5t-12 12.5t-12.5 12.5t-8 7.5
t-10.5 7.5t-12.5 7.5q-3 2 -10 6t-14.5 7.5t-14 6.5t-7.5 3h-3q-2 0 -3 0.5t-2 0.5t-4 -0.5t-4 -0.5q-2 0 -8 -3t-7 -4q-2 0 -8 0.5t-8 -0.5l-8 -8l-3 -1h-3q-1 0 -2 1t-7 8t-8 7h-3q-2 0 -2.5 0.5t-1.5 0.5q-2 0 -5 -0.5t-4 -0.5q-2 -1 -4 -3l-4 -4q-1 0 -5.5 -1.5
t-9.5 -2.5t-9.5 -2.5t-5.5 -1.5q-1 -1 -4 -3.5t-4 -4.5l-4 -8t-5 -7q-1 -2 -7 -4.5t-8 -4.5q-1 0 -3.5 -3t-4.5 -4t-7.5 -4t-7.5 -4q-1 0 -4 0.5t-3 -0.5q-2 -1 -4.5 -7.5t-4.5 -7.5q-1 -2 -7 -5t-8 -3l7 -7q1 -2 -7.5 -13.5t-15.5 -18.5q-2 -1 -8 -3.5t-7 -4.5t-4.5 -7.5
t-4.5 -7.5v-9q-1 -2 -5 -11t-9.5 -19.5t-10 -19.5t-5.5 -12q-2 -2 -5 -11t-3 -12v-15l-4 -8t-3 -8q-1 -2 -2.5 -9.5t-3 -16t-2.5 -17t-1 -12.5v-16v-14zM307 609q-3 1 -3 -4t3 -3q5 1 5 3t-5 4zM277 617q-6 0 -6 -7.5t6 -7.5q5 0 5 7.5t-5 7.5z" />
    <glyph glyph-name="P" unicode="P" horiz-adv-x="438" 
d="M24 371q-1 3 -2 9.5t-2.5 14t-2.5 14t-1 8.5v149q-2 0 -4.5 2.5t-2.5 4.5q0 3 -1 10t-1.5 15t-1 15t-0.5 10q5 0 18 -1.5t17 -1.5q2 -1 5 -3.5t3 -3.5q0 -2 0.5 -9t0.5 -11t-0.5 -11.5t-0.5 -8.5q0 -2 -4 -11.5t-4 -12.5q-1 -5 -1 -9v-12q0 -5 0.5 -14t0.5 -10q0 -2 1 -8
t2.5 -12.5t3 -12.5t1.5 -7q0 -3 0.5 -9.5t0.5 -14t-0.5 -14t-0.5 -9.5q2 2 8 7.5t7 8.5v5.5v10v10v5.5q1 2 7.5 8.5l7.5 7.5t3.5 6t5.5 10t5 9.5t3 5.5q2 3 8 9.5t13.5 14t15 14t10.5 9.5q2 1 7.5 4.5t11.5 7.5t11.5 7t7.5 4q2 0 8 1.5t13.5 2.5t15 2.5t10.5 1.5q2 0 14 0.5
t17 0.5q3 0 8.5 -0.5t10.5 -0.5h12q2 0 10.5 -3t13.5 -5l8 -4t7 -4l4 -4t4 -3q2 -1 8 -0.5t7 0.5q2 -2 8 -12t8 -12l38 -38q2 -3 5 -9l4 -8v-23q0 -2 3.5 -11.5t4.5 -12.5v-3v-4q-1 -3 -2 -8.5t-2.5 -11.5t-2.5 -11.5t-1 -6.5q-1 -2 -3 -9.5t-4.5 -16l-5 -17t-3.5 -12.5
q-1 -5 -4 -14t-4 -10t-3.5 -1t-3.5 1q-2 -2 -6.5 -8t-9.5 -12t-9.5 -11.5t-6.5 -7.5t-6 -6.5t-9 -9.5l-9.5 -9.5t-6.5 -5.5q-1 -1 -5 -4t-9 -6.5t-9.5 -7.5t-7.5 -6q-5 -2 -13.5 -8t-9.5 -7q-2 -1 -7.5 -3.5t-11.5 -5t-12 -4.5t-8 -2q-3 -2 -18 -5t-22 -3h-7h-8
q-5 0 -12 1.5t-14.5 2.5t-13.5 2.5t-7 1.5q-2 1 -7.5 7t-7.5 8q-2 4 -2 8h103q1 0 7.5 3.5t15 8.5t17.5 10.5t15 8.5q3 3 10 7.5t14.5 9.5t14 9t8.5 5l11 11t12 13q2 2 8 11.5t7 11.5q2 2 8.5 8t7.5 8q0 1 2 6.5t4.5 13l5 15t4.5 11.5q2 5 4.5 17t2.5 14t0.5 7.5t0.5 8.5
t-0.5 9t-0.5 7q-1 5 -3.5 16.5t-3.5 14.5q-2 2 -7.5 11t-8.5 13l-7.5 7.5l-11.5 11.5l-11.5 11.5t-8.5 7.5q-2 2 -11.5 8t-11.5 8q-3 2 -12.5 5t-11.5 3h-26h-28q-6 -1 -21 -4t-19 -4q-2 -2 -13.5 -10.5t-16.5 -13.5q-3 -2 -8.5 -7.5l-11.5 -11.5t-11.5 -12t-7.5 -8
q-3 -2 -8.5 -11.5t-7.5 -11.5q-2 -3 -5 -13t-7 -21t-7.5 -21.5t-4.5 -14.5v-7v-9q2 -1 5 -7l4 -8v-4v-4q0 -1 -1.5 -5.5t-3 -10t-3 -10.5t-1.5 -6v-60v-64q0 -1 1 -12t2.5 -26t3 -30.5t2.5 -25.5q0 -3 1 -15t2.5 -26.5t3 -27.5t1.5 -16v-8v-7q-1 -2 -4 -5l-4 -4h-4h-5
q-4 5 -12.5 13.5t-9.5 10.5q0 1 -1.5 8t-2.5 16t-2.5 17.5t-1.5 13.5v30q0 3 -1.5 13.5t-3 22.5t-2.5 22t-1 13v31q-1 6 -2 18t-2 24.5t-2 22.5t-1 13q0 1 -4 7.5t-5 7.5v8q0 3 -1 9.5t-2 14t-2.5 14t-2.5 9.5zM48 371q-6 0 -6 -8t6 -8t6 8t-6 8zM48 395q-6 0 -6 -8.5
t6 -8.5t6 8.5t-6 8.5zM48 410q-6 0 -6 -7.5t6 -7.5t6 7.5t-6 7.5z" />
    <glyph glyph-name="Q" unicode="Q" horiz-adv-x="537" 
d="M389 86q-2 -2 -6 -6.5t-9 -9.5l-9.5 -9.5t-6.5 -5.5q0 -2 -3.5 -1t-4.5 1q-2 -2 -7.5 -4.5t-7.5 -3.5v8l-8 -8l-8 -8t-8 -4.5t-8 -2.5h-15q-1 0 -4 -4t-4 -4t-5.5 -0.5t-6.5 -0.5t-6.5 0.5t-5.5 0.5t-3.5 3t-3.5 5q0 -2 -3 -5t-5 -3q-1 -1 -7 -4.5t-8 -4.5
q-5 -2 -14 -4.5t-10 -2.5q-2 1 -8 8t-8 8q-1 0 -7.5 -0.5t-7.5 0.5q-1 0 -5.5 2t-10 5t-10 5.5t-5.5 2.5q-2 1 -8 1.5t-8 0.5v6q-3 1 -9.5 4t-14 6.5t-14 7t-9.5 5.5l-10.5 10.5t-11.5 13.5q-2 2 -7.5 8.5t-11.5 13t-10.5 12t-5.5 6.5q-3 5 -9 19.5t-7 19.5q2 0 5 3t3 5
t-4 8t-4 8q-1 12 -1 23v29q0 6 0.5 18t0.5 14q0 1 1 5t2.5 9t2.5 10t2 7q1 1 3.5 7t5 12.5t4.5 12t2 7.5q1 1 0.5 7.5t-0.5 7.5t4 4.5t5 3.5q0 1 1.5 5.5t2.5 10t2.5 10t1.5 5.5q2 5 7.5 17.5t7.5 14.5q0 1 3.5 4t8 7t8 7.5t3.5 4.5q1 1 0.5 7.5t-0.5 7.5t3.5 4.5t4.5 3.5
q1 2 5.5 9t10 14.5t10 14.5t5.5 9l8 8t7 8q1 1 4.5 7t4.5 8q2 3 7.5 9t7.5 7q1 1 4 1t4 -1q2 3 7.5 15t7.5 16q1 2 4.5 4.5t3.5 3.5q2 1 8 0t8 0q3 1 15 7l16 8v-8l7 -7q0 2 9 3t11 2q1 2 6.5 4.5t8.5 3.5h3h5q3 -1 9 -3.5t12.5 -5t11.5 -4.5t6 -2l8 -8t7 -8q0 -2 1.5 -9
t2.5 -14.5t2.5 -14.5t1.5 -8q1 -2 7 -8l8 -8q2 -1 8 -4.5t12.5 -7.5t12 -7.5t6.5 -4.5q3 -2 9 -7.5t7 -7.5v-4v-4q2 -2 8 -4t8 -3q1 -2 3.5 -8.5t4.5 -8.5q1 -1 7.5 -3t7.5 -4q2 -2 5 -11.5t3 -11.5q3 -8 8.5 -22.5t7.5 -16.5q0 -1 3 -4t5 -4q0 -1 1 -5t2 -8.5t2.5 -8.5
t1.5 -5l8 -8q0 -3 0.5 -15t0.5 -15q0 -6 -0.5 -18t-0.5 -14l-4 -16t-4 -14q-1 -3 -5.5 -11.5t-5.5 -10.5q-1 0 -3 -4t-4 -9l-4 -10t-2 -6t-1 -5.5t-2 -10t-2.5 -10t-1.5 -5.5q-1 -3 -3.5 -7.5t-5 -9.5l-4.5 -9t-3 -5t-5.5 -4.5t-9.5 -7t-10 -7.5t-6 -5v-6v-9q2 -2 8 -11.5
t8 -11.5l-8 -8q1 -1 4 -3.5t4 -4.5q5 -9 13 -24.5t15.5 -30.5l13 -26t5.5 -12v-27q-2 0 -8 1.5t-8 1.5q-2 2 -8 7.5t-8 8.5q-1 1 -3 5.5t-4.5 9.5t-4.5 9.5t-3 6.5v8l-4 4q-2 2 -4 3l-16 32v8q0 1 -3.5 4t-4.5 3q-2 2 -7.5 11.5t-7.5 12.5zM233 55q0 -2 3 -5t5 -3q1 0 7 3
t8 5q1 1 4.5 4t4.5 3q2 1 11.5 0.5t11.5 -0.5q3 1 11.5 4t11.5 4q2 2 11 8t13 8l15 15q1 0 4.5 2.5t8 5t8 5t3.5 3.5l-1 4t-2.5 9l-3 10t-2.5 8q0 2 -2.5 7.5t-4.5 7.5q0 2 -3.5 5t-4.5 3q0 1 0.5 4.5t-0.5 3.5q-1 1 -5 5.5t-9 9.5t-10 9.5t-7 6.5q-1 0 -4.5 6t-7.5 12.5
t-7.5 12.5t-4.5 6q-2 2 -8 8.5t-7 8.5q-1 0 -1 1v2q0 1 0.5 2t0.5 2q3 0 8.5 1t11.5 2.5t11.5 2.5t7.5 2l8 8l8 -8q1 -2 0 -8t0 -7q1 -2 7 -8t8 -9q2 0 8.5 -2.5t6.5 -4.5q1 -2 2.5 -10t3 -17t2.5 -16.5t1 -9.5q1 2 3 2t4 -2t8 -11t8 -13q1 -1 1 -4v-4q2 0 3.5 0.5t2.5 0.5
q4 1 10 3.5t6 3.5l7 14l9 18q1 2 5 11.5t9 20t9 19.5t5 11q1 1 3 7.5t3.5 13.5t2.5 13t1 8t-3 8l-4 8q0 1 -1 5t-2.5 9.5t-2.5 10t-2 6.5l-4 4q-2 2 -4 3q-1 2 -0.5 10t0.5 10q-1 2 -3.5 11.5t-3.5 11.5q0 1 0.5 7.5t-0.5 7.5q0 1 -3 3.5t-5 4.5t-12 8t-12 8q-1 1 -4 7.5
t-4 7.5l-15 15q-2 2 -8 12t-7 12t-4 4.5t-5 3.5t-11.5 7.5t-11.5 7.5q-1 1 -3.5 4.5t-3.5 3.5q-2 1 -8.5 4.5t-7.5 3.5q-1 1 -4 4.5t-4 3.5t-7.5 -0.5t-8.5 0.5t-8 7t-7 9q-2 0 -7.5 1.5t-12 3.5t-12 3.5t-6.5 1.5q-6 0 -16 -0.5t-11 -0.5t-5 -2l-9 -4.5l-10 -5t-8 -3.5
q-1 -1 -3.5 -4t-4.5 -5q-1 -1 -3.5 -7t-3.5 -8q-3 -3 -8.5 -11t-11.5 -16.5t-11.5 -16t-7.5 -10.5l-16 -16q-2 -3 -7 -13t-11 -22.5t-12 -24.5l-9 -18q0 -1 -2.5 -6.5t-5 -12.5t-5 -12.5t-2.5 -6.5l-8 -8v-5.5v-10v-10.5v-6t-1.5 -5.5t-2.5 -10t-2 -10t-1 -5.5
q-1 -10 -1 -20v-26v-13q0 -4 1 -9q0 -2 2.5 -8t4.5 -8l-15 -8q1 -1 4 -3.5t4 -3.5q2 -4 10.5 -15.5t18 -24.5t17.5 -24.5t11 -15.5q4 0 16 -3t15 -5q2 -1 7.5 -8t7.5 -8h24q3 0 12 -1t18.5 -2t18.5 -2t13 -2zM12 343q6 0 6 -7.5t-6 -7.5t-6 7.5t6 7.5zM288 582q1 -2 7 -5
t8 -3t8 3t8 5q-1 2 -3.5 5t-4.5 4h-8h-8q-1 -1 -3.5 -4t-3.5 -5z" />
    <glyph glyph-name="R" unicode="R" horiz-adv-x="487" 
d="M31 221q-3 0 -6 3t-3 5q0 1 1.5 5.5t3 10t3 10t1.5 6.5v21v25q-1 2 -2.5 11.5t-3 20t-2.5 19.5t-1 12v85q-1 2 -4.5 8t-3.5 8v6.5v12.5v12.5v6.5q0 3 -2 12t-5 19.5t-5.5 19.5t-2.5 11q0 3 -0.5 10t-1 14.5t-1 14t-0.5 8.5q3 0 13.5 -3t12.5 -5q2 -1 4.5 -9.5t4.5 -12.5
q0 -2 -0.5 -7.5t-0.5 -12.5v-12.5t1 -7.5q0 -1 3 -7.5t4 -7.5q1 -2 3.5 -14.5t4.5 -17.5v-7q1 -1 3.5 -4t3.5 -4v-62l8 -8q2 2 5 8t3 8q0 1 1 6.5t2.5 12.5t2.5 12.5t1 7.5q1 2 8 7.5t9 7.5q2 4 8 15.5t7 15.5q1 2 1.5 8t0.5 8h6q0 3 2 9.5t4.5 14t5 14t3.5 9.5q1 2 6 8
t11 13.5t12.5 14.5t9.5 10q4 4 11.5 10.5t15 12.5t13 11t7.5 5q1 1 14.5 1.5t19.5 0.5q8 0 21.5 -0.5t14.5 -1.5q1 0 5.5 -4t11 -9t12.5 -10t10 -8l13 -13t10 -11q2 -2 8 -13.5t8 -16.5q1 -2 4 -11.5t4 -12.5v-8q1 -2 3.5 -11t3.5 -12q1 -2 4.5 -8t3.5 -8v-9q0 -4 0.5 -7.5
t0.5 -5.5q0 -4 -0.5 -13.5t-0.5 -11.5t-1.5 -8.5t-2.5 -14t-2.5 -14.5t-1.5 -9t0.5 -8t-0.5 -8q-2 -3 -6 -12t-9 -18.5t-9.5 -18.5l-6.5 -13q0 -1 -6.5 -7.5t-8.5 -7.5q-2 -2 -8.5 -12t-7.5 -12q-2 -2 -10.5 -11t-13.5 -12q-1 -2 -6.5 -6.5t-12.5 -10t-12.5 -10t-6.5 -5.5
q-1 0 -4 -3t-3 -4q-2 0 -8.5 -3.5t-8.5 -4.5l-15 -15l-8 7q0 -1 -0.5 -3.5t-0.5 -3.5v-5q0 -2 1 -3q1 -2 7 -5t9 -3h15l9 -4.5t14.5 -7.5t14.5 -7.5l9 -4.5q3 -1 10.5 -4t16 -7t16.5 -7t11 -4q2 -2 12 -5t12 -3q0 -1 3.5 -4.5l4.5 -4.5h7q1 0 4 -3l4 -4q3 -2 15 -8.5
t17 -7.5q2 -1 11.5 -3.5t11.5 -3.5q3 -2 9 -8t6 -8q2 -3 3.5 -14t1.5 -13q-3 0 -14 1t-14 2q-2 1 -11.5 8t-11.5 8l-18 9t-29.5 14.5t-29.5 14.5t-17 9l-7 7q-3 2 -9 5l-8 4q-1 0 -7 -0.5t-8 0.5q-1 0 -5.5 2t-10 4.5t-9.5 5t-5 3.5q-4 1 -13 4t-11 4q-2 0 -8.5 -0.5
t-7.5 0.5q-1 0 -4 3t-3 4q-3 2 -9 5t-8 3t-8.5 1.5t-14 2.5t-14.5 2.5t-8 1.5q-3 1 -9 7t-8 9q0 2 -1.5 6.5t-1.5 6.5q2 0 13 0.5t14 1.5q1 0 7 3t8 5q1 1 4 4.5t4 3.5q5 3 16.5 8.5t15.5 7.5q1 0 7.5 -0.5t7.5 0.5q3 1 15 9.5t17 13.5q3 2 10.5 9.5l16 16l16.5 16.5t11 12
t9.5 11t12.5 14.5t10.5 13.5t5.5 8q1 1 2 5.5t2.5 10t2.5 10t1 5.5q1 2 5 12t4 12v23v24q0 2 -3.5 16.5t-5.5 21.5q0 3 -1.5 7.5t-2.5 9.5t-2.5 9t-1.5 5q-1 3 -6.5 18t-8.5 22l-4 8t-4 7q-2 2 -7.5 8t-11.5 12l-11.5 11.5t-8.5 7.5q-1 1 -7 4l-8 4h-3q-2 0 -3 0.5t-2 0.5
t-2 -0.5t-2 -0.5h-3q-2 0 -8.5 -3t-8.5 -5q-4 -2 -13 -8t-10 -8q-3 -3 -10 -10.5t-14.5 -16.5t-14 -17t-8.5 -11q-1 -1 -4 -6.5t-6.5 -13l-7 -15t-4.5 -11.5q-2 -3 -6.5 -14.5t-10 -24.5t-10 -24.5t-5.5 -14.5q0 -1 -2.5 -5.5t-5 -10t-5 -10t-2.5 -5.5t-1.5 -5t-2.5 -9
t-2.5 -10t-1.5 -7t-1.5 -8.5t-3 -14t-3 -14.5t-1.5 -10q-1 -6 -2 -16l-2 -20t-2 -17.5t-1 -8.5v-332q-3 0 -12 2t-11 3q-4 1 -9.5 7t-5.5 8v257v0z" />
    <glyph glyph-name="S" unicode="S" horiz-adv-x="474" 
d="M16 89q0 3 1 6q2 2 4.5 8t3.5 8q2 -1 5 -4t3 -5q2 -2 5 -7.5t3 -7.5v-5.5v-10v-9.5v-5q0 -2 6 -5t10 -4q2 0 8.5 -1.5t14 -2.5t14.5 -2.5t10 -1.5h22h24q5 1 19.5 4t19.5 4q2 1 8 4.5t8 4.5h8q2 1 11.5 2.5t20.5 3t20.5 3t12.5 2.5h8q2 1 11.5 7.5t12.5 7.5q1 1 7 4t8 3
q2 3 11.5 12.5l11.5 11.5t8 4.5t8 3.5q1 0 7 -0.5t8 0.5l7 7t9 8q1 1 5 9t8.5 17.5t8.5 17.5t4 10q0 9 1 17q0 7 0.5 12.5t0.5 6.5t-2.5 5.5t-5.5 9t-5.5 8.5l-2.5 4q0 1 -3 4t-5 4t-11.5 0t-11.5 0t-5 3.5t-3 3.5h-117q-2 2 -8 5t-8 3q-2 1 -8.5 2t-14 2.5t-14 2.5t-9.5 2
q-2 0 -6.5 -0.5t-9.5 -0.5h-9.5t-5.5 1q-2 0 -8 7t-8 8q-3 1 -12 1t-11 -1l-39 39h-20q0 1 -1 3.5t-2 4.5q-2 2 -12 7.5t-12 7.5q0 1 0.5 7.5t-0.5 7.5q0 1 -3.5 4.5t-4.5 3.5q-2 4 -7.5 16t-7.5 15q2 0 4.5 3t2.5 5t-3.5 8t-3.5 7t-0.5 5.5t-0.5 6.5t0.5 6.5t0.5 5.5
q1 4 3.5 12.5t3.5 10.5q2 2 9 8t7 9q1 1 0.5 7t-0.5 8q1 2 3.5 8t4.5 7q2 2 9.5 -1t9.5 -3q0 2 -2 14t-1 14q0 1 2.5 3.5l4.5 4.5q3 1 9.5 4t14 7t14 7t9.5 5q-2 5 0 7q1 2 4 5t4 3q3 1 8.5 4t12 5.5t11.5 4.5t7 2h5.5h9.5h9.5h6.5t4 7t3 8q1 0 2 1q1 0 1.5 0.5t1.5 0.5
l2 -1q1 -1 2 -1q0 -1 3 -4t5 -3q1 0 7.5 3.5t7.5 3.5t14.5 1t20.5 1q4 0 17 -1t18 -1q0 -1 3 -3.5t4 -3.5h6h10h10h6t3.5 -4t3.5 -4q1 -1 6 -2t10.5 -2t10 -2t5.5 -1q2 -2 7.5 -5t11.5 -7t11.5 -7.5t7.5 -4.5q0 -1 0.5 -5.5t0.5 -6.5t-0.5 -3.5t-0.5 -3.5v-4q0 -3 -2.5 -9
t-4.5 -8h-4h-4q-1 1 -4 4.5t-4 4.5h-7q1 5 -5 16.5t-11 14.5q-1 0 -6.5 1t-13 2.5t-15 2.5t-11.5 1h-24q-2 0 -11.5 1.5t-20 3t-19.5 2.5t-12 1q-2 0 -8 -3t-7 -5v17q-1 -2 -3.5 -5t-3.5 -4q-3 -1 -12 -5.5t-19.5 -9.5t-20 -10t-11.5 -6q-2 -2 -11 -7.5t-13 -7.5
q-1 -1 -3.5 -4.5t-3.5 -4.5q-2 -1 -11.5 -7t-11.5 -8q-2 -1 -5 -7.5t-4 -7.5q0 -2 -2.5 -5t-4.5 -3q-2 -1 -6.5 -3t-9.5 -4.5t-9.5 -5t-5.5 -3.5q2 0 8 -3t7 -5v-1q0 -1 1 -2q0 -1 -0.5 -1t-0.5 -1v-2q0 -2 -2.5 -6.5t-5.5 -10t-5 -9.5t-2 -5t-0.5 -7t-0.5 -9t0.5 -8.5
t0.5 -7.5q0 -1 6 -9.5t9 -12.5q5 -7 14 -19t9 -13q2 -2 10 -6.5t17.5 -9.5t17.5 -10t10 -6q1 0 4 -3.5t4 -3.5q2 0 11.5 0.5t11.5 -0.5q1 0 7.5 -3.5t8.5 -4.5q2 0 8 0.5t8 -0.5l8 -8h7q2 0 9 -1.5t14.5 -2.5t14.5 -2t9 -1h15.5h27h27h15.5q2 0 12 -4t12 -4h6.5h12.5h12.5
h6.5t4.5 -3.5t4.5 -3.5q2 -2 12 -8.5t11 -8.5v-7q0 -3 0.5 -5t0.5 -4t1 -9.5t2 -15.5t2 -14.5l1 -6.5q0 -1 -2.5 -11.5t-6 -23t-6.5 -23.5t-4 -12q-2 -1 -8 -7.5t-7 -7.5q-2 -1 -4.5 -7.5t-4.5 -7.5q0 -1 -3.5 -0.5t-4.5 0.5q0 -1 -3 -4.5t-4 -3.5q-2 -1 -7.5 -4.5t-11.5 -7
l-12 -7t-9 -5.5q-1 0 -5 -2.5t-9.5 -5t-10 -5t-5.5 -2.5l-8 -8q-3 -2 -8.5 -4.5t-7.5 -2.5q-2 1 -4 3l-4 4q-2 0 -7.5 -2.5t-7.5 -4.5q-1 -2 -2 -2t-1 -3l-8 8l-8 -15q-1 -2 -9.5 -5t-20 -7t-22.5 -7t-18 -4q-1 0 -6.5 -0.5t-12 -1t-13.5 -0.5h-11h-8.5t-13 0.5t-12.5 1
t-8 0.5q-2 1 -8.5 3.5t-8.5 3.5h-15q-8 2 -22.5 4.5t-16.5 3.5q-1 3 -3 6q-2 2 -3 4.5t-2 4.5q-2 5 -5 13.5t-3 10.5q-1 3 -1 6v10v9zM431 166q-3 0 -5 -4.5t-3 -10t-0.5 -10t3.5 -4.5t5 4.5t3 10t0.5 10t-3.5 4.5zM80 534q-6 0 -6 -7.5t6 -7.5q5 0 5 7.5t-5 7.5z" />
    <glyph glyph-name="T" unicode="T" horiz-adv-x="468" 
d="M222 620q2 -1 11.5 -4t11.5 -3t12 3.5t12 3.5h11h19.5h20h11.5q3 0 12 1t19.5 2.5t19.5 3t11 1.5h23q2 0 8.5 3.5t8.5 3.5h7q2 0 5 -2.5t3 -4.5q1 -5 2 -21t1 -21q-1 0 -5.5 1t-5.5 3q-2 2 -4.5 7.5t-2.5 7.5l-8 -8t-9 -7q0 -1 -1 -1h-2h-2q-1 0 -2 1q-2 1 -4 3l-4 4h-15
q-3 0 -13.5 -1.5t-22 -2.5t-21.5 -2t-13 -1h-71q-1 0 -7.5 -3t-11.5 -5l4 -22v-538q0 -2 -6 -7.5t-9 -7.5q-2 -2 -6.5 -3.5t-6.5 -1.5v52.5t-0.5 83t-1 98t-1 97.5t-1 82.5t-0.5 52.5q0 5 -1 18.5t-2 28t-2 27.5t-2 18h-25q0 3 2 13h-32l8 24l9 8q2 2 7.5 5t7.5 3
q2 1 11.5 0.5t11.5 -0.5l24 7h7zM106 597q0 1 2.5 4t4.5 4l16 8q0 -2 0.5 -6t0.5 -6t-0.5 -3.5t-0.5 -3.5v-4q0 -2 -3 -8t-5 -9q-1 -2 -4 -4.5t-4 -2.5q-2 0 -8 3.5t-7 3.5q-2 0 -8 -3.5t-8 -3.5q-4 0 -14 -1t-22 -1.5t-22 -1t-14 -0.5q0 2 0.5 9.5t1.5 9.5t4 5l4 4
q3 2 12 4.5t12 2.5h62zM378 613q-5 0 -5 -8t5 -8q6 0 6 8t-6 8z" />
    <glyph glyph-name="U" unicode="U" horiz-adv-x="480" 
d="M58 153l7 7q0 1 -2.5 7t-4.5 10q-1 0 -4.5 3t-3.5 4q-1 1 0 7.5t0 7.5q0 2 -3.5 4.5t-3.5 3.5q-2 2 -4.5 11t-3.5 13q-2 6 -5.5 18t-3.5 13q0 2 3.5 4.5t5.5 2.5q-2 0 -5.5 3.5t-3.5 4.5v31q0 4 -1 17.5t-2 29.5t-2.5 29.5t-1.5 17.5v8q0 1 -3.5 3.5t-4.5 3.5l-4 16
l-4 16t-1 8v12v10q0 4 1 8q0 2 4 8.5t4 8.5q0 1 -1 5t-2.5 9.5t-3 10t-1.5 5.5v4v4q0 1 1.5 5.5t2.5 10t2.5 10t1.5 5.5v8q1 1 3.5 4t4.5 4q2 2 8 4.5t8 2.5h1q1 0 1 0.5t1 0.5t1.5 -0.5t1.5 -0.5h2l15 -15q1 -1 -3 -7.5t-5 -7.5q-1 -4 -2 -11t-2 -14.5t-2 -14t-1 -7.5
q0 -3 1 -12t2.5 -19.5t2.5 -19.5t1 -11q0 -3 -1 -13.5t-2.5 -22.5t-2.5 -22t-1 -13v-3v-5q0 -2 1 -8.5t2 -14.5t2.5 -15t1.5 -9v-7q0 -2 2.5 -7.5t5 -12t5 -12t2.5 -6.5q1 -2 0.5 -8.5t-0.5 -8.5q1 -2 4.5 -11.5t3.5 -11.5q1 -3 2 -8.5t2.5 -12t2.5 -12t1 -6.5v-23
q1 -2 8 -4t8 -3q1 -3 1 -9t-1 -8q3 -3 11 -10.5t17 -16t16.5 -16.5t10.5 -11q0 -1 2.5 -7.5t4.5 -8.5l5 -2.5t11 -4.5t11.5 -4l5.5 -2l-12 -25q-2 0 -8.5 1t-14 2t-14 2.5t-8.5 1.5q-1 1 -3 7.5t-4 8.5t-11.5 7.5t-11.5 7.5t-8 11.5t-8 11.5t-8 5l-8 4q-1 0 -4 3t-4 5
t-3.5 7.5t-3.5 7.5v4v4zM35 293q-7 0 -7 -8t7 -8q6 0 6 8t-6 8zM398 59l-8 9q0 1 -0.5 10.5t-0.5 14.5v9t0.5 12t0.5 10.5v5.5t3 9.5t5 13.5q0 2 3.5 8t3.5 7q1 3 0.5 10t-1.5 14.5t-1.5 14.5t-0.5 10q-2 0 -9.5 3.5t-11.5 1.5q-1 0 -3.5 -6.5t-3.5 -8.5q0 -1 -3.5 -3.5
t-4.5 -4.5t-3.5 -11t-3.5 -11q-1 -4 -4 -10t-4 -7q-1 0 -4.5 0.5t-3.5 -0.5q-1 0 -7 -9t-9 -14q0 -2 -3.5 -8t-4.5 -7q0 -1 -3 -4.5t-4 -4.5q-1 -2 -7.5 -11.5t-8.5 -11.5q-2 -1 -11.5 -3.5t-12.5 -3.5q0 -1 -3 -4.5t-4 -3.5q-3 -2 -9.5 -5t-14 -7t-14 -7.5t-9.5 -4.5v8
q0 -1 -3 -4t-5 -4q-2 0 -9.5 -1t-9.5 -1q0 2 1.5 13t2.5 13l15 15q4 3 13 9t11 7t11.5 4t11.5 3l4.5 4.5t3.5 4.5q2 1 12 7t12 8q0 1 -0.5 8t0.5 8q0 1 3.5 4.5t7.5 7t7.5 7t4.5 5.5q1 1 4 6.5t7 12t7.5 12t5.5 7.5q0 1 3 4t4 3q0 2 3 8.5t5 8.5t7.5 4.5t7.5 2.5l-15 8
q1 2 4 7.5t4 7.5t3.5 12t3.5 12q1 1 4.5 7.5t3.5 7.5t1.5 6t2.5 10.5t2 10t1 5.5q2 1 5 7l4 8v16q0 2 4 8t4 7v78l7 8q0 1 1 9.5t1 13.5t-1 17t-1 14t-3.5 11.5t-3.5 11.5t3.5 8.5t3.5 8.5q0 5 1 9q0 4 0.5 7.5t0.5 6.5q0 4 -1 13t-1 11t-3.5 11t-3.5 11q0 3 -0.5 9.5t-1 14
t-0.5 13.5v8q2 0 12 -1.5t13 -3.5q3 -3 9 -12t6 -12v-444l-8 -8q0 -3 0.5 -10.5t0.5 -16t-0.5 -16.5t-0.5 -11q0 -1 -3.5 -7.5t-3.5 -7.5t3 -4l4 -4q1 -3 3 -9.5t3 -12.5t1.5 -11t0.5 -6t-6 -10t-9 -14l-8 -8l15 -7l-15 -8q2 0 5 -3t3 -5q0 -3 0.5 -10t1 -15t1 -15t0.5 -10
q-2 0 -13 1t-13 2q-2 2 -5 4.5t-3 3.5v62zM421 83q-6 0 -6 -7.5t6 -7.5q5 0 5 7.5t-5 7.5zM351 184q-6 0 -6 -8t6 -8t6 8t-6 8zM405 246q2 4 -3 4t-4 -4q0 -3 3 -3t4 3zM405 262q2 3 -3 3t-4 -3q0 -4 3 -4t4 4zM398 286q-6 0 -6 -8.5t6 -8.5q5 0 5 8.5t-5 8.5zM405 308
q-5 0 -5 -7.5t5 -7.5q6 0 6 7.5t-6 7.5zM405 324q-5 0 -5 -8t5 -8q6 0 6 8t-6 8z" />
    <glyph glyph-name="V" unicode="V" horiz-adv-x="483" 
d="M4 604h34q0 -2 2 -11.5t4 -11.5q0 -1 3.5 -4.5l7.5 -7.5t7.5 -7t3.5 -4q2 -2 7.5 -12t11.5 -22.5t12 -24.5t9 -19q1 -2 3.5 -11.5t3.5 -11.5q0 -2 2.5 -6.5t5.5 -10t5.5 -10t2.5 -5.5q2 -3 4.5 -12t2.5 -11v-5.5v-10v-10v-5.5t4 -4t5 -4q0 -1 -0.5 -4t0.5 -4q1 -2 7 -4
t8 -3v-4v-4q1 -2 4.5 -8t3.5 -8q0 -1 -4 -7.5t-4 -8.5q0 -1 3.5 -3.5t4.5 -3.5v-8q1 -1 3.5 -4t3.5 -3q4 -5 10 -13.5t6 -10.5q1 -2 2 -6.5t2.5 -10t2.5 -9.5t1 -5q0 -2 4 -8t4 -8t-4 -11.5t-4 -11.5q0 -1 3.5 -4.5t4.5 -3.5v-7q0 -2 3.5 -5t4.5 -4v-8q1 -1 3.5 -7.5
t3.5 -7.5l4 -12t4 -11q0 -2 -0.5 -8t0.5 -8l4 -4l4 -4q1 -1 0.5 -7.5t-0.5 -7.5t3 -4l4 -4v-4q0 -2 -1 -3h10q0 2 1 8.5t2 14t2.5 14t2.5 8.5q0 3 7 12.5t8 11.5q1 3 3.5 9t3.5 7t2 5.5t2.5 10t2.5 10t1 5.5q1 1 4.5 7.5t3.5 7.5v6v10.5v10v5.5t3 7t5 8q0 1 3.5 4t4.5 4
q2 3 6 10t7.5 14.5t6.5 14t3 8.5q1 1 0.5 7.5t-0.5 7.5q1 5 4.5 16.5t7.5 24.5t7 23.5t5 14.5q0 2 3 8t6.5 13.5t7.5 14t6 9.5q1 1 3.5 4.5t3.5 4.5q2 2 5 7.5t3 7.5v16q1 2 4.5 8t3.5 7v16q1 1 4 7.5t4 7.5q1 2 3 9t5 15t5 14.5t3 8.5q0 1 2.5 7t5 12.5t5 12.5t2.5 8
q2 3 5 15t3 15h17q0 -3 -0.5 -15t-0.5 -15t-3 -15t-6 -17q0 -2 -2.5 -8.5t-5 -15t-5 -15.5t-2.5 -8v-8.5v-14.5v-15v-9q-2 -1 -4 -3l-4 -4q-1 -1 -3.5 -7t-3.5 -9q-1 -2 -4.5 -11.5t-3.5 -12.5q-2 -2 -4 -7.5t-4 -7.5q-1 -1 -4 -3.5t-4 -4.5q-3 -4 -8.5 -16t-7.5 -15
q-1 -2 -3 -11.5t-4.5 -20t-5 -19.5t-2.5 -11q-1 -2 -4 -11.5t-3 -11.5v-8q-1 -2 -4.5 -12t-3.5 -12q-2 -4 -2 -11q-1 0 -3 -1.5t-4 -2.5q-1 -2 -3.5 -11.5t-3.5 -11.5q0 -1 -3.5 -4.5l-4.5 -4.5q-1 -2 -4 -7.5t-4 -7.5q0 -1 0.5 -7.5t-0.5 -7.5q0 -2 -3.5 -10t-7.5 -17.5
t-7.5 -17.5t-4.5 -10q-1 -3 -4.5 -13t-7.5 -22t-7.5 -22t-4.5 -12q0 -2 -2.5 -8t-5 -12.5t-5 -12.5t-2.5 -7q-1 -2 -2 -11.5t-1 -13.5q-2 0 -6 0.5t-6 0.5q-3 1 -12.5 4t-11.5 5q-1 0 -4 3t-4 5q-1 1 -3.5 7t-3.5 8t-4.5 11.5t-3.5 11.5q0 1 -1.5 5.5t-3 10t-2.5 10t-1 5.5
q-1 2 -4 11.5t-4 11.5v9q0 2 -3 11t-5 12q0 1 -3 7.5t-5 7.5q-1 5 -3.5 19.5t-3.5 19.5q0 2 0.5 8.5t-0.5 7.5q0 2 -3.5 9t-8 14.5t-8 14.5t-3.5 9q-1 2 -0.5 8t0.5 7q-1 2 -4 11t-5 13q0 1 -3 7.5t-4 7.5q0 2 0.5 8t-0.5 7q0 1 -2.5 5t-5.5 8t-5.5 7t-2.5 4v8q0 1 -2.5 7
t-5 12.5t-5 12t-2.5 7.5v8q-1 1 -4.5 3.5t-3.5 3.5l-16 40l-3 3q-2 2 -3 2.5t-2 1.5t-3.5 7t-3.5 9q0 1 -2.5 7t-5 12.5t-5 12t-2.5 7.5q-2 2 -2.5 4.5t-2.5 4.5q-2 3 -3 6q-4 2 -16 5t-16 3v62zM245 51q-5 0 -5 -7.5t5 -7.5q7 0 7 7.5t-7 7.5zM331 246q-5 0 -5 -7.5t5 -7.5
q6 0 6 7.5t-6 7.5zM401 440q-6 0 -6 -7.5t6 -7.5t6 7.5t-6 7.5z" />
    <glyph glyph-name="W" unicode="W" horiz-adv-x="679" 
d="M12 560q0 3 3 6t5 3q-2 0 -5 3t-3 5t-0.5 8t-1 12.5t-1 12.5t-0.5 8q3 0 16.5 -1t18.5 -2q1 0 3.5 -3t3.5 -5v-11v-12l-4 -4l-3 -3v-8v-9q0 -2 2.5 -16.5t4.5 -21.5q1 -6 4 -17.5t4 -13.5t4 -4.5t3 -3.5q1 -2 2 -8t2.5 -13.5t2.5 -14.5t1 -11v-5.5v-10v-10v-5.5t4 -4
t4 -4q1 -1 3.5 -13t3.5 -18q1 -3 2.5 -8.5t3 -12t2.5 -12t1 -6.5v-8q0 -1 4 -3.5t4 -3.5v-24q0 -2 3.5 -11.5t3.5 -11.5v-5.5v-10v-10.5v-6q2 -1 4 -3l4 -4v-8q1 -2 4 -11.5t4 -11.5q1 -4 4 -19t3 -20v-8q1 -2 4 -7.5t4 -7.5q1 -1 5 -4.5t4 -4.5q0 -2 -0.5 -11.5t0.5 -11.5
q0 -1 3 -3.5t4 -3.5q0 -2 3 -9t5 -7q2 -2 8.5 1.5t8.5 3.5q0 2 -1.5 5.5t-0.5 5.5q1 1 4 7l4 8t3.5 5t3.5 3l-7 7l16 32q0 1 1.5 7t2.5 12.5t2.5 12t1.5 7.5q0 1 3 7.5t4 7.5v8l4 8t4 7v9q0 3 2 11.5t4.5 18.5t5 19t3.5 13q1 2 4.5 11.5t3.5 11.5v5.5v10v10v6.5q2 1 4 3
t3 2.5t2 1.5q2 3 4.5 8.5t2.5 6.5v6v10.5v10v5.5q0 2 7 7.5t8 7.5q2 1 0.5 8t-0.5 8l4.5 4.5t3.5 2.5q3 3 12.5 6t11.5 3q1 0 10 -3t13 -6q3 -1 9 -3.5t6 -3.5q1 -1 3 -5.5t5 -10t5.5 -10t3.5 -5.5q0 -1 3 -4.5t4 -3.5q0 -1 2.5 -5.5t5 -10t5 -10t2.5 -5.5q2 -1 4.5 -4
t3.5 -4q1 -2 4.5 -11.5t3.5 -12.5q2 -5 8 -16t12 -23l11.5 -23l7.5 -15q1 -1 4.5 -4t3.5 -4q1 -2 0.5 -8t-0.5 -7q1 -2 3.5 -8t3.5 -8q2 -1 8.5 -8t8.5 -8q0 -1 2.5 -5.5t5 -10t4.5 -10t3 -5.5q1 -2 5 -7.5t9 -11.5t9.5 -11.5t6.5 -7.5q2 0 5 2.5t4 4.5q1 3 4 8.5t4 6.5v16
q0 2 1 8.5t2 14t2 14.5t2 10q0 1 1.5 5.5t2.5 10t2.5 10t1.5 5.5v4v4q-1 1 -4 3.5t-4 3.5q3 4 9 16t7 16v8v15v15v9q0 1 2.5 13t4.5 17q1 2 4.5 12t3.5 12v9v14.5v14v8.5q0 3 4 12.5t5 11.5v16q0 2 1 8.5t2 14t2 14t2 9.5q1 5 4 17.5t4 14.5q1 0 4 3.5t3 4.5q1 1 1 5.5v9.5
t-0.5 9.5t-0.5 5.5q1 1 2 7t2.5 12.5t2.5 12t1 7.5v8q1 3 4 12.5t4 11.5q2 6 8 17.5t8 12.5q0 2 3 2.5t5 0.5q1 0 3.5 -0.5t3.5 -2.5q1 -1 4 -6.5t4 -8.5v-4v-3q0 -4 -1.5 -11.5t-2.5 -15t-2.5 -13.5t-1.5 -7l-4 -8t-3 -8q0 -1 -1.5 -6t-2.5 -11t-2.5 -12.5t-1.5 -9.5
q0 -2 -1.5 -8.5t-3 -14.5t-3 -15t-1.5 -9q0 -1 -3 -7.5t-4 -7.5v-16q0 -3 -1 -10t-2.5 -14.5t-2.5 -13.5t-2 -8t-4.5 -12t-3.5 -12v-8.5v-14.5v-15v-9q0 -1 -1 -6.5t-2 -13t-2 -15.5t-2 -12q0 -1 -1.5 -6.5t-3 -12.5t-2.5 -12.5t-1 -6.5v-24q-2 -1 -4 -3q-3 -3 -3 -5v-6.5
v-12v-12.5v-8q-3 -1 -5 -3l-4 -4v-7.5v-12v-12.5v-7q0 -4 -3 -16t-5 -15q-1 -4 -5 -13t-9 -19t-9.5 -18.5t-6.5 -11.5q-2 -1 -8 -1.5t-9 -0.5q-2 0 -8 0.5t-7 1.5q-2 1 -4 11t-4 12q-1 2 -7.5 4t-7.5 3l-8 12l-8 12q-3 5 -9.5 18.5t-14 28.5t-14 28.5t-8.5 18.5
q-1 2 -4.5 11.5t-4.5 11.5q0 1 -3 3.5t-4 3.5q-1 2 -4.5 7.5t-7 12.5t-7 12.5t-4.5 7.5q-1 1 -4.5 3.5t-3.5 3.5q-1 2 -4 11.5t-3 11.5q-1 3 -4 9t-5 8q-1 2 -7 11t-8 11q-1 2 -4.5 7.5t-7.5 12.5t-7 12.5t-4 7.5q-1 1 -2 1.5t-3 2.5q-2 1 -3 3q-2 1 -9.5 -0.5t-10.5 -1.5
q0 -3 1 -9t1.5 -13t1 -13.5t0.5 -9.5q0 -1 -4 -3.5t-4 -3.5v-5.5v-10v-10.5v-6l-3 -3q-4 -4 -5 -4q-1 -2 -3.5 -14t-3.5 -17v-8q-1 -2 -4.5 -8t-3.5 -8q0 -1 -1.5 -6.5t-2.5 -12.5t-2 -12.5t-1 -6.5q-2 -7 -5 -19t-4 -13q0 -1 -4 -3.5t-4 -3.5q0 -2 0.5 -12t-0.5 -12l-4 -4
q-2 -2 -2 -3l-1 -1q-1 -2 -3.5 -11t-5 -19.5t-5 -19.5t-2.5 -12q-2 -5 -5 -15.5t-7 -21.5t-7.5 -20.5t-4.5 -12.5q0 -1 -3 -4t-4 -3q-1 -2 -7.5 -12t-8.5 -12h-4h-3l-8 8t-7 8q-2 0 -9 3t-8 5q0 1 0.5 7.5t-0.5 7.5q0 1 -7 3.5t-8 4.5t0 11.5t0 11.5q0 2 -2.5 10.5t-5 17.5
t-5 17t-2.5 10q-1 3 -3 14.5t-5 24.5t-5.5 24t-3.5 14q0 1 -3 8t-4 8v7q-2 7 -4 19t-4.5 24.5l-4.5 22.5t-3 13q-1 1 -3.5 7.5t-3.5 7.5v8q-1 3 -2 9.5t-2.5 14t-2.5 14t-1 8.5q0 1 -1.5 6t-2.5 10.5t-2 10t-1 5.5q-1 3 -3.5 14.5t-5.5 24.5t-5 24.5t-3 14.5q0 2 -3.5 8
t-3.5 7v7v13v12.5v6.5q0 2 -4 8t-4 7zM183 55q-6 0 -6 -8t6 -8t6 8t-6 8zM175 62q-5 0 -5 -7.5t5 -7.5q6 0 6 7.5t-6 7.5zM136 124q-5 0 -5 -7.5t5 -7.5q6 0 6 7.5t-6 7.5z" />
    <glyph glyph-name="X" unicode="X" horiz-adv-x="426" 
d="M97 26q0 2 0.5 7t0.5 6q0 4 3 12.5t5 10.5q1 2 7 5t8 3q-1 5 -1 20t1 19q1 2 4 11.5t4 12.5q1 0 4 3.5t3 4.5q2 2 8 14t9 16q0 1 2 6.5t4.5 12t5 12t3.5 8.5q1 2 3.5 11.5t3.5 11.5q2 5 6 13l8 16l9 18h11q0 2 -1.5 8t-0.5 8l4 4l4 4v8v7l-8 16t-9 16l-15 15q-1 1 -4.5 7
t-7 12.5t-7 12t-4.5 7.5q-2 2 -7.5 9t-12 14.5t-12.5 14t-7 8.5q-1 3 -7.5 12.5t-7.5 11.5q-2 1 -6.5 6t-10 10t-10 9.5l-5.5 5.5q-1 2 -3.5 8t-4.5 8q-3 3 -11.5 12t-10.5 11q-2 1 -7 3t-10.5 4.5t-10 4.5t-4.5 3q-1 3 -3 8.5t-3.5 11.5t-2.5 11.5t-1 7.5h50
q0 -1 -0.5 -3.5t-0.5 -3.5q-1 -1 -3.5 -4t-3.5 -4q2 1 7.5 1t7.5 -1q1 -1 3.5 -7.5t3.5 -7.5q2 -2 8.5 -8t7.5 -8q2 -1 4.5 -7t2.5 -9v-7q2 -2 8.5 -5t8.5 -3l10 -10l14.5 -14.5t14 -13.5t8.5 -9q1 -1 3 -5.5t4.5 -9.5t4.5 -10t3 -6q1 0 3.5 -3.5t3.5 -4.5q2 -3 10.5 -12
t17.5 -19.5t17 -19.5t10 -11q1 -2 4 -5t4 -3q1 -1 2 -1h2h2q1 0 1 1q2 1 8 10t9 13q1 3 5 12t9.5 19.5t10 19.5l5.5 11t8 8.5t7 8.5q2 3 8 14t12.5 24t12 24.5t7.5 14.5q1 3 8 13.5t15 22t14.5 21.5t8.5 13q2 4 5 16t3 15q1 0 2 0.5t2 0.5l4 -1q2 -1 4.5 -3.5t2.5 -3.5
l11 -21l-3 -5t-6 -11.5t-5.5 -12t-3.5 -5.5q-1 -1 -4 -3.5t-4 -3.5q-1 -2 -3.5 -12t-4.5 -12q-1 0 -3.5 -3.5t-3.5 -4.5q-1 -3 -5.5 -12t-10 -19.5t-10.5 -19.5t-6 -11q0 -1 -3 -4l-4 -4q-1 -2 -4.5 -8.5t-7 -14.5t-7 -15l-4.5 -9q-1 -1 -8.5 -7.5t-8.5 -7.5
q-3 -6 -8.5 -17.5t-12 -24t-11.5 -23t-6 -13.5t-1 -6q-1 -2 -1 -5v-5t1 -7.5t1 -7.5q2 -5 8.5 -18.5t14 -28.5t14.5 -28t10 -19q0 -1 3.5 -3.5t4.5 -3.5q1 -2 6 -11t11 -20.5t12 -22t9 -16.5q3 -7 9 -19t7 -13q0 -2 -0.5 -11.5t0.5 -11.5q0 -2 3 -8t5 -8q1 0 3.5 -3t3.5 -4
v-8q2 -3 4.5 -12t3.5 -11q-1 0 -5.5 -0.5t-6.5 -0.5h-6q-3 0 -5 1q-2 0 -4.5 3t-2.5 5v7q-1 1 -4.5 4t-4.5 4v8q-1 2 -7 11.5t-8 11.5v8q-1 0 -4 3.5t-4 4.5q-1 2 -4 7.5t-4 7.5v8l-7 7q-1 2 -3 8t-5 12.5t-5.5 12t-3.5 6.5q0 2 -3 5t-4 3l-16 32q-1 2 -3.5 11.5t-3.5 11.5
l-4 4q-2 2 -4 3q-1 2 -4 8.5t-3 8.5q-1 1 -4.5 3.5t-4.5 3.5h-1q-1 0 -2 1q-1 0 -1.5 -0.5t-1.5 -0.5h-2q-4 -2 -13 -8t-10 -7q-1 -2 -4.5 -8.5t-7 -15t-7.5 -15.5t-5 -8q0 -1 -3 -4.5t-4 -3.5q0 -2 -2 -7t-4.5 -11t-5.5 -12t-4 -9q-2 -5 -6 -18.5t-9 -28t-9.5 -28
t-6.5 -18.5q-1 -2 -4 -4.5t-4 -3.5q0 -1 0.5 -7.5t-0.5 -7.5q0 -1 -3 -4.5t-4 -3.5l-8 -16l-8 -16q1 1 1 4t-1 4q-2 2 -8.5 7.5t-6.5 7.5q-1 2 -1 5v6zM129 62q-6 0 -6 -7.5t6 -7.5q5 0 5 7.5t-5 7.5zM183 242q-6 0 -6 -8t6 -8t6 8t-6 8zM238 280q-6 0 -6 -7.5t6 -7.5
q5 0 5 7.5t-5 7.5z" />
    <glyph glyph-name="Y" unicode="Y" horiz-adv-x="440" 
d="M237 -206q1 4 6.5 7t12 5.5t12 5.5t6.5 6q1 6 5 13t9 13t9.5 10t4.5 5q0 2 4 12t8.5 22.5t8.5 23.5t4 15q0 -1 3.5 16.5t6.5 41t3.5 47.5t-5.5 36v4q0 2 1 4q0 1 -0.5 6t-0.5 10v10v6t0.5 3.5t0.5 3.5q0 19 2 35t4 30.5t2.5 29t-2.5 31.5l-17 -39l-47 -94q-1 -2 -7 -10.5
t-8 -12.5l-16 -15q-2 -2 -8 -12t-8 -12t-7.5 -8t-7.5 -7q-1 -1 -4 -0.5t-4 0.5l-7 -8q-2 -2 -8 -4.5t-8 -2.5q-4 -2 -16 -5t-15 -3q-1 0 -6 -0.5t-7 -0.5h-28q-11 0 -26 1q-2 0 -8 6.5t-8 8.5q0 1 -3.5 0t-4.5 0q-5 4 -14 12.5t-9 10.5q-1 2 4 8.5t4 8.5t-8 7.5t-7 7.5
q-1 2 -0.5 11.5t0.5 11.5q-1 0 -2 1l-3 3q-2 2 -4 3v8v12.5v12v7.5t-4 8t-4 7q0 2 3 5.5t5 3.5q-2 4 -5 18.5t-3 19.5v182l-3.5 3.5t-3.5 4.5l-8 39v39q0 7 1.5 17.5t2.5 20.5t2.5 17l1.5 7h31l8 -54q-2 -2 -5 -4.5t-3 -3.5q-1 -1 -1 -3v-5v-4q0 -2 1 -3q0 -2 3.5 -8.5
t4.5 -8.5v-7l-8 -23v-13.5t-0.5 -21.5t-0.5 -21.5v-13.5v-14.5t0.5 -19t0.5 -16.5v-8q0 -2 1 -11.5t2.5 -20.5t2.5 -22t2 -17l8 -38v-16l7 -38q0 -2 -0.5 -8.5t0.5 -8.5q2 -1 4 -3l4 -4l16 -23q0 -2 -0.5 -8t0.5 -7q0 -2 8 -6t10 -6q1 0 8.5 -1t16 -1.5t16 -1.5t8.5 -1h7
q2 2 8 8.5t8 8.5q2 0 8 -1t8 1q2 1 6.5 4t9.5 6.5t9 6.5t5 5q2 3 6 9.5t7.5 14t6.5 14t4 9.5l8 -7q-1 2 -1 7.5t1 7.5t7.5 8t7.5 7q2 2 5 12t3 12q1 2 4.5 8t3.5 7l8 8l8 15q0 3 0.5 9t0.5 8h7l7 30q0 2 3.5 9t8 15t8 14.5t3.5 8.5q1 1 2 8.5t2.5 16.5t3 16t1.5 9t3 11.5
t4 11.5v8l-7 47l7 7q2 3 5 9t3 8v116l8 8l-8 7q-1 1 -1 3v5v5q0 2 1 3q1 2 4 4.5t4 3.5h15q3 -2 9 -11t7 -13v-108q0 -4 -3 -16t-5 -15l-4 -159q0 -1 -0.5 -7.5t-1.5 -10.5t-2.5 -11.5t-1.5 -8.5q-1 -1 -6 -7t-5 -7q0 -2 2 -10t-3 -37q1 -2 3 -8.5t2 -8.5q0 -3 1.5 -12
t0.5 -13q1 -3 1 -12v-18.5t-0.5 -17l-0.5 -7.5l-7 -40q0 -3 1 -10.5t1 -11.5t-0.5 -12.5t-0.5 -17.5t-0.5 -16.5t-0.5 -9.5v-2q0 -1 -1 -2q0 -1 -3.5 -11.5t-8.5 -22.5q-5 -14 -11 -32q-1 0 -3 -9.5t-2 -11.5q-1 -1 -3.5 -8t-5.5 -15.5t-6 -16t-3 -8.5q-1 -3 -6 -11.5
t-10.5 -18t-10.5 -18t-6 -11.5l-46 -27q-1 -2 -12.5 -1t-26 2.5t-26.5 2.5t-13 0q-1 -2 -7 0.5t-13 5.5t-14.5 4.5t-11.5 -2.5q-2 -2 -7.5 2t-12 9t-12 9t-6.5 3q-2 0 -6.5 6.5t-10.5 14t-11.5 13t-9.5 4.5q-1 0 -9.5 0.5t-9.5 2.5q0 3 6 15t11 14q2 2 11.5 -4t13.5 -6
q1 1 7.5 -3.5t13.5 -9.5t12.5 -9.5t6.5 -4.5q1 1 6.5 -2.5t12 -8t12.5 -7.5t8 -1q1 1 7.5 -1.5t14 -5.5t13.5 -6t7 -2q1 3 8 2t15 -3t14.5 -3t8.5 2z" />
    <glyph glyph-name="Z" unicode="Z" horiz-adv-x="491" 
d="M29 15q0 1 1 4.5t1 4.5q1 4 3.5 16t3.5 15q1 1 8 11t9 12q0 2 3 8l4 8q3 4 13 18.5t22 31.5t22 32t13 19q1 2 7.5 11.5t7.5 11.5l4.5 4.5l7.5 7.5l7.5 7.5l4.5 4.5q1 2 13 15t26 28.5t26.5 28.5t14.5 15l15 15q1 1 5.5 4.5t10 7t9.5 7t5 4.5t4 4.5t5.5 7.5t4.5 7.5t3 4.5
q2 3 11 12t12 11q2 2 11.5 7.5t12.5 7.5q2 3 7.5 12.5t7.5 11.5t11.5 8.5t11.5 7.5q3 2 9.5 8.5l14 14t14 14.5t9.5 10q0 1 0.5 3.5t0.5 3.5t-0.5 2t-0.5 3v3q-1 2 -4 4.5t-4 2.5q-2 2 -14.5 4.5t-17.5 4.5q-5 1 -13 2t-17 2.5t-16 2.5t-8 1q-10 0 -40 1.5t-63.5 4t-64 4
t-40.5 1.5q-2 2 -11.5 4.5t-11.5 2.5q-5 0 -17.5 1t-26 1.5t-26 1t-16.5 0.5v38q3 0 10.5 -0.5t16 -0.5t16.5 -0.5t11 -0.5q2 0 11.5 -4t11.5 -5h24q5 0 30 -3t54.5 -6.5t54.5 -6.5t31 -3h31q1 0 6 -1t11 -2t12.5 -2t9.5 -2q4 -1 13 -3t18.5 -4.5t18.5 -5t12 -3.5q2 -1 6 -2
l8 -2q4 -2 9 -3q2 -2 5 -8t4 -9v-25v-20q-1 -3 -11.5 -9t-12.5 -8q-1 -1 -4.5 -7t-3.5 -8l-124 -124q0 -2 -3 -8t-5 -9q-1 -1 -5.5 -4t-10 -7t-10 -7t-5.5 -4q-4 -3 -18 -17l-30 -30l-30 -30t-17 -18q-2 -2 -6.5 -7.5t-9.5 -12t-9.5 -12t-6.5 -8.5q-1 -1 -4.5 -6.5t-7 -12
t-7 -12.5t-4.5 -8q-1 0 -4 -3t-3 -4q-1 -2 -4.5 -7.5t-7.5 -12t-7.5 -12.5t-4.5 -7q-2 -3 -6.5 -9.5t-9.5 -14t-9.5 -14t-5.5 -8.5l8 -8q4 1 15.5 3t23.5 4.5t23 4.5t15 3h8q2 1 12 4t12 4h7q1 0 6 1t10.5 2.5t10 2.5t5.5 2h6q2 0 5 0.5t5 0.5q3 0 8 -0.5t7 -0.5
q2 -2 4.5 -4t2.5 -4q0 2 3 8t5 7h5.5h10h10h5.5t4 4t4 4q3 2 15 4.5t17 3.5h5.5h9.5h9.5h5.5q2 0 8 3.5t8 4.5q2 0 12 2l22.5 4.5t24.5 5t19 3.5q1 0 5.5 0.5t5.5 0.5q0 -4 -1 -16t-2 -16q0 -1 -3 -4t-5 -4q-2 0 -9 -1t-15.5 -2t-17.5 -2.5t-13 -1.5h-12h-11q-2 1 -4.5 3.5
l-3.5 3.5q0 -1 -3 -3.5t-5 -3.5q-2 -2 -7.5 -4.5t-7.5 -3.5h-8l-8 -4t-7 -4q-2 -1 -14.5 -3.5l-17.5 -3.5q-5 -2 -19.5 -5t-19.5 -3h-7q-5 -2 -17 -4.5t-14 -4.5q-2 0 -8 -3l-8 -4h-4h-4q-2 1 -11.5 4t-11.5 3t-8 -3l-8 -4q-5 -1 -19.5 -4t-18.5 -4h-9h-15h-15h-8
q-2 0 -8 -3.5t-7 -4.5q-3 -1 -6 -1q0 1 -0.5 4.5t-2.5 4.5q-1 2 -7.5 4.5t-7.5 3.5t-1 3q-1 1 -1 4z" />
    <glyph glyph-name="plus" unicode="+" horiz-adv-x="329" 
d="M123 233q-3 0 -11 1t-17 2t-16.5 1.5t-10.5 0.5q-2 0 -12.5 0.5t-12.5 -0.5q-2 0 -8.5 -4.5t-8.5 -4.5l-4 4l-5 5q-2 0 -8 -3.5t-8 -5.5l9 41l7 9q2 0 6.5 0.5t7.5 0.5q2 0 6 -0.5t6 -0.5l8 -9q5 0 3.5 1t3.5 1q4 0 9.5 -2t10.5 -5t8.5 -5l3.5 -2q2 0 9 4t8 5q2 0 8 -0.5
t8 0.5q5 2 11.5 8t6.5 8v101l-9 16h50q2 0 5 -3t3 -5q-2 0 -5 -3t-3 -5v-6v-10.5v-10.5v-6q0 -2 -4.5 -8.5t-4.5 -7.5q0 -2 -0.5 -4.5t-0.5 -10.5q0 -4 0.5 -18t0.5 -19q1 -1 5 -2l8 -2q6 2 5 2h8h13h13h8t8.5 3t8.5 5v-8q2 2 8 5l8 4q4 0 17 1t18 1v-9.5t-1 -10.5l-9 -16
q-2 -1 -11.5 -3t-13.5 -3q-2 -1 -11.5 -2.5t-21 -3t-21.5 -2.5t-13 -1l-27 -9q-2 -2 -5.5 -10.5t-3.5 -11.5l7 -135h-29v158h-18z" />
    <glyph glyph-name="minus" unicode="&#x2212;" horiz-adv-x="319" 
d="M3 270q0 1 1 4q1 2 1.5 4t2.5 4q1 1 7 4l8 4q2 0 10.5 1t18.5 2.5t19 2.5t14 2h24q1 0 5.5 1t10 2.5t10 2.5t5.5 1h31q3 1 15 4t17 4v-8q1 2 7 5t8 3h10h17h17h10q3 0 9 2.5t7 4.5v-3q0 -2 0.5 -2.5t0.5 -1.5t-0.5 -2t-0.5 -3v-3q-1 -1 -4 -7l-4 -8t-3.5 -5t-4.5 -3
q-2 -1 -8 -0.5t-7 0.5q-2 -1 -12 -4t-12 -3h-5.5h-10h-9.5h-5q-3 0 -15 -1.5t-25 -3t-24.5 -3t-14.5 -1.5h-7q-1 0 -8 -4t-8 -4h-13h-11q-2 1 -4.5 5.5t-2.5 6.5h-67z" />
    <glyph glyph-name="multiply" unicode="&#xd7;" horiz-adv-x="334" 
d="M149 251q-1 0 -2 -0.5t-2 -0.5h-3q-2 -2 -4.5 -12t-4.5 -12q-1 -2 -5.5 -6.5l-9.5 -9.5t-10 -9.5t-6 -5.5q-1 -2 -4.5 -8.5t-7 -15t-7.5 -15.5t-5 -8q-1 -2 -10.5 -7.5t-11.5 -7.5q-1 -1 -3.5 -4.5t-4.5 -7.5t-4.5 -7.5t-3.5 -4.5q-2 -1 -5.5 -2t-5.5 -1q0 4 1.5 17
t2.5 18q0 2 2.5 7.5t4.5 7.5q1 1 8 7t8 8q0 1 1 5.5t2.5 10t2.5 10t1 6.5q2 2 5 8t3 7q2 2 9.5 -1t9.5 -3q0 2 -2 9.5t-1 9.5q0 3 7 9t8 8q2 1 0.5 7.5t-0.5 7.5q0 1 3.5 3.5t4.5 3.5q2 5 5.5 13.5t2.5 10.5q0 1 -3.5 4.5t-8 7.5t-8 7t-3.5 4q-1 1 -3 6t-5 10.5t-5.5 10
t-3.5 5.5q-2 3 -7.5 12t-7.5 11l-7 7t-9.5 10t-8.5 9l-5 5h-17q-3 0 -9 3t-6 5q-1 5 2 14t6 9h47q1 -2 3.5 -7.5t3.5 -7.5q2 -2 8 -4.5t7 -3.5t1 -4q0 -2 -1 -4q2 -1 5 -4l4 -4q0 -1 3.5 -7.5t4.5 -8.5q1 -1 5 -6t8.5 -11t9.5 -12.5t7 -9.5q3 -3 5 -4l3 -3h13h11q1 1 5.5 5
t9.5 9t9 9.5t6 7.5q2 2 5 11.5t4 11.5q0 1 3.5 4.5t4.5 3.5q2 2 7.5 11t7.5 13q1 1 4 7.5t4 7.5h4q2 0 3.5 0.5t3.5 0.5t7 -0.5t6 -0.5q1 -1 3.5 -4t3.5 -4q-2 -3 -6 -12t-9 -19l-9.5 -19t-6.5 -12l-4 -4t-4 -3q-2 -2 -7.5 -10t-12 -17.5t-12.5 -17.5t-7 -10q0 -1 -3.5 -4.5
t-4.5 -3.5q-1 -1 -1 -2v-2v-2q0 -1 1 -2q2 -4 7.5 -12.5t7.5 -10.5q3 -2 12.5 -7.5t11.5 -7.5t4.5 -12t3.5 -12q1 -1 7.5 -8t7.5 -8q2 -2 8.5 -11.5t8.5 -11.5q0 -1 3 -4l4 -4v-8q2 0 7 -2l10 -4t9 -5t5 -4q2 -1 4.5 -11t2.5 -12q2 -1 5.5 -4.5t3.5 -4.5q0 -3 1 -15.5
t1 -16.5q-1 0 -5 0.5t-6 1.5q0 1 -3 3.5t-4 3.5t-7.5 4t-7.5 4q-2 1 -4.5 4t-3.5 4q-2 2 -5.5 7l-7 10t-7 9t-4.5 5q0 1 -3 7.5t-5 7.5q-2 2 -11.5 8.5t-11.5 7.5q-2 2 -7.5 8t-7.5 8t-8 11.5t-8 11.5q-1 2 -7.5 8t-7.5 7q-2 2 -4.5 9t-3.5 8q-1 0 -4 0.5t-4 0.5z" />
    <glyph glyph-name="asterisk" unicode="*" horiz-adv-x="381" 
d="M180 155q0 1 -0.5 2t-0.5 2q-5 1 -19.5 4t-19.5 4h-9h-7q-2 -1 -7.5 -4t-7.5 -4h-86q-1 0 -4 3t-4 5q-1 1 -1 3v4v5q0 2 1 3q1 2 4 5t4 3h62q2 0 8 4t8 4t11.5 -3.5t11.5 -4.5h5h3q1 1 4.5 4t3.5 4q2 1 11 4l12 4q-1 1 -3.5 4t-3.5 4q-3 1 -13.5 6.5t-22.5 12t-22 12.5
t-13 8l-5 5t-9 8.5t-9.5 9.5t-6.5 7q-1 1 -1 2q-1 1 -1 3l2 3q0 2 2.5 5t4.5 3q1 0 5.5 0.5t6.5 0.5q1 0 3 -0.5t4 -0.5h4q2 0 4.5 -7t3.5 -9q1 -1 7.5 -3.5t8.5 -3.5q1 0 5.5 -1.5t9.5 -2.5t9.5 -2.5t6.5 -1.5q1 -1 5.5 -4.5t10 -7.5t10 -7.5t5.5 -4.5q2 -1 7.5 -3.5
t7.5 -3.5v7.5t0.5 11.5t0.5 11.5v8.5q0 8 -0.5 22.5t-0.5 16.5q0 4 -2 14t-4.5 21.5t-5 21t-3.5 13.5q0 2 3.5 4.5t4.5 2.5q3 1 15.5 2.5t15.5 1.5v-11q-1 -2 -4 -11.5t-4 -11.5v-4v-5q1 -2 3.5 -10.5t4.5 -12.5q0 -1 4 -7.5t4 -7.5v-78q1 3 5.5 9.5t9.5 14t9.5 14t6.5 8.5
l4.5 9t8.5 16t10 17t8 13l4 8t4 7q0 1 2.5 4.5t5 7.5t5 7.5t2.5 4.5q1 1 4 7.5t4 7.5h2q1 0 1 0.5t1 0.5l2 -1h2q1 -1 4 -7l4 -8q0 -2 0.5 -7t0.5 -7q-1 0 -4.5 -0.5t-4.5 -0.5q-2 -1 -4.5 -4t-3.5 -5q0 -1 -1 -6.5t-2.5 -12.5t-2.5 -12.5t-2 -6.5q0 -2 -6 -14.5t-9 -17.5
q-1 -2 -7.5 -11t-8.5 -11q-2 -3 -5 -10t-7 -14.5t-7 -14t-4 -8.5q2 2 8 4.5t8 2.5q1 -2 3 -4q3 -3 4 -3q2 0 8.5 3t7.5 4q1 0 7.5 -0.5t7.5 0.5l4 4l4 4q2 0 8 0.5t13 1t12.5 1t7.5 0.5q0 -2 -0.5 -9t-1.5 -9q-1 -4 -4 -10t-4 -6l-70 -24q3 0 12 -2.5t11 -4.5q2 -1 5 -7.5
t3 -7.5q2 -2 8 -8.5t8 -8.5q-2 0 -9.5 -0.5t-9.5 -0.5q-5 0 -12 0.5t-8 0.5q-3 1 -9 4.5l-12 7t-11.5 7t-6.5 5.5v-4v-3q0 -3 1.5 -12t3 -19.5t2.5 -20t1 -11.5q0 -5 0.5 -17.5t1 -26.5t0.5 -26.5v-16.5h-9t-9 1t-7.5 4t-7.5 4v62q0 3 -1.5 9.5t-2.5 14t-2.5 14t-1.5 9.5
q-1 0 -3.5 0.5t-4.5 0.5t-2.5 -0.5t-2.5 -0.5h-3q0 -1 -3.5 -3.5t-4.5 -4.5q-2 -3 -7.5 -15t-7.5 -16q-1 -2 -4.5 -11.5t-3.5 -11.5q-2 -2 -8 -11.5t-8 -11.5q0 -2 -3 -12t-4 -12q0 -2 -3 -5t-5 -3q-1 0 -10 -0.5t-13 -0.5q-3 0 -12.5 0.5t-11.5 0.5q2 4 8 12.5t8 10.5
q0 1 3.5 4.5l4.5 4.5t4.5 8t7 14.5t7 14.5l4.5 9q2 2 8 12t7 12q1 1 4.5 7.5t4.5 7.5t4.5 5.5t7 10t7 10t4.5 6.5l1 3v0z" />
    <glyph glyph-name="hyphen" unicode="-" horiz-adv-x="295" 
d="M15 313q-1 5 5 17t11 14q2 0 6 1q2 0 5 0.5t5 0.5q4 0 13 -1t10 -1q3 -1 15 -3.5t16 -3.5l8 11h54q0 1 3 2.5t5 1.5h6.5h12.5h12.5h7.5l4 4l4 4h9q4 0 7.5 0.5t6.5 0.5t12.5 -0.5t11.5 -0.5q0 -3 -3.5 -12t-5.5 -11q-1 -2 -7 -8t-8 -9h-8q-2 0 -11 -1t-19.5 -2
t-19.5 -2.5t-12 -1.5h-4h-4q-2 1 -4.5 3.5t-2.5 3.5q-2 -2 -8 -7.5t-8 -7.5q-2 -1 -4 -1h-6q-3 0 -7.5 0.5t-5.5 0.5q-2 0 -10 1.5t-17.5 3t-17.5 2.5t-10 1q-3 0 -9.5 0.5t-14 0.5t-14 -0.5t-9.5 -0.5zM241 344q-6 0 -6 -7.5t6 -7.5t6 7.5t-6 7.5zM233 360q6 0 6 -8t-6 -8
q-5 0 -5 8t5 8z" />
    <glyph glyph-name="endash" unicode="&#x2013;" horiz-adv-x="398" 
d="M8 331q2 0 17 0.5t32 1t32 1t18 0.5q2 0 11 1t19.5 2t20 2.5t11.5 1.5h47q3 0 9.5 1.5t14 2.5t14 2.5t9.5 1.5q1 -1 3.5 -4t3.5 -4h8h8q1 0 5.5 1.5t10 2.5t10 2.5t5.5 1.5h5h3q3 0 9.5 -1.5t14 -2.5t14 -2.5t9.5 -1.5q0 -1 0.5 -2t0.5 -2l-1 -3q-4 -5 -12.5 -14
t-10.5 -10t-9 -1t-15 0.5t-15 0.5h-8t-5.5 -1.5t-10 -3t-10.5 -2.5t-6 -1h-69h-70q0 2 -3.5 5t-5.5 3q-1 0 -7 -3.5t-8 -4.5h-3h-5q-1 0 -15 0.5t-30.5 0.5t-30 0.5t-14.5 0.5zM193 326q-6 0 -6 -8t6 -8t6 8t-6 8zM263 326q-6 0 -6 -8t6 -8q5 0 5 8t-5 8z" />
    <glyph glyph-name="emdash" unicode="&#x2014;" horiz-adv-x="500" 
d="M15 295l-16 31l8 8h334q4 1 13 2t19 2t18.5 2t11.5 1q2 0 8.5 -3.5t8.5 -3.5q1 -1 8 -1t15 0.5t15 0.5h9q2 -2 7.5 -4.5t7.5 -3.5v-3q0 -2 0.5 -3t0.5 -2q0 -2 -0.5 -4.5t-0.5 -3.5q-2 -4 -7.5 -10t-7.5 -6h-87q-1 2 -3.5 5t-3.5 3h-8q-2 1 -4.5 3.5t-2.5 4.5zM427 318
q-5 0 -5 -8t5 -8q6 0 6 8t-6 8z" />
    <glyph glyph-name="parenleft" unicode="(" horiz-adv-x="186" 
d="M23 109v14.5t-0.5 22.5t-0.5 22.5v14.5v19t0.5 24t0.5 21v10q0 4 1 15.5t2.5 24t2.5 23.5t2 15q0 2 3.5 8t3.5 8v5v9.5v10v5.5q0 2 3.5 11t5.5 13q0 2 4 8t4 8q0 1 -0.5 8t-0.5 15v15t1 9q0 3 2.5 15t4.5 15q1 1 4 4.5t4 3.5q2 2 4.5 8t2.5 8v5.5v9.5v9.5v6.5l4 4
q2 2 4 3q1 3 4 15t4 17v7q1 2 4 8.5t4 7.5q0 1 2.5 7t5 13t5 12.5t3.5 6.5q1 2 7.5 8t7.5 7q2 3 4 12.5t4 11.5q2 3 10.5 12t12.5 11q0 1 4 1.5t5 0.5v-8.5t-1 -8.5t-4.5 -11.5t-3.5 -11.5q0 -1 -1 -5.5t-2.5 -10t-2.5 -10.5t-1 -6q-1 -1 -4.5 -3.5t-4.5 -3.5q-1 -2 -3.5 -8
t-3.5 -8q0 -2 -1 -7.5t-2.5 -12t-2.5 -12.5t-2 -7l-4 -4q-2 -2 -4 -3q-1 -3 -3 -12t-4.5 -19.5t-4.5 -20t-3 -11.5q0 -1 -2.5 -5.5t-5.5 -10t-5.5 -10t-2.5 -5.5v-5.5v-10v-10.5v-6t-3.5 -7t-4.5 -8t-4 -11.5t-4 -11.5v-8q0 -3 -2.5 -14.5t-5 -24.5t-5 -24.5t-2.5 -14.5
v-8.5v-14.5v-15v-9t-2.5 -8t-4.5 -7v-171q2 -4 8 -15.5t7 -16.5v-6.5v-12.5v-12.5v-6.5t3 -4.5t4 -4.5q2 -3 6.5 -10.5t9.5 -16t9.5 -16.5t6.5 -11q0 2 3.5 2t4.5 -2q1 -1 3.5 -7.5t3.5 -8.5q1 -1 4 -3.5t4 -3.5h-52q0 4 -3 7q-1 2 -3.5 5t-3.5 3q-3 4 -6.5 11.5t-7.5 15
t-6.5 13.5t-2.5 7v5.5v10v10v6.5t-4 11.5t-5 11.5q0 1 -1 5.5t-2 10t-2.5 10t-1.5 5.5q0 2 -3 11.5t-5 11.5z" />
    <glyph glyph-name="parenright" unicode=")" horiz-adv-x="226" 
d="M31 -23q2 0 7.5 3t7.5 5q3 2 15 10.5t16 12.5q1 2 4 4.5t4 2.5q1 2 4.5 8.5t7 14t7 14.5t5.5 10q1 2 4.5 10t7 17.5t7 17.5t4.5 10q1 1 3.5 4t4.5 3v9q1 1 4 7t3 8q2 4 4.5 11.5l5 15l4.5 13.5t2 7v6.5v12.5v12.5v6.5q0 3 3.5 12.5t4.5 11.5q0 1 -0.5 7.5t0.5 7.5
q0 2 3.5 5t4.5 3v4v4q-1 2 -4.5 8t-3.5 8q-1 2 -0.5 11.5t0.5 11.5q0 4 -1 13.5t-2.5 21t-2.5 21.5t-2 14t-2 11t-2.5 14.5t-2.5 13.5t-1 8q0 1 -2 8t-4 15.5t-5 17t-4 13.5q-2 5 -4.5 13.5t-3.5 10.5q0 1 -2.5 5.5t-5.5 9.5t-5 9.5t-2 6.5q-1 2 -0.5 12t0.5 12q0 1 -3 7
t-5 8q-1 1 -4.5 3.5t-4.5 3.5q0 2 0.5 5t-0.5 3q-1 1 -4 4.5t-7 7.5l-7.5 7.5l-4.5 4.5q-1 0 0 3.5t0 4.5q-1 2 -7 7.5t-8 7.5q-2 1 -7.5 5t-11.5 7.5l-12 7t-8 4.5q2 3 10.5 12t12.5 11q3 1 11 3t11 2q0 -1 0.5 -6.5t1.5 -6.5q1 -2 3.5 -4t3.5 -3t8 -4t8 -4q2 -2 4.5 -8
t2.5 -8q1 0 4.5 -3.5l4.5 -4.5v-8q0 -1 3.5 -3.5t4.5 -3.5q0 -2 3 -12t4 -12q1 0 4 -3.5t4 -4.5v-8l3.5 -3.5t4.5 -3.5v-8q1 -2 3.5 -4.5t3.5 -2.5l-7 -8q2 -1 4.5 -4t2.5 -5q3 -4 8 -11.5t10.5 -14.5t9.5 -13t4 -7q0 -2 1 -7.5t2.5 -12t2.5 -12.5t1 -7q1 -2 4.5 -8t3.5 -7
v-7.5v-12.5v-12.5v-6.5q0 -2 1.5 -7.5t3 -12.5t2.5 -12.5t1 -7.5v-8.5v-14v-14.5v-9t3.5 -11.5t3.5 -11.5t0.5 -15t0.5 -20q0 -5 -0.5 -18t-0.5 -17q-1 -1 -3.5 -4t-3.5 -5q0 -2 0.5 -11.5t-0.5 -11.5q0 -2 -2.5 -8.5t-5.5 -14.5t-5.5 -15t-2.5 -9v-5.5v-10v-9.5v-5
q-1 -2 -7.5 -8t-7.5 -8q-2 -2 -5 -8t-3 -8v-15q0 -1 -3.5 -4.5t-4.5 -3.5q-2 -3 -7.5 -12t-7.5 -11q-1 -2 -3.5 -6.5t-5 -10t-5 -9.5t-2.5 -5l-8 -8t-7 -8q-1 -1 -4.5 -8t-4.5 -8t-7 -7.5t-8 -7.5l-4 -8l-4 -8h-39zM171 506q-6 0 -6 -7.5t6 -7.5t6 7.5t-6 7.5zM31 713
q0 -2 0.5 -3t0.5 -2t-0.5 -2t-0.5 -2v-3q-2 -1 -4.5 -4t-3.5 -4q0 1 -0.5 4t-0.5 4v4q0 1 1 3t3.5 5t4.5 3v-3z" />
    <glyph glyph-name="ampersand" unicode="&#x26;" horiz-adv-x="389" 
d="M22 47q0 1 0.5 3.5t0.5 4.5q1 3 3 10t4.5 14.5l4.5 13.5t3 8t4.5 7.5t7.5 12.5t7.5 12.5t4.5 7.5q2 3 6 10t7.5 14.5t6.5 13.5t3 8q1 2 0 8t0 8q0 1 4 3.5t4 3.5q1 1 4 8t3 8q1 1 4.5 4t4.5 3q0 2 3.5 8.5t4.5 8.5q1 1 7.5 7t7.5 8q1 1 0 7.5t0 7.5q1 2 7.5 8t7.5 8
q2 2 5 8t3 8q0 1 0.5 11t0.5 16q0 2 -0.5 13t-0.5 14l-8 8q0 2 -3 11.5t-4 11.5q-2 2 -4.5 8t-3.5 8t-8 11.5t-7 11.5q0 1 -1.5 9t-2.5 18t-2.5 19.5t-1.5 15.5q0 2 -0.5 7t-0.5 7v6q0 2 1 4l54 55h8q1 0 5.5 1t9.5 2.5t9.5 2.5t6.5 1q4 0 11.5 -2t15 -4.5t13 -5t7.5 -3.5
q2 -2 4.5 -16.5t2.5 -22.5q0 -2 0.5 -14t0.5 -18q0 -3 -0.5 -15t-0.5 -15q-1 -1 -3.5 -4t-3.5 -4v-9q-2 -2 -4.5 -11.5t-3.5 -11.5q0 -1 -1.5 -5.5t-2.5 -10t-2.5 -10t-1.5 -5.5q-1 -1 -4 -7.5t-3 -8.5v-15q-1 -2 -8.5 -7.5t-8.5 -7.5v-20v-19l7 -14t10 -18q0 -1 2.5 -3.5
l4.5 -4.5l-7 -7q1 -1 3.5 -4t3.5 -4q1 -2 4.5 -7.5t7 -12t7 -12.5t4.5 -7t4.5 -4t3.5 -4v-7q2 -2 8 -5t8 -3l-8 -8q2 -2 11 -8l12 -8h8h8q3 1 9.5 4.5t14 7t14 7t9.5 5.5q0 -2 0.5 -6.5t0.5 -5.5q0 -2 -0.5 -6.5t-0.5 -5.5q-2 -2 -4.5 -8t-3.5 -7q-2 -2 -11.5 -8t-11.5 -7
l-5 -5t-4 -3v-4v-5q2 -1 8.5 -7t8.5 -8q0 -1 3 -7.5t4 -7.5t4 -4.5t4 -3.5q2 -3 5 -12.5t3 -11.5t0.5 -9t1 -14.5t0.5 -14.5v-10h-5h-3q-1 0 -2 1l-4 4t-4 5t-4 11.5t-3 11.5q-3 6 -9 17.5t-8 13.5q-1 1 -5 4.5t-9.5 7.5t-10 7t-5.5 4l-8 8l-8 8q-2 -2 -6 -7t-9 -10t-9.5 -9
t-6.5 -5q-1 -1 -7 -3.5t-8 -4.5q-2 -1 -12 -4t-12 -4q-3 -1 -7.5 -3t-9.5 -4.5l-9 -4.5t-5 -3q-2 -2 -5.5 -5t-7 -7t-7 -7t-4.5 -4l-7 7l-23 -24l-8 9l-9 -16l-7 7q0 -1 -3 -4t-5 -3h-15h-15q-2 0 -5 3.5t-4 3.5q-2 0 -7.5 -2.5t-7.5 -4.5q1 3 1 12t-1 12q-2 1 -4 3l-4 4
q-1 1 -1 3v5zM62 62q0 -2 3 -8t5 -7q1 0 6.5 -0.5t8.5 -0.5h9q3 0 6 1t9 8t8 7q2 2 11.5 5t11.5 3l4 4t3 4h8q5 2 16.5 8t14.5 8q1 1 8 7.5t8 7.5q2 1 9 5.5t15 9.5t14.5 10t8.5 7q1 0 3.5 6t3.5 9v4v3q0 2 -2.5 8t-4.5 8q-2 1 -4.5 4t-3.5 4l-4 8l-4 8v7l-4 4t-3 4v8l-4 4
q-2 2 -4 3v9q-1 2 -4 7.5t-5 7.5q0 1 -3 4l-4 4q-1 2 -4 7.5t-4 7.5v8l-4 8l-4 8q-1 -3 -4 -9.5t-7 -14t-7.5 -14t-4.5 -9.5q-2 -2 -8 -11.5t-8 -12.5q-1 -2 -3.5 -7.5t-3.5 -7.5q-2 -2 -4.5 -11.5t-3.5 -11.5q-1 -1 -4 -4.5t-4 -3.5l-4 -8t-3 -8q-1 -1 -4.5 -6.5
t-7.5 -12.5t-7.5 -12.5t-4.5 -6.5q-2 -3 -5 -10t-7 -14.5t-7 -14t-4 -8.5q-2 -4 -5 -13t-3 -11zM132 498q1 -3 3.5 -12t4.5 -11l7 -7q1 -2 4.5 -12t3.5 -12q1 0 4.5 -3.5t3.5 -4.5q1 -1 2 -6.5t2 -12.5t2 -13t2 -7l8 -8q1 -2 3.5 -7.5t3.5 -7.5q1 2 4 7.5t4 7.5q0 2 -0.5 8
t0.5 8t8 8t7 8q1 1 0.5 7.5t-0.5 7.5q1 1 3.5 8t5.5 15.5t5.5 15t2.5 8.5v31v31q-3 2 -12 5t-12 3h-3q-2 0 -3.5 0.5t-2.5 0.5t-1.5 -0.5t-2.5 -0.5h-3q-3 -2 -9.5 -6t-14 -9t-14 -9.5t-8.5 -6.5q-2 -1 -4.5 -7t-3.5 -9v-4v-4z" />
    <glyph glyph-name="percent" unicode="%" horiz-adv-x="617" 
d="M308 366q2 1 8 7l8 8v5v3q0 3 1 10t2.5 14.5t2.5 14t1 8.5q0 1 1.5 5.5t2.5 10t2.5 10t1.5 6.5q0 1 1.5 8t3 14.5t2.5 14.5t1 9q1 2 4 11.5t3 11.5v8q1 3 4 15t5 17q1 4 4 12.5t4 9.5q0 2 3 5q2 2 4 3q1 2 2 13t1 13q1 -1 2 -1q1 -1 3 -1l4.5 -4.5t7.5 -7t7 -7.5t4 -5v-1
q0 -1 1 -2q0 -1 -0.5 -1.5t-0.5 -1.5v-2q0 -1 -4 -7.5t-4 -7.5q0 -2 3 -6.5t5 -5.5h-23q1 -1 3.5 -5t3.5 -7q0 -2 1 -3q0 -2 0.5 -2.5t0.5 -1.5t-1 -4t-1 -4q-1 -1 -3.5 -7.5t-3.5 -7.5v-8q0 -1 -1.5 -5.5t-2.5 -10t-2.5 -10t-1.5 -5.5q0 -2 0.5 -11.5t-0.5 -11.5l-4 -4
q-2 -2 -3 -4v-9q-1 -2 -4.5 -11.5t-3.5 -11.5v-15q-1 -2 -4 -10.5t-5 -13.5q0 -1 -3.5 -7.5t-3.5 -7.5q0 -2 0.5 -11.5t-0.5 -11.5q0 -1 -3.5 -4.5l-4.5 -4.5v-7q-1 -4 -3 -13.5t-4.5 -19.5t-4.5 -18.5t-3 -11.5q-1 -1 -4.5 -7.5t-3.5 -7.5t-1.5 -5.5t-3 -10t-2.5 -10
t-1 -5.5q-1 -2 -4 -11.5t-4 -11.5v-16q0 -2 -3.5 -8t-4.5 -8q0 -1 -1 -5.5t-2.5 -9.5t-2.5 -9.5t-2 -5.5q-1 -2 -4 -8.5t-3 -8.5q-1 -2 0 -11.5t0 -11.5q0 -1 -3.5 -7.5t-4.5 -7.5q0 -1 -1.5 -5.5t-2.5 -10t-2 -10t-1 -5.5q-1 -2 -4.5 -8.5t-3.5 -7.5q-1 -2 -0.5 -11.5
t0.5 -12.5q-2 -4 -8 -13t-8 -10q0 -1 -6 -1h-10h-7.5t-7.5 1l8 16t7 16q1 2 0 11.5t0 11.5q0 1 2.5 5.5t5.5 10t5.5 10t2.5 5.5v8q1 2 4 11.5t3 11.5t1.5 10t3 17t2.5 17t2 10q0 2 7 12t8 12v5.5v10v10v5.5l4 16l4 16q1 2 7 11t8 11zM74 327q0 -1 -3 -4t-5 -4t-11 -2t-11 -1
v28q-2 0 -4.5 -1t-3.5 -1q-2 1 -4.5 4t-4.5 5t-4.5 7.5t-2.5 7.5q0 3 2.5 8.5t4.5 6.5h-18q0 4 1 12.5t2 11.5q1 2 4 4.5t4 3.5q-1 0 -4.5 3t-3.5 5q0 1 -0.5 7t-0.5 8v9q0 3 1 6q0 2 2.5 8t5.5 12.5t5 12t2 7.5q1 2 0.5 8t-0.5 7q1 2 4 11t5 13t5.5 11.5t7.5 15t7 13.5t3 7
q1 2 11 8t12 7q1 1 4 3.5t4 3.5q2 2 11 8l12 8l8 -8q4 -2 13 -8t11 -7q1 -1 7 0t8 0q1 0 4 -4t4 -4q2 -1 6.5 -1.5t6.5 -0.5q0 -2 1 -6.5t1 -6.5q0 -1 4 -4.5t4 -4.5v-1q0 -1 1 -2q0 -1 -0.5 -1t-0.5 -1v-2q0 -1 -3 -4t-5 -4q2 -1 5 -4t3 -4q1 -1 4 -7l4 -8q2 -3 4.5 -12.5
t3.5 -11.5v-3v-4q-3 -5 -8 -8l8 -8l-16 -7q2 0 5 -3t3 -5t-4 -8t-4 -8t0.5 -11.5t-0.5 -11.5q0 -2 -3.5 -8t-4.5 -8v-16q0 -2 -3 -8t-5 -7q-1 -1 -3.5 0t-3.5 0t-4 -7l-4 -8q0 -2 0.5 -8.5t-0.5 -8.5l-7 -7h-5h-3q-2 1 -8 3.5t-8 3.5q1 -2 -2.5 -11t-5.5 -12
q-1 -1 -9.5 -3.5t-13.5 -3.5h-5h-3q-2 1 -8 7zM50 411q0 -3 1 -6q0 -2 2 -7t4.5 -11l5 -12t3.5 -9q2 -2 4.5 -4t3.5 -3q2 -2 8.5 -5t7.5 -3q2 0 11.5 3.5t11.5 4.5h8q0 3 3 15t5 15q1 2 8 4.5t8 3.5q1 2 4 12t4 12q0 2 3 8t4 7l8 8q0 2 -4 8t-4 8v5v9.5v10v6.5q0 1 -1.5 5.5
t-2.5 10t-2 10t-1 5.5v4v4q2 2 7.5 4t7.5 3q-4 2 -15.5 8.5t-16.5 7.5h-1q-1 0 -2 1q-1 0 -1 -0.5t-1 -0.5h-2q-3 -1 -9 -7t-7 -9q0 2 -2.5 5t-4.5 3t-8 -3.5t-8 -4.5q-1 0 -4 0.5t-4 -0.5q-1 -2 -4 -11.5t-4 -11.5q0 -1 -4 -4t-4 -4q-1 -1 -0.5 -7t0.5 -8q0 -3 -1 -8.5
t-2.5 -12t-2.5 -12t-1 -7.5q-1 -1 -4.5 -7t-3.5 -8q0 -1 -0.5 -7t-0.5 -9v-9zM145 389q-7 0 -7 -7.5t7 -7.5q6 0 6 7.5t-6 7.5zM175 397q-5 0 -5 -8t5 -8q6 0 6 8t-6 8zM153 451q5 0 5 -7.5t-5 -7.5q-6 0 -6 7.5t6 7.5zM378 545q-5 0 -5 -7.5t5 -7.5q6 0 6 7.5t-6 7.5z
M113 584q-5 0 -5 -7.5t5 -7.5q6 0 6 7.5t-6 7.5zM469 101l15 -15q1 2 4 7.5t4 7.5l6 6l10 10l9.5 9.5t5.5 6.5t4.5 11t7 20l7 22t4.5 17q0 1 0.5 4.5t0.5 6.5q0 1 -0.5 3t-0.5 4v5q-1 5 -3.5 19.5t-4.5 19.5q2 1 8 3.5t8 3.5q1 0 6 1t7 1q1 0 3 -0.5t4 -0.5q2 -1 4 -1
q2 -1 8 -6.5t7 -8.5q-1 -1 -4 -3.5t-4 -3.5t-1 -2v-3v-2q0 -1 1 -1q1 -1 4 -4.5t4 -4.5v-1q0 -1 1 -2q0 -1 -0.5 -1t-0.5 -1v-2l-8 -8q2 0 5 -3t3 -5q0 -1 -3 -9.5t-5 -13.5t-7.5 -19.5t-7.5 -19.5q-1 -2 -4.5 -8t-4.5 -7q0 -2 0.5 -8t-0.5 -8t-3 -4l-4 -4q0 -1 -3 -7.5
t-5 -7.5q-1 -1 -3.5 0t-4.5 0l-5.5 -5.5t-10 -10.5t-10 -10.5l-5.5 -5.5h-3h-5q0 1 -3 4.5t-4 3.5l-4 1q-1 0 -1 -0.5t-1 -0.5h-2q-1 -1 -7 -7.5t-8 -7.5q-1 0 -6.5 -1t-9.5 -1q-2 0 -8.5 1t-7.5 1t-3.5 3.5t-4.5 3.5h-7q-2 1 -5 4t-3 4q-1 4 -2 16t-1 15h58zM381 136
q0 3 1 7t1 5t3.5 4t3.5 4v7v12.5v12v7.5q0 1 2 5t5 9t5.5 10t4.5 7q1 2 7 8l8 8q1 1 3.5 7t3.5 8q3 3 9 8.5t7 6.5t5 2t9 2.5t9.5 2.5t7.5 1h4h4q2 0 5 -3t3 -5q0 -1 0.5 -5t0.5 -6t-0.5 -3.5t-0.5 -3.5v-4q-1 -3 -4 -9l-4 -8h-4h-4q-2 3 -4.5 9t-2.5 8q-2 -4 -8 -13t-9 -11
q-1 -2 -3 -4l-4 -4q-2 -4 -6 -11.5t-7.5 -15t-6.5 -13.5t-3 -7v-6.5v-12.5v-12.5v-6.5q-1 -2 -7 -11.5t-8 -12.5q-2 -1 -8.5 -4t-8.5 -4q1 2 1 8t-1 8l-4 4l-3 3q0 1 -1 5.5t-1 6.5z" />
    <glyph glyph-name="perthousand" unicode="&#x2030;" horiz-adv-x="893" 
d="M319 366q2 1 8 7l8 8v5v3q0 3 1 10t2.5 14.5t2.5 14t1 8.5q0 1 1.5 5.5t2.5 10t2.5 10t1.5 6.5q0 1 1.5 8t3 14.5t2.5 14.5t1 9q1 2 4 11.5t3 11.5v8q1 3 4 15t5 17q1 4 3.5 12.5t3.5 9.5q0 1 4 5q2 2 4 3q1 2 2 13t1 13q1 -1 2 -1q1 -1 3 -1q3 -2 12 -11.5t11 -12.5v-1
q0 -1 1 -2q0 -1 -0.5 -1.5t-0.5 -1.5v-2q0 -1 -4 -7.5t-4 -7.5q0 -2 3 -6.5t5 -5.5h-23q1 -1 3.5 -5t3.5 -7v-3q0 -2 0.5 -2.5t0.5 -1.5t-0.5 -4t-0.5 -4q-1 -1 -3.5 -7.5t-3.5 -7.5v-8q0 -1 -1.5 -5.5t-2.5 -10t-2.5 -10t-1.5 -5.5q0 -2 0.5 -11.5t-0.5 -11.5l-4 -4l-4 -4
v-9q-1 -2 -4 -11.5t-3 -11.5v-15q-1 -2 -4 -10.5t-5 -13.5q0 -1 -3.5 -7.5t-3.5 -7.5q0 -2 0.5 -11.5t-0.5 -11.5q0 -1 -3.5 -4.5l-4.5 -4.5v-7q-1 -4 -3 -13.5t-4.5 -19.5t-4.5 -18.5t-3 -11.5q-1 -1 -4.5 -7.5t-3.5 -7.5t-1.5 -5.5t-3 -10t-2.5 -10t-1 -5.5
q-1 -2 -4 -11.5t-4 -11.5v-16q0 -2 -3.5 -8t-4.5 -8q0 -1 -1 -5.5t-2.5 -9.5t-3 -9.5t-1.5 -5.5q-1 -2 -4 -8.5t-3 -8.5q-1 -2 0 -11.5t0 -11.5q0 -1 -3.5 -7.5t-4.5 -7.5q0 -1 -1.5 -5.5t-3 -10t-2.5 -10t-1 -5.5q-1 -2 -4 -8.5t-3 -7.5q-1 -2 -0.5 -11.5t0.5 -12.5
q-2 -4 -8 -13t-8 -10q0 -1 -6 -1h-10h-7.5t-7.5 1l8 16t7 16q1 2 0 11.5t0 11.5q0 1 2.5 5.5t5 10t5 10t3.5 5.5v8q1 2 4 11.5t3 11.5t1.5 10t3 17t2.5 17t2 10q0 2 7 12t8 12v5.5v10v10v5.5l4 16l4 16q1 2 7 11t8 11zM85 327q0 -1 -3 -4t-5 -4t-11 -2t-11 -1v28
q-2 0 -4.5 -1t-3.5 -1q-2 1 -4.5 4t-4.5 5t-4.5 7.5t-2.5 7.5q0 3 2.5 8.5t4.5 6.5h-18q0 4 1 12.5t2 11.5q3 5 8 8q-2 0 -5 3t-3 5q0 1 -0.5 7t-0.5 8v9q0 3 1 6q0 2 2.5 8t5.5 12.5t5 12t2 7.5q1 2 0.5 8t-0.5 7q1 2 4 11t5 13t5.5 11.5t7.5 15t7 13.5t3 7q1 1 11 7.5
t12 7.5q1 1 4 3.5t4 3.5q2 2 11 8l12 8l8 -8q4 -2 13 -8t11 -7q1 -1 7 0t8 0q1 0 4 -4t4 -4q2 -1 6.5 -1.5t6.5 -0.5q0 -2 1 -6.5t1 -6.5q0 -1 4 -4.5t4 -4.5v-1q0 -1 1 -2q0 -1 -0.5 -1t-0.5 -1v-2q0 -1 -3 -4t-5 -4q2 -1 5 -4t3 -4q1 -1 4 -7l4 -8q1 -3 4 -12.5t4 -11.5
v-3v-4q-1 -2 -4 -4.5t-4 -3.5l8 -8l-16 -7q2 0 5 -3t3 -5t-4 -8t-4 -8t0.5 -11.5t-0.5 -11.5q0 -2 -3.5 -8t-4.5 -8v-16q0 -2 -3 -8t-5 -7q-1 -1 -3.5 0t-3.5 0t-4 -7l-4 -8q0 -2 0.5 -8.5t-0.5 -8.5l-3.5 -3.5t-4.5 -3.5h-4h-3q-2 1 -8 3.5t-8 3.5q1 -2 -2.5 -11t-5.5 -12
q-1 -1 -10 -3.5t-13 -3.5h-5h-3q-2 1 -8 7zM61 411q0 -3 1 -6q0 -2 2 -7t4.5 -11l5 -12t3.5 -9q1 -2 4 -4t4 -3q2 -2 8.5 -5t7.5 -3q2 0 11.5 3.5t11.5 4.5h8q0 3 3 15t5 15q1 2 8 4.5t8 3.5q1 2 3.5 12t3.5 12q0 2 3.5 8t4.5 7l8 8q0 2 -4 8t-4 8v5v9.5v10v6.5
q0 1 -1.5 5.5t-3 10t-2.5 10t-1 5.5v4v4q2 2 7.5 4t8.5 3q-4 2 -15.5 8.5t-16.5 7.5h-1q-1 0 -2 1q-1 0 -1 -0.5t-1 -0.5h-2q-3 -1 -9 -7t-7 -9q0 2 -2.5 5t-4.5 3t-8.5 -3.5t-7.5 -4.5q-1 0 -4 0.5t-4 -0.5q-1 -2 -4 -11.5t-4 -11.5q0 -1 -4 -4t-4 -4q-1 -1 -0.5 -7t0.5 -8
q0 -3 -1 -8.5t-2.5 -12t-2.5 -12t-1 -7.5q-1 -1 -4.5 -7t-3.5 -8q0 -1 -0.5 -7t-0.5 -9v-9zM156 389q-7 0 -7 -7.5t7 -7.5q5 0 5 7.5t-5 7.5zM186 397q-5 0 -5 -8t5 -8q6 0 6 8t-6 8zM163 451q6 0 6 -7.5t-6 -7.5q-5 0 -5 7.5t5 7.5zM389 545q-6 0 -6 -7.5t6 -7.5t6 7.5
t-6 7.5zM124 584q-5 0 -5 -7.5t5 -7.5q6 0 6 7.5t-6 7.5zM480 101l15 -15q1 2 3.5 7.5t3.5 7.5l6 6t10.5 10t10 9.5t5.5 6.5t4.5 11t7 20l7 22t4.5 17q0 1 0.5 4.5t0.5 6.5q0 1 -0.5 3t-0.5 4v5q-1 5 -4 19.5t-4 19.5q2 1 8 3.5t8 3.5q1 0 5.5 1t7.5 1q1 0 3 -0.5t4 -0.5
q2 -1 4 -1q2 -1 8 -6.5t7 -8.5q-1 -1 -4 -3.5t-4 -3.5t-1 -2v-3v-2q0 -1 1 -1q1 -1 4 -4.5t4 -4.5v-1q0 -1 1 -2q0 -1 -0.5 -1t-0.5 -1v-2l-8 -8q2 0 5 -3t3 -5q0 -1 -3 -9.5t-5 -13.5t-7.5 -19.5t-7.5 -19.5q-1 -2 -4.5 -8t-4.5 -7q0 -2 0.5 -8t-0.5 -8t-3 -4l-4 -4
q0 -1 -3 -7.5t-5 -7.5q-1 -1 -4 0t-4 0l-5.5 -5.5t-10 -10.5t-10 -10.5l-5.5 -5.5h-4h-4q0 1 -3 4.5t-5 3.5l-3 1q-1 0 -1 -0.5t-1 -0.5h-2q-1 -1 -7 -7.5t-8 -7.5q-1 0 -6.5 -1t-9.5 -1q-2 0 -8.5 1t-7.5 1t-4 3.5t-4 3.5h-7q-2 1 -5 4t-3 4q-1 4 -2 16t-1 15h58zM392 136
q0 3 0.5 7t0.5 5t4 4t4 4v7v12.5v12v7.5q0 1 2 5l4.5 9l5 10t4.5 7l16 16q1 1 3.5 7t3.5 8q3 3 9 8.5t7 6.5t5 2t9 2.5t9.5 2.5t7.5 1h4h4q2 0 4.5 -3t2.5 -5q0 -1 1 -5t1 -6t-0.5 -3.5t-0.5 -3.5q-1 -2 -1 -4q-1 -3 -3.5 -9t-3.5 -8h-4h-4q-2 3 -4.5 9t-2.5 8q-2 -4 -8 -13
t-9 -11q-1 -2 -3 -4l-4 -4q-2 -4 -6 -11.5t-7.5 -15t-6.5 -13.5t-3 -7v-6.5v-12.5v-12.5v-6.5q-1 -2 -7 -11.5t-9 -12.5l-16 -8q1 2 1 8t-1 8l-4 4q-2 2 -4 3q0 1 -0.5 5.5t-0.5 6.5zM683 94q-1 -2 -3.5 -5t-3.5 -3q-4 -2 -8 -2v33h-14q0 4 -0.5 16t-1.5 15q0 1 -3 10t-5 13
l-4 8t-3 8q1 3 3 6q1 2 2 5t2 5q1 1 4.5 3.5t3.5 3.5q1 1 0.5 8t-0.5 8l1 1q0 1 2 3t4 3q2 2 1 8.5t-1 8.5q2 1 5 7.5t4 7.5q0 2 0.5 6.5t0.5 6.5q2 0 7 1t7 1t4.5 4t3.5 4q1 1 7.5 4t7.5 4l4 4l4 4h13h11l7 -7t8 -9q2 -2 5 -8t3 -8q-3 1 -9.5 1.5t-14 0.5t-14 -0.5
t-9.5 -1.5q-2 -1 -7.5 -10.5t-7.5 -11.5l-8 -8q-2 -6 -5 -21t-3 -18q0 -1 1 -4.5t2.5 -7.5t3 -7.5t1.5 -4.5q0 -2 -4 -11.5t-4 -11.5q1 -1 3 -6t4 -11.5t4.5 -12.5t4.5 -9q1 0 3.5 -3.5t3.5 -4.5q3 -2 9 -5t8 -3q1 -1 4 -1h8h7q2 0 4 1t10.5 10t11.5 13q2 2 5 8.5t4 8.5
q1 1 7.5 7t7.5 8q2 2 0.5 11.5t-0.5 11.5q0 2 4 8t4 8v5q0 2 0.5 3.5t0.5 2.5q0 2 -0.5 6.5t-0.5 5.5l-4 4l-4 4q0 2 3 8t5 8h8h7l11 -11l13 -13q2 -2 5 -8t3 -7l-4 -4l-4 -4v-9v-14.5v-14.5v-9l-4 -4l-3 -3q-1 -2 -4.5 -8.5t-4.5 -8.5q-1 -1 -4.5 -4t-7 -7t-7 -7.5
l-4.5 -4.5t-0.5 -3.5t0.5 -3.5q-1 -2 -3.5 -5t-4.5 -3h-7l-8 -8t-9 -8q-1 -2 -3.5 -7.5t-3.5 -7.5q-2 -2 -11.5 -2h-11.5h-14t-10 2l-23 23q-1 2 -3.5 8t-4.5 8zM768 117q-5 0 -5 -8t5 -8q7 0 7 8t-7 8zM823 156q-6 0 -6 -7.5t6 -7.5q7 0 7 7.5t-7 7.5z" />
    <glyph glyph-name="less" unicode="&#x3c;" horiz-adv-x="335" 
d="M62 117h-7q-2 2 -8.5 12t-7.5 12q-2 1 -8 7.5t-8 7.5l-8 12t-7 11q0 1 -0.5 5.5t-0.5 6.5t0.5 6.5t0.5 5.5q1 2 8 8t7 7q1 1 4.5 8t7.5 15.5t7.5 15t4.5 8.5q2 3 10.5 11.5t12.5 11.5q1 1 4 1t3 -1l8 16t9 15q6 7 16 17.5t19.5 20.5t17.5 17t9 7h11v30q2 0 6.5 0.5
t5.5 1.5q2 0 8 3.5t7 4.5h4h5q2 -1 4.5 -4t2.5 -4v-13v-11q-2 -2 -10.5 -11t-13.5 -12q0 -1 -3 0t-4 0q-4 -2 -12.5 -11t-10.5 -13q-2 -3 -8 -15t-8 -15q0 1 -3.5 1t-4.5 -1q0 -1 -3.5 -4t-4.5 -4q-1 -2 -3.5 -8t-3.5 -8q-1 0 -4 0.5t-4 -0.5q-2 -2 -7.5 -11.5t-7.5 -11.5
q-1 -1 -4.5 -1t-4.5 1q-1 -3 -7 -15t-8 -17q-1 -2 -7 -7.5t-8 -7.5v-55l5 -3t12.5 -6.5t15.5 -7t13 -5.5q2 -1 11.5 -4.5t11.5 -3.5l4.5 -4.5t3.5 -4.5q2 -2 11.5 -7.5t12.5 -7.5q4 -3 20 -12t34.5 -19.5t34.5 -19.5t20 -11q0 -1 3 -4l4 -4q2 -2 11.5 -8t11.5 -7l5 -5t3 -4
q1 0 1.5 -5t0.5 -6q-2 0 -12 2t-13 2q-1 0 -5.5 2.5t-10 5t-10 5t-5.5 3.5q-2 0 -7.5 2.5t-12 5t-12.5 4.5t-7 3l-8 4l-8 4q-1 1 -4 3.5t-4 4.5zM163 374q-5 0 -5 -7.5t5 -7.5q6 0 6 7.5t-6 7.5z" />
    <glyph glyph-name="greater" unicode="&#x3e;" horiz-adv-x="381" 
d="M226 174q2 0 11 3t12 5q2 1 4 7.5t3 8.5q1 1 7 3.5t9 4.5h4h4q1 1 3.5 7.5t4.5 7.5q1 1 8 4.5l15 7.5t15 7t9 4q0 1 2.5 7t4.5 10v3v4q-1 1 -3.5 4t-3.5 4q-5 2 -18 8.5l-28 14t-28.5 14.5t-19.5 10q-2 1 -11.5 3.5t-11.5 3.5q-1 0 -5.5 2.5t-10 5.5t-10.5 5.5t-6 2.5
q-1 1 -7.5 0.5t-7.5 -0.5t-4 3l-4 4q-1 1 -5.5 2t-10 2.5t-10 2.5t-5.5 2q-1 0 -4 3t-4 5q-5 1 -16 3t-23 4.5t-23.5 4.5t-15.5 3h-15q-2 3 -4.5 15t-3.5 16q-1 0 -1 1v3v4h9q1 -1 8 -3t15 -5t14.5 -5t8.5 -3h8q2 0 11 -3t13 -5q1 0 6.5 -2.5t12.5 -5t12.5 -5t6.5 -2.5
q2 -1 8 -0.5t8 0.5l16 -8h7q2 -1 11.5 -4t11.5 -3q1 -1 6 -2t10.5 -2.5t10 -2.5t5.5 -1q1 -1 3.5 -4.5t4.5 -4.5q2 0 11.5 -3t11.5 -4q1 -1 7 -4.5t12.5 -7.5t12 -7t7.5 -4q1 -1 5.5 -3.5t10 -4.5t10 -4.5t5.5 -3.5q5 -4 14 -13t9 -11q1 -1 1.5 -11t0.5 -16q0 -2 -0.5 -13
t-1.5 -14q-2 -1 -7.5 -4t-11.5 -7t-11.5 -7.5t-7.5 -4.5q-2 -2 -8 -12t-8 -12q-1 -1 -11 -3.5t-12 -4.5q-2 -1 -9 -6.5t-15 -12t-15 -12.5t-8 -8q-2 -1 -11.5 -7t-11.5 -8q-2 -1 -5.5 -4.5l-7 -7l-7 -7l-4.5 -4.5l-8 -16q-1 0 -7 -3.5t-8 -4.5h-8l-70 -70h-21q0 3 2 12t3 11
q0 1 3.5 4.5l7.5 7.5l7.5 7.5l4.5 4.5t4 7.5t5 7.5l5 5t9.5 7.5t10 7t6.5 4.5q5 4 17 16.5t26 26t26 25.5zM280 198q-6 0 -6 -8t6 -8t6 8t-6 8z" />
    <glyph glyph-name="question" unicode="?" horiz-adv-x="269" 
d="M101 48q2 0 6.5 -0.5t5.5 -0.5q-2 -3 -11 -12t-12 -11q-2 -2 -8 -5l-8 -4t-4 -1h-5v5t1 5q2 2 5 8t3 7l8 4l8 4h4q2 0 3.5 0.5t3.5 0.5zM40 175l4 4q0 2 -0.5 8t0.5 8q0 1 7 3.5t8 4.5t1 11t-1 12l15 -8l5.5 3t13 8.5t15.5 11t13 9.5q4 3 12 9.5t16.5 14t16 14t9.5 8.5
t8 11l8 12q2 4 8 16.5t12 26t11.5 26t7.5 17.5v11v12q-1 5 -4 17.5t-4 14.5t-7 7.5t-8 7.5q-3 1 -15 7.5t-17 8.5l-3 1q-1 0 -1 -0.5t-1 -0.5h-2q-1 -2 -7 -8.5t-8 -7.5q-1 0 -6 -1t-11.5 -2.5t-12.5 -2.5t-10 -1h-15l-8 -4l-8 -4l-4.5 -4.5t-7 -7.5t-7 -7.5l-4.5 -4.5h-3
h-5q-1 0 -5.5 1.5t-10 3t-10 2.5t-5.5 1q-2 1 -8 1.5t-8 0.5v27q3 0 12 0.5t11 1.5q2 0 8.5 3.5t8.5 4.5q2 0 11 2.5t19.5 5t19.5 5t12 2.5q3 2 11.5 4.5t11.5 3.5q1 1 5.5 3t10 5t10 5t5.5 3h3h5q1 -1 3.5 -4.5t3.5 -3.5q2 -1 9 -2t15 -2t14.5 -2t8.5 -2t8.5 -11t7.5 -12
l4 -4t3 -4l3 -12t3 -16.5t2 -16t1 -9.5t-4 -8t-5 -8q0 -2 -1 -9t-2 -14.5t-2 -14.5t-2 -8q0 -2 -3 -8t-7 -13.5t-7.5 -14.5l-5.5 -11l-8 -8q-2 -2 -8 -12t-8 -12l-9.5 -9.5t-13.5 -14t-13.5 -14l-9.5 -9.5q-2 0 -8 -3l-8 -4l-16 -16q-2 -1 -11.5 -7t-11.5 -8t-4.5 -8
t-3.5 -8v-17v-14q1 -2 7.5 -8t8.5 -7v-4v-5q-1 -2 -3.5 -4.5t-4.5 -2.5h-17h-14q-2 2 -4.5 12t-3.5 12q-1 0 -4 3t-3 4q-2 4 -5 12.5t-3 10.5zM36 468q-7 0 -7 -8.5t7 -8.5q6 0 6 8.5t-6 8.5z" />
    <glyph glyph-name="asciicircum" unicode="^" horiz-adv-x="283" 
d="M173 631q1 0 3.5 -3t3.5 -5t5 -7.5t5 -7.5q2 -2 4 -3t2.5 -2t1.5 -1q0 -1 0.5 -4t0.5 -4q0 -2 4.5 -11l5.5 -11q1 -4 6 -19l11 -33t11 -35.5t8 -26.5q0 -2 2 -8.5t4.5 -14t4 -14.5t1.5 -8q3 -7 2 -6t2 -5v-5q0 -2 1 -4q-2 0 -5.5 1.5t-11.5 -1.5q-2 0 -8.5 2.5t-7.5 3.5
q-1 2 -4.5 10t-5.5 13l-1 4v0v0.5t-1 5.5q0 2 -2.5 9.5t-4.5 16.5t-4 17t-2 10q-2 5 -6 16t-6 15q-1 1 -5 6.5t-5 7.5v7.5t-1 7.5q-2 4 -6 14t-9.5 21.5t-10 21t-5.5 13.5q-1 -2 -3.5 -8.5t-3.5 -8.5q-2 -2 -9.5 -10.5t-8.5 -10.5t-4 -8.5t-6 -14t-5.5 -14.5t-3.5 -8l-8 -8
q-1 -2 -4 -11t-6 -19.5t-6.5 -19t-4.5 -10.5q0 -1 -3.5 -4t-3.5 -4q-3 -2 -6 -7.5t-5 -7.5v-7q0 -2 3 3.5t7 13t6 13t1 4.5q-1 -5 -4 -13.5t-4 -9.5q-2 -1 -5 -3.5t-4 -3.5q-1 -2 -4.5 -7.5t-4.5 -7.5q3 -3 -0.5 -9t-10.5 -11.5t-15.5 -7.5t-15.5 4q1 7 2 20t2 15t8 11t8 11
q2 2 2 -0.5t-0.5 -6t-1 -5.5t0.5 0q2 2 5 8t4 6q1 2 4.5 12t4.5 12q1 1 5 3t4 3q1 1 1 7.5v8.5q1 2 4.5 8t3.5 8v3q0 2 0.5 3t0.5 2q1 1 4 5t6 8.5l6 9t3 5.5v8t1 8q0 2 4 8t8.5 13.5t8.5 13.5t4 8q1 2 2 8t1 8h59zM62 481q-5 0 -6 -8t5 -8q7 -1 7.5 7t-6.5 9z" />
    <glyph glyph-name="braceleft" unicode="{" horiz-adv-x="319" 
d="M156 13q1 2 3 4l4 4q0 2 -3.5 11.5t-3.5 11.5v7q-2 2 -8 12t-8 12v3v5l3.5 3.5t4.5 3.5q-2 3 -5 9.5t-7 14t-7.5 14t-4.5 9.5q-1 2 -3.5 11.5t-3.5 11.5q-2 3 -5.5 10t-7 14.5t-6.5 14t-4 8.5t-4 5t-5 3q-2 2 -8 4.5t-7 2.5t-7.5 -3.5t-7.5 -3.5h-20h-20q-2 0 -4.5 2.5
t-2.5 4.5q0 1 -0.5 8.5t-0.5 11.5q0 2 0.5 9.5t0.5 10.5q3 1 11 5t17 9t16.5 10t9.5 7q4 4 16.5 15.5t26 25l26 26t17.5 18.5q2 4 7.5 15.5t7.5 16.5q0 1 1 8t1 10q0 4 -1 12t-1 9q-2 3 -3 6q-2 2 -2.5 4.5t-1.5 4.5q-2 3 -6 9.5t-7.5 12.5t-6.5 11t-4 7q-2 1 -4 3l-4 4
q-1 2 -3.5 11.5t-3.5 11.5q-1 1 -4 4.5t-4 3.5q-2 3 -5 12t-3 12q0 1 -0.5 13t-0.5 17q0 7 0.5 19t0.5 13q0 2 3 7.5t5 7.5q1 2 7.5 4.5t7.5 3.5q2 2 3.5 8t1.5 8h16q0 2 -3.5 7.5t-1.5 7.5q1 1 5 5.5t9 9.5t10 9.5t7 6.5q1 1 4 0.5t4 -0.5q2 1 7.5 4t7.5 5q1 0 4.5 3t4.5 4
q2 1 10.5 3.5t12.5 4.5h7q2 0 7.5 2.5t12 5t12 5t7.5 2.5h4h4q2 -1 5 -3.5t3 -4.5q0 -1 0.5 -5.5t0.5 -6.5t-0.5 -3t-0.5 -3v-4q-1 -2 -7.5 -5t-8.5 -4l-4 -4q-2 -2 -3 -4q-2 0 -8 0.5t-8 -0.5t-11.5 -5t-20 -9.5t-19.5 -10t-12 -5.5q0 -1 -3 -1t-4 1q-2 -2 -5 -7.5t-7 -12
t-7 -12t-4 -8.5q-2 -2 -5 -7.5t-3 -7.5q-2 -4 -5 -13t-3 -11q0 -1 3 -12.5t5 -17.5q0 -2 3.5 -12t4.5 -12q0 -1 -0.5 -7.5t0.5 -8.5q0 -1 2 -5t4 -9t4.5 -10t4.5 -7q1 0 4 -3.5t4 -4.5q2 -2 4.5 -8t2.5 -7t0.5 -14t0.5 -20q0 -8 -0.5 -21.5t-0.5 -14.5q0 -5 -2.5 -17
t-4.5 -14q-2 -3 -7.5 -10.5t-13 -16t-15 -16.5t-11.5 -12q-1 -1 -7.5 -3.5t-7.5 -4.5q-2 -2 -6.5 -6t-9.5 -9l-9.5 -9.5l-6.5 -6.5t-7.5 -11t-7.5 -12q-1 -1 -1 -2v-2v-2q0 -1 1 -2q2 0 8 -2t12 -4.5t11.5 -5t7.5 -3.5l6 -6t11.5 -11t12.5 -12.5t9 -9.5q0 -2 3 -7.5t5 -7.5
q1 -4 3.5 -11t5 -14.5t4.5 -14t2 -7.5q1 -6 4.5 -22t7.5 -33t7 -32.5t4 -21.5q2 -1 5 -4l4 -4v-9l38 -38v-10q2 0 8 1.5t8 1.5q3 -2 12 -4.5t11 -4.5q1 0 4 -3t4 -5l1 -3q0 -1 -0.5 -1.5t-0.5 -1.5v-1q-1 -1 -7.5 -4t-8.5 -4q-1 0 -8.5 -0.5t-11.5 -0.5t-11 0.5t-8 0.5
l-14 7l-16 8q-3 2 -9 8t-8 9v7q-1 2 -3 4l-4 4q0 1 0.5 3.5t-0.5 3.5q-1 2 -7.5 4.5t-8.5 3.5q-2 2 -4.5 11.5t-2.5 12.5z" />
    <glyph glyph-name="bracketleft" unicode="[" horiz-adv-x="257" 
d="M16 251l-4 280q1 3 2 9.5t2.5 14t2.5 14t1 9.5v7q1 4 2 10t2 12.5t2 11.5t1 6l3.5 7l5 10t5 9t3.5 5t12.5 10t17.5 13l8 4l8 4t7 2l10 2t9 2t5 1h8h15h15h9q1 0 3.5 4t3.5 4q2 0 9 0.5t11 0.5q5 0 12 -0.5t8 -0.5t3.5 -3.5t3.5 -4.5q1 0 4 -0.5t4 -0.5v-29l-8 7
q0 -2 -2.5 -4.5t-4.5 -2.5h-9h-15h-15h-8q-2 0 -8 -3t-7 -5v15l-12 -8t-12 -7l-4 -1h-2q-1 0 -2 1q-1 0 -4 3.5t-4 4.5h-4h-3q-3 -2 -12.5 -11t-11.5 -13q0 -1 -3 -7t-5 -8q-2 -5 -4.5 -12.5t-4.5 -15t-4 -13t-2 -6.5v-17v-29.5v-29.5v-18q0 -3 -1.5 -9.5t-2.5 -13.5
t-2.5 -13.5t-1.5 -9.5l8 -9q0 -3 -1.5 -11.5t-2.5 -18.5t-2.5 -19t-1.5 -13v-7v-8l4 -20t4 -19v-311q0 -2 12 -8.5t19 -7.5h32h38q2 0 10 1t17.5 2.5t17.5 2.5t10 1q1 0 5 1t6 1q0 -3 -1.5 -12.5t-2.5 -11.5q0 -2 -2.5 -4.5t-4.5 -3.5q-4 -2 -15.5 -8t-16.5 -7h-3h-5
q-1 0 -5.5 1t-10 2t-9.5 2.5t-5 1.5h-32q-2 0 -8.5 1t-14.5 2.5t-15 3t-9 1.5q-1 0 -3.5 -0.5t-3.5 0.5l-15 15q-2 1 -8.5 4t-8.5 4q-2 2 -4.5 8t-2.5 8l-4 218v31z" />
    <glyph glyph-name="bracketright" unicode="]" horiz-adv-x="272" 
d="M7 -35q2 0 8 -0.5t8 -1.5t5 -4t3 -4q1 1 3.5 4t4.5 4q1 0 6 1t11 2.5t12 2.5t9 2h5h3q2 -2 12 -5t12 -3q1 0 6.5 1t12 2t12 2.5t8.5 2.5q1 1 4 3.5t4 3.5q0 15 -0.5 45.5t-0.5 69v81v80.5t0.5 68.5t0.5 44.5q0 4 1 17.5t2 29.5t2.5 29.5t1.5 17.5v8q2 2 5 11.5t3 12.5v5
v9.5v10v5.5q0 2 3 17t5 22q2 5 4.5 17t2.5 14q1 3 4 9.5t5.5 12.5t4.5 11t3 6q0 2 7 7.5t8 7.5q0 2 0.5 7.5t0.5 9.5q0 3 -0.5 8.5t-0.5 6.5q-1 2 -7 5t-8 3h-188l-12 -8v23l121 24q3 -2 12 -5t12 -3q3 -1 11 -2t18 -2t19 -2t14 -1q2 0 12 0.5t11 -0.5q2 -2 5 -11t3 -13v-5
t0.5 -11.5t0.5 -13v-10.5t-0.5 -18.5t-0.5 -19.5l-8 -8t-7 -8q0 -1 -1.5 -5.5t-2.5 -9.5t-2.5 -10t-1.5 -6q-1 -3 -4.5 -12t-3.5 -12q-1 -1 -4 -7t-3 -8v-5.5v-10v-9.5v-5q0 -2 -3.5 -5t-5.5 -4q0 -4 0.5 -15t0.5 -23t-0.5 -23.5t-0.5 -15.5t-3 -12.5t-5 -10.5v-421
q0 -2 -2.5 -8t-4.5 -7q-1 -1 -16 -4t-23 -5q-3 0 -12 -1.5t-19 -2.5t-19 -2.5t-13 -1.5q0 -2 -2.5 -4.5t-4.5 -2.5q-1 0 -8.5 -0.5t-11.5 -0.5t-11 0.5t-8 0.5q-2 1 -7.5 7t-8.5 8q-1 2 -3.5 8t-3.5 8q-1 1 -1 5v5z" />
    <glyph glyph-name="zero" unicode="0" horiz-adv-x="336" 
d="M5 277q0 1 4 11t4 11v9.5v16.5v16v9q0 3 2 12t4 20t4 21t3 16q1 1 4 6.5t5 7.5q0 1 3.5 4t7.5 7l7 7t3 4q1 2 3 11.5t3 12.5q2 2 7.5 12.5t6.5 15.5q3 2 8.5 10.5t7.5 11.5l7 7t6 7q1 2 3.5 6.5t2.5 6.5l1 2q2 2 7.5 12t5.5 11q3 2 8 7l11 11l11 11l7 7q1 0 2.5 1t2.5 1
l3 -2q2 0 4.5 -2.5t2.5 -5.5q0 8 7 8q5 0 9 1q4 0 8 0.5t6 0.5q1 0 4 -0.5t7 -0.5q4 -1 9 -1q3 0 8 -2.5t6 -5.5v-2v-5q-1 0 -3.5 -2.5t-2.5 -4.5q0 -3 3 -7q1 -3 3 -7q-1 -2 -6 -8.5t-8 -7.5q4 0 15 -5t14 -10q1 0 3 -4.5t4.5 -9.5t5 -9.5t2.5 -5.5l5 -7q3 -4 8.5 -15.5
t7.5 -13.5v-6q0 -3 2.5 -12t5 -19t4.5 -19t2 -10q1 -3 0.5 -12t-0.5 -11t1.5 -7.5t3 -12t2.5 -12t1 -6.5v-47v-49q0 -2 -1.5 -7.5t-3 -11.5t-2.5 -11t-1 -6q0 -5 3 -13.5t5 -10.5h-14q0 -2 -1.5 -8.5t-2.5 -13.5t-2.5 -13t-1.5 -9q-1 -4 -4 -13.5t-6.5 -20t-6.5 -20.5
t-4 -14l-3 -3q-4 -4 -6 -4q-1 -1 -6 -10.5t-6 -11.5q-2 -2 -7.5 -7t-11 -11t-11 -11t-7.5 -8h-3h-3q0 1 -3.5 4.5t-5.5 3.5q0 -2 -2 -8t-3 -8q-2 -1 -8 -3.5t-8 -2.5h-7h-8q-1 0 -3.5 2.5l-3.5 3.5q0 -1 -2 -3.5t-4 -2.5h-11h-13l-5 6q-1 1 -7.5 0.5t-7.5 -0.5q0 1 -5 4.5
t-8 3.5q-2 0 -4 4q-2 2 -3 4q-1 0 -3.5 1t-4.5 2q-3 1 -6 3v17l-5.5 5.5t-9.5 9t-9.5 8.5t-5.5 5q-1 3 -0.5 15.5t0.5 15.5q0 1 -2.5 5t-5 8.5l-5 9t-2.5 6.5q0 1 -1 6.5t-2 12t-2 12t-1 6.5q0 2 -3 11t-4 11q0 3 -1.5 9l-3 12t-2.5 11t-1 6v18v19zM40 256q0 -4 1 -11.5
t2 -15.5t2.5 -14.5t1.5 -8.5q0 -1 2 -6.5t4 -7.5q2 -4 4.5 -15.5t2.5 -13.5q1 -2 2.5 -11t2.5 -10q2 -3 5.5 -15t4.5 -14q0 -1 3 -5.5t6.5 -9.5t6.5 -9.5t4 -5.5q1 -3 3 -6q1 -5 4 -7q0 -1 5.5 -6.5t6.5 -8.5q3 0 7.5 -3.5t4.5 -4.5h11h5q2 1 10 4.5t10 3.5h15q2 1 9.5 6.5
t10.5 8.5q1 0 4.5 2.5t3.5 3.5l6 4q3 1 7 3q1 2 4 8.5t6.5 14t6.5 14t4 8.5t9.5 9.5t9.5 10.5q1 1 2.5 5.5t3 10.5t2.5 11.5t1 8.5v15q0 2 2 9.5t3 11.5q2 1 6 7.5t4 7.5q0 2 -5 10.5t-5 10.5q0 3 1.5 15.5t3 27t3.5 27t2 15.5v8v6q0 2 -1.5 9.5t-3 16t-3 15.5t-2.5 9v10
q-2 1 -3 2q-2 2 -2 3q-1 3 -3.5 11.5t-4.5 17.5t-4 17.5t-2 12.5q-1 1 -6.5 3.5t-7.5 3.5q-1 1 -4 3t-3 4q-2 1 -4 6.5t-3 7.5q0 1 0.5 6.5t-0.5 7.5q-2 2 -10 10.5t-10 10.5v7q0 2 -3.5 4.5t-4.5 2.5l8 25q-1 2 1 2.5t-1 1.5h-2q-1 0 -2 1l-4 -1q-2 -1 -9.5 -6.5
t-10.5 -7.5l-4 -4l-3 -3q-2 -2 -9.5 -7.5t-8.5 -7.5q-2 0 -4.5 -4.5t-5 -9.5t-4 -9t-1.5 -5q-2 0 -5.5 -4t-5.5 -4q-2 -4 -3 -7q-1 -2 -1 -5q0 -1 -1 -2q-1 -2 -6.5 -7t-7.5 -6q0 -2 -2.5 -11.5t-2.5 -10.5q-2 -3 -4.5 -7.5t-2.5 -6.5q-2 0 -4.5 -3.5t-2.5 -5.5
q-2 -4 -6.5 -12.5t-9 -18t-8 -17t-4.5 -9.5q0 -1 -2 -8t-4 -16t-4 -18.5t-3 -14.5v-8q-1 -2 -4 -16.5t-3 -19.5v-13v-14z" />
    <glyph glyph-name="one" unicode="1" horiz-adv-x="152" 
d="M70 24q1 0 5.5 4t4.5 5t-4.5 8t-5.5 9t-4 12.5t-5 12.5q0 10 0.5 31.5t0.5 47.5t0.5 55t0 55t-1 46.5t-0.5 30.5q0 3 -1.5 14.5t-3 25t-2.5 25t-1 14.5q0 2 0 -5t-0.5 -15t-0.5 -13t0 2v13.5t0.5 16.5t0.5 14.5v6.5l8 9q0 3 -1 12t-2.5 18.5t-2.5 18.5t-2 13
q0 1 -0.5 11.5t-0.5 15.5t0.5 15t0.5 12q1 8 4.5 13.5t8.5 9.5t11 8l8 -6q3 -14 2.5 -35t0.5 -35q0 -11 -0.5 -23t0.5 -24q0 -3 1.5 -16.5t3 -28.5t3 -28t1.5 -16q0 -12 0.5 -37.5t0.5 -57.5v-67.5v-68t-0.5 -58t-0.5 -37.5q1 -2 4.5 -8.5t4.5 -8.5q1 -4 3.5 -17.5
t3.5 -18.5v-8v-9q-2 1 -12 4.5t-13 4.5l-8.5 8.5t-9.5 8.5v5v5z" />
    <glyph glyph-name="two" unicode="2" horiz-adv-x="323" 
d="M59 100v5t1 6q0 4 1 7q0 1 3.5 4.5l5.5 5.5q0 1 1 5t2.5 8.5t2.5 8.5t2 5q2 1 4.5 4.5t4.5 5.5q2 3 9 14t9 13q4 7 12 23.5t16.5 34t15.5 32.5t9 20q1 3 5 14t8.5 23t8.5 22.5t5 13.5q0 1 3 7l6 12t6 11.5t3 6.5q2 4 5 12.5t5.5 17.5t4.5 16.5t2 9.5v8v14.5v14v8.5
q2 3 4 5l5 5v3v6q0 2 -3.5 9t-5.5 9q-5 2 -21.5 2.5t-21.5 0.5h-12t-14.5 -0.5t-13 -1t-5.5 -1.5q-2 -1 -9.5 -4t-16 -7.5t-16.5 -8.5t-12 -7q-2 -1 -5.5 -4.5t-7.5 -8l-8 -9t-5 -6.5q-2 -1 -5 -9.5t-6 -9.5q-1 -1 -8 -0.5t-9 0.5q-2 -1 -8.5 -4t-8.5 -4q2 4 4.5 17.5
t3.5 18.5q2 6 5 17t4 11l63 46h142q2 0 9 -7t9 -12q1 -2 3.5 -6.5t5.5 -10.5l5.5 -11t3.5 -8v-5v-5q-1 -1 -5 -4.5t-4 -4.5q-1 -2 -0.5 -13.5t0.5 -14.5t-1.5 -10t-3 -14.5t-2.5 -13.5t-2 -7q-1 -4 -7.5 -19t-14 -32t-14 -31.5t-8.5 -18.5q0 -1 -1.5 -5.5l-3 -9t-3 -8.5
t-1.5 -5q-1 -3 -5 -12.5t-8.5 -20t-8.5 -20t-5 -11.5v-9q0 -1 -2.5 -5t-5.5 -8.5t-6 -8.5t-4 -5v-10q-1 -2 -4 -9.5t-4 -9.5q-1 0 -4.5 -3.5l-4.5 -4.5l-9 -18t-9 -19q-2 -3 -4.5 -10t-5.5 -14.5t-5 -13.5t-3 -8v-6v-3q1 -4 5 -11t4 -9h9q2 0 5 -3t4 -5q-2 3 1 10t8 8
q1 0 11 -3t15 -7q2 -1 9.5 -3.5t9.5 -4.5q1 0 4 -3.5t4 -5.5l9 17h62l9 -17l17 9v-9l9 17q3 0 6.5 -3t3.5 -5q0 -5 1.5 -17.5t1.5 -16.5q-3 0 -14.5 -1t-15.5 -1q-2 0 -9.5 -5t-8.5 -5t-7.5 -0.5t-9.5 -0.5q-5 0 -11.5 0.5t-7.5 0.5q-2 2 -4 5q-2 2 -3 3.5t-2 1.5h-26
q-2 0 -10 1t-17 2.5t-17 3t-9 1.5h-9q-5 2 -15 5t-12 4t-9 8t-9 11q-4 5 -10.5 18.5t-6.5 18.5q0 1 -1 8t-1 10z" />
    <glyph glyph-name="three" unicode="3" horiz-adv-x="340" 
d="M96 45q2 0 7 0.5t7 0.5t7 -0.5t6 -0.5t8 -3.5t10 -5.5q0 -1 4 -5l4 -4h9h10q5 0 21.5 3.5t21.5 5.5q2 4 8.5 14t13.5 21t13.5 21.5t9.5 14.5q1 2 9.5 9t8.5 8q2 4 4.5 14t2.5 15l0.5 4t0.5 9t0.5 10t0.5 8q0 6 -1 18t-1 13q0 3 -2.5 8.5t-5 11.5t-5 10.5t-3.5 4.5
q-2 1 -9 1.5t-12 0.5q-4 0 -13 -0.5t-11 -1.5q-2 0 -8.5 -4t-14 -8.5t-13.5 -9t-7 -5.5h-9q-1 0 -5 -1.5t-8.5 -3t-8.5 -2.5t-5 -1t-4.5 -0.5t-4.5 -0.5v44q2 1 8.5 4.5t8.5 4.5q4 2 14 12.5t14 14.5q3 4 8 12t10.5 16.5t10 15.5t5.5 10q2 5 6 16.5t8.5 24.5t8 23.5
t5.5 14.5v7.5t0.5 14t0.5 15v12.5v10t-0.5 15t-0.5 15v10q-3 3 -10 13t-9 14q-2 1 -5.5 5t-7.5 8.5t-8 8t-5 4.5q-2 2 -8.5 6t-8.5 4h-35h-28q-1 0 -8.5 -5.5t-17 -13t-20 -15t-16.5 -11.5l-18 -18q-1 -3 -4.5 -14t-4.5 -13q0 -2 -3 -4.5t-6 -3.5q-2 0 -5 3t-3 5t-0.5 13
t-0.5 17q0 5 0.5 14t0.5 10q1 1 5 6t10 11t11.5 11t9.5 8q3 2 10.5 6.5t16 8.5t15.5 7.5t10 3.5q1 0 14 0.5t19 0.5q7 0 22 -0.5t17 -0.5t12 -3.5t14 -5.5q1 -1 7 -4.5t13.5 -7.5t14.5 -8.5t10 -6.5l4 -4t4 -5q1 -3 4 -10l6 -14t5 -13t3 -7q0 -2 1 -12.5t2.5 -23t3 -25.5
t2.5 -20v-13v-13q0 -2 -4 -9t-5 -9q-2 -2 -5 -12.5t-4 -14.5q-1 -1 -2 -6.5t-2.5 -11.5t-2.5 -11t-2 -6q-1 -2 -8.5 -9.5t-8.5 -9.5q-1 -1 -5 -8.5t-5 -8.5q0 -1 -3.5 -4.5t-5.5 -4.5q0 -2 1.5 -4.5t1.5 -3.5h16v-9q2 2 12 5.5t14 3.5q5 -2 18.5 -9t17.5 -10l2.5 -4.5t5 -10
t5 -11.5t3.5 -9q1 -1 2.5 -5.5t3 -10t2.5 -11.5t1 -9v-4v-5q0 -5 -1 -13.5t-2.5 -17t-3 -15.5t-2.5 -8t-3.5 -7.5t-4.5 -9.5q-1 -2 -4.5 -4.5t-3.5 -4.5q-1 -1 -3.5 -6.5t-5.5 -11.5t-5.5 -11.5t-3.5 -6.5q-2 -1 -5.5 -5.5t-7.5 -10.5t-8 -11t-6 -8q-3 -3 -9.5 -10t-7.5 -9
q-3 -1 -11 -3.5t-16.5 -5t-15.5 -5t-10 -3.5q-2 0 -10.5 -0.5t-12.5 -0.5t-12.5 0.5t-9.5 0.5t-4.5 3.5t-4.5 5.5q-2 2 -9 13.5t-8 13.5l-4.5 4.5t-5.5 4.5z" />
    <glyph glyph-name="four" unicode="4" horiz-adv-x="340" 
d="M172 249q-2 -2 -11 -4.5t-14 -3.5l-62 -16q-1 -2 -8.5 -5t-8.5 -3h-9l-5 -5t-4 -5h-9l-9 18q0 1 -1.5 4.5t-3 7.5l-3 8t-1.5 5t-4 4t-5 3q-2 5 -5.5 11t-3.5 7q2 2 10 8.5t8 8.5q0 1 -2.5 6l-5.5 11t-6 10.5t-4 5.5q0 2 4.5 8.5t4.5 8.5q2 6 5 21.5t5.5 32.5t5 33t2.5 22
q1 2 0.5 14t-0.5 20l-3 -3q-1 -2 -0.5 -0.5t1 4.5t1.5 6l1 3q-1 2 -2 2.5t-1 1.5q-1 3 -1 7v10q0 2 0.5 8.5t0.5 7.5t4 5t5 4q2 2 5.5 8.5t3.5 8.5q-3 2 -5 4l-4 4v6v10.5v10v5.5q-2 4 -9 7t-9 2q0 2 3.5 6t5.5 4q3 0 9 0.5t13 0.5t13 0.5t9 0.5v-122q2 -3 1 -8t-6 -5h-2
l7 5v8q-2 3 -5 3q-7 0 -7 -7.5t5 -8.5l-2 -2q5 0 12 -5v-2q-1 -2 -4.5 -12t-3.5 -12q-1 -1 -1 -6t0.5 -10.5t0.5 -11v-6.5t-1.5 -4.5t-3 -7.5l-3 -8t-1.5 -5v-9.5v-15.5v-15.5v-9.5t-4.5 -8.5t-4.5 -8.5v-17q0 -3 1.5 -9.5l3 -13t2.5 -12.5t2 -7l9 -9h17l19 9q0 1 3.5 5
t4.5 4h7h11h11h6t2 1l3 3l4 4q4 0 15.5 2t15.5 2v-4q8 1 18 2t19 1.5t15.5 1l6.5 0.5l29 8v8q-1 2 -2.5 8.5t-3 13.5t-2.5 13t-1 8v8q0 2 3 5t6 3v88q-3 1 -6 4t-3 4q-1 1 -1 6v11t0.5 11t0.5 7q-1 1 -2.5 6t-3.5 10.5t-3.5 10.5t-1.5 7v58q2 2 9 8.5t11 8.5q2 1 11.5 2.5
t12.5 1.5v-21t0.5 -32t0.5 -32v-21q1 -10 1 -35.5v-54t-0.5 -54t-0.5 -34.5v-10q1 -1 6.5 -5.5t12 -10.5t12 -11t6.5 -6q0 -1 0.5 -4.5t0.5 -4.5t-0.5 -2t-0.5 -2v-3q-2 -2 -9.5 -5.5t-8.5 -4.5q-3 -1 -7 -4t-4 -4v-251h-3q-2 0 -3 0.5t-2 0.5l-4 4t-4 5q-4 8 -10.5 24
t-6.5 18v199zM38 489q-1 0 -3 2t-3 4v-2v-8q2 4 6 4zM82 465q-1 -2 -1 1.5t-1 7.5q1 0 2 -1v-1q0 -1 1 -2q0 -1 -0.5 -1.5t-0.5 -1.5v-2zM76 484q1 2 2.5 -1.5t1.5 -8.5q0 1 -1.5 1t-2.5 2v7z" />
    <glyph glyph-name="five" unicode="5" horiz-adv-x="330" 
d="M40 71q1 0 5.5 -0.5t7.5 -1.5q0 -1 3 -7.5t5 -10.5q2 -2 5 -12.5t4 -11.5t11.5 -4.5t15.5 -3.5q2 0 5.5 -1t4.5 -1q4 0 6 1q2 0 3 1q2 0 8 4t13 9.5t13.5 10.5t9.5 8q4 3 10 8t11.5 10t10 9.5l5.5 5.5q0 1 1.5 5l3 8t3 7.5t1.5 4.5q1 0 4 4t6.5 8.5t6 8t2.5 4.5
q1 2 4 14.5t5 18.5q1 4 2.5 11.5t3 15.5t2.5 14.5t1 8.5v16v18q0 2 -3 7.5t-6 7.5t-8 7t-11 10.5t-11 10t-7 6.5q-1 0 -6.5 1t-12 2.5t-12 2.5t-6.5 1q-2 1 -8.5 4.5t-7.5 4.5t-2 3t-1 4t1.5 5t1.5 4q1 2 3.5 8t4.5 8l8 -8q3 0 10 -2.5t14.5 -5t14 -5t7.5 -3.5q4 -1 11.5 -4
t7.5 -4q2 -2 7 -6.5t11 -10t11 -10t8 -7.5q1 0 0.5 -3t-0.5 -5q1 -2 4 -8.5t3 -7.5t1 -10t1 -14t-1 -15t-1 -11q0 -6 -1 -16t-2.5 -20.5t-2.5 -19t-1 -9.5q0 -2 -3.5 -8.5t-8 -14.5t-9 -15.5t-7.5 -11.5q-2 -2 -6 -6.5t-8.5 -10.5t-8.5 -11t-5 -6q-1 -2 -7.5 -12t-8.5 -12
q-2 -1 -6.5 -3.5t-9.5 -5t-9 -5t-5 -2.5q0 -2 -3.5 -5.5t-4.5 -3.5q-3 -2 -8.5 -4.5t-11.5 -5t-10.5 -4.5t-5.5 -3h-19h-17q-3 2 -13.5 7.5t-13.5 9.5q-3 2 -6 8.5t-3 8.5q0 3 -1 9t-1.5 13t-1 13.5t-0.5 8.5zM5 427q0 3 0.5 9.5t1 14t1 14t0.5 8.5q1 0 3.5 3.5t4.5 5.5
q1 1 0.5 7.5t-0.5 7.5q1 2 4 8.5t4 8.5q2 3 9.5 9t10.5 8h4h5q2 2 4.5 8t3.5 8l15 -16v25l12 -9l9 17l10 -17q2 2 9 8.5t9 8.5t9 4.5t10 2.5h16l10 5t10 4h7.5h14h14.5h9q1 0 6.5 1.5t11.5 3t11.5 3t7.5 1.5h18h18q3 -1 9.5 -4t7.5 -5q2 0 2 -5v-7v-6.5t-2 -5.5
q-2 -2 -8 -5.5t-9 -3.5q-2 0 -9.5 4.5t-9.5 4.5t-9 -4.5t-8 -4.5q-2 0 -13.5 4.5t-14.5 4.5q-2 0 -9 -4t-9 -5q-1 0 -9.5 0.5t-9.5 -0.5q-2 -1 -13 -8.5t-13 -7.5h-5h-8.5h-8.5h-5q-3 -1 -13 -4t-15 -5q-3 -1 -8.5 -3t-11 -5t-10.5 -5t-6 -3q-3 -2 -10 -8.5t-9 -8.5
q-2 -3 -5 -16t-3 -17l-0.5 -5.5t-0.5 -13t-0.5 -15t-0.5 -11.5q0 -3 0.5 -9.5t0.5 -13.5t0.5 -13.5t0.5 -8.5q4 -1 17.5 -4t17.5 -4q1 -2 5 -5.5t4 -4.5q3 0 14.5 -3t13.5 -5v-2q0 -1 0.5 -2t0.5 -2q0 -2 -0.5 -5t-0.5 -5q-1 -3 -4.5 -9.5t-4.5 -7.5h-4h-5q-3 0 -9 1.5
l-12 3t-10.5 3t-5.5 1.5l-4 4t-5 4q-1 0 -4.5 -0.5t-3.5 0.5q-3 2 -5.5 8.5t-3.5 7.5q-2 2 -10.5 4.5t-9.5 3.5q-2 5 -8.5 17.5t-7.5 15.5q0 1 -0.5 6.5t-1 13t-1 14.5t-0.5 12zM34 440q-8 0 -8 -8.5t8 -8.5t8 8.5t-8 8.5z" />
    <glyph glyph-name="six" unicode="6" horiz-adv-x="388" 
d="M4 292q2 2 5 12t3 13q1 3 3 12.5t4.5 20t4.5 20t3 13.5q0 1 1.5 7.5l3 13t3 12.5t1.5 8q0 1 3.5 7t4.5 8q0 2 2.5 9.5t5 15.5t5 15.5t2.5 9.5q0 1 1.5 3.5t3.5 5.5q2 4 4 7v7q1 2 3 7t5 10.5t5 10.5t3 6q0 1 1 6t2 10.5t2.5 10.5t2.5 6q0 2 7.5 8t8.5 8t3.5 8t4.5 8
q1 -2 3.5 -6.5t5 -9.5t4.5 -10t2 -6v-3q0 -2 0.5 -3.5t0.5 -2.5t-0.5 -3.5t-0.5 -4.5t-3 -8t-5 -8l-7 8q-1 -3 -3 -10t-4.5 -15t-5 -15t-4.5 -9q-1 0 -4 -3.5t-3 -4.5q-1 -1 -1 -6v-10.5t0.5 -10.5t0.5 -6q-2 -1 -4 -3q-4 -4 -4 -5q-1 -2 -2 -7.5t-2.5 -12.5t-2.5 -13t-2 -8
t-3 -4l-4 -4q-2 -3 -5 -15.5t-4 -16.5q0 -2 0.5 -12.5t-0.5 -12.5l-4 -4q-4 -4 -4 -5v-9v-15v-15.5v-9.5q0 -1 -2.5 -10t-4.5 -14q-1 -2 -4.5 -8.5t-3.5 -7.5v-9v-8q0 -1 1 -5.5t2 -10t2.5 -10t2.5 -6.5q1 -1 4 -12t3 -13l-4 -4q-3 -3 -3 -5q0 -1 3 -7.5t4 -7.5
q0 -2 -0.5 -9t0.5 -8q0 -1 4 -4t4 -4q1 -1 0 -7.5t0 -9.5q1 -2 8 -8.5t8 -7.5t3 -4.5t5 -7.5t5.5 -7.5t3.5 -4.5q1 0 3 1l4 2v71q2 0 5.5 3t3.5 5v9v15v15.5v9.5q1 3 3.5 12.5t4.5 11.5t7.5 5t7.5 3q0 3 -0.5 9t-0.5 12.5t0.5 12.5t0.5 8q1 1 8.5 7t8.5 8v18q3 3 10.5 11
t16 17t16.5 17t12 11q1 1 8 3t15.5 5t16 5.5t9.5 3.5q1 0 7 2.5t12.5 5t12.5 5t7 2.5h4h3q5 -1 14.5 -4t10.5 -3q1 -1 0 -8.5t0 -7.5q1 -2 11.5 -5t12.5 -4q1 -1 2 -6l2 -10l2 -10t1 -6q1 -2 5 -5t4 -4v-24v-24q0 -2 -2.5 -8t-5 -13t-5 -13t-3.5 -8v-8q-2 -3 -4.5 -10.5
t-5 -15.5t-4.5 -14.5t-3 -8.5q-1 -1 -3.5 -4t-3.5 -5q-6 -2 -8 0q-1 -2 -3 -8t-5 -12.5t-5.5 -12t-3.5 -7.5q-2 -2 -3.5 -8t-3.5 -9q-2 -4 -8 -13.5t-8 -10.5q-1 0 -7 -3t-9 -4q-2 -1 -12.5 -4t-12.5 -5q-1 0 -4 -4t-7 -8t-7.5 -8t-4.5 -4q-2 -1 -11 -4.5t-14 -4.5h-7
q0 -1 -3.5 -4t-5.5 -3q-1 -1 -5.5 -2.5t-9.5 -2.5t-9 -2t-5 -2q-5 -3 -8 -12t-3 -13h-14q-3 3 -9.5 10.5t-14.5 15t-14.5 14.5t-9.5 10q-2 1 -9 3t-8 4q-2 2 -8 12.5t-7 13.5q-2 0 -5 3l-4 4v8q-1 1 -3 5t-4.5 8t-5 7.5t-2.5 4.5v6v10.5v10v6.5t-3 7.5t-5 7.5v123zM141 72
q0 -2 2.5 -5.5t4.5 -3.5t10.5 3.5t11.5 5.5q2 2 12.5 8.5t12.5 7.5q2 0 12 3.5t12 4.5q1 1 4 4.5t4 4.5q1 0 4 -0.5t3 0.5q1 1 3.5 4.5t5.5 7.5t5.5 7.5t3.5 4.5q2 2 12 8.5t11 8.5q2 2 0.5 11.5t-0.5 11.5q2 5 8 14.5t8 11.5q3 2 11.5 2t12.5 -2q-2 0 -5.5 3.5t-3.5 4.5v3
v4q0 1 4.5 8.5t4.5 8.5q0 2 -0.5 12.5t0.5 12.5q0 1 3 4l5 5q-1 2 -2.5 7.5t-2.5 12t-2 12t-1 8.5v6v10.5v10.5v6q-1 2 -5 5.5t-9.5 7.5t-10 7t-7.5 4q-2 0 -8 -3t-8 -5q-6 -3 -15 -8.5l-18 -11t-15.5 -9.5t-7.5 -4q-3 -2 -12.5 -12t-12.5 -13q-1 -2 -3.5 -12t-3.5 -12
q-2 -3 -6 -13.5t-9.5 -23t-10 -23t-5.5 -13.5v-9q0 -2 -1.5 -8t-2.5 -12.5t-2 -12.5t-1 -7q0 -2 -0.5 -15.5t-0.5 -21.5q0 -4 0.5 -18.5t0.5 -18.5zM330 169q6 0 6 -7.5t-6 -7.5q-5 0 -5 7.5t5 7.5zM291 178q-3 2 -3 -4t3 -5q3 2 3 5t-3 4zM306 186q-6 0 -6 -8.5t6 -8.5
q7 0 7 8.5t-7 8.5zM36 195q-7 0 -7 -8.5t7 -8.5q6 0 6 8.5t-6 8.5z" />
    <glyph glyph-name="seven" unicode="7" horiz-adv-x="338" 
d="M141 49q2 8 -1 5t-4 -1q0 1 3 7t6 12.5t6 12.5t3 8q0 1 0.5 6t1.5 10t1.5 10t0.5 6q1 2 8 11.5t7 11.5q0 1 1 6.5l2 11t1.5 10.5t0.5 6q1 4 3.5 13.5t5.5 20t6 19.5t5 12q2 0 6 2.5t4 4.5q1 3 2 10.5t2 16t2.5 15.5t2.5 9l6 12l6 12q1 1 1 8t2 9q0 1 5 3t4 3q1 1 1.5 6
t1.5 10.5t1.5 10.5t0.5 7q2 4 8 19t12 33t11 33.5t6 19.5v3.5t1 4.5q0 3 1 5q0 2 1 3q0 3 -1 7.5t-3 9.5t-4 9t-2 5q0 3 -6.5 9.5t-10.5 9.5q-2 1 -8.5 4t-8.5 4q-3 0 -9 1.5t-12.5 2.5t-13 2.5t-9.5 1.5v28q3 0 12 -1.5t18.5 -3t18.5 -3.5t12 -3q1 0 5.5 -4.5t10 -9.5
t11 -10.5l8.5 -8.5q0 -1 3.5 -7.5t5.5 -11.5q1 -2 5 -12.5t4 -13.5q1 -3 1.5 -9.5t0.5 -13.5v-13v-8q1 -1 0.5 -7.5t-0.5 -10.5l-2 -4l-2 -4l-2 -6q0 -2 -5 -8t-5 -8q-1 -2 -2 -9.5t-2.5 -16t-3 -16t-2.5 -10.5q-3 -2 -5 -3q-1 -1 -1.5 -1t-1.5 -1l-1 -1q-1 -1 -1.5 -5.5
t-1.5 -10t-1.5 -10.5t-0.5 -6q-2 -2 -6.5 -8.5t-5.5 -8.5q-4 -4 -9 -16t-7 -15q0 -2 -1 -9t-2 -15.5t-2.5 -16t-1.5 -9.5q0 -3 -3 -11.5t-6 -17.5t-6 -16.5t-4 -9.5q0 -2 -5.5 -8.5t-5.5 -7.5q-1 -2 -2 -7t-1.5 -10.5t-1.5 -11t-1 -6.5q-2 -1 -5 -3.5t-5 -1.5q0 -5 -2 -17
t-4 -25.5t-4 -25t-3 -15.5q-1 -5 -3 -2.5t-3 0.5q0 -2 -1 -7t-1.5 -11t-1.5 -10.5t-2 -5.5q-2 -3 -7 -12t-5 -11h-3q-2 -1 -3 -0.5t-2 0.5t-2 1q-2 1 -3.5 4.5t-4.5 5.5q-2 4 -3.5 10.5t-1.5 7.5t0.5 6t2 11.5t2.5 13t3 10.5zM189 137q-8 2 -8.5 -6t4.5 -10q6 0 8 7.5
t-4 8.5zM257 392q-5 1 -7.5 -7.5t4.5 -9.5t8.5 7.5t-5.5 9.5zM2 573q2 1 12 4t14 4q3 1 10 2t14 2.5t12.5 3t7.5 1.5t17 0.5t32.5 1t32 1t16.5 0.5q0 -2 2 -8.5t1 -8.5q0 -1 -11.5 -4t-25.5 -6.5t-25.5 -6t-12.5 -2.5q-4 -2 -13.5 -5.5t-12.5 -4.5h-13h-13q-5 1 -18.5 4.5
t-15.5 5.5q-2 0 -5.5 3t-4.5 5v5v3z" />
    <glyph glyph-name="eight" unicode="8" horiz-adv-x="373" 
d="M59 72q0 2 -4 6.5t-9.5 9.5t-9.5 9.5t-4 7.5v17.5t0.5 27.5t0.5 25v12q0 2 2 9t5 14.5t5.5 14t2.5 8.5q1 2 5.5 9t9.5 14.5t9.5 14.5t4.5 10q1 0 3 0.5t3 0.5l4 -1q2 -2 6 0.5t4 1.5q2 4 9 12t10 12q0 1 4 5l5 5l4.5 9l4.5 9l2 3q0 1 -0.5 2t-0.5 2l-1 1q-2 5 -9 11t-9 7
t-10 0.5t-10 -0.5q-3 2 -14 9t-13 10q-2 0 -1 3.5t1 5.5q-2 0 -6 3.5t-4 5.5q-1 1 -5 6.5t-9 11.5t-9.5 11t-6.5 6q-2 2 -9 4t-9 2l-10 44q1 0 4 4.5t6.5 10t6.5 10.5t3 6q0 3 -4 10t-6 8q2 1 9.5 4.5t8.5 4.5q3 2 6 9.5t4 7.5q2 1 10 0.5t10 -0.5q1 1 4 9.5t6 9.5
q2 0 13.5 -0.5t13.5 0.5q4 1 16.5 5t27 8.5t27 8.5t15.5 5h4h6q1 -2 4 -5t5 -4h66q1 -2 4.5 -5t4.5 -5q3 -2 14 -8.5t14 -8.5q2 -1 10 -4.5t10 -5.5q1 -1 2.5 -5.5t1.5 -6.5q-4 0 -13 0.5t-18.5 1t-18 1t-11.5 0.5q-2 0 -9.5 4.5t-8.5 4.5h-5t-9.5 0.5t-10.5 0.5h-8
q-5 0 -18 -0.5t-16 -0.5q-1 -1 -5 -4.5t-6 -4.5q-1 0 -8 -1.5t-15 -2.5t-15 -2.5t-8 -1.5l-10.5 -3.5t-15 -5.5t-14 -5.5t-8.5 -3.5q-4 -3 -14.5 -13.5t-12.5 -14.5q-1 -1 -1 -3q-1 -1 -1 -3v-1q0 -2 1 -5.5t1 -5.5q0 -1 4.5 -4t4.5 -4t-0.5 -9t0.5 -9q0 -2 7 -9t11 -9
q2 -1 7 -4.5t11 -8t12 -8.5t9 -5q4 -4 15 -10.5t13 -7.5q4 -2 10.5 -5.5t12.5 -6.5t10.5 -5l4.5 -2q1 0 3.5 4t5.5 9t6 9.5t4 5.5t15.5 7.5t21.5 9.5q3 2 14 5.5t15 3.5q1 0 6 0.5t7 0.5q0 -2 -1 -13.5t-3 -13.5q0 -2 -3.5 -5t-5.5 -4t-7.5 -4t-12 -6t-12 -5.5t-6.5 -3.5
q-3 -2 -10.5 -8.5t-8.5 -9.5l9 -9q2 -1 9 -5t15 -8.5t15 -8l9 -4.5q4 -3 11.5 -8.5l15 -11t13.5 -10.5t8 -6q0 -2 3.5 -12t5.5 -15v-10q0 -1 4 -8t6 -9v-8q0 -1 1 -7.5t2.5 -14.5t2.5 -14.5t1 -7.5q-1 -7 -3.5 -19.5t-5.5 -24.5t-5.5 -21t-2.5 -10q-1 -3 -8 -13.5t-12 -14.5
q-1 -1 -8.5 -4.5t-9.5 -4.5t-7.5 -6.5t-12 -11.5t-11.5 -11l-6 -6q-3 -1 -10.5 -4.5t-9.5 -4.5q-3 -2 -5 -4l-5 -5q-2 -2 -9.5 -5.5t-8.5 -3.5t-6.5 -0.5t-12 -0.5t-13.5 -0.5t-11 -0.5h-9.5t-10.5 1q-6 0 -13 1l-5 3t-11 7.5l-12 9l-10 7.5q-2 1 -5.5 4.5l-4.5 4.5v9
q-1 3 -8 13.5t-10 12.5zM96 63q1 -1 5.5 -5l9 -8t8.5 -8t6 -5q1 -2 8.5 -5.5t10.5 -3.5h5h4q4 0 15 3.5t14 5.5q3 1 8.5 3.5t11.5 5.5l11 5.5t6 3.5q5 2 19 12t19 14q2 2 6.5 6t9 8.5t8.5 8t5 5.5q2 2 5 8.5t3 8.5q1 4 3 18t3.5 30t2.5 29t1 15q0 6 -3.5 19.5t-6.5 16.5
q0 1 -4 3.5t-9 5.5t-9 5t-5 3l-9.5 9.5t-8.5 9.5l-16 4t-14 5q-1 1 -8.5 9t-9.5 9h-9h-10q-2 -1 -9 -8t-11 -10q0 -2 -3.5 -9.5t-5.5 -8.5q-1 -1 -5 -3.5t-9 -5.5t-9 -5.5t-5 -3.5l-4.5 -3t-10 -6.5t-10 -7t-4.5 -4.5q-1 -2 -5 -12.5t-6 -13.5l-3.5 -10.5t-5 -15.5t-4.5 -14
t-2 -7v-77q0 -3 4 -6.5t9 -8t9 -8t4 -6.5z" />
    <glyph glyph-name="nine" unicode="9" horiz-adv-x="384" 
d="M317 419q-2 0 -4.5 2t-4.5 1q-2 -2 -9 -13t-8 -13q-2 -1 -9.5 -9t-9.5 -9q0 -1 -3.5 -8t-4.5 -8q0 -2 -3.5 -5t-5.5 -4q-1 -1 -4.5 -3.5t-8 -5.5t-8.5 -5.5t-5 -3.5l-5 -5l-8.5 -8.5l-8 -8t-4.5 -3.5q-3 -3 -13.5 -5.5t-12.5 -3.5l-5 -5l-8.5 -8.5t-9 -8.5t-5.5 -5h-8
q-2 -1 -4 -3l-3.5 -3.5t-1.5 -2.5l-4 -8t-5 -8q0 2 -2.5 5t-4.5 3q-3 0 -10 -4t-8 -4t-14.5 -1t-21.5 -1q-3 0 -17 1t-19 1q-1 1 -4 3.5t-5 4.5q0 1 -3 8t-4 9q-1 1 -3 8t-4.5 15.5t-4.5 15.5l-2 7l5 33q2 0 5.5 3.5t3.5 5.5t-3.5 8.5t-5.5 7.5q5 0 18.5 6.5t16.5 11.5
q1 2 0 13t0 13q0 2 3.5 8.5t5.5 8.5l8.5 8.5t8.5 9.5t4.5 8.5t4.5 8.5q1 1 4 4.5t5 4.5q1 1 7.5 4.5t14 8t14 8t7.5 5.5q2 1 5 8t4 8q4 6 14.5 15.5t12.5 12.5q2 1 13 0t13 0q1 1 4.5 8t4.5 8h5h4q0 1 1 2l3 3l4 4q3 1 8 3.5t10.5 5.5t10 5.5t6.5 3.5h18q1 0 6 1.5t11 3
t11.5 3t7.5 1.5q1 0 10.5 -3.5t14.5 -5.5q3 -2 9.5 -5t8.5 -5q3 -1 6 -4t3 -4l-9 -43q-2 0 -5 3.5t-4 5.5q-2 2 -8.5 13t-8.5 12h-4q-2 0 -4 0.5t-4 0.5t-4 -0.5t-4 -0.5h-6q-2 -1 -13.5 -4t-13.5 -4h-9q-1 -2 -4.5 -4.5t-4.5 -3.5t-8 -5t-9 -4q-1 -1 -1.5 -2t-2.5 -3l-4 -4
q-3 -1 -14 -5t-13 -5q-1 0 -4.5 -3.5l-4.5 -4.5q-1 0 -8.5 -3t-8.5 -5q-2 -2 -5.5 -9t-3.5 -8l-5 -5t-5 -4q-1 -2 -8 -13t-9 -13q-1 -2 -6 -4.5l-11 -5.5t-11 -5t-6 -3q-3 -2 -5.5 -8.5t-2.5 -8.5h-2q-1 -3 -4.5 -9t-7.5 -13t-8 -13l-6 -9q-1 -2 -7.5 -5t-9.5 -3
q1 -2 4 -4.5t4 -3.5q0 -1 1 -2q0 -1 0.5 -2t0.5 -2t-0.5 -1t-0.5 -1l-1 -1q-1 -1 -4.5 -5t-3.5 -5q0 -3 0.5 -9t1 -13.5t1.5 -13.5t1 -9q2 0 7.5 -1t12 -2.5t12 -2.5t7.5 0q1 0 8 3t15.5 7t16.5 8.5t13 6.5q3 1 13 8t14 10q1 2 4 4.5t5 3.5q1 2 4 9.5t4 9.5q1 1 4.5 3.5t8 5
t8.5 5t5 2.5q3 2 9 7t13 10.5t13.5 10.5t8.5 7q-2 4 0 9q1 1 4.5 4t4.5 5q2 1 9 4t9 4q3 2 8 7l10.5 10.5t10 10.5t6.5 7q2 -1 5 -4t3 -6q2 -2 5.5 -8t3.5 -8q2 -4 5 -17t4 -18v-143v-144q0 -15 -2 -34.5t-4 -40.5t-4 -40.5t-3 -32.5q0 -1 -1 -1h-2h-3q-1 0 -2 1
q-2 0 -5.5 4t-3.5 5zM17 387q7 0 7 -8.5t-7 -8.5q-5 0 -5 8.5t5 8.5zM62 404q-7 0 -7 -8.5t7 -8.5t7 8.5t-7 8.5zM203 561q-7 0 -7 -8.5t7 -8.5q6 0 6 8.5t-6 8.5z" />
    <glyph glyph-name="Euro" unicode="&#x20ac;" horiz-adv-x="467" 
d="M183 35q-2 -2 -7.5 -5t-7.5 -4h-5h-3q-4 2 -13 5t-11 4q-1 0 -7.5 6.5t-7.5 8.5q-2 1 -11.5 7t-11.5 8t-8 12t-8 12l-8 8q-1 1 -3.5 7.5t-4.5 7.5q-3 2 -18 5t-21 3q-2 0 -8 -3t-7 -5v40h47q2 0 4.5 5.5t2.5 9.5q0 2 -1 8.5t-2 14t-2 14.5t-2 10q-3 -2 -15 -2t-17 2
q-2 1 -8 7t-7 8t-2.5 12t-1.5 12h58q2 2 4.5 7.5t3.5 7.5q1 1 4.5 4t3.5 4q1 2 5.5 12.5t10 22.5t10 22t5.5 13l4 4t4 3q0 1 2.5 4.5t5 7.5t5 7.5t2.5 4.5q5 5 13.5 17t10.5 14t6.5 7t9.5 10l9 9t6 5q1 1 7 4.5t12.5 7.5t12 7t7.5 4q1 2 7.5 8.5t7.5 8.5q2 1 8 3.5t9 3.5h3
h4q1 1 3.5 7.5t4.5 7.5l3 1l2 -1h2q2 -1 5 -7t3 -8q0 2 3 11.5t5 11.5h4h3l4.5 4.5t4.5 3.5h10q4 0 8 0.5t6 0.5t5.5 -0.5t7.5 -0.5h9q2 0 7.5 -2t11.5 -4.5l12 -5t8 -4.5q3 -2 9 -7.5t6 -7.5q0 -1 0.5 -5.5t0.5 -6.5q0 -1 -0.5 -5.5t-0.5 -6.5q-3 2 -15 8.5t-15 8.5
q-2 1 -11.5 3.5t-12.5 3.5h-3h-5q-1 -1 -5.5 -3.5t-9.5 -5t-9.5 -4.5t-5.5 -2q-2 -1 -8.5 -0.5t-8.5 0.5q-2 -1 -7.5 -7.5t-7.5 -8.5q-1 -1 -5.5 -3.5t-10 -5t-9.5 -5t-5 -2.5q-1 -1 -4.5 -3.5t-4.5 -3.5q-1 -2 -5 -5t-9 -7t-10 -7.5t-7 -4.5q-1 0 -4.5 -2.5t-7.5 -5
t-7.5 -5t-4.5 -3.5t-5.5 -7.5t-9.5 -14.5t-9.5 -15t-5.5 -9q-1 0 -4.5 -3.5t-3.5 -4.5q-1 -2 -5.5 -8.5t-10 -14.5t-10 -15t-5.5 -9q-1 0 -4 -3.5t-4 -4.5q-3 -5 -9 -16.5t-6 -13.5q0 -1 -0.5 -5.5t-0.5 -6.5t0.5 -6t0.5 -6q0 3 2.5 12.5t4.5 11.5q1 1 4 3.5t4 4.5
q2 0 11.5 3t11.5 4l4.5 4.5t4.5 3.5h6.5h12h12h7.5l1 1q1 0 3 2t3 4q3 1 12.5 0.5t11.5 -0.5q2 1 11.5 4.5t11.5 3.5h17q2 1 7.5 4t7.5 4v-8q1 2 3.5 5t3.5 3q3 2 15 4.5t17 3.5h15q2 0 8 3t8 5v-8q5 2 19.5 8t19.5 8q1 1 7.5 3.5t7.5 3.5q2 1 5.5 1h4.5q0 -2 -0.5 -12
t-1.5 -12q0 -2 -3 -8t-5 -8q-1 0 -9.5 -3t-13.5 -5q-2 0 -7.5 -1t-12 -2.5t-12.5 -2.5t-7 -1q-3 0 -12 -2.5t-19.5 -5.5t-19.5 -5t-11 -2q-2 -2 -12 -1t-12 1q-1 -1 -5.5 -3.5t-9.5 -5l-10 -5t-6 -3.5h-7l-18 -3t-24.5 -4.5t-23 -4.5t-13.5 -3q-4 -1 -13 -4t-10 -4t-3.5 -5
t-5 -9t-4.5 -10t-2 -7q-1 -4 1 -15t2 -15q1 0 2.5 -0.5t2.5 -0.5l124 31h8l8 4t7 4q2 0 9 2.5t14.5 5t14.5 5t9 3.5t8 3.5t8 3.5h15l12 4t11 4v-3v-5q-1 -3 -7 -15l-8 -16l-8 -8h-7q-2 0 -12 -3.5t-12 -4.5h-16q-1 -1 -7.5 -3.5t-7.5 -3.5q-3 -1 -15.5 -4.5t-27 -7t-27.5 -7
t-16 -4.5q-2 -2 -11.5 -4.5t-11.5 -4.5q-2 0 -8 -3.5t-8 -3.5q-5 0 -19.5 1.5t-18.5 1.5v-11q0 -1 5 -6.5t12.5 -13l15.5 -15.5t14 -12q1 -1 6.5 -4.5t12 -7.5t12 -7t7.5 -4t4.5 -3.5t2.5 -3.5l109 -8q-1 2 2.5 8t6.5 7q2 1 11.5 -3t11.5 -4q1 0 4 3.5t4 3.5q2 1 8 0t7 0
q2 0 9 3.5t14.5 8t14.5 8t9 3.5q3 2 16 3t16 1q0 -3 -3 -14t-5 -13q-1 -1 -5.5 -3t-10 -4.5t-10.5 -5t-6 -2.5q-1 -1 -3.5 -4.5t-4.5 -4.5q-5 -2 -19.5 -7.5t-19.5 -7.5q-2 0 -8.5 -1.5t-14 -2.5t-14.5 -2.5t-10 -1.5h-6.5t-13 -0.5t-14.5 -0.5h-11h-10.5t-13 0.5t-11.5 0.5
h-5q-3 0 -9.5 2t-14 4.5t-14 5t-9.5 4.5zM144 152q-6 0 -6 -8.5t6 -8.5q7 0 7 8.5t-7 8.5zM316 307q6 0 6 -8t-6 -8q-7 0 -7 8t7 8z" />
    <glyph glyph-name="at" unicode="@" horiz-adv-x="652" 
d="M93 -73q-1 2 -4 7.5t-5 7.5q-1 2 -7 8.5t-8 8.5q0 1 -2.5 5t-5 9.5t-5 10t-3.5 5.5l-4 4q-2 2 -3 4q-2 2 -4.5 8t-3.5 8t-4 11t-5 12q-2 5 -4.5 14t-4.5 17.5t-4 15t-2 7.5v6v10.5v10v5.5t-3 7l-4 8v4v4q0 3 1 14.5t2.5 24.5t2.5 24t1 14v9q1 5 2 13.5t2.5 17.5t2.5 15.5
t1 8.5q0 1 2 7.5t4.5 15t5 17.5t4.5 14l4 12t4 11q0 1 3 7.5t4 7.5v8q1 3 4 7.5t5.5 9.5l4.5 9t2 5q1 2 7.5 4.5t7.5 3.5q2 2 5 8t4 7q2 5 7.5 13.5t7.5 10.5q1 1 5.5 6t10 10t9.5 9.5t5 5.5t3.5 4.5t5.5 7.5t5 7.5t3 4.5t11 3.5t12 3.5q2 2 4.5 7.5t2.5 8.5l8 -16
q0 2 3.5 8.5t5.5 7.5q0 1 3 0.5t4 -0.5q1 2 3.5 8t4.5 8h8q1 0 7.5 3.5t7.5 4.5q5 2 17 4.5t14 2.5t5 -2.5t3 -4.5q3 2 15 8t17 7h1q1 0 1 0.5t1 0.5l2 -1h2q2 -1 11.5 -8t11.5 -7q2 -1 12 -0.5t12 0.5t11 -3t12 -5q2 -2 8 -4.5t7 -4.5q1 0 4.5 -3t3.5 -4q1 0 5.5 -1
t10 -2.5t10 -2.5t6.5 -2l3.5 -3.5t3.5 -4.5q2 -1 12 -3.5t12 -3.5q0 -1 -0.5 -4.5t0.5 -3.5q1 -2 7 -8l8 -8q2 -1 11.5 -7t11.5 -8q2 -1 8.5 -8t8.5 -8q1 -1 7.5 -3.5t7.5 -3.5q1 -2 3.5 -12t4.5 -12q1 0 3.5 -3.5t3.5 -4.5q2 -2 7.5 -11.5t7.5 -11.5t5 -8l4 -8l4 -4l4 -4
q0 -2 -0.5 -11.5t0.5 -11.5q0 -2 7 -4t8 -3v-4v-4q1 -2 4.5 -8t3.5 -8q1 -2 0.5 -11.5t-0.5 -11.5t2.5 -14t4.5 -18q1 -2 4.5 -11.5t3.5 -11.5v-4v-3q-1 -2 -7 -5t-8 -3q2 -2 4.5 -8t2.5 -8v-5q0 -2 0.5 -3.5t0.5 -2.5q0 -2 -0.5 -6.5t-0.5 -5.5q0 -2 -2.5 -7.5t-4.5 -7.5
q-1 -2 -4 -5l-4 -4q-2 -4 -7.5 -15.5t-7.5 -15.5q-5 3 -8 0q-2 -2 -8 -12t-8 -12h-15q-2 0 -8.5 -3.5t-7.5 -3.5t-4 3q-2 2 -3 4q-2 1 -8.5 0.5t-8.5 -0.5q-2 1 -11.5 4.5t-11.5 4.5q-2 0 -4.5 0.5t-4.5 0.5q0 2 -2 7t-4 7q-1 1 -6 3.5t-10 4.5t-9.5 4.5t-5.5 3.5
q-2 1 -0.5 7.5t0.5 7.5q0 1 -3.5 4t-4.5 5t-4 11t-4 11l-8 8l-8 8q0 1 -3.5 0.5t-4.5 -0.5l-7 7q-1 -4 -7 -18.5t-9 -19.5q-1 -1 -5.5 -4.5t-9.5 -7.5t-10 -7.5t-6 -4.5t-3.5 -7.5t-4.5 -7.5q-1 -1 -7.5 -4t-7.5 -4l-4 -4q-2 -2 -4 -3q-2 -2 -8 -5t-8 -3q-5 -2 -19.5 -5
t-18.5 -4v36q2 0 7.5 1.5t7.5 2.5q1 1 7 5l13.5 9t15 9.5t11.5 7.5q1 0 3.5 3t4.5 5l-8 7q3 5 8 8q2 2 7.5 5t7.5 3h7q3 2 9 12t8 12l15 15q1 1 4 9.5t4 13.5v4v5q-1 1 -4 3.5t-4 3.5v62h-62q-1 -2 -4 -4.5t-4 -2.5q-4 -2 -10.5 -3.5t-12.5 -3t-11 -2t-5 0.5l-8 8
q0 -3 -2.5 -9t-4.5 -8q-2 0 -10.5 -2.5t-13.5 -4.5h-4h-4l-8 -8t-7 -8q-2 -2 -5.5 -8.5t-7 -14t-7 -14t-4.5 -9.5l-8 15q-1 -4 -3.5 -15.5t-3.5 -15.5q0 -1 -0.5 -8.5t-0.5 -10.5q0 -4 0.5 -11.5t0.5 -8.5t1 -5t2 -9t2.5 -9.5t1.5 -6.5q1 -3 4.5 -9t3.5 -8q1 -1 4.5 -2
t4.5 -1v-12h45v-39l-15 7l-7 -15q-4 2 -12.5 7.5t-10.5 7.5t1 6.5t3 5.5h-38q0 3 -2.5 10.5t-3.5 9.5q-2 2 -7.5 5.5t-7.5 2.5l8 7q-5 2 -13.5 11t-10.5 13v10v13q1 4 3 13t4.5 19t5 18.5t3.5 11.5l4 4l4 4q0 2 1 7t1 7q3 0 5 2q3 1 9 7t7 8l8 16t7 16q1 -1 4.5 -1t4.5 1
q2 0 7.5 3t7.5 5q1 1 5.5 4t10 7t9.5 7.5t5 4.5h2q1 0 1.5 0.5t1.5 0.5l2 -1h2l8 -8q0 2 2.5 8t4.5 7q2 2 14 8t17 9h4h5q2 -2 4.5 -8.5t2.5 -8.5q0 4 6 9.5t10 7.5h21h25q1 0 4 -4t4 -5q1 0 7.5 -3t7.5 -5q1 0 0.5 -3t-0.5 -4l8 -8t9 -8q2 -2 11.5 -8t11.5 -7l8 -8t7 -8v-4
v-4q0 -2 -3 -7.5t-5 -7.5l-4 -4q-2 -2 -3 -4q0 -1 -1 -5.5t-1 -6.5t1 -6.5t1 -5.5t3 -7.5t4 -7.5v-15q1 -4 4 -13t4 -11q1 0 4 -3.5t3 -4.5q2 -1 5 -7.5t4 -7.5t5.5 -6t9.5 -10l10 -10l6 -6q1 0 0 -3t0 -4q2 -3 8 -6t7 -2l47 23v12q5 0 7 4q3 2 6 11.5t3 11.5v31v31
q0 5 -3 19.5t-6 19.5q0 2 -3 8.5t-4 7.5q0 2 -3.5 12t-4.5 12q-1 0 -3.5 3t-3.5 4v8q-2 1 -4.5 4t-3.5 4v7l-4 8t-4 9q-1 0 -4 3t-3 4v8q-2 1 -6 5l-9 9l-9.5 9.5t-7.5 6.5q-2 2 -11.5 8.5t-11.5 8.5l-5.5 5.5t-10 9.5t-10 9.5l-5.5 5.5q-2 1 -8.5 4.5t-7.5 3.5l-4 4t-3 5
q-5 2 -17 7.5t-15 7.5q-1 1 -7.5 0.5t-7.5 -0.5q-2 1 -11 3.5t-13 3.5q-1 2 -7.5 5t-7.5 3h-7.5h-12.5h-12.5h-7.5q-1 0 -4 1.5t-7 3t-7.5 2.5t-4.5 1q-2 0 -4 -7t-3 -9q-2 -1 -8.5 0.5t-8.5 -0.5q-2 -1 -7.5 -7.5t-7.5 -7.5q-2 -2 -7.5 -4.5t-7.5 -2.5q-2 -2 -7.5 -2
t-7.5 2l-55 -55q-2 -2 -6.5 -8t-9.5 -12t-9.5 -11.5t-5.5 -7.5q-2 -1 -0.5 -4.5t0.5 -3.5l-4.5 -4.5l-7.5 -7.5t-7 -7.5t-4 -4.5q-1 0 -0.5 -3t0.5 -4l-4 -8t-5 -8q0 -1 -3.5 -4t-4.5 -3q-1 -3 -3.5 -8l-5 -10l-4.5 -9t-2 -5v-5.5v-10v-9.5v-5q0 -3 -3 -12.5t-5 -11.5
q-1 -3 -2 -12t-2 -19t-2 -19t-1 -13q0 -3 -0.5 -10.5t-0.5 -16t0.5 -16.5t0.5 -11q-2 -1 -5 -4t-3 -4v-4v-3q0 -2 3.5 -8.5t4.5 -8.5q2 -4 4.5 -12.5t2.5 -10.5q1 -2 0.5 -7.5t-0.5 -12t-0.5 -12t0.5 -7.5q2 -2 12 -11t11 -12q1 -2 0.5 -8t-0.5 -7q1 -4 4 -13t4 -11
q2 -3 8.5 -9.5l14 -14t14.5 -14t10 -9.5q2 -1 12 -3.5t12 -3.5q1 0 6.5 -2.5t12.5 -5.5t12.5 -5.5t6.5 -2.5t12.5 -0.5t17.5 -0.5t18.5 0.5t14.5 0.5q3 0 13.5 2t22.5 4.5l24 5t18 4.5q1 1 7 3.5t8 3.5l4 4q2 2 3 4q3 1 12.5 4t11.5 5q1 1 9 6.5t18 12.5t20 14.5t16 11.5
q1 1 3.5 4.5t3.5 4.5q2 1 12 7t12 8q3 3 9.5 7.5t12.5 9.5t10.5 9t5.5 5q2 2 4.5 8t3.5 8l16 8q0 1 3.5 3.5t4.5 3.5l3 2q1 0 1.5 -0.5t1.5 -0.5q1 -1 2 -1q1 -1 3.5 -7t3.5 -8v-4v-3q-1 -3 -3.5 -9t-3.5 -8q-2 -1 -7.5 -7t-8.5 -8q-5 -4 -13 -11t-17 -14.5t-16 -14t-8 -7.5
q-2 -1 -8.5 -3.5t-8.5 -4.5q0 -1 -3 -3.5t-4 -3.5q-2 -2 -11.5 -8t-11.5 -7q-1 -2 -4.5 -5.5l-7.5 -7.5t-7.5 -7t-4.5 -4q0 -1 -3.5 -0.5t-4.5 0.5q0 -1 -3 -4l-4 -4t-8 -4t-8 -4l-7 -7q-2 -1 -12 -4.5t-12 -3.5q-1 -1 -7.5 -5t-7.5 -4q-2 0 -11.5 0.5t-11.5 -0.5
q-4 -1 -13 -7t-11 -8h-9t-12.5 -0.5t-12.5 -0.5h-9h-11t-14 0.5t-12 0.5h-5q-3 0 -12 3t-12 5l-4 4t-4 3q-5 2 -16 7t-23 10t-23 9t-15 6zM29 160q-5 0 -5 -7.5t5 -7.5q7 0 7 7.5t-7 7.5zM598 184q-5 0 -5 -8t5 -8q6 0 6 8t-6 8zM388 239q-3 1 -3 -4.5t3 -3.5q3 1 3 3.5
t-3 4.5zM411 340q-2 1 -2.5 -3t-0.5 -9t0.5 -9t2.5 -3q4 2 4 12t-4 12zM225 348q-6 0 -6 -8.5t6 -8.5q5 0 5 8.5t-5 8.5zM93 410q-7 0 -7 -7.5t7 -7.5q5 0 5 7.5t-5 7.5zM217 519q-6 0 -6 -7.5t6 -7.5t6 7.5t-6 7.5z" />
    <glyph glyph-name="germandbls" unicode="&#xdf;" horiz-adv-x="356" 
d="M16 -126q0 1 -2 15.5t-3.5 33.5t-2 37.5t3.5 28.5v8v17.5t0.5 17.5t0.5 9t-0.5 9.5t-1.5 18t-1.5 18l-0.5 8.5q-3 19 -2.5 54t3.5 77t7 85.5t8 79t6 57.5t2 21l10 17.5t22 38t22.5 38l10.5 17.5q0 2 3.5 11.5t4.5 11.5q0 1 2.5 3.5t4.5 3.5q1 1 8 4.5t8 3.5q2 2 11.5 12
t12.5 12h22q2 0 11.5 4t11.5 4q3 0 15 -3t17 -5q1 -1 7 -4l8 -4q5 -2 13.5 -8t10.5 -8q5 -3 13.5 -12t9.5 -11q1 -1 3 -7l4.5 -13.5t4.5 -15t3 -11.5q2 -6 4.5 -16.5t5.5 -21.5t5 -20t2 -11v-35v-36q-2 0 -5 -3t-3 -5v-8.5v-14.5v-15v-9q0 -1 -2 -6t-4.5 -11t-5.5 -12t-4 -9
l-4 -4l-4 -4q0 -2 -1 -7.5t-2.5 -12.5t-2.5 -12.5t-2 -6.5q-1 -3 -3.5 -12.5t-3.5 -11.5q-2 -4 -7.5 -16t-7.5 -14l-4.5 -4.5t-4.5 -3.5q-2 -2 -5 -8t-3 -8l8 -8q2 -1 12 -7.5t12 -7.5q1 -1 7 -10t8 -13q2 -3 5 -8.5t3 -7.5v-11v-12q0 -3 -1 -10.5t-2.5 -15t-2.5 -13.5
t-2 -8t-3.5 -7.5t-4.5 -7.5q-2 -3 -6.5 -7.5t-9.5 -10t-9.5 -9.5t-5.5 -5q-2 -1 -11.5 -4t-11.5 -4t-17 -6t-32.5 -11t-32.5 -11.5t-16 -6.5q0 -1 -3.5 -4t-4.5 -3q-2 -1 -4 -1h-7q-1 0 -5 1.5t-8.5 3t-8 3l-3.5 1.5q-2 0 -8 3t-7 5q-1 0 -1 1v2v3q0 1 1 2q0 1 3 3.5t5 3.5
q1 1 7 2t13.5 2t14 1.5t8.5 1.5q1 0 15 4.5t30.5 9.5t30.5 9t15 4q2 2 8 4.5t7 4.5q3 1 7.5 4.5t9.5 7.5t9 7t6 4q2 2 4.5 7.5t2.5 7.5v24v23q0 2 -2.5 7.5t-4.5 7.5l-24 24q-1 0 -4 0.5t-4 0.5q-2 0 -4.5 -0.5t-3.5 -0.5q-2 -2 -6.5 -6t-9.5 -9l-9.5 -9.5t-5.5 -6.5
q-2 1 -8 3.5t-8 3.5q-2 2 -8 8.5t-7 8.5l-1 3v2q0 1 1 2t7.5 4t7.5 4q3 1 7.5 4.5t10 7.5t9.5 7t5 4l8 16q1 2 7.5 11.5t7.5 11.5q3 6 9 17.5t12 24t11 23t7 13.5q0 1 1.5 5.5t2.5 10t2.5 10t1.5 5.5q1 2 4 12t3 12q1 2 1 11t-0.5 19.5t-0.5 19.5v12q0 1 1 6.5t2.5 12.5
t3 12.5t1.5 6.5v9v8q0 2 -2 10l-4.5 18t-5 19.5t-3.5 14.5q-1 2 -4 11l-4 12q-2 2 -4 8t-3 8q-5 5 -13.5 16.5t-10.5 13.5t-8 5t-8 3t-11.5 0.5t-14.5 0.5q-4 0 -11.5 -0.5t-9.5 -0.5q-3 -1 -10 -5t-14.5 -9t-13.5 -9.5t-8 -6.5q0 -1 -6 -10.5t-13.5 -22t-15 -25.5
t-12.5 -21q-2 -2 -5 -8t-3 -7q0 -2 -1 -7.5t-2.5 -12t-2.5 -12.5t-2 -7q-1 -2 -3.5 -11.5t-3.5 -11.5v-5v-3l4 -4q2 -2 3 -4q0 -1 1 -5t1 -7q0 -2 -1 -6.5t-1 -5.5t-3 -3.5t-4 -3.5q0 -1 0.5 -4t-0.5 -4t-2 -4.5t-2.5 -17.5t-3 -43t-3 -80.5t-3 -130t-1.5 -191.5l-9 -47h-2
h-6q-2 1 -4.5 4t-2.5 4z" />
    <glyph glyph-name="eth" unicode="&#xf0;" horiz-adv-x="349" 
d="M12 112q0 5 0.5 15.5t0.5 12.5q0 1 1 6t2 10.5t2 10t1 5.5v25l1 1q0 1 2 3q1 2 3 3q1 2 2 5.5t1 4.5q3 0 5 3q1 1 3 6t3 6q1 2 6.5 10t6.5 10q0 1 2 6l4 10t4 9.5t3 5.5q0 1 7 5.5t15 10t15 10t8 4.5q2 2 1.5 -4.5t1.5 -4.5l3 4t7 9.5t8 10t7 6.5q5 2 11 6.5t7 6.5h7
q4 0 17 2.5t16 4.5q0 1 1 2q-1 0 -1 1v2v2q-2 1 -3 2l-3 3q-1 2 -3.5 10t-3.5 10q-1 0 -2.5 -1t-2.5 1t-4 9.5t-3 8.5q-1 0 -3 4q-1 2 -3 3q-2 2 -4 9.5t-4 9.5h-5h-8q-1 -1 -2 0t-4 0l-3 -3l-2 -2l-1 -1q-1 0 -6.5 -3t-6.5 -4q-1 -2 -3 -3q-1 -1 -1.5 -1t-1.5 -1l-1 -1
q-1 0 -6 -3t-10.5 -6t-10 -6t-5.5 -4q-2 -1 -6 -5l-8.5 -8.5t-8.5 -8t-5 -4.5h-2h-4q-3 0 -8.5 1t-11.5 2t-11.5 2t-7.5 2q3 2 10.5 13t11.5 13q2 0 12 -1t11 1q2 1 7 8.5t6 9.5q1 1 2.5 1.5t2.5 2.5q1 1 2 3q1 1 7 3.5t13 6t12.5 6t7.5 3.5q1 1 4 3.5t3 3.5q2 0 3.5 7
t2.5 9v3q0 1 0.5 2t0.5 2q-1 0 -1 1v2v3q-2 1 -3 3q-3 3 -3 4t-2 5t-4.5 8t-4.5 7.5t-2 4.5q-2 3 -5 9l-4 8q-2 3 -8.5 12t-8.5 11q-1 0 -1 4q0 2 1 3q-2 2 -7 6.5t-8 6.5q-2 1 -13 6t-13 7q-1 1 -6.5 12t-7.5 13q0 2 -5 4.5t-7 2.5q0 1 3 3t3 3q3 1 8 4t6 3t6 -3t7 -4
l26 -26q2 0 7 -2.5t7 -4.5q1 -1 3.5 -5.5t3.5 -6.5q2 -3 9.5 -13t9.5 -13q1 -1 5 -4.5t8.5 -7.5t8.5 -8t4 -5q2 -2 6 -7t8.5 -11t8 -11.5t4.5 -8.5l7 3.5l7 3.5t3 2l3 3q2 2 10 7t10 6l1 1q1 1 1 1.5t1 1.5q1 2 3 3t10.5 6t10.5 7q1 1 9.5 8.5t9.5 9.5q2 1 7.5 4t6.5 3
q0 1 2.5 3.5t3.5 2.5q2 1 10 6t10 7q1 2 4 4t3 3q3 1 13 5.5t14 6.5v-29q-4 0 -7 -3q-2 -2 -7 -9.5t-7 -9.5q-1 -1 -6 0t-7 0t-10 -9l-10 -10q-1 -1 -6.5 -3.5t-7.5 -2.5q-2 -1 -3 -3q-1 -1 -1 -1.5t-1 -1.5l-1 -1l-17.5 -14t-14.5 -11t-8 -4.5t-12.5 -8t-12 -8.5t-7.5 -5
q1 -2 4.5 -7.5t8 -11.5t8 -11.5t5.5 -7.5q1 -1 3.5 -6t2.5 -7q2 -1 4.5 -3.5t3.5 -2.5q0 -2 3 -9.5t4 -9.5q0 -2 2 -6.5t4 -6.5l7 -7q0 -1 2 -6.5t4 -12t4 -12.5t2 -7q2 -6 7.5 -18t6.5 -14t3 -3l3 -3q3 -7 5.5 -19t1.5 -13l-7 -6q1 0 3.5 -3t3.5 -4v-7q1 0 3 -2.5t3 -3.5
v-6q2 -2 4 -9.5t3 -9.5q2 -5 4.5 -16.5t2.5 -15.5v-6v-7q-1 -5 -2 -14l-2 -18t-2 -16.5t-1 -9.5q-1 -2 -3 -9t-4 -9q-2 -4 -5 -10.5t-6 -12.5t-5.5 -10.5l-2.5 -4.5q-2 -2 -8.5 -6t-14.5 -8l-15 -7.5t-8 -4.5q-1 0 -3.5 -3t-4.5 -4l-10.5 -7t-8.5 -5q-2 -1 -15.5 -3
t-18.5 -4h-13h-13q-2 2 -15 4t-18 3q-4 0 -11.5 2t-7.5 3q-2 2 -7.5 7t-12 11.5l-12.5 12.5l-9 9q-1 1 -6.5 8t-7.5 10q-2 5 -7 15t-5 11q-1 5 -1 9v14zM27 130q0 -5 11 -8.5t11 -4.5t-2 -8t-1 -9q1 -1 5.5 -6.5t9.5 -12t9.5 -12.5t4.5 -7q1 -1 3.5 -5t2.5 -5q3 -2 8 -4.5
l11 -5.5t11.5 -5.5t7.5 -2.5h16h20l1 1l2 2q1 1 2 3q2 1 12.5 3t12.5 3q1 0 5.5 2t6.5 4q6 3 18 9.5t14 7.5q1 1 5 4t7.5 7t7 7t3.5 5l1.5 6t3 13.5t2.5 14t2 8.5q2 6 4.5 14.5t2.5 9.5q0 3 -5 7t-5 6v22q0 2 -2 10.5t-4 12.5q0 1 -3 8t-4 9q0 2 -2.5 10t-5 18t-5 18.5
t-3.5 10.5q-2 2 -9 8.5t-11 7.5q0 1 -6 1.5t-9 0.5q-2 0 -8 -0.5t-6 -1.5q-1 0 -5.5 -2t-10.5 -4.5t-12 -5.5t-9 -4q-2 -2 -9.5 -6t-9.5 -6q-4 -5 -16 -15.5t-14 -12.5q-1 0 -4 -5t-7 -11.5t-7.5 -13t-5.5 -9.5q-2 -5 -7 -14t-6 -11t-3.5 -15t-2.5 -17l-4 -3.5t-8.5 -7
t-8 -7.5t-3.5 -6z" />
    <glyph glyph-name="Ccedilla" unicode="&#xc7;" horiz-adv-x="522" 
d="M363 -99l8 15h-12h-12q-3 0 -10.5 -1t-15 -2.5t-13.5 -2.5t-8 -2q-1 -2 -3 -3q-2 -2 -3 -2.5t-2 -1.5q0 -2 -3 -8.5t-5 -8.5h-3h-4q-1 2 -4 5.5t-4 3.5q-2 0 -8 -0.5t-7 0.5q-1 0 -4 3l-5 5q0 1 -3 7.5t-4 7.5q0 1 -3.5 4t-4.5 4q-2 3 -5 12t-3 12q0 8 3 21.5l5 22.5h-77
l-8 8q-2 2 -8 4.5t-8 3.5t-11.5 4t-11.5 3q-4 2 -11 6t-14.5 7.5t-14 6.5t-7.5 4q-2 1 -7.5 7t-7.5 9v4v3l-8 8q-2 2 -5 8l-4 8q0 1 0.5 7.5t-0.5 7.5q0 1 -3.5 4t-3.5 4v7v12.5v12v7.5q0 1 -1.5 6l-3 10t-2.5 9.5t-1 5.5v8t-0.5 15.5t-0.5 17v13.5v11t0.5 17t0.5 16.5v10.5
q2 2 5 8t3 8v5.5v9.5v9.5v6.5t3.5 12t3.5 12q0 1 1.5 8t3 14.5t3 14.5t1.5 9q1 8 4 23t4 16q2 5 5.5 13t7 15.5t6.5 13l3 5.5h12v31h12q1 1 3.5 5.5t5 9.5t4.5 9.5t3 6.5q1 1 3.5 4t3.5 3q1 3 8 12.5t8 11.5l4 4t3 4q2 2 8.5 11.5t8.5 11.5q3 4 11.5 13t10.5 11q2 1 8.5 0
t7.5 0q1 0 4 3l4 4h2q1 0 1 0.5t1 0.5t1.5 -0.5t1.5 -0.5h1q2 -1 5 -7t3 -8q1 2 7 8t8 7h4q2 0 3.5 0.5t3.5 0.5t7 -0.5t6 -0.5t7 -2.5t8 -4.5q1 -1 4 -4.5t4 -3.5h5.5h10h10h5.5l4 -4l4 -4q2 -1 11.5 -0.5t11.5 0.5l32 -16q2 -1 11 -7t11 -8q2 -1 5 -4t3 -4q2 -2 12 -8
t12 -7q2 -2 7.5 -8t7.5 -8q-2 0 -7.5 -3t-7.5 -5t-12 -11.5t-12 -11.5l-3 -1h-3q-1 0 -2 1q-1 2 -3.5 11.5t-3.5 11.5t-8 4.5t-7 3.5q-2 2 -2 8t2 8q-3 2 -12 6.5l-19 9.5t-19 9t-13 5q-1 1 -5.5 1t-10 -0.5t-10 -0.5h-5.5t-4 4t-4 4t-5 0.5t-7 0.5q-2 0 -6.5 -0.5
t-5.5 -0.5t-7 -3t-8 -5q-1 0 -7.5 1t-7.5 -1q-5 -2 -17.5 -7.5t-14.5 -7.5q-1 -1 -3.5 -7.5t-4.5 -7.5q-1 -2 -7.5 -5t-7.5 -4q-3 -2 -11.5 -10.5l-12.5 -12.5q-1 -2 -7 -11.5t-8 -11.5l-8 -8q-1 -2 -3.5 -11.5t-3.5 -11.5q-1 -1 -4.5 -1t-3.5 1q-2 -4 -5.5 -13.5t-7 -21
t-7 -21.5t-4.5 -14q0 -2 0.5 -8t-0.5 -8l-4 -4l-4 -4q-1 -1 0.5 -7.5t-0.5 -7.5q0 -1 -3.5 -4t-3.5 -4t-1.5 -6t-2.5 -11t-2.5 -12.5t-1.5 -9.5q0 -1 0.5 -7.5t-0.5 -7.5q-2 -4 -7.5 -13t-7.5 -11l8 -8v-124q2 -1 8 -7t7 -8q0 -2 1 -7.5t2.5 -12.5t2.5 -12.5t1 -7.5
q2 -2 9 -7.5t7 -7.5q1 -2 0.5 -8t-0.5 -8q1 -1 7.5 -4t8.5 -4t11.5 -7.5t11.5 -7.5q5 -3 12.5 -6.5t15 -7.5t13.5 -6.5l6 -2.5q4 -1 13 -0.5t18.5 2t18.5 3t12 3.5q-1 2 2 8t6 7h4q2 0 3.5 0.5t3.5 0.5t7 -0.5t6 -0.5t7.5 -4t7.5 -4t9.5 -0.5t13.5 -0.5t14 0.5t10 0.5
t3.5 3.5t3.5 4.5q2 0 9 2.5t15 5t14.5 4.5t8.5 3t9 5.5t14.5 10.5t14.5 10.5t9 5.5q1 0 5.5 1t9.5 2.5t9.5 2.5t6.5 1q4 1 16 7t15 9q0 -2 0.5 -8t0.5 -8t-0.5 -4.5t-0.5 -4.5v-6q0 -1 -2.5 -3.5l-4.5 -4.5q-3 -2 -9 -4.5t-8 -3.5q-1 0 -7 0.5t-8 -0.5q-1 0 -4.5 -3.5t-7 -8
t-7 -8t-4.5 -3.5q-2 -1 -14 -4t-18 -4h-7l-4 -4t-4 -3q-2 -2 -8.5 -5t-14 -7t-14.5 -7.5t-10 -4.5q-2 0 -7.5 -2.5t-12 -5.5t-12.5 -5.5t-7 -2.5q-2 -1 -8 -3.5t-7 -3.5q-2 -2 -5 -8t-3 -8q-1 -7 1 -14.5t2 -15.5h114q1 0 3.5 -3t3.5 -5q0 -3 1 -6q0 -2 0.5 -4.5t0.5 -4.5
t-0.5 -4.5t-0.5 -4.5q-1 -3 -1 -6q0 -2 -2.5 -8t-4.5 -9q-1 -1 -7.5 -7t-7.5 -8q-2 -2 -8 -11.5t-9 -11.5q-1 -2 -7 -4t-8 -3q-1 -2 -4 -9t-4 -8t-5.5 -3t-9.5 -4.5t-10 -4.5t-6 -3q-2 -2 -8 -11.5t-8 -11.5l-7 8q-2 -2 -7.5 -8t-7.5 -9q-1 -1 -4 -7l-4 -8q-1 -1 -4.5 -0.5
t-4.5 0.5t-12 -3t-24 -7t-24 -7t-12 -4l-28 14q0 1 3 3.5t5 3.5q1 1 6.5 2t12 2.5t12 2.5t7.5 1q1 0 5 2l9 4.5l10 5t7 4.5q2 1 7.5 4.5t12.5 7t12.5 7t7.5 4.5t7.5 4t7.5 4zM44 413q-6 0 -6 -8t6 -8q5 0 5 8t-5 8zM59 460q-6 0 -6 -8t6 -8q5 0 5 8t-5 8z" />
    <glyph glyph-name="ccedilla" unicode="&#xe7;" horiz-adv-x="327" 
d="M120 -197q1 0 6 0.5t11 1t11.5 1t7.5 0.5t7.5 3t7.5 5l11.5 11.5t11.5 10.5q2 2 12 4.5t12 3.5q2 2 11.5 12t11.5 12q2 0 8.5 3t6.5 5q1 1 3.5 5t5 9t4.5 9.5t3 6.5q-1 2 -3.5 5t-3.5 4h-3h-6q-2 0 -8.5 -1.5t-14 -3t-14.5 -3t-9 -1.5t-8 0.5t-8 -0.5t-5 -7t-3 -8
q-1 2 -3.5 5t-3.5 3q-1 1 -8.5 3.5t-7.5 3.5q-1 2 -2 8t-2 12.5t-2 12t-1 6.5q-1 2 -8 8t-8 8q0 2 3.5 8t3.5 8v9q0 4 0.5 7.5t0.5 6.5t-0.5 12.5t-0.5 11.5q-2 1 -7.5 4t-7.5 4q-3 0 -15 1t-16 1v14q-2 0 -8 -1t-8 0t-8 3.5t-7 4.5q-2 2 -8 11.5t-7 11.5l-7.5 7.5l-12 12
l-12 12t-8.5 7.5l8 7l-8 9q-1 6 -1 10v14q0 7 0.5 21.5t0.5 16.5t1.5 8.5t2.5 14t2.5 14.5t1.5 10q1 1 4.5 7t3.5 8v6v10v9.5v5.5q1 2 7.5 4t8.5 4t7.5 11.5t7.5 11.5l8 8q0 1 2.5 4.5t5 7.5t5 7.5t2.5 4.5q2 1 8 7l8 8q0 1 3 7.5t5 7.5q2 2 11.5 0.5t11.5 -0.5q1 1 5.5 3.5
t10 5t10 5t5.5 2.5q3 2 12 4.5t11 3.5h5h3q2 -1 8 -3.5t8 -4.5q2 -1 5 -4t3 -4v-23v-24q-2 1 -5 4t-3 5q-2 2 -8 12t-8 11h-3q-2 0 -2.5 0.5t-1.5 0.5q-2 0 -4.5 -0.5t-3.5 -0.5q-3 -1 -8.5 -3t-11.5 -4.5t-11.5 -4.5t-7.5 -3t-8.5 -8t-7.5 -9h-7q-2 -2 -6.5 -8.5t-9.5 -14
t-9.5 -14t-6.5 -9.5q0 -1 -4 -4t-4 -4q-1 -2 -2 -11.5t-1 -11.5h-19l7 -8q-2 0 -4.5 -2.5t-2.5 -4.5t3 -8.5t4 -8.5v-3v-4q-2 -2 -8.5 -11.5t-6.5 -11.5q0 -1 1 -4.5t2.5 -7.5t3 -7.5t1.5 -4.5l-4 -4l-4 -4q0 -1 1 -5.5t2.5 -9.5t3 -9.5t1.5 -5.5q0 -2 -3 -5t-5 -3
q2 0 7.5 -3t7.5 -6q2 -2 7.5 -15t7.5 -15t12 -5t12 -3q1 -1 7.5 -4.5t8.5 -3.5q1 0 14 -0.5t19 -0.5q8 0 21.5 0.5t14.5 0.5q4 0 16 3t16 5q1 0 5 2l9 4.5l10 5l7 3.5l4 4t3 4q5 2 16.5 8t15.5 7h4h3q2 0 5 -2.5t3 -4.5q0 -3 1 -6q0 -2 0.5 -4.5t0.5 -4.5q0 -1 -0.5 -2
t-0.5 -3q-1 -2 -1 -3l-109 -55q-1 -1 -4 -7l-4 -8v-7.5v-12.5v-12.5v-6.5q0 -2 -2.5 -8t-4.5 -8q-1 -2 -4 -4.5t-4 -3.5q1 0 4 -3t4 -5t-0.5 -9t-1.5 -9q4 0 15.5 0.5t24.5 1.5t24 1h15q5 -1 17 -4t15 -4q1 -1 3.5 -7t3.5 -8q0 -1 0.5 -6t0.5 -7t-0.5 -6t-0.5 -5
q-1 -2 -7 -11l-8 -12l-4.5 -4.5l-7.5 -7.5l-7.5 -7.5l-4.5 -4.5q0 -1 -2.5 -7.5t-4.5 -7.5q0 -1 -3.5 -0.5t-4.5 0.5l-8 -8q-2 -1 -7 -4.5t-11 -7l-12 -7t-9 -5.5q-5 -2 -17 -8l-14 -7t-8 0t-8 0t-4.5 -7t-2.5 -8q-3 1 -9 7t-7 8t-2.5 10t-1.5 11zM55 296q-6 0 -6 -8t6 -8
q5 0 5 8t-5 8zM109 359q-6 0 -6 -8.5t6 -8.5t6 8.5t-6 8.5z" />
    <glyph glyph-name="Lslash" unicode="&#x141;" horiz-adv-x="295" 
d="M150 14q-2 -1 -8 -3.5t-8 -3.5t-4 -1q-2 -1 -4 -1h-3q-2 0 -6.5 1t-5.5 1q-5 1 -20 3.5t-19 3.5l-8 4t-7 4q-2 2 -8 14t-8 17q-1 2 -0.5 8.5t0.5 7.5t-3.5 3.5t-4.5 3.5q-2 4 -5 13t-3 11l4 4l4 4q0 1 -4 7.5t-4 7.5t4 4t4 4t-1.5 5.5t-3 10t-2.5 10t-1 5.5q0 2 4 11.5
t4 11.5t0.5 17t0.5 23q0 5 -0.5 19.5t-0.5 19.5q-1 -2 -7 -8.5t-9 -8.5q-1 0 -5 -1t-5 -1q0 3 1 13.5t2 12.5q1 3 4 11t6.5 17t7 16.5t5.5 10.5v241q0 2 6 4t10 3q1 0 3 1q2 0 3 0.5t2 0.5t1.5 -0.5t2.5 -0.5q1 -1 3 -1t8 -2.5t8 -4.5l-16 -15q-2 -38 -3 -73
q-2 -30 -2.5 -62t-1.5 -53v-8h15l39 40l8 -8q0 2 2.5 11.5t4.5 11.5t11 8t13 8q2 0 8 1t8 1v-33h-16q-2 -3 -6.5 -8.5t-9.5 -12t-9.5 -12t-5.5 -7.5l-15 -15q-2 -1 -5 -1t-3 1q-1 -2 -3 -6.5t-4.5 -9.5t-5 -9.5t-3.5 -5.5q0 -2 -7.5 -4t-8.5 -4q-2 -2 -4.5 -11.5t-2.5 -11.5
v-156q1 -2 3.5 -7.5t3.5 -7.5q0 -2 2.5 -10t5 -17.5t5 -17.5t3.5 -10t3.5 -4.5t3.5 -2.5q5 -4 17.5 -9.5t14.5 -7.5h11h12q2 0 8 4t8 4q3 0 11 0.5t16.5 0.5t16.5 -0.5t11 -0.5q0 2 2.5 5t4.5 4q5 2 16.5 7.5t14.5 7.5q2 1 10 1.5t10 0.5q0 -3 -1.5 -16t-2.5 -18
q-1 -2 -7 -8t-9 -7q-2 -1 -9.5 -3t-16 -4.5t-17 -4.5t-12.5 -3q-3 -1 -5 -1h-6q-2 0 -6.5 0.5t-5.5 0.5t-3.5 4t-3.5 4q-2 1 -8 1.5t-8 0.5v5zM189 22q-6 0 -6 -7.5t6 -7.5q5 0 5 7.5t-5 7.5z" />
    <glyph glyph-name="lslash" unicode="&#x142;" horiz-adv-x="218" 
d="M65 282v36l-27 -32q-1 -3 -3.5 -6t-3.5 -3q-2 0 -12.5 -1t-13.5 -1q0 2 1 8t2.5 12.5t3.5 12.5t3 8q1 1 6.5 7t12.5 12.5t13 12t8 7.5q0 1 3.5 6t6.5 10v228q-2 2 -5 8l-4 8t-1 6v5q2 0 8 -1.5t8 -1.5q2 -1 4.5 -3.5t2.5 -4.5q1 -3 2.5 -12t3 -19t2.5 -19t1 -12
q0 -7 0.5 -22t1 -35.5t1 -45t0.5 -50.5q3 1 3 2q2 2 4.5 9t3.5 12q1 -17 4.5 -8t7.5 22.5t8.5 19.5t7.5 -17l57 55v16h20q0 -4 -1.5 -16t-2.5 -15q0 -2 -6 -14t-10 -17l-7 -9l-8 -15q-2 -2 -8.5 -8t-14 -12t-14.5 -11.5t-10 -7.5v-8q0 -5 -6 -7.5t-12.5 -5.5t-11 -6.5
t-1.5 -10.5l-1 -1q1 -45 1.5 -80.5t1.5 -46.5q1 -1 3.5 -4t3.5 -5l8 -30v-8q-1 -4 -7 -16t-8 -15h15q1 0 4 -12t4 -19v-9l-8 -22l-8 -8q3 -2 9 -7.5t7 -7.5v-2v-2q0 -1 1 -1q0 -1 -0.5 -2t-0.5 -2q-2 -2 -6 -5.5t-9 -7t-9.5 -6.5t-6.5 -4t-8.5 -2.5t-8.5 -1.5v222z" />
    <glyph glyph-name="bar" unicode="|" horiz-adv-x="142" 
d="M58 352q-1 5 -2 18.5t-2.5 28.5t-3 28.5t-1.5 18.5v38q0 4 -1.5 20t-3 34.5t-2.5 34.5t-1 20q0 5 0.5 23t0.5 39v39.5t-1 23.5q0 1 -1 6l-2 10t-2.5 9.5t-1.5 5.5q0 2 0.5 12t-0.5 12q-2 1 -4 3l-4 4q0 2 -0.5 6t-0.5 6v7q0 2 1 4t4 5t4 3l-8 9h8h7q3 -1 9 -4t8 -5v-8
q0 -1 3.5 -7.5t3.5 -7.5q0 -2 1.5 -11.5t1.5 -11.5h-8q0 -2 -1.5 -8t-0.5 -8q1 -4 7 -15.5t8 -15.5q-2 -1 -5 -3.5t-3 -3.5v-4v-5q0 -3 1 -15.5t2.5 -26.5t3 -27t1.5 -16v-5.5v-10v-10.5v-6q0 -2 3.5 -11.5t4.5 -11.5v-10v-14q0 -2 -1.5 -8.5t-3 -14t-2.5 -14.5t-1 -8
q0 -2 1 -6.5t2.5 -10t3 -10t1.5 -5.5q1 -5 2 -13t2 -17t2 -16t1 -8v-7t0.5 -13.5t0.5 -15v-11.5v-12.5t-0.5 -15t-0.5 -13v-6.5q0 -2 -1 -9t-2.5 -14.5t-2.5 -14.5t-1 -9q0 -3 2.5 -15t4.5 -16v-272q-2 -3 -4.5 -15t-2.5 -17t-1 -20t-1.5 -31.5t-1 -31t-0.5 -20.5q-2 0 -6 1
t-6 1q-2 1 -4.5 4t-2.5 5v513v0z" />
    <glyph glyph-name="brokenbar" unicode="&#xa6;" horiz-adv-x="145" 
d="M60 -96v77q0 3 1 11t2 17t2.5 16.5t3.5 10.5l-9 8q1 3 2.5 12t3 19t2.5 19t1 12v133l15 15q1 -3 3.5 -12t4.5 -11q1 -2 3.5 -8t3.5 -8v-194q-2 -5 -4.5 -17t-2.5 -15q-1 -9 -1.5 -30t-0.5 -44.5t0.5 -44.5t1.5 -29q1 -2 -2.5 -11.5t-5.5 -11.5q-2 -1 -3 -1h-5h-4
q-2 0 -3 1q-2 1 -5 4l-4 4v78zM56 337v29.5t-0.5 45.5t-0.5 45.5v30.5v40t0.5 49t0.5 42.5v20.5q0 3 1 14.5t2.5 24.5t2.5 24.5t1 14.5t0.5 13t1 20.5t0.5 20.5v13q2 0 7 -1.5t8 -3.5q5 -3 13.5 -12t8.5 -12v-178q-1 -1 -3.5 -4t-3.5 -4q-1 -2 -1 -3v-3v-6q0 -2 1 -3
q1 -2 3.5 -12t3.5 -12v-3v-5l-7 -7v-78q-2 0 -5 -3t-3 -6q0 -2 4 -11t4 -11t0.5 -12.5t0.5 -15.5q0 -3 -0.5 -13.5t-0.5 -13.5q-2 -1 -5 -3.5t-3 -4.5q-1 -2 -1.5 -9t-0.5 -9q-3 0 -10.5 1t-11.5 2q-1 0 -3.5 3t-3.5 5z" />
    <glyph glyph-name="bullet" unicode="&#x2022;" horiz-adv-x="179" 
d="M46 277q0 3 -3 12.5t-5 11.5q-1 2 -7 4.5t-8 2.5q0 3 -0.5 12t-0.5 11q0 5 0.5 14t0.5 10t4 4t4 4q1 2 -0.5 11.5t0.5 11.5q1 2 7.5 8t7.5 8q1 1 4 7.5t5 7.5q1 2 7 0.5t8 -0.5q2 2 11 7.5t12 8.5q1 -1 3.5 -4t3.5 -4q1 0 4.5 0.5t4.5 -0.5q4 -2 13 -11.5t10 -11.5t3 -12
t2 -12h-20q1 -2 3.5 -7.5t3.5 -7.5q0 -1 -0.5 -4t0.5 -4q2 -2 7.5 -4.5t8.5 -2.5v-47l-8 -4l-8 -4l-8 -8t-7 -8h-9q-2 0 -7.5 -3t-7.5 -5h8q0 2 -3 5t-5 3q-4 1 -19 1t-20 -1zM77 324q-5 0 -5 -8t5 -8q6 0 6 8t-6 8zM31 331q-6 0 -6 -7.5t6 -7.5q5 0 5 7.5t-5 7.5zM70 386
q-6 0 -6 -7.5t6 -7.5q5 0 5 7.5t-5 7.5zM109 395q-7 0 -7 -8.5t7 -8.5q6 0 6 8.5t-6 8.5zM85 402q-6 0 -6 -8t6 -8t6 8t-6 8z" />
    <glyph glyph-name="cedilla" unicode="&#xb8;" horiz-adv-x="250" 
d="M58 45q2 0 7 -0.5t6 -0.5q2 -1 4.5 -4t2.5 -4v-101q7 2 18 4.5t13 2.5t8 -3.5t8 -3.5t11.5 3.5t11.5 3.5q1 0 8.5 0.5t11.5 0.5q3 0 10.5 -0.5t8.5 -0.5q4 0 12.5 -2.5t10.5 -4.5q5 -3 14 -12t10 -11v-47l-4 -4q-2 -2 -3 -4q-1 -1 -3 -6t-5 -10t-5.5 -9.5t-3.5 -5.5
q-2 -3 -9 -9.5t-15.5 -14t-17 -14t-12.5 -9.5q-1 -2 -7 -5t-13.5 -7t-15 -7t-11.5 -4l-46 -15h-8q-5 1 -13.5 3.5t-9.5 3.5q-1 0 -1 3v5v3.5t1 3.5l46 8l40 15q2 1 9 6.5t15.5 11.5t17 12.5t12.5 9.5l15 15q1 2 4.5 8t7.5 13.5t7 15t4 10.5v2q0 1 0.5 1t0.5 1l-1 2v1
q-2 4 -7.5 10t-7.5 7h-32q-1 0 -5 -3t-9.5 -6t-10 -5.5t-5.5 -2.5q-2 0 -8.5 -0.5t-14.5 -1t-15 -0.5h-10l-7 21v-19q-3 0 -12 3.5t-11 5.5q-1 1 -2.5 5t-2.5 9.5t-2 10t-1 6.5t-3.5 11.5t-4.5 12.5q0 1 -1 8t-2.5 15.5t-2.5 17t-1 13.5v8z" />
    <glyph glyph-name="asciitilde" unicode="~" horiz-adv-x="448" 
d="M207 246q-3 0 -12.5 3t-11.5 5q-1 1 -0.5 4t0.5 4q-1 2 -7.5 11.5t-7.5 12.5q-1 1 0 7t0 8q0 1 -4 3.5t-4 3.5q-2 2 -4.5 8t-2.5 8v7q-4 5 -13 13.5t-11 10.5q-1 1 -5.5 1h-6.5h-7t-4 -1q-1 -1 -7 -13t-10 -18q-3 -6 -7.5 -17.5t-9.5 -22.5t-9 -20t-4 -10q-1 -2 -2 -7.5
t-1 -7.5h-17v-32h-12q0 3 -1 8.5t-2 11.5t-2 11.5t-2 7.5q-1 1 -4 8t-4 8q-1 0 -1 4v3h16q1 3 3 8.5t4.5 11.5t5 11.5t4.5 7.5q0 2 7 8t8 8v5.5v10v10v5.5q1 1 7.5 4t7.5 4q2 2 5 7.5t3 7.5h54q2 -2 8 -7.5t9 -7.5q1 -1 7 -4l8 -4q1 -1 4.5 -5.5t7.5 -10t7 -10t4 -5.5
q1 0 4 -3.5t3 -4.5v-8q1 -1 4 -7t5 -8q1 -2 7 -12t8 -12q1 -1 4 -7.5t4 -7.5q2 -3 8 -9t7 -6t8 -1t12 -1q3 0 10.5 1t8.5 1t4.5 2t7.5 5t7 5.5t4 2.5q2 1 8.5 0t8.5 0t7.5 11t7.5 12q1 1 4 0.5t4 -0.5q2 2 4 8t3 8h8q1 4 4 15.5t5 15.5q1 3 7 15l8 16q1 2 3.5 5t3.5 3
q2 0 4.5 0.5t4.5 0.5q0 -1 1 -1h3h3q2 -1 4.5 -7t2.5 -8q0 -1 0.5 -6t0.5 -7t-0.5 -6t-0.5 -5q0 -2 -3.5 -9t-7.5 -14.5t-7.5 -14.5l-4.5 -9t-2 -5.5t-1 -5.5q-2 0 -6 -1t-6 -3q-2 -1 -4.5 -7t-2.5 -9l-9 8q0 -2 -3 -7.5t-5 -7.5q-3 -4 -9 -10.5l-12 -13t-11 -11t-6 -5.5
q-1 0 -11.5 -0.5t-15.5 -0.5q-7 0 -20.5 0.5t-15.5 0.5q-1 0 -7 3t-8 5q-1 1 -4 4.5t-4 3.5q-1 1 -7.5 0.5t-7.5 -0.5q-6 4 -12.5 13t-4.5 11zM354 277q-5 0 -5 -7.5t5 -7.5q6 0 6 7.5t-6 7.5z" />
    <glyph glyph-name="grave" unicode="`" horiz-adv-x="226" 
d="M155 729q-3 2 -9.5 7.5t-13.5 11.5t-13.5 11.5t-9.5 7.5l-9 9l-15 15t-15 14.5t-8 8.5q-2 1 -8 4.5t-8 3.5q-5 4 -14 13t-9 11t6 10.5t9 12.5h2q1 0 1.5 0.5t1.5 0.5l2 -1h1q2 -1 8 -7.5t8 -8.5q1 -1 7 -4t12.5 -7t12 -7t6.5 -4q3 -2 9 -12t8 -12q1 -1 7.5 -4t7.5 -4
q1 -2 5.5 -6t9.5 -9t9.5 -10t6.5 -7t8 -11.5t8 -11.5l7 -7q5 -6 13.5 -18t9.5 -14l2 -4l2 -4h-10t-9 1q-1 0 -7 2.5t-8 4.5q-5 4 -14 9.5t-10 7.5v7v0z" />
    <glyph glyph-name="acute" unicode="&#xb4;" horiz-adv-x="257" 
d="M39 737q2 1 7.5 4t11.5 6.5t11.5 7t7.5 5.5q2 1 9 8t15 15.5t14.5 15l8.5 8.5t12 4t12 3q3 4 8.5 15.5t6.5 16.5q5 -3 8 0q1 1 5.5 4.5t9.5 7.5t10 7.5t7 3.5q2 2 11.5 3.5t12.5 1.5q0 -1 -0.5 -6.5t-0.5 -6.5q-1 -2 -4 -7.5t-4 -7.5l-8 -8q-1 -2 -5.5 -7.5t-10 -12.5
t-10 -12.5t-5.5 -6.5t-7.5 -4t-8.5 -4l-15 -15q-1 -1 -5.5 -4.5t-10 -7.5t-10 -7.5t-5.5 -4.5l-4.5 -4.5t-7.5 -7t-7 -7t-4 -4.5q-2 -1 -8.5 -4t-8.5 -3q-1 -2 -3.5 -4.5t-3.5 -4.5t-4 -7.5t-4 -7.5q-4 1 -19 1t-20 -1q-2 -1 -7.5 -3.5t-7.5 -4.5q-1 1 -1 4v4v4.5t1 2.5
q1 1 5.5 3t9.5 4.5l10 5t6 4.5q2 2 2 7.5t-2 7.5z" />
    </font>
</defs>
</svg>
